G75*
G70*
%OFA0B0*%
%FSLAX24Y24*%
%IPPOS*%
%LPD*%
%AMOC8*
5,1,8,0,0,1.08239X$1,22.5*
%
%ADD10C,0.0000*%
%ADD11C,0.1339*%
%ADD12OC8,0.0556*%
%ADD13C,0.0636*%
%ADD14C,0.0756*%
%ADD15OC8,0.0779*%
%ADD16C,0.0596*%
%ADD17OC8,0.0709*%
%ADD18OC8,0.0579*%
%ADD19C,0.0736*%
%ADD20C,0.0472*%
%ADD21C,0.0556*%
%ADD22OC8,0.0636*%
%ADD23C,0.0472*%
D10*
X000101Y000101D02*
X000101Y035534D01*
X052857Y035534D01*
X052857Y000101D01*
X000101Y000101D01*
X001471Y016282D02*
X001473Y016332D01*
X001479Y016382D01*
X001489Y016431D01*
X001503Y016479D01*
X001520Y016526D01*
X001541Y016571D01*
X001566Y016615D01*
X001594Y016656D01*
X001626Y016695D01*
X001660Y016732D01*
X001697Y016766D01*
X001737Y016796D01*
X001779Y016823D01*
X001823Y016847D01*
X001869Y016868D01*
X001916Y016884D01*
X001964Y016897D01*
X002014Y016906D01*
X002063Y016911D01*
X002114Y016912D01*
X002164Y016909D01*
X002213Y016902D01*
X002262Y016891D01*
X002310Y016876D01*
X002356Y016858D01*
X002401Y016836D01*
X002444Y016810D01*
X002485Y016781D01*
X002524Y016749D01*
X002560Y016714D01*
X002592Y016676D01*
X002622Y016636D01*
X002649Y016593D01*
X002672Y016549D01*
X002691Y016503D01*
X002707Y016455D01*
X002719Y016406D01*
X002727Y016357D01*
X002731Y016307D01*
X002731Y016257D01*
X002727Y016207D01*
X002719Y016158D01*
X002707Y016109D01*
X002691Y016061D01*
X002672Y016015D01*
X002649Y015971D01*
X002622Y015928D01*
X002592Y015888D01*
X002560Y015850D01*
X002524Y015815D01*
X002485Y015783D01*
X002444Y015754D01*
X002401Y015728D01*
X002356Y015706D01*
X002310Y015688D01*
X002262Y015673D01*
X002213Y015662D01*
X002164Y015655D01*
X002114Y015652D01*
X002063Y015653D01*
X002014Y015658D01*
X001964Y015667D01*
X001916Y015680D01*
X001869Y015696D01*
X001823Y015717D01*
X001779Y015741D01*
X001737Y015768D01*
X001697Y015798D01*
X001660Y015832D01*
X001626Y015869D01*
X001594Y015908D01*
X001566Y015949D01*
X001541Y015993D01*
X001520Y016038D01*
X001503Y016085D01*
X001489Y016133D01*
X001479Y016182D01*
X001473Y016232D01*
X001471Y016282D01*
X030101Y031813D02*
X030103Y031863D01*
X030109Y031913D01*
X030119Y031962D01*
X030133Y032010D01*
X030150Y032057D01*
X030171Y032102D01*
X030196Y032146D01*
X030224Y032187D01*
X030256Y032226D01*
X030290Y032263D01*
X030327Y032297D01*
X030367Y032327D01*
X030409Y032354D01*
X030453Y032378D01*
X030499Y032399D01*
X030546Y032415D01*
X030594Y032428D01*
X030644Y032437D01*
X030693Y032442D01*
X030744Y032443D01*
X030794Y032440D01*
X030843Y032433D01*
X030892Y032422D01*
X030940Y032407D01*
X030986Y032389D01*
X031031Y032367D01*
X031074Y032341D01*
X031115Y032312D01*
X031154Y032280D01*
X031190Y032245D01*
X031222Y032207D01*
X031252Y032167D01*
X031279Y032124D01*
X031302Y032080D01*
X031321Y032034D01*
X031337Y031986D01*
X031349Y031937D01*
X031357Y031888D01*
X031361Y031838D01*
X031361Y031788D01*
X031357Y031738D01*
X031349Y031689D01*
X031337Y031640D01*
X031321Y031592D01*
X031302Y031546D01*
X031279Y031502D01*
X031252Y031459D01*
X031222Y031419D01*
X031190Y031381D01*
X031154Y031346D01*
X031115Y031314D01*
X031074Y031285D01*
X031031Y031259D01*
X030986Y031237D01*
X030940Y031219D01*
X030892Y031204D01*
X030843Y031193D01*
X030794Y031186D01*
X030744Y031183D01*
X030693Y031184D01*
X030644Y031189D01*
X030594Y031198D01*
X030546Y031211D01*
X030499Y031227D01*
X030453Y031248D01*
X030409Y031272D01*
X030367Y031299D01*
X030327Y031329D01*
X030290Y031363D01*
X030256Y031400D01*
X030224Y031439D01*
X030196Y031480D01*
X030171Y031524D01*
X030150Y031569D01*
X030133Y031616D01*
X030119Y031664D01*
X030109Y031713D01*
X030103Y031763D01*
X030101Y031813D01*
X050258Y016243D02*
X050260Y016293D01*
X050266Y016343D01*
X050276Y016392D01*
X050290Y016440D01*
X050307Y016487D01*
X050328Y016532D01*
X050353Y016576D01*
X050381Y016617D01*
X050413Y016656D01*
X050447Y016693D01*
X050484Y016727D01*
X050524Y016757D01*
X050566Y016784D01*
X050610Y016808D01*
X050656Y016829D01*
X050703Y016845D01*
X050751Y016858D01*
X050801Y016867D01*
X050850Y016872D01*
X050901Y016873D01*
X050951Y016870D01*
X051000Y016863D01*
X051049Y016852D01*
X051097Y016837D01*
X051143Y016819D01*
X051188Y016797D01*
X051231Y016771D01*
X051272Y016742D01*
X051311Y016710D01*
X051347Y016675D01*
X051379Y016637D01*
X051409Y016597D01*
X051436Y016554D01*
X051459Y016510D01*
X051478Y016464D01*
X051494Y016416D01*
X051506Y016367D01*
X051514Y016318D01*
X051518Y016268D01*
X051518Y016218D01*
X051514Y016168D01*
X051506Y016119D01*
X051494Y016070D01*
X051478Y016022D01*
X051459Y015976D01*
X051436Y015932D01*
X051409Y015889D01*
X051379Y015849D01*
X051347Y015811D01*
X051311Y015776D01*
X051272Y015744D01*
X051231Y015715D01*
X051188Y015689D01*
X051143Y015667D01*
X051097Y015649D01*
X051049Y015634D01*
X051000Y015623D01*
X050951Y015616D01*
X050901Y015613D01*
X050850Y015614D01*
X050801Y015619D01*
X050751Y015628D01*
X050703Y015641D01*
X050656Y015657D01*
X050610Y015678D01*
X050566Y015702D01*
X050524Y015729D01*
X050484Y015759D01*
X050447Y015793D01*
X050413Y015830D01*
X050381Y015869D01*
X050353Y015910D01*
X050328Y015954D01*
X050307Y015999D01*
X050290Y016046D01*
X050276Y016094D01*
X050266Y016143D01*
X050260Y016193D01*
X050258Y016243D01*
D11*
X050888Y016243D03*
X030731Y031813D03*
X002101Y016282D03*
D12*
X002601Y017813D03*
X003101Y018563D03*
X003601Y017813D03*
X007601Y014313D03*
X008601Y014313D03*
X009601Y014313D03*
X011601Y011813D03*
X011601Y010813D03*
X009601Y011313D03*
X008601Y011313D03*
X007601Y011313D03*
X005601Y010813D03*
X005601Y011813D03*
X013601Y011313D03*
X014601Y011313D03*
X015601Y011313D03*
X017601Y010813D03*
X017601Y011813D03*
X019601Y011313D03*
X020601Y011313D03*
X021601Y011313D03*
X023601Y010813D03*
X023601Y011813D03*
X025601Y011313D03*
X026601Y011313D03*
X027601Y011313D03*
X029601Y010813D03*
X029601Y011813D03*
X031601Y011313D03*
X032601Y011313D03*
X033601Y011313D03*
X035601Y010813D03*
X035601Y011813D03*
X037601Y011313D03*
X038601Y011313D03*
X039601Y011313D03*
X041601Y010813D03*
X041601Y011813D03*
X043601Y011313D03*
X044601Y011313D03*
X045601Y011313D03*
X047601Y010813D03*
X047601Y011813D03*
X049601Y011313D03*
X050601Y011313D03*
X051601Y011313D03*
X051601Y014313D03*
X050601Y014313D03*
X049601Y014313D03*
X045601Y014313D03*
X044601Y014313D03*
X043601Y014313D03*
X039601Y014313D03*
X038601Y014313D03*
X037601Y014313D03*
X039601Y017063D03*
X040101Y017813D03*
X039101Y017813D03*
X033601Y014313D03*
X032601Y014313D03*
X031601Y014313D03*
X027601Y014313D03*
X026601Y014313D03*
X025601Y014313D03*
X021601Y014313D03*
X020601Y014313D03*
X019601Y014313D03*
X015601Y014313D03*
X014601Y014313D03*
X013601Y014313D03*
X012101Y017563D03*
X012601Y018313D03*
X011601Y018313D03*
X024101Y018813D03*
X024601Y019563D03*
X025101Y018813D03*
X036601Y025813D03*
X037601Y025813D03*
X013101Y030813D03*
X012101Y030813D03*
D13*
X010380Y031313D02*
X009822Y031313D01*
X009822Y032313D02*
X010380Y032313D01*
X010380Y033313D02*
X009822Y033313D01*
X017322Y027813D02*
X017880Y027813D01*
X017880Y026813D02*
X017322Y026813D01*
X017322Y025813D02*
X017880Y025813D01*
X017880Y024813D02*
X017322Y024813D01*
X017322Y023813D02*
X017880Y023813D01*
X017880Y022813D02*
X017322Y022813D01*
X017322Y021813D02*
X017880Y021813D01*
X017880Y020813D02*
X017322Y020813D01*
X017322Y019813D02*
X017880Y019813D01*
X017880Y018813D02*
X017322Y018813D01*
X024322Y020813D02*
X024880Y020813D01*
X024880Y021813D02*
X024322Y021813D01*
X024322Y022813D02*
X024880Y022813D01*
X024880Y023813D02*
X024322Y023813D01*
X024322Y024813D02*
X024880Y024813D01*
X024880Y025813D02*
X024322Y025813D01*
X024322Y026813D02*
X024880Y026813D01*
X024880Y027813D02*
X024322Y027813D01*
X020380Y031313D02*
X019822Y031313D01*
X019822Y032313D02*
X020380Y032313D01*
X020380Y033313D02*
X019822Y033313D01*
X033711Y033372D02*
X033711Y032815D01*
X035491Y032815D02*
X035491Y033372D01*
X036711Y033372D02*
X036711Y032815D01*
X038491Y032815D02*
X038491Y033372D01*
X038491Y030812D02*
X038491Y030255D01*
X036711Y030255D02*
X036711Y030812D01*
X035491Y030812D02*
X035491Y030255D01*
X033711Y030255D02*
X033711Y030812D01*
X041822Y027313D02*
X042380Y027313D01*
X042380Y026313D02*
X041822Y026313D01*
X041822Y025313D02*
X042380Y025313D01*
X042380Y024313D02*
X041822Y024313D01*
X041822Y023313D02*
X042380Y023313D01*
X042380Y022313D02*
X041822Y022313D01*
X043822Y009313D02*
X044380Y009313D01*
X044380Y008313D02*
X043822Y008313D01*
X043822Y007313D02*
X044380Y007313D01*
X049822Y007313D02*
X050380Y007313D01*
X050380Y008313D02*
X049822Y008313D01*
X049822Y009313D02*
X050380Y009313D01*
X038380Y009313D02*
X037822Y009313D01*
X037822Y008313D02*
X038380Y008313D01*
X038380Y007313D02*
X037822Y007313D01*
X032380Y007313D02*
X031822Y007313D01*
X031822Y008313D02*
X032380Y008313D01*
X032380Y009313D02*
X031822Y009313D01*
X026380Y009313D02*
X025822Y009313D01*
X025822Y008313D02*
X026380Y008313D01*
X026380Y007313D02*
X025822Y007313D01*
X020380Y007313D02*
X019822Y007313D01*
X019822Y008313D02*
X020380Y008313D01*
X020380Y009313D02*
X019822Y009313D01*
X014380Y009313D02*
X013822Y009313D01*
X013822Y008313D02*
X014380Y008313D01*
X014380Y007313D02*
X013822Y007313D01*
X008380Y007313D02*
X007822Y007313D01*
X007822Y008313D02*
X008380Y008313D01*
X008380Y009313D02*
X007822Y009313D01*
D14*
X003085Y010102D02*
X002408Y010102D01*
X002408Y008132D02*
X003085Y008132D01*
X003085Y006162D02*
X002408Y006162D01*
X003899Y003184D02*
X003899Y002506D01*
X005869Y002506D02*
X005869Y003184D01*
X007839Y003184D02*
X007839Y002506D01*
X009899Y002506D02*
X009899Y003184D01*
X011869Y003184D02*
X011869Y002506D01*
X013839Y002506D02*
X013839Y003184D01*
X015899Y003184D02*
X015899Y002506D01*
X017869Y002506D02*
X017869Y003184D01*
X019839Y003184D02*
X019839Y002506D01*
X021899Y002506D02*
X021899Y003184D01*
X023869Y003184D02*
X023869Y002506D01*
X025839Y002506D02*
X025839Y003184D01*
X027899Y003184D02*
X027899Y002506D01*
X029869Y002506D02*
X029869Y003184D01*
X031839Y003184D02*
X031839Y002506D01*
X033899Y002506D02*
X033899Y003184D01*
X035869Y003184D02*
X035869Y002506D01*
X037839Y002506D02*
X037839Y003184D01*
X039899Y003184D02*
X039899Y002506D01*
X041869Y002506D02*
X041869Y003184D01*
X043839Y003184D02*
X043839Y002506D01*
X045899Y002506D02*
X045899Y003184D01*
X047869Y003184D02*
X047869Y002506D01*
X049839Y002506D02*
X049839Y003184D01*
D15*
X006601Y029313D03*
X005101Y029313D03*
X005101Y027313D03*
X005101Y025813D03*
X001101Y025813D03*
X001101Y027313D03*
X005101Y033313D03*
X006601Y033313D03*
D16*
X016101Y033572D02*
X016101Y033055D01*
X017101Y033055D02*
X017101Y033572D01*
X040842Y032313D02*
X041360Y032313D01*
X042842Y032313D02*
X043360Y032313D01*
X043360Y031313D02*
X042842Y031313D01*
X041360Y031313D02*
X040842Y031313D01*
X040842Y030313D02*
X041360Y030313D01*
X042842Y030313D02*
X043360Y030313D01*
D17*
X040851Y027813D03*
X038851Y027813D03*
X038851Y026313D03*
X038851Y023313D03*
X028601Y028813D03*
X028601Y030813D03*
X025601Y030813D03*
X025601Y028813D03*
X018101Y031313D03*
X018101Y033313D03*
X014601Y033813D03*
X014601Y030813D03*
X008601Y031313D03*
X008601Y033313D03*
X006101Y023813D03*
X004601Y023813D03*
X002101Y023813D03*
X002101Y020813D03*
X001601Y019813D03*
X004601Y019813D03*
X004601Y020813D03*
X006101Y020813D03*
X005601Y015813D03*
X005601Y012813D03*
X006101Y009813D03*
X005101Y009813D03*
X005101Y006813D03*
X006101Y006813D03*
X011101Y006813D03*
X012101Y006813D03*
X012101Y009813D03*
X011101Y009813D03*
X011601Y012813D03*
X011601Y015813D03*
X017601Y015813D03*
X017601Y012813D03*
X018101Y009813D03*
X017101Y009813D03*
X017101Y006813D03*
X018101Y006813D03*
X023101Y006813D03*
X024101Y006813D03*
X024101Y009813D03*
X023101Y009813D03*
X023601Y012813D03*
X023601Y015813D03*
X029601Y015813D03*
X029601Y012813D03*
X030101Y009813D03*
X029101Y009813D03*
X029101Y006813D03*
X030101Y006813D03*
X035101Y006813D03*
X036101Y006813D03*
X036101Y009813D03*
X035101Y009813D03*
X035601Y012813D03*
X035601Y015813D03*
X041601Y015813D03*
X041601Y012813D03*
X042101Y009813D03*
X041101Y009813D03*
X041101Y006813D03*
X042101Y006813D03*
X047101Y006813D03*
X048101Y006813D03*
X048101Y009813D03*
X047101Y009813D03*
X047601Y012813D03*
X047601Y015813D03*
D18*
X022601Y032313D03*
X022601Y033313D03*
X012601Y033313D03*
X012601Y032313D03*
D19*
X003430Y032002D02*
X002772Y032002D01*
X002772Y030624D02*
X003430Y030624D01*
D20*
X044003Y027313D02*
X044199Y027313D01*
X044199Y026813D02*
X044003Y026813D01*
X044003Y026313D02*
X044199Y026313D01*
X044199Y025813D02*
X044003Y025813D01*
X044003Y025313D02*
X044199Y025313D01*
X044199Y024813D02*
X044003Y024813D01*
X044003Y024313D02*
X044199Y024313D01*
X044199Y023813D02*
X044003Y023813D01*
X044003Y023313D02*
X044199Y023313D01*
X044199Y022813D02*
X044003Y022813D01*
X044003Y022313D02*
X044199Y022313D01*
X045101Y021325D02*
X045101Y021129D01*
X045601Y021129D02*
X045601Y021325D01*
X046101Y021325D02*
X046101Y021129D01*
X046601Y021129D02*
X046601Y021325D01*
X047101Y021325D02*
X047101Y021129D01*
X047601Y021129D02*
X047601Y021325D01*
X048101Y021325D02*
X048101Y021129D01*
X048601Y021129D02*
X048601Y021325D01*
X049101Y021325D02*
X049101Y021129D01*
X049601Y021129D02*
X049601Y021325D01*
X050101Y021325D02*
X050101Y021129D01*
X050601Y021129D02*
X050601Y021325D01*
X051101Y021325D02*
X051101Y021129D01*
X051601Y021129D02*
X051601Y021325D01*
X052101Y021325D02*
X052101Y021129D01*
X052101Y028215D02*
X052101Y028411D01*
X051601Y028411D02*
X051601Y028215D01*
X051101Y028215D02*
X051101Y028411D01*
X050601Y028411D02*
X050601Y028215D01*
X050101Y028215D02*
X050101Y028411D01*
X049601Y028411D02*
X049601Y028215D01*
X049101Y028215D02*
X049101Y028411D01*
X048601Y028411D02*
X048601Y028215D01*
X048101Y028215D02*
X048101Y028411D01*
X047601Y028411D02*
X047601Y028215D01*
X047101Y028215D02*
X047101Y028411D01*
X046601Y028411D02*
X046601Y028215D01*
X046101Y028215D02*
X046101Y028411D01*
X045601Y028411D02*
X045601Y028215D01*
X045101Y028215D02*
X045101Y028411D01*
D21*
X045101Y030075D02*
X045101Y030552D01*
X046101Y030552D02*
X046101Y030075D01*
X047101Y030075D02*
X047101Y030552D01*
X048101Y030552D02*
X048101Y030075D01*
X048101Y033075D02*
X048101Y033552D01*
X047101Y033552D02*
X047101Y033075D01*
X046101Y033075D02*
X046101Y033552D01*
X045101Y033552D02*
X045101Y033075D01*
X034601Y023052D02*
X034601Y022575D01*
X033601Y022575D02*
X033601Y023052D01*
X032601Y023052D02*
X032601Y022575D01*
X031601Y022575D02*
X031601Y023052D01*
X030601Y023052D02*
X030601Y022575D01*
X029601Y022575D02*
X029601Y023052D01*
X028601Y023052D02*
X028601Y022575D01*
X027601Y022575D02*
X027601Y023052D01*
X026601Y023052D02*
X026601Y022575D01*
X023340Y022813D02*
X022862Y022813D01*
X022862Y023813D02*
X023340Y023813D01*
X023340Y024813D02*
X022862Y024813D01*
X022862Y025813D02*
X023340Y025813D01*
X023340Y026813D02*
X022862Y026813D01*
X022862Y027813D02*
X023340Y027813D01*
X023340Y028813D02*
X022862Y028813D01*
X020340Y028813D02*
X019862Y028813D01*
X019862Y027813D02*
X020340Y027813D01*
X020340Y026813D02*
X019862Y026813D01*
X019862Y025813D02*
X020340Y025813D01*
X020340Y024813D02*
X019862Y024813D01*
X019862Y023813D02*
X020340Y023813D01*
X020340Y022813D02*
X019862Y022813D01*
X019862Y021813D02*
X020340Y021813D01*
X020340Y020813D02*
X019862Y020813D01*
X019862Y019813D02*
X020340Y019813D01*
X022862Y019813D02*
X023340Y019813D01*
X023340Y020813D02*
X022862Y020813D01*
X022862Y021813D02*
X023340Y021813D01*
X026601Y020052D02*
X026601Y019575D01*
X027601Y019575D02*
X027601Y020052D01*
X028601Y020052D02*
X028601Y019575D01*
X029601Y019575D02*
X029601Y020052D01*
X030601Y020052D02*
X030601Y019575D01*
X031601Y019575D02*
X031601Y020052D01*
X032601Y020052D02*
X032601Y019575D01*
X033601Y019575D02*
X033601Y020052D01*
X034601Y020052D02*
X034601Y019575D01*
X016340Y019813D02*
X015862Y019813D01*
X015862Y020813D02*
X016340Y020813D01*
X016340Y021813D02*
X015862Y021813D01*
X015862Y022813D02*
X016340Y022813D01*
X016340Y023813D02*
X015862Y023813D01*
X015862Y024813D02*
X016340Y024813D01*
X016340Y025813D02*
X015862Y025813D01*
X015862Y026813D02*
X016340Y026813D01*
X016340Y027813D02*
X015862Y027813D01*
X013340Y027813D02*
X012862Y027813D01*
X012862Y026813D02*
X013340Y026813D01*
X013340Y025813D02*
X012862Y025813D01*
X012862Y024813D02*
X013340Y024813D01*
X013340Y023813D02*
X012862Y023813D01*
X012862Y022813D02*
X013340Y022813D01*
X013340Y021813D02*
X012862Y021813D01*
X012862Y020813D02*
X013340Y020813D01*
X013340Y019813D02*
X012862Y019813D01*
X011340Y019813D02*
X010862Y019813D01*
X010862Y020813D02*
X011340Y020813D01*
X011340Y021813D02*
X010862Y021813D01*
X010862Y022813D02*
X011340Y022813D01*
X011340Y023813D02*
X010862Y023813D01*
X010862Y024813D02*
X011340Y024813D01*
X011340Y025813D02*
X010862Y025813D01*
X010862Y026813D02*
X011340Y026813D01*
X011340Y027813D02*
X010862Y027813D01*
X010862Y028813D02*
X011340Y028813D01*
X008340Y028813D02*
X007862Y028813D01*
X007862Y027813D02*
X008340Y027813D01*
X008340Y026813D02*
X007862Y026813D01*
X007862Y025813D02*
X008340Y025813D01*
X008340Y024813D02*
X007862Y024813D01*
X007862Y023813D02*
X008340Y023813D01*
X008340Y022813D02*
X007862Y022813D01*
X007862Y021813D02*
X008340Y021813D01*
X008340Y020813D02*
X007862Y020813D01*
X007862Y019813D02*
X008340Y019813D01*
D22*
X022601Y030313D03*
D23*
X045101Y025351D03*
X046101Y024851D03*
X045101Y024351D03*
X046101Y022313D03*
M02*
