G75*
G70*
%OFA0B0*%
%FSLAX24Y24*%
%IPPOS*%
%LPD*%
%AMOC8*
5,1,8,0,0,1.08239X$1,22.5*
%
%ADD10C,0.0000*%
%ADD11OC8,0.0477*%
%ADD12C,0.0557*%
%ADD13C,0.0677*%
%ADD14OC8,0.0700*%
%ADD15C,0.0517*%
%ADD16OC8,0.0630*%
%ADD17OC8,0.0500*%
%ADD18C,0.0657*%
%ADD19C,0.0477*%
%ADD20OC8,0.0557*%
%ADD21C,0.0240*%
%ADD22C,0.0160*%
%ADD23C,0.0120*%
%ADD24C,0.0591*%
%ADD25C,0.0394*%
D10*
X000101Y000101D02*
X000101Y035534D01*
X052857Y035534D01*
X052857Y000101D01*
X000101Y000101D01*
X001471Y016282D02*
X001473Y016332D01*
X001479Y016382D01*
X001489Y016431D01*
X001503Y016479D01*
X001520Y016526D01*
X001541Y016571D01*
X001566Y016615D01*
X001594Y016656D01*
X001626Y016695D01*
X001660Y016732D01*
X001697Y016766D01*
X001737Y016796D01*
X001779Y016823D01*
X001823Y016847D01*
X001869Y016868D01*
X001916Y016884D01*
X001964Y016897D01*
X002014Y016906D01*
X002063Y016911D01*
X002114Y016912D01*
X002164Y016909D01*
X002213Y016902D01*
X002262Y016891D01*
X002310Y016876D01*
X002356Y016858D01*
X002401Y016836D01*
X002444Y016810D01*
X002485Y016781D01*
X002524Y016749D01*
X002560Y016714D01*
X002592Y016676D01*
X002622Y016636D01*
X002649Y016593D01*
X002672Y016549D01*
X002691Y016503D01*
X002707Y016455D01*
X002719Y016406D01*
X002727Y016357D01*
X002731Y016307D01*
X002731Y016257D01*
X002727Y016207D01*
X002719Y016158D01*
X002707Y016109D01*
X002691Y016061D01*
X002672Y016015D01*
X002649Y015971D01*
X002622Y015928D01*
X002592Y015888D01*
X002560Y015850D01*
X002524Y015815D01*
X002485Y015783D01*
X002444Y015754D01*
X002401Y015728D01*
X002356Y015706D01*
X002310Y015688D01*
X002262Y015673D01*
X002213Y015662D01*
X002164Y015655D01*
X002114Y015652D01*
X002063Y015653D01*
X002014Y015658D01*
X001964Y015667D01*
X001916Y015680D01*
X001869Y015696D01*
X001823Y015717D01*
X001779Y015741D01*
X001737Y015768D01*
X001697Y015798D01*
X001660Y015832D01*
X001626Y015869D01*
X001594Y015908D01*
X001566Y015949D01*
X001541Y015993D01*
X001520Y016038D01*
X001503Y016085D01*
X001489Y016133D01*
X001479Y016182D01*
X001473Y016232D01*
X001471Y016282D01*
X030101Y031813D02*
X030103Y031863D01*
X030109Y031913D01*
X030119Y031962D01*
X030133Y032010D01*
X030150Y032057D01*
X030171Y032102D01*
X030196Y032146D01*
X030224Y032187D01*
X030256Y032226D01*
X030290Y032263D01*
X030327Y032297D01*
X030367Y032327D01*
X030409Y032354D01*
X030453Y032378D01*
X030499Y032399D01*
X030546Y032415D01*
X030594Y032428D01*
X030644Y032437D01*
X030693Y032442D01*
X030744Y032443D01*
X030794Y032440D01*
X030843Y032433D01*
X030892Y032422D01*
X030940Y032407D01*
X030986Y032389D01*
X031031Y032367D01*
X031074Y032341D01*
X031115Y032312D01*
X031154Y032280D01*
X031190Y032245D01*
X031222Y032207D01*
X031252Y032167D01*
X031279Y032124D01*
X031302Y032080D01*
X031321Y032034D01*
X031337Y031986D01*
X031349Y031937D01*
X031357Y031888D01*
X031361Y031838D01*
X031361Y031788D01*
X031357Y031738D01*
X031349Y031689D01*
X031337Y031640D01*
X031321Y031592D01*
X031302Y031546D01*
X031279Y031502D01*
X031252Y031459D01*
X031222Y031419D01*
X031190Y031381D01*
X031154Y031346D01*
X031115Y031314D01*
X031074Y031285D01*
X031031Y031259D01*
X030986Y031237D01*
X030940Y031219D01*
X030892Y031204D01*
X030843Y031193D01*
X030794Y031186D01*
X030744Y031183D01*
X030693Y031184D01*
X030644Y031189D01*
X030594Y031198D01*
X030546Y031211D01*
X030499Y031227D01*
X030453Y031248D01*
X030409Y031272D01*
X030367Y031299D01*
X030327Y031329D01*
X030290Y031363D01*
X030256Y031400D01*
X030224Y031439D01*
X030196Y031480D01*
X030171Y031524D01*
X030150Y031569D01*
X030133Y031616D01*
X030119Y031664D01*
X030109Y031713D01*
X030103Y031763D01*
X030101Y031813D01*
X050258Y016243D02*
X050260Y016293D01*
X050266Y016343D01*
X050276Y016392D01*
X050290Y016440D01*
X050307Y016487D01*
X050328Y016532D01*
X050353Y016576D01*
X050381Y016617D01*
X050413Y016656D01*
X050447Y016693D01*
X050484Y016727D01*
X050524Y016757D01*
X050566Y016784D01*
X050610Y016808D01*
X050656Y016829D01*
X050703Y016845D01*
X050751Y016858D01*
X050801Y016867D01*
X050850Y016872D01*
X050901Y016873D01*
X050951Y016870D01*
X051000Y016863D01*
X051049Y016852D01*
X051097Y016837D01*
X051143Y016819D01*
X051188Y016797D01*
X051231Y016771D01*
X051272Y016742D01*
X051311Y016710D01*
X051347Y016675D01*
X051379Y016637D01*
X051409Y016597D01*
X051436Y016554D01*
X051459Y016510D01*
X051478Y016464D01*
X051494Y016416D01*
X051506Y016367D01*
X051514Y016318D01*
X051518Y016268D01*
X051518Y016218D01*
X051514Y016168D01*
X051506Y016119D01*
X051494Y016070D01*
X051478Y016022D01*
X051459Y015976D01*
X051436Y015932D01*
X051409Y015889D01*
X051379Y015849D01*
X051347Y015811D01*
X051311Y015776D01*
X051272Y015744D01*
X051231Y015715D01*
X051188Y015689D01*
X051143Y015667D01*
X051097Y015649D01*
X051049Y015634D01*
X051000Y015623D01*
X050951Y015616D01*
X050901Y015613D01*
X050850Y015614D01*
X050801Y015619D01*
X050751Y015628D01*
X050703Y015641D01*
X050656Y015657D01*
X050610Y015678D01*
X050566Y015702D01*
X050524Y015729D01*
X050484Y015759D01*
X050447Y015793D01*
X050413Y015830D01*
X050381Y015869D01*
X050353Y015910D01*
X050328Y015954D01*
X050307Y015999D01*
X050290Y016046D01*
X050276Y016094D01*
X050266Y016143D01*
X050260Y016193D01*
X050258Y016243D01*
D11*
X050601Y014313D03*
X051601Y014313D03*
X049601Y014313D03*
X047601Y011813D03*
X047601Y010813D03*
X045601Y011313D03*
X044601Y011313D03*
X043601Y011313D03*
X041601Y010813D03*
X041601Y011813D03*
X039601Y011313D03*
X038601Y011313D03*
X037601Y011313D03*
X035601Y010813D03*
X035601Y011813D03*
X033601Y011313D03*
X032601Y011313D03*
X031601Y011313D03*
X029601Y010813D03*
X029601Y011813D03*
X027601Y011313D03*
X026601Y011313D03*
X025601Y011313D03*
X023601Y010813D03*
X023601Y011813D03*
X021601Y011313D03*
X020601Y011313D03*
X019601Y011313D03*
X017601Y010813D03*
X017601Y011813D03*
X015601Y011313D03*
X014601Y011313D03*
X013601Y011313D03*
X011601Y010813D03*
X011601Y011813D03*
X009601Y011313D03*
X008601Y011313D03*
X007601Y011313D03*
X005601Y010813D03*
X005601Y011813D03*
X007601Y014313D03*
X008601Y014313D03*
X009601Y014313D03*
X013601Y014313D03*
X014601Y014313D03*
X015601Y014313D03*
X019601Y014313D03*
X020601Y014313D03*
X021601Y014313D03*
X025601Y014313D03*
X026601Y014313D03*
X027601Y014313D03*
X031601Y014313D03*
X032601Y014313D03*
X033601Y014313D03*
X037601Y014313D03*
X038601Y014313D03*
X039601Y014313D03*
X039601Y017063D03*
X040101Y017813D03*
X039101Y017813D03*
X043601Y014313D03*
X044601Y014313D03*
X045601Y014313D03*
X049601Y011313D03*
X050601Y011313D03*
X051601Y011313D03*
X037601Y025813D03*
X036601Y025813D03*
X025101Y018813D03*
X024601Y019563D03*
X024101Y018813D03*
X012601Y018313D03*
X012101Y017563D03*
X011601Y018313D03*
X003601Y017813D03*
X003101Y018563D03*
X002601Y017813D03*
X012101Y030813D03*
X013101Y030813D03*
D12*
X010380Y031313D02*
X009822Y031313D01*
X009822Y032313D02*
X010380Y032313D01*
X010380Y033313D02*
X009822Y033313D01*
X017322Y027813D02*
X017880Y027813D01*
X017880Y026813D02*
X017322Y026813D01*
X017322Y025813D02*
X017880Y025813D01*
X017880Y024813D02*
X017322Y024813D01*
X017322Y023813D02*
X017880Y023813D01*
X017880Y022813D02*
X017322Y022813D01*
X017322Y021813D02*
X017880Y021813D01*
X017880Y020813D02*
X017322Y020813D01*
X017322Y019813D02*
X017880Y019813D01*
X017880Y018813D02*
X017322Y018813D01*
X024322Y020813D02*
X024880Y020813D01*
X024880Y021813D02*
X024322Y021813D01*
X024322Y022813D02*
X024880Y022813D01*
X024880Y023813D02*
X024322Y023813D01*
X024322Y024813D02*
X024880Y024813D01*
X024880Y025813D02*
X024322Y025813D01*
X024322Y026813D02*
X024880Y026813D01*
X024880Y027813D02*
X024322Y027813D01*
X020380Y031313D02*
X019822Y031313D01*
X019822Y032313D02*
X020380Y032313D01*
X020380Y033313D02*
X019822Y033313D01*
X033711Y033372D02*
X033711Y032815D01*
X035491Y032815D02*
X035491Y033372D01*
X036711Y033372D02*
X036711Y032815D01*
X038491Y032815D02*
X038491Y033372D01*
X038491Y030812D02*
X038491Y030255D01*
X036711Y030255D02*
X036711Y030812D01*
X035491Y030812D02*
X035491Y030255D01*
X033711Y030255D02*
X033711Y030812D01*
X041822Y027313D02*
X042380Y027313D01*
X042380Y026313D02*
X041822Y026313D01*
X041822Y025313D02*
X042380Y025313D01*
X042380Y024313D02*
X041822Y024313D01*
X041822Y023313D02*
X042380Y023313D01*
X042380Y022313D02*
X041822Y022313D01*
X043822Y009313D02*
X044380Y009313D01*
X044380Y008313D02*
X043822Y008313D01*
X043822Y007313D02*
X044380Y007313D01*
X049822Y007313D02*
X050380Y007313D01*
X050380Y008313D02*
X049822Y008313D01*
X049822Y009313D02*
X050380Y009313D01*
X038380Y009313D02*
X037822Y009313D01*
X037822Y008313D02*
X038380Y008313D01*
X038380Y007313D02*
X037822Y007313D01*
X032380Y007313D02*
X031822Y007313D01*
X031822Y008313D02*
X032380Y008313D01*
X032380Y009313D02*
X031822Y009313D01*
X026380Y009313D02*
X025822Y009313D01*
X025822Y008313D02*
X026380Y008313D01*
X026380Y007313D02*
X025822Y007313D01*
X020380Y007313D02*
X019822Y007313D01*
X019822Y008313D02*
X020380Y008313D01*
X020380Y009313D02*
X019822Y009313D01*
X014380Y009313D02*
X013822Y009313D01*
X013822Y008313D02*
X014380Y008313D01*
X014380Y007313D02*
X013822Y007313D01*
X008380Y007313D02*
X007822Y007313D01*
X007822Y008313D02*
X008380Y008313D01*
X008380Y009313D02*
X007822Y009313D01*
D13*
X003085Y010102D02*
X002408Y010102D01*
X002408Y008132D02*
X003085Y008132D01*
X003085Y006162D02*
X002408Y006162D01*
X003899Y003184D02*
X003899Y002506D01*
X005869Y002506D02*
X005869Y003184D01*
X007839Y003184D02*
X007839Y002506D01*
X009899Y002506D02*
X009899Y003184D01*
X011869Y003184D02*
X011869Y002506D01*
X013839Y002506D02*
X013839Y003184D01*
X015899Y003184D02*
X015899Y002506D01*
X017869Y002506D02*
X017869Y003184D01*
X019839Y003184D02*
X019839Y002506D01*
X021899Y002506D02*
X021899Y003184D01*
X023869Y003184D02*
X023869Y002506D01*
X025839Y002506D02*
X025839Y003184D01*
X027899Y003184D02*
X027899Y002506D01*
X029869Y002506D02*
X029869Y003184D01*
X031839Y003184D02*
X031839Y002506D01*
X033899Y002506D02*
X033899Y003184D01*
X035869Y003184D02*
X035869Y002506D01*
X037839Y002506D02*
X037839Y003184D01*
X039899Y003184D02*
X039899Y002506D01*
X041869Y002506D02*
X041869Y003184D01*
X043839Y003184D02*
X043839Y002506D01*
X045899Y002506D02*
X045899Y003184D01*
X047869Y003184D02*
X047869Y002506D01*
X049839Y002506D02*
X049839Y003184D01*
D14*
X006601Y029313D03*
X005101Y029313D03*
X005101Y027313D03*
X005101Y025813D03*
X001101Y025813D03*
X001101Y027313D03*
X005101Y033313D03*
X006601Y033313D03*
D15*
X016101Y033572D02*
X016101Y033055D01*
X017101Y033055D02*
X017101Y033572D01*
X040842Y032313D02*
X041360Y032313D01*
X042842Y032313D02*
X043360Y032313D01*
X043360Y031313D02*
X042842Y031313D01*
X041360Y031313D02*
X040842Y031313D01*
X040842Y030313D02*
X041360Y030313D01*
X042842Y030313D02*
X043360Y030313D01*
D16*
X040851Y027813D03*
X038851Y027813D03*
X038851Y026313D03*
X038851Y023313D03*
X028601Y028813D03*
X028601Y030813D03*
X025601Y030813D03*
X025601Y028813D03*
X018101Y031313D03*
X018101Y033313D03*
X014601Y033813D03*
X014601Y030813D03*
X008601Y031313D03*
X008601Y033313D03*
X006101Y023813D03*
X004601Y023813D03*
X002101Y023813D03*
X002101Y020813D03*
X001601Y019813D03*
X004601Y019813D03*
X004601Y020813D03*
X006101Y020813D03*
X005601Y015813D03*
X005601Y012813D03*
X006101Y009813D03*
X005101Y009813D03*
X005101Y006813D03*
X006101Y006813D03*
X011101Y006813D03*
X012101Y006813D03*
X012101Y009813D03*
X011101Y009813D03*
X011601Y012813D03*
X011601Y015813D03*
X017601Y015813D03*
X017601Y012813D03*
X018101Y009813D03*
X017101Y009813D03*
X017101Y006813D03*
X018101Y006813D03*
X023101Y006813D03*
X024101Y006813D03*
X024101Y009813D03*
X023101Y009813D03*
X023601Y012813D03*
X023601Y015813D03*
X029601Y015813D03*
X029601Y012813D03*
X030101Y009813D03*
X029101Y009813D03*
X029101Y006813D03*
X030101Y006813D03*
X035101Y006813D03*
X036101Y006813D03*
X036101Y009813D03*
X035101Y009813D03*
X035601Y012813D03*
X035601Y015813D03*
X041601Y015813D03*
X041601Y012813D03*
X042101Y009813D03*
X041101Y009813D03*
X041101Y006813D03*
X042101Y006813D03*
X047101Y006813D03*
X048101Y006813D03*
X048101Y009813D03*
X047101Y009813D03*
X047601Y012813D03*
X047601Y015813D03*
D17*
X022601Y032313D03*
X022601Y033313D03*
X012601Y033313D03*
X012601Y032313D03*
D18*
X003430Y032002D02*
X002772Y032002D01*
X002772Y030624D02*
X003430Y030624D01*
D19*
X007862Y028813D02*
X008340Y028813D01*
X008340Y027813D02*
X007862Y027813D01*
X007862Y026813D02*
X008340Y026813D01*
X008340Y025813D02*
X007862Y025813D01*
X007862Y024813D02*
X008340Y024813D01*
X008340Y023813D02*
X007862Y023813D01*
X007862Y022813D02*
X008340Y022813D01*
X008340Y021813D02*
X007862Y021813D01*
X007862Y020813D02*
X008340Y020813D01*
X008340Y019813D02*
X007862Y019813D01*
X010862Y019813D02*
X011340Y019813D01*
X011340Y020813D02*
X010862Y020813D01*
X010862Y021813D02*
X011340Y021813D01*
X011340Y022813D02*
X010862Y022813D01*
X010862Y023813D02*
X011340Y023813D01*
X011340Y024813D02*
X010862Y024813D01*
X010862Y025813D02*
X011340Y025813D01*
X011340Y026813D02*
X010862Y026813D01*
X010862Y027813D02*
X011340Y027813D01*
X011340Y028813D02*
X010862Y028813D01*
X012862Y027813D02*
X013340Y027813D01*
X013340Y026813D02*
X012862Y026813D01*
X012862Y025813D02*
X013340Y025813D01*
X013340Y024813D02*
X012862Y024813D01*
X012862Y023813D02*
X013340Y023813D01*
X013340Y022813D02*
X012862Y022813D01*
X012862Y021813D02*
X013340Y021813D01*
X013340Y020813D02*
X012862Y020813D01*
X012862Y019813D02*
X013340Y019813D01*
X015862Y019813D02*
X016340Y019813D01*
X016340Y020813D02*
X015862Y020813D01*
X015862Y021813D02*
X016340Y021813D01*
X016340Y022813D02*
X015862Y022813D01*
X015862Y023813D02*
X016340Y023813D01*
X016340Y024813D02*
X015862Y024813D01*
X015862Y025813D02*
X016340Y025813D01*
X016340Y026813D02*
X015862Y026813D01*
X015862Y027813D02*
X016340Y027813D01*
X019862Y027813D02*
X020340Y027813D01*
X020340Y026813D02*
X019862Y026813D01*
X019862Y025813D02*
X020340Y025813D01*
X020340Y024813D02*
X019862Y024813D01*
X019862Y023813D02*
X020340Y023813D01*
X020340Y022813D02*
X019862Y022813D01*
X019862Y021813D02*
X020340Y021813D01*
X020340Y020813D02*
X019862Y020813D01*
X019862Y019813D02*
X020340Y019813D01*
X022862Y019813D02*
X023340Y019813D01*
X023340Y020813D02*
X022862Y020813D01*
X022862Y021813D02*
X023340Y021813D01*
X023340Y022813D02*
X022862Y022813D01*
X022862Y023813D02*
X023340Y023813D01*
X023340Y024813D02*
X022862Y024813D01*
X022862Y025813D02*
X023340Y025813D01*
X023340Y026813D02*
X022862Y026813D01*
X022862Y027813D02*
X023340Y027813D01*
X023340Y028813D02*
X022862Y028813D01*
X020340Y028813D02*
X019862Y028813D01*
X026601Y023052D02*
X026601Y022575D01*
X027601Y022575D02*
X027601Y023052D01*
X028601Y023052D02*
X028601Y022575D01*
X029601Y022575D02*
X029601Y023052D01*
X030601Y023052D02*
X030601Y022575D01*
X031601Y022575D02*
X031601Y023052D01*
X032601Y023052D02*
X032601Y022575D01*
X033601Y022575D02*
X033601Y023052D01*
X034601Y023052D02*
X034601Y022575D01*
X034601Y020052D02*
X034601Y019575D01*
X033601Y019575D02*
X033601Y020052D01*
X032601Y020052D02*
X032601Y019575D01*
X031601Y019575D02*
X031601Y020052D01*
X030601Y020052D02*
X030601Y019575D01*
X029601Y019575D02*
X029601Y020052D01*
X028601Y020052D02*
X028601Y019575D01*
X027601Y019575D02*
X027601Y020052D01*
X026601Y020052D02*
X026601Y019575D01*
X045101Y030075D02*
X045101Y030552D01*
X046101Y030552D02*
X046101Y030075D01*
X047101Y030075D02*
X047101Y030552D01*
X048101Y030552D02*
X048101Y030075D01*
X048101Y033075D02*
X048101Y033552D01*
X047101Y033552D02*
X047101Y033075D01*
X046101Y033075D02*
X046101Y033552D01*
X045101Y033552D02*
X045101Y033075D01*
D20*
X022601Y030313D03*
D21*
X022601Y031313D01*
X022601Y032313D01*
X026101Y032313D01*
X026601Y031813D01*
X026601Y029813D01*
X029101Y029813D01*
X029601Y029313D01*
X029601Y027813D01*
X031601Y027813D01*
X035101Y024313D01*
X035601Y024313D01*
X036601Y023313D01*
X038851Y023313D01*
X039204Y023717D02*
X039217Y023717D01*
X039261Y023673D02*
X039261Y023660D01*
X039072Y023848D01*
X038629Y023848D01*
X038434Y023653D01*
X036742Y023653D01*
X035793Y024602D01*
X035668Y024653D01*
X035533Y024653D01*
X035242Y024653D01*
X031921Y027973D01*
X031960Y027973D01*
X034313Y025621D01*
X034408Y025525D01*
X034533Y025473D01*
X036292Y025473D01*
X036411Y025355D01*
X036791Y025355D01*
X037059Y025623D01*
X037059Y026003D01*
X036791Y026272D01*
X036411Y026272D01*
X036292Y026153D01*
X034742Y026153D01*
X032293Y028602D01*
X032168Y028653D01*
X032033Y028653D01*
X030441Y028653D01*
X030441Y029881D01*
X030389Y030006D01*
X030293Y030102D01*
X029293Y031102D01*
X029168Y031153D01*
X029033Y031153D01*
X029017Y031153D01*
X028822Y031348D01*
X028379Y031348D01*
X028066Y031035D01*
X028066Y030592D01*
X028379Y030278D01*
X028822Y030278D01*
X028989Y030445D01*
X029761Y029673D01*
X029761Y029634D01*
X029293Y030102D01*
X029168Y030153D01*
X029033Y030153D01*
X026941Y030153D01*
X026941Y031881D01*
X026889Y032006D01*
X026793Y032102D01*
X026293Y032602D01*
X026168Y032653D01*
X026033Y032653D01*
X023902Y032653D01*
X023941Y032746D01*
X023941Y032881D01*
X023941Y033881D01*
X023889Y034006D01*
X023793Y034102D01*
X023668Y034153D01*
X023533Y034153D01*
X020533Y034153D01*
X020408Y034102D01*
X020313Y034006D01*
X020119Y033812D01*
X019723Y033812D01*
X019540Y033736D01*
X019457Y033653D01*
X018517Y033653D01*
X018322Y033848D01*
X017879Y033848D01*
X017684Y033653D01*
X017579Y033653D01*
X017579Y033667D01*
X017507Y033843D01*
X017372Y033978D01*
X017196Y034051D01*
X017006Y034051D01*
X016830Y033978D01*
X016695Y033843D01*
X016622Y033667D01*
X016622Y032959D01*
X016695Y032783D01*
X016830Y032649D01*
X017006Y032576D01*
X017196Y032576D01*
X017372Y032649D01*
X017507Y032783D01*
X017579Y032959D01*
X017579Y032973D01*
X017684Y032973D01*
X017879Y032778D01*
X018322Y032778D01*
X018517Y032973D01*
X019457Y032973D01*
X019540Y032891D01*
X019723Y032815D01*
X020479Y032815D01*
X020662Y032891D01*
X020802Y033031D01*
X020878Y033214D01*
X020878Y033413D01*
X020853Y033473D01*
X022152Y033473D01*
X022152Y033314D01*
X022600Y033314D01*
X022600Y033313D01*
X022152Y033313D01*
X022152Y033153D01*
X022033Y033153D01*
X021908Y033102D01*
X020960Y032153D01*
X020830Y032153D01*
X020845Y032202D01*
X020857Y032276D01*
X020857Y032313D01*
X020101Y032313D01*
X020101Y032314D01*
X020101Y032314D01*
X020101Y032791D01*
X020417Y032791D01*
X020491Y032779D01*
X020563Y032756D01*
X020630Y032722D01*
X020691Y032678D01*
X020744Y032624D01*
X020788Y032564D01*
X020822Y032497D01*
X020845Y032425D01*
X020857Y032351D01*
X020857Y032314D01*
X020101Y032314D01*
X020101Y032791D01*
X019784Y032791D01*
X019710Y032779D01*
X019639Y032756D01*
X019572Y032722D01*
X019511Y032678D01*
X019458Y032624D01*
X019414Y032564D01*
X019380Y032497D01*
X019356Y032425D01*
X019345Y032351D01*
X019345Y032314D01*
X020100Y032314D01*
X020100Y032313D01*
X019345Y032313D01*
X019345Y032276D01*
X019356Y032202D01*
X019372Y032153D01*
X019168Y032153D01*
X019033Y032153D01*
X018908Y032102D01*
X018813Y032006D01*
X018761Y031881D01*
X018761Y029653D01*
X011533Y029653D01*
X011408Y029602D01*
X011313Y029506D01*
X011079Y029272D01*
X010771Y029272D01*
X010602Y029202D01*
X010553Y029153D01*
X009668Y029153D01*
X009533Y029153D01*
X009408Y029102D01*
X008960Y028653D01*
X008747Y028653D01*
X008766Y028711D01*
X008777Y028779D01*
X008777Y028813D01*
X008101Y028813D01*
X008101Y028814D01*
X008101Y028814D01*
X008101Y029251D01*
X008374Y029251D01*
X008442Y029240D01*
X008507Y029219D01*
X008569Y029188D01*
X008624Y029147D01*
X008673Y029098D01*
X008714Y029043D01*
X008745Y028981D01*
X008766Y028916D01*
X008777Y028848D01*
X008777Y028814D01*
X008101Y028814D01*
X008101Y029251D01*
X007828Y029251D01*
X007760Y029240D01*
X007694Y029219D01*
X007633Y029188D01*
X007577Y029147D01*
X007528Y029098D01*
X007488Y029043D01*
X007457Y028981D01*
X007435Y028916D01*
X007425Y028848D01*
X007425Y028814D01*
X008100Y028814D01*
X008100Y028813D01*
X007425Y028813D01*
X007425Y028779D01*
X007435Y028711D01*
X007457Y028645D01*
X007467Y028626D01*
X007408Y028602D01*
X006908Y028102D01*
X006813Y028006D01*
X006761Y027881D01*
X006761Y024954D01*
X006155Y024348D01*
X005879Y024348D01*
X005684Y024153D01*
X005017Y024153D01*
X004822Y024348D01*
X004379Y024348D01*
X004066Y024035D01*
X004066Y023592D01*
X004379Y023278D01*
X004822Y023278D01*
X005017Y023473D01*
X005684Y023473D01*
X005879Y023278D01*
X006322Y023278D01*
X006636Y023592D01*
X006636Y023868D01*
X007389Y024621D01*
X007417Y024689D01*
X007473Y024554D01*
X007602Y024424D01*
X007771Y024355D01*
X008431Y024355D01*
X008599Y024424D01*
X008648Y024473D01*
X009533Y024473D01*
X009668Y024473D01*
X009793Y024525D01*
X010242Y024973D01*
X010432Y024973D01*
X010403Y024905D01*
X010403Y024722D01*
X010432Y024653D01*
X010033Y024653D01*
X009908Y024602D01*
X009813Y024506D01*
X009460Y024153D01*
X008648Y024153D01*
X008599Y024202D01*
X008431Y024272D01*
X007771Y024272D01*
X007602Y024202D01*
X007473Y024073D01*
X007403Y023905D01*
X007403Y023722D01*
X007473Y023554D01*
X007602Y023424D01*
X007771Y023355D01*
X008431Y023355D01*
X008599Y023424D01*
X008648Y023473D01*
X009533Y023473D01*
X009668Y023473D01*
X009793Y023525D01*
X010242Y023973D01*
X010432Y023973D01*
X010403Y023905D01*
X010403Y023722D01*
X010432Y023653D01*
X010033Y023653D01*
X009908Y023602D01*
X009813Y023506D01*
X009460Y023153D01*
X008648Y023153D01*
X008599Y023202D01*
X008431Y023272D01*
X007771Y023272D01*
X007602Y023202D01*
X007473Y023073D01*
X007403Y022905D01*
X007403Y022722D01*
X007473Y022554D01*
X007602Y022424D01*
X007771Y022355D01*
X008431Y022355D01*
X008599Y022424D01*
X008648Y022473D01*
X009533Y022473D01*
X009668Y022473D01*
X009793Y022525D01*
X010242Y022973D01*
X010432Y022973D01*
X010403Y022905D01*
X010403Y022722D01*
X010432Y022653D01*
X010033Y022653D01*
X009908Y022602D01*
X009813Y022506D01*
X009460Y022153D01*
X008648Y022153D01*
X008599Y022202D01*
X008431Y022272D01*
X007771Y022272D01*
X007602Y022202D01*
X007473Y022073D01*
X007403Y021905D01*
X007403Y021722D01*
X007473Y021554D01*
X007602Y021424D01*
X007771Y021355D01*
X008431Y021355D01*
X008599Y021424D01*
X008648Y021473D01*
X009533Y021473D01*
X009668Y021473D01*
X009793Y021525D01*
X010242Y021973D01*
X010432Y021973D01*
X010403Y021905D01*
X010403Y021722D01*
X010432Y021653D01*
X010033Y021653D01*
X009908Y021602D01*
X009813Y021506D01*
X009460Y021153D01*
X008648Y021153D01*
X008599Y021202D01*
X008431Y021272D01*
X007771Y021272D01*
X007602Y021202D01*
X007473Y021073D01*
X007403Y020905D01*
X007403Y020722D01*
X007432Y020653D01*
X006742Y020653D01*
X006636Y020759D01*
X006636Y021035D01*
X006322Y021348D01*
X005879Y021348D01*
X005566Y021035D01*
X005566Y020592D01*
X005879Y020278D01*
X006155Y020278D01*
X006313Y020121D01*
X006408Y020025D01*
X006533Y019973D01*
X007454Y019973D01*
X007435Y019916D01*
X007425Y019848D01*
X007425Y019814D01*
X008100Y019814D01*
X008100Y019813D01*
X007425Y019813D01*
X007425Y019779D01*
X007435Y019711D01*
X007457Y019645D01*
X007488Y019584D01*
X007528Y019528D01*
X007577Y019480D01*
X007633Y019439D01*
X007694Y019408D01*
X007760Y019387D01*
X007828Y019376D01*
X008101Y019376D01*
X008374Y019376D01*
X008442Y019387D01*
X008507Y019408D01*
X008569Y019439D01*
X008624Y019480D01*
X008673Y019528D01*
X008714Y019584D01*
X008745Y019645D01*
X008766Y019711D01*
X008777Y019779D01*
X008777Y019813D01*
X008101Y019813D01*
X008101Y019376D01*
X008101Y019813D01*
X008101Y019813D01*
X008101Y019814D01*
X008777Y019814D01*
X008777Y019848D01*
X008766Y019916D01*
X008747Y019973D01*
X009460Y019973D01*
X009813Y019621D01*
X009908Y019525D01*
X010033Y019473D01*
X010553Y019473D01*
X010602Y019424D01*
X010761Y019359D01*
X010761Y018881D01*
X010761Y018746D01*
X010813Y018621D01*
X011142Y018291D01*
X011142Y018123D01*
X011411Y017855D01*
X011743Y017855D01*
X011642Y017753D01*
X004038Y017753D01*
X004038Y017813D02*
X003601Y017813D01*
X003601Y017376D01*
X003782Y017376D01*
X004038Y017632D01*
X004038Y017813D01*
X004038Y017814D02*
X004038Y017995D01*
X003782Y018251D01*
X003601Y018251D01*
X003601Y017814D01*
X003601Y017814D01*
X003601Y018251D01*
X003437Y018251D01*
X003559Y018373D01*
X003559Y018753D01*
X003441Y018872D01*
X003441Y020381D01*
X003389Y020506D01*
X003293Y020602D01*
X002793Y021102D01*
X002668Y021153D01*
X002533Y021153D01*
X002517Y021153D01*
X002322Y021348D01*
X001879Y021348D01*
X001566Y021035D01*
X001566Y020592D01*
X001809Y020348D01*
X001379Y020348D01*
X001066Y020035D01*
X001066Y019592D01*
X001261Y019397D01*
X001261Y018881D01*
X001261Y018746D01*
X001313Y018621D01*
X002142Y017791D01*
X002142Y017623D01*
X002411Y017355D01*
X002791Y017355D01*
X003059Y017623D01*
X003059Y018003D01*
X002958Y018105D01*
X003273Y018105D01*
X003163Y017995D01*
X003163Y017814D01*
X003600Y017814D01*
X003600Y017813D01*
X003163Y017813D01*
X003163Y017632D01*
X003420Y017376D01*
X003601Y017376D01*
X003601Y017813D01*
X003601Y017813D01*
X003601Y017814D01*
X004038Y017814D01*
X004038Y017992D02*
X011274Y017992D01*
X011142Y018230D02*
X003803Y018230D01*
X003601Y018230D02*
X003601Y018230D01*
X003601Y017992D02*
X003601Y017992D01*
X003601Y017813D02*
X003601Y015063D01*
X009101Y015063D01*
X015101Y015063D01*
X015101Y013813D01*
X014601Y013313D01*
X014601Y011313D01*
X013601Y011313D02*
X013101Y010813D01*
X011601Y010813D01*
X011101Y009813D02*
X010601Y010313D01*
X010601Y013851D01*
X011063Y014313D01*
X013601Y014313D01*
X013292Y013973D02*
X013411Y013855D01*
X013791Y013855D01*
X014059Y014123D01*
X014059Y014503D01*
X013791Y014772D01*
X013411Y014772D01*
X013292Y014653D01*
X010996Y014653D01*
X010871Y014602D01*
X010775Y014506D01*
X010313Y014043D01*
X010261Y013918D01*
X010261Y013783D01*
X010261Y013093D01*
X009861Y013093D01*
X009889Y013121D01*
X009941Y013246D01*
X009941Y014005D01*
X010059Y014123D01*
X010059Y014503D01*
X009791Y014772D01*
X009411Y014772D01*
X009142Y014503D01*
X009142Y014123D01*
X009261Y014005D01*
X009261Y013454D01*
X008900Y013093D01*
X006078Y013093D01*
X005822Y013348D01*
X005379Y013348D01*
X005124Y013093D01*
X004941Y013093D01*
X004941Y013710D01*
X005204Y013973D01*
X007292Y013973D01*
X007411Y013855D01*
X007791Y013855D01*
X008059Y014123D01*
X008059Y014503D01*
X007791Y014772D01*
X007411Y014772D01*
X007292Y014653D01*
X004996Y014653D01*
X004871Y014602D01*
X004775Y014506D01*
X004313Y014043D01*
X004261Y013918D01*
X004261Y013783D01*
X004261Y013093D01*
X001282Y013093D01*
X000888Y013487D01*
X000888Y025243D01*
X001337Y025243D01*
X001671Y025577D01*
X001671Y026049D01*
X001441Y026279D01*
X001441Y026847D01*
X001671Y027077D01*
X001671Y027549D01*
X001441Y027779D01*
X001441Y028484D01*
X003033Y030076D01*
X003539Y030076D01*
X003740Y030159D01*
X003895Y030314D01*
X003978Y030515D01*
X003978Y030734D01*
X003895Y030935D01*
X003740Y031090D01*
X003539Y031173D01*
X002663Y031173D01*
X002461Y031090D01*
X002307Y030935D01*
X002223Y030734D01*
X002223Y030515D01*
X002307Y030314D01*
X002308Y030312D01*
X000908Y028913D01*
X000888Y028893D01*
X000888Y034746D01*
X052069Y034746D01*
X052069Y012699D01*
X051768Y013000D01*
X051793Y013025D01*
X051889Y013121D01*
X051941Y013246D01*
X051941Y014005D01*
X052059Y014123D01*
X052059Y014503D01*
X051791Y014772D01*
X051411Y014772D01*
X051142Y014503D01*
X051142Y014123D01*
X051261Y014005D01*
X051261Y013454D01*
X050900Y013093D01*
X048078Y013093D01*
X047822Y013348D01*
X047379Y013348D01*
X047124Y013093D01*
X046941Y013093D01*
X046941Y013710D01*
X047204Y013973D01*
X049292Y013973D01*
X049411Y013855D01*
X049791Y013855D01*
X050059Y014123D01*
X050059Y014503D01*
X049791Y014772D01*
X049411Y014772D01*
X049292Y014653D01*
X046996Y014653D01*
X046871Y014602D01*
X046775Y014506D01*
X046313Y014043D01*
X046261Y013918D01*
X046261Y013783D01*
X046261Y013093D01*
X045861Y013093D01*
X045889Y013121D01*
X045941Y013246D01*
X045941Y014005D01*
X046059Y014123D01*
X046059Y014503D01*
X045791Y014772D01*
X045411Y014772D01*
X045142Y014503D01*
X045142Y014123D01*
X045261Y014005D01*
X045261Y013454D01*
X044900Y013093D01*
X042078Y013093D01*
X041822Y013348D01*
X041379Y013348D01*
X041124Y013093D01*
X040941Y013093D01*
X040941Y013710D01*
X041204Y013973D01*
X043292Y013973D01*
X043411Y013855D01*
X043791Y013855D01*
X044059Y014123D01*
X044059Y014503D01*
X043791Y014772D01*
X043411Y014772D01*
X043292Y014653D01*
X041131Y014653D01*
X040996Y014653D01*
X040871Y014602D01*
X040313Y014043D01*
X040261Y013918D01*
X040261Y013783D01*
X040261Y013093D01*
X039861Y013093D01*
X039889Y013121D01*
X039941Y013246D01*
X039941Y014005D01*
X040059Y014123D01*
X040059Y014503D01*
X039791Y014772D01*
X039411Y014772D01*
X039142Y014503D01*
X039142Y014123D01*
X039261Y014005D01*
X039261Y013454D01*
X038900Y013093D01*
X036078Y013093D01*
X035822Y013348D01*
X035379Y013348D01*
X035124Y013093D01*
X034941Y013093D01*
X034941Y013710D01*
X035204Y013973D01*
X037292Y013973D01*
X037411Y013855D01*
X037791Y013855D01*
X038059Y014123D01*
X038059Y014503D01*
X037791Y014772D01*
X037411Y014772D01*
X037292Y014653D01*
X034996Y014653D01*
X034871Y014602D01*
X034775Y014506D01*
X034313Y014043D01*
X034261Y013918D01*
X034261Y013783D01*
X034261Y013093D01*
X033861Y013093D01*
X033889Y013121D01*
X033941Y013246D01*
X033941Y014005D01*
X034059Y014123D01*
X034059Y014503D01*
X033791Y014772D01*
X033411Y014772D01*
X033142Y014503D01*
X033142Y014123D01*
X033261Y014005D01*
X033261Y013454D01*
X032900Y013093D01*
X030078Y013093D01*
X029822Y013348D01*
X029379Y013348D01*
X029124Y013093D01*
X028941Y013093D01*
X028941Y013710D01*
X029204Y013973D01*
X031292Y013973D01*
X031411Y013855D01*
X031791Y013855D01*
X032059Y014123D01*
X032059Y014503D01*
X031791Y014772D01*
X031411Y014772D01*
X031292Y014653D01*
X028996Y014653D01*
X028871Y014602D01*
X028775Y014506D01*
X028313Y014043D01*
X028261Y013918D01*
X028261Y013783D01*
X028261Y013093D01*
X027861Y013093D01*
X027889Y013121D01*
X027941Y013246D01*
X027941Y014005D01*
X028059Y014123D01*
X028059Y014503D01*
X027791Y014772D01*
X027411Y014772D01*
X027142Y014503D01*
X027142Y014123D01*
X027261Y014005D01*
X027261Y013454D01*
X026900Y013093D01*
X024078Y013093D01*
X023822Y013348D01*
X023379Y013348D01*
X023124Y013093D01*
X022941Y013093D01*
X022941Y013710D01*
X023204Y013973D01*
X025292Y013973D01*
X025411Y013855D01*
X025791Y013855D01*
X026059Y014123D01*
X026059Y014503D01*
X025791Y014772D01*
X025411Y014772D01*
X025292Y014653D01*
X022996Y014653D01*
X022871Y014602D01*
X022775Y014506D01*
X022313Y014043D01*
X022261Y013918D01*
X022261Y013783D01*
X022261Y013093D01*
X021861Y013093D01*
X021889Y013121D01*
X021941Y013246D01*
X021941Y014005D01*
X022059Y014123D01*
X022059Y014503D01*
X021791Y014772D01*
X021411Y014772D01*
X021142Y014503D01*
X021142Y014123D01*
X021261Y014005D01*
X021261Y013454D01*
X020900Y013093D01*
X018078Y013093D01*
X017822Y013348D01*
X017379Y013348D01*
X017124Y013093D01*
X016941Y013093D01*
X016941Y013710D01*
X017204Y013973D01*
X019292Y013973D01*
X019411Y013855D01*
X019791Y013855D01*
X020059Y014123D01*
X020059Y014503D01*
X019791Y014772D01*
X019411Y014772D01*
X019292Y014653D01*
X016996Y014653D01*
X016871Y014602D01*
X016775Y014506D01*
X016313Y014043D01*
X016261Y013918D01*
X016261Y013783D01*
X016261Y013093D01*
X015861Y013093D01*
X015889Y013121D01*
X015941Y013246D01*
X015941Y014005D01*
X016059Y014123D01*
X016059Y014503D01*
X015791Y014772D01*
X015411Y014772D01*
X015142Y014503D01*
X015142Y014123D01*
X015261Y014005D01*
X015261Y013454D01*
X014900Y013093D01*
X012078Y013093D01*
X011822Y013348D01*
X011379Y013348D01*
X011124Y013093D01*
X010941Y013093D01*
X010941Y013710D01*
X011204Y013973D01*
X013292Y013973D01*
X013329Y013936D02*
X011167Y013936D01*
X010941Y013698D02*
X015261Y013698D01*
X015261Y013936D02*
X014872Y013936D01*
X014791Y013855D02*
X015059Y014123D01*
X015059Y014503D01*
X014791Y014772D01*
X014411Y014772D01*
X014142Y014503D01*
X014142Y014123D01*
X014411Y013855D01*
X014791Y013855D01*
X015059Y014175D02*
X015142Y014175D01*
X015142Y014413D02*
X015059Y014413D01*
X014911Y014652D02*
X015291Y014652D01*
X015601Y014313D02*
X015601Y013313D01*
X015101Y012813D01*
X015101Y010313D01*
X014101Y009313D01*
X012601Y009313D01*
X012101Y009813D01*
X009101Y010313D02*
X009101Y012813D01*
X009601Y013313D01*
X009601Y014313D01*
X009911Y014652D02*
X010992Y014652D01*
X010683Y014413D02*
X010059Y014413D01*
X010059Y014175D02*
X010444Y014175D01*
X010268Y013936D02*
X009941Y013936D01*
X009941Y013698D02*
X010261Y013698D01*
X010261Y013459D02*
X009941Y013459D01*
X009930Y013221D02*
X010261Y013221D01*
X010941Y013221D02*
X011251Y013221D01*
X010941Y013459D02*
X015261Y013459D01*
X015027Y013221D02*
X011950Y013221D01*
X011601Y012813D02*
X011601Y011813D01*
X009261Y013459D02*
X004941Y013459D01*
X004941Y013221D02*
X005251Y013221D01*
X004941Y013698D02*
X009261Y013698D01*
X009101Y013813D02*
X009101Y015063D01*
X008791Y014772D02*
X008411Y014772D01*
X008142Y014503D01*
X008142Y014123D01*
X008411Y013855D01*
X008791Y013855D01*
X009059Y014123D01*
X009059Y014503D01*
X008791Y014772D01*
X008911Y014652D02*
X009291Y014652D01*
X009142Y014413D02*
X009059Y014413D01*
X009059Y014175D02*
X009142Y014175D01*
X009261Y013936D02*
X008872Y013936D01*
X009101Y013813D02*
X008601Y013313D01*
X008601Y011313D01*
X007601Y011313D02*
X007101Y010813D01*
X005601Y010813D01*
X005101Y009813D02*
X004601Y010313D01*
X004601Y013851D01*
X005063Y014313D01*
X007601Y014313D01*
X007911Y014652D02*
X008291Y014652D01*
X008142Y014413D02*
X008059Y014413D01*
X008059Y014175D02*
X008142Y014175D01*
X008329Y013936D02*
X007872Y013936D01*
X007329Y013936D02*
X005167Y013936D01*
X004444Y014175D02*
X000888Y014175D01*
X000888Y014413D02*
X004683Y014413D01*
X004992Y014652D02*
X000888Y014652D01*
X000888Y014890D02*
X052069Y014890D01*
X052069Y014652D02*
X051911Y014652D01*
X052059Y014413D02*
X052069Y014413D01*
X052059Y014175D02*
X052069Y014175D01*
X052069Y013936D02*
X051941Y013936D01*
X051941Y013698D02*
X052069Y013698D01*
X052069Y013459D02*
X051941Y013459D01*
X051930Y013221D02*
X052069Y013221D01*
X052069Y012982D02*
X051786Y012982D01*
X052025Y012744D02*
X052069Y012744D01*
X051601Y013313D02*
X051601Y014313D01*
X051291Y014652D02*
X050911Y014652D01*
X050791Y014772D02*
X051059Y014503D01*
X051059Y014123D01*
X050791Y013855D01*
X050411Y013855D01*
X050142Y014123D01*
X050142Y014503D01*
X050411Y014772D01*
X050791Y014772D01*
X051101Y015063D02*
X048601Y015063D01*
X048601Y017313D01*
X046601Y017313D01*
X046601Y023313D01*
X043601Y023313D01*
X042101Y022313D01*
X042101Y021836D01*
X042417Y021836D01*
X042491Y021848D01*
X042563Y021871D01*
X042630Y021905D01*
X042691Y021949D01*
X042744Y022002D01*
X042788Y022063D01*
X042822Y022130D01*
X042845Y022202D01*
X042857Y022276D01*
X042857Y022313D01*
X042101Y022313D01*
X042101Y022313D01*
X042101Y022314D01*
X042101Y022314D01*
X042101Y022791D01*
X042417Y022791D01*
X042491Y022779D01*
X042563Y022756D01*
X042630Y022722D01*
X042691Y022678D01*
X042744Y022624D01*
X042788Y022564D01*
X042822Y022497D01*
X042845Y022425D01*
X042857Y022351D01*
X042857Y022314D01*
X042101Y022314D01*
X042101Y022791D01*
X041784Y022791D01*
X041710Y022779D01*
X041639Y022756D01*
X041572Y022722D01*
X041511Y022678D01*
X041458Y022624D01*
X041414Y022564D01*
X041380Y022497D01*
X041356Y022425D01*
X041345Y022351D01*
X041345Y022314D01*
X042100Y022314D01*
X042100Y022313D01*
X041345Y022313D01*
X041345Y022276D01*
X041356Y022202D01*
X041380Y022130D01*
X041414Y022063D01*
X041458Y022002D01*
X041511Y021949D01*
X041572Y021905D01*
X041639Y021871D01*
X041710Y021848D01*
X041784Y021836D01*
X042101Y021836D01*
X042101Y022313D01*
X041101Y022313D01*
X040851Y022563D01*
X040851Y027813D01*
X040851Y027300D01*
X041064Y027300D01*
X041364Y027601D01*
X041364Y027813D01*
X040851Y027813D01*
X040851Y027813D01*
X040851Y027814D01*
X040851Y027814D01*
X040851Y028327D01*
X041064Y028327D01*
X041364Y028026D01*
X041364Y027814D01*
X040851Y027814D01*
X040851Y028327D01*
X040638Y028327D01*
X040337Y028026D01*
X040337Y027814D01*
X040850Y027814D01*
X040850Y027813D01*
X040337Y027813D01*
X040337Y027601D01*
X040638Y027300D01*
X040851Y027300D01*
X040851Y027813D01*
X039601Y027813D01*
X039601Y028813D01*
X037101Y028813D01*
X036711Y029173D01*
X036711Y030533D01*
X036711Y029777D01*
X036748Y029777D01*
X036823Y029789D01*
X036894Y029812D01*
X036961Y029846D01*
X037022Y029890D01*
X037075Y029944D01*
X037119Y030004D01*
X037153Y030071D01*
X037176Y030143D01*
X037188Y030217D01*
X037188Y030533D01*
X036711Y030533D01*
X036711Y030533D01*
X036711Y030534D01*
X036711Y030534D01*
X036711Y031290D01*
X036748Y031290D01*
X036823Y031278D01*
X036894Y031255D01*
X036961Y031220D01*
X037022Y031176D01*
X037075Y031123D01*
X037119Y031062D01*
X037153Y030995D01*
X037176Y030924D01*
X037188Y030850D01*
X037188Y030534D01*
X036711Y030534D01*
X036711Y031290D01*
X036673Y031290D01*
X036599Y031278D01*
X036527Y031255D01*
X036461Y031220D01*
X036400Y031176D01*
X036347Y031123D01*
X036302Y031062D01*
X036268Y030995D01*
X036245Y030924D01*
X036233Y030850D01*
X036233Y030534D01*
X036710Y030534D01*
X036710Y030533D01*
X036233Y030533D01*
X036233Y030217D01*
X036245Y030143D01*
X036268Y030071D01*
X036302Y030004D01*
X036347Y029944D01*
X036400Y029890D01*
X036461Y029846D01*
X036527Y029812D01*
X036599Y029789D01*
X036673Y029777D01*
X036711Y029777D01*
X036711Y030533D01*
X036707Y030923D01*
X036707Y031813D01*
X038601Y031813D01*
X040101Y033313D01*
X045101Y033313D01*
X045101Y032637D01*
X045135Y032637D01*
X045203Y032648D01*
X045269Y032669D01*
X045330Y032700D01*
X045386Y032741D01*
X045434Y032790D01*
X045475Y032845D01*
X045506Y032907D01*
X045527Y032972D01*
X045538Y033040D01*
X045538Y033313D01*
X045101Y033313D01*
X045101Y033313D01*
X045101Y033314D01*
X045101Y033314D01*
X045101Y033990D01*
X045135Y033990D01*
X045203Y033979D01*
X045269Y033958D01*
X045330Y033926D01*
X045386Y033886D01*
X045434Y033837D01*
X045475Y033781D01*
X045506Y033720D01*
X045527Y033655D01*
X045538Y033587D01*
X045538Y033314D01*
X045101Y033314D01*
X045101Y033990D01*
X045066Y033990D01*
X044998Y033979D01*
X044933Y033958D01*
X044871Y033926D01*
X044816Y033886D01*
X044767Y033837D01*
X044727Y033781D01*
X044695Y033720D01*
X044674Y033655D01*
X044663Y033587D01*
X044663Y033314D01*
X045100Y033314D01*
X045100Y033313D01*
X044663Y033313D01*
X044663Y033040D01*
X044674Y032972D01*
X044695Y032907D01*
X044727Y032845D01*
X044767Y032790D01*
X044816Y032741D01*
X044871Y032700D01*
X044933Y032669D01*
X044998Y032648D01*
X045066Y032637D01*
X045101Y032637D01*
X045101Y033313D01*
X046101Y033313D01*
X046101Y032637D01*
X046135Y032637D01*
X046203Y032648D01*
X046269Y032669D01*
X046330Y032700D01*
X046386Y032741D01*
X046434Y032790D01*
X046475Y032845D01*
X046506Y032907D01*
X046527Y032972D01*
X046538Y033040D01*
X046538Y033313D01*
X046101Y033313D01*
X046101Y033313D01*
X046101Y033314D01*
X046101Y033314D01*
X046101Y033990D01*
X046135Y033990D01*
X046203Y033979D01*
X046269Y033958D01*
X046330Y033926D01*
X046386Y033886D01*
X046434Y033837D01*
X046475Y033781D01*
X046506Y033720D01*
X046527Y033655D01*
X046538Y033587D01*
X046538Y033314D01*
X046101Y033314D01*
X046101Y033990D01*
X046066Y033990D01*
X045998Y033979D01*
X045933Y033958D01*
X045871Y033926D01*
X045816Y033886D01*
X045767Y033837D01*
X045727Y033781D01*
X045695Y033720D01*
X045674Y033655D01*
X045663Y033587D01*
X045663Y033314D01*
X046100Y033314D01*
X046100Y033313D01*
X045663Y033313D01*
X045663Y033040D01*
X045674Y032972D01*
X045695Y032907D01*
X045727Y032845D01*
X045767Y032790D01*
X045816Y032741D01*
X045871Y032700D01*
X045933Y032669D01*
X045998Y032648D01*
X046066Y032637D01*
X046101Y032637D01*
X046101Y033313D01*
X047101Y033313D01*
X047101Y032637D01*
X047135Y032637D01*
X047203Y032648D01*
X047269Y032669D01*
X047330Y032700D01*
X047386Y032741D01*
X047434Y032790D01*
X047475Y032845D01*
X047506Y032907D01*
X047527Y032972D01*
X047538Y033040D01*
X047538Y033313D01*
X047101Y033313D01*
X047101Y033313D01*
X047101Y033314D01*
X047101Y033314D01*
X047101Y033990D01*
X047135Y033990D01*
X047203Y033979D01*
X047269Y033958D01*
X047330Y033926D01*
X047386Y033886D01*
X047434Y033837D01*
X047475Y033781D01*
X047506Y033720D01*
X047527Y033655D01*
X047538Y033587D01*
X047538Y033314D01*
X047101Y033314D01*
X047101Y033990D01*
X047066Y033990D01*
X046998Y033979D01*
X046933Y033958D01*
X046871Y033926D01*
X046816Y033886D01*
X046767Y033837D01*
X046727Y033781D01*
X046695Y033720D01*
X046674Y033655D01*
X046663Y033587D01*
X046663Y033314D01*
X047100Y033314D01*
X047100Y033313D01*
X046663Y033313D01*
X046663Y033040D01*
X046674Y032972D01*
X046695Y032907D01*
X046727Y032845D01*
X046767Y032790D01*
X046816Y032741D01*
X046871Y032700D01*
X046933Y032669D01*
X046998Y032648D01*
X047066Y032637D01*
X047101Y032637D01*
X047101Y033313D01*
X048101Y033313D01*
X048101Y032637D01*
X048135Y032637D01*
X048203Y032648D01*
X048269Y032669D01*
X048330Y032700D01*
X048386Y032741D01*
X048434Y032790D01*
X048475Y032845D01*
X048506Y032907D01*
X048527Y032972D01*
X048538Y033040D01*
X048538Y033313D01*
X048101Y033313D01*
X048101Y033313D01*
X048101Y033314D01*
X048101Y033314D01*
X048101Y033990D01*
X048135Y033990D01*
X048203Y033979D01*
X048269Y033958D01*
X048330Y033926D01*
X048386Y033886D01*
X048434Y033837D01*
X048475Y033781D01*
X048506Y033720D01*
X048527Y033655D01*
X048538Y033587D01*
X048538Y033314D01*
X048101Y033314D01*
X048101Y033990D01*
X048066Y033990D01*
X047998Y033979D01*
X047933Y033958D01*
X047871Y033926D01*
X047816Y033886D01*
X047767Y033837D01*
X047727Y033781D01*
X047695Y033720D01*
X047674Y033655D01*
X047663Y033587D01*
X047663Y033314D01*
X048100Y033314D01*
X048100Y033313D01*
X047663Y033313D01*
X047663Y033040D01*
X047674Y032972D01*
X047695Y032907D01*
X047727Y032845D01*
X047767Y032790D01*
X047816Y032741D01*
X047871Y032700D01*
X047933Y032669D01*
X047998Y032648D01*
X048066Y032637D01*
X048101Y032637D01*
X048101Y033313D01*
X048101Y033258D02*
X048101Y033258D01*
X048101Y033020D02*
X048101Y033020D01*
X048101Y032781D02*
X048101Y032781D01*
X048426Y032781D02*
X052069Y032781D01*
X052069Y032543D02*
X043783Y032543D01*
X043765Y032585D02*
X043631Y032719D01*
X043455Y032792D01*
X042747Y032792D01*
X042571Y032719D01*
X042505Y032653D01*
X041697Y032653D01*
X041631Y032719D01*
X041455Y032792D01*
X040747Y032792D01*
X040571Y032719D01*
X040436Y032585D01*
X040363Y032409D01*
X040363Y032218D01*
X040436Y032042D01*
X040571Y031908D01*
X040747Y031835D01*
X041455Y031835D01*
X041631Y031908D01*
X041697Y031973D01*
X042505Y031973D01*
X042571Y031908D01*
X042747Y031835D01*
X043455Y031835D01*
X043631Y031908D01*
X043765Y032042D01*
X043838Y032218D01*
X043838Y032409D01*
X043765Y032585D01*
X043838Y032304D02*
X052069Y032304D01*
X052069Y032066D02*
X043775Y032066D01*
X043631Y031719D02*
X043455Y031792D01*
X042747Y031792D01*
X042571Y031719D01*
X042436Y031585D01*
X042363Y031409D01*
X042363Y031218D01*
X042436Y031042D01*
X042571Y030908D01*
X042747Y030835D01*
X043455Y030835D01*
X043631Y030908D01*
X043734Y031011D01*
X045009Y031011D01*
X044841Y030941D01*
X044712Y030812D01*
X044646Y030653D01*
X043697Y030653D01*
X043631Y030719D01*
X043455Y030792D01*
X042747Y030792D01*
X042571Y030719D01*
X042505Y030653D01*
X041697Y030653D01*
X041631Y030719D01*
X041455Y030792D01*
X040747Y030792D01*
X040571Y030719D01*
X040441Y030589D01*
X040441Y030960D01*
X040480Y030999D01*
X040571Y030908D01*
X040747Y030835D01*
X041455Y030835D01*
X041631Y030908D01*
X041765Y031042D01*
X041838Y031218D01*
X041838Y031409D01*
X041765Y031585D01*
X041631Y031719D01*
X041455Y031792D01*
X040747Y031792D01*
X040571Y031719D01*
X040542Y031691D01*
X040418Y031691D01*
X040283Y031691D01*
X040158Y031639D01*
X039908Y031389D01*
X039813Y031293D01*
X039761Y031168D01*
X039761Y029668D01*
X039761Y029533D01*
X039813Y029408D01*
X040313Y028908D01*
X040408Y028813D01*
X040533Y028761D01*
X042460Y028761D01*
X042761Y028460D01*
X042761Y027637D01*
X042662Y027736D01*
X042479Y027812D01*
X041723Y027812D01*
X041540Y027736D01*
X041399Y027596D01*
X041323Y027413D01*
X041323Y027214D01*
X041399Y027031D01*
X041540Y026891D01*
X041723Y026815D01*
X042479Y026815D01*
X042662Y026891D01*
X042761Y026989D01*
X042761Y026637D01*
X042662Y026736D01*
X042479Y026812D01*
X041723Y026812D01*
X041540Y026736D01*
X041399Y026596D01*
X041323Y026413D01*
X041323Y026214D01*
X041399Y026031D01*
X041540Y025891D01*
X041723Y025815D01*
X042479Y025815D01*
X042662Y025891D01*
X042761Y025989D01*
X042761Y025637D01*
X042662Y025736D01*
X042479Y025812D01*
X041723Y025812D01*
X041540Y025736D01*
X041399Y025596D01*
X041323Y025413D01*
X041323Y025214D01*
X041399Y025031D01*
X041540Y024891D01*
X041723Y024815D01*
X042479Y024815D01*
X042662Y024891D01*
X042761Y024989D01*
X042761Y024637D01*
X042662Y024736D01*
X042479Y024812D01*
X041723Y024812D01*
X041540Y024736D01*
X041399Y024596D01*
X041323Y024413D01*
X041323Y024214D01*
X041399Y024031D01*
X041540Y023891D01*
X041723Y023815D01*
X042479Y023815D01*
X042662Y023891D01*
X042802Y024031D01*
X042843Y024128D01*
X042908Y024063D01*
X043033Y024011D01*
X044851Y024011D01*
X044865Y023997D01*
X045018Y023934D01*
X045184Y023934D01*
X045337Y023997D01*
X045454Y024115D01*
X045518Y024268D01*
X045518Y024434D01*
X045454Y024587D01*
X045337Y024704D01*
X045184Y024768D01*
X045018Y024768D01*
X044865Y024704D01*
X044851Y024691D01*
X043441Y024691D01*
X043441Y028668D01*
X043389Y028793D01*
X043293Y028889D01*
X042793Y029389D01*
X042668Y029441D01*
X042533Y029441D01*
X040742Y029441D01*
X040441Y029742D01*
X040441Y030038D01*
X040571Y029908D01*
X040747Y029835D01*
X041455Y029835D01*
X041631Y029908D01*
X041697Y029973D01*
X042505Y029973D01*
X042571Y029908D01*
X042747Y029835D01*
X043455Y029835D01*
X043631Y029908D01*
X043697Y029973D01*
X044646Y029973D01*
X044712Y029815D01*
X044841Y029686D01*
X045009Y029616D01*
X045192Y029616D01*
X045361Y029686D01*
X045490Y029815D01*
X045559Y029983D01*
X045559Y030643D01*
X045490Y030812D01*
X045361Y030941D01*
X045192Y031011D01*
X046009Y031011D01*
X045841Y030941D01*
X045712Y030812D01*
X045642Y030643D01*
X045642Y029983D01*
X045712Y029815D01*
X045761Y029766D01*
X045761Y029742D01*
X045460Y029441D01*
X045168Y029441D01*
X045033Y029441D01*
X044908Y029389D01*
X044813Y029293D01*
X044761Y029168D01*
X044761Y025600D01*
X044747Y025587D01*
X044684Y025434D01*
X044684Y025268D01*
X044747Y025115D01*
X044865Y024997D01*
X045018Y024934D01*
X045184Y024934D01*
X045337Y024997D01*
X045454Y025115D01*
X045518Y025268D01*
X045518Y025434D01*
X045454Y025587D01*
X045441Y025600D01*
X045441Y028761D01*
X045668Y028761D01*
X045761Y028799D01*
X045761Y025100D01*
X045747Y025087D01*
X045684Y024934D01*
X045684Y024768D01*
X045747Y024615D01*
X045865Y024497D01*
X046018Y024434D01*
X046184Y024434D01*
X046337Y024497D01*
X046454Y024615D01*
X046518Y024768D01*
X046518Y024934D01*
X046454Y025087D01*
X046441Y025100D01*
X046441Y028710D01*
X046889Y029158D01*
X046941Y029283D01*
X046941Y029418D01*
X046941Y029644D01*
X047009Y029616D01*
X047192Y029616D01*
X047361Y029686D01*
X047490Y029815D01*
X047559Y029983D01*
X047559Y030643D01*
X047490Y030812D01*
X047361Y030941D01*
X047192Y031011D01*
X047009Y031011D01*
X046941Y030982D01*
X046941Y031418D01*
X046889Y031543D01*
X046793Y031639D01*
X046668Y031691D01*
X046533Y031691D01*
X043659Y031691D01*
X043631Y031719D01*
X043138Y031351D02*
X046601Y031351D01*
X046601Y029351D01*
X046101Y028851D01*
X046101Y024851D01*
X046477Y024671D02*
X052069Y024671D01*
X052069Y024909D02*
X046518Y024909D01*
X046441Y025148D02*
X052069Y025148D01*
X052069Y025386D02*
X046441Y025386D01*
X046441Y025625D02*
X052069Y025625D01*
X052069Y025863D02*
X046441Y025863D01*
X046441Y026102D02*
X052069Y026102D01*
X052069Y026341D02*
X046441Y026341D01*
X046441Y026579D02*
X052069Y026579D01*
X052069Y026818D02*
X046441Y026818D01*
X046441Y027056D02*
X052069Y027056D01*
X052069Y027295D02*
X046441Y027295D01*
X046441Y027533D02*
X052069Y027533D01*
X052069Y027772D02*
X046441Y027772D01*
X046441Y028010D02*
X052069Y028010D01*
X052069Y028249D02*
X046441Y028249D01*
X046441Y028487D02*
X052069Y028487D01*
X052069Y028726D02*
X046457Y028726D01*
X046695Y028965D02*
X052069Y028965D01*
X052069Y029203D02*
X046908Y029203D01*
X046941Y029442D02*
X052069Y029442D01*
X052069Y029680D02*
X048347Y029680D01*
X048361Y029686D02*
X048490Y029815D01*
X048559Y029983D01*
X048559Y030643D01*
X048490Y030812D01*
X048361Y030941D01*
X048192Y031011D01*
X048009Y031011D01*
X047841Y030941D01*
X047712Y030812D01*
X047642Y030643D01*
X047642Y029983D01*
X047712Y029815D01*
X047841Y029686D01*
X048009Y029616D01*
X048192Y029616D01*
X048361Y029686D01*
X048533Y029919D02*
X052069Y029919D01*
X052069Y030157D02*
X048559Y030157D01*
X048559Y030396D02*
X052069Y030396D01*
X052069Y030634D02*
X048559Y030634D01*
X048429Y030873D02*
X052069Y030873D01*
X052069Y031111D02*
X046941Y031111D01*
X046941Y031350D02*
X052069Y031350D01*
X052069Y031589D02*
X046844Y031589D01*
X047429Y030873D02*
X047773Y030873D01*
X047642Y030634D02*
X047559Y030634D01*
X047559Y030396D02*
X047642Y030396D01*
X047642Y030157D02*
X047559Y030157D01*
X047533Y029919D02*
X047669Y029919D01*
X047854Y029680D02*
X047347Y029680D01*
X046101Y029601D02*
X046101Y030313D01*
X045642Y030396D02*
X045559Y030396D01*
X045559Y030634D02*
X045642Y030634D01*
X045773Y030873D02*
X045429Y030873D01*
X044773Y030873D02*
X043547Y030873D01*
X043101Y031313D02*
X043138Y031351D01*
X042654Y030873D02*
X041547Y030873D01*
X041794Y031111D02*
X042407Y031111D01*
X042363Y031350D02*
X041838Y031350D01*
X041761Y031589D02*
X042440Y031589D01*
X043101Y032313D02*
X041101Y032313D01*
X041481Y032781D02*
X042721Y032781D01*
X043481Y032781D02*
X044776Y032781D01*
X044667Y033020D02*
X038989Y033020D01*
X038989Y033258D02*
X044663Y033258D01*
X044663Y033497D02*
X038979Y033497D01*
X038989Y033471D02*
X038914Y033655D01*
X038773Y033795D01*
X038590Y033871D01*
X038392Y033871D01*
X038208Y033795D01*
X038068Y033655D01*
X037992Y033471D01*
X037992Y032715D01*
X038068Y032532D01*
X038208Y032392D01*
X038392Y032316D01*
X038590Y032316D01*
X038773Y032392D01*
X038914Y032532D01*
X038989Y032715D01*
X038989Y033471D01*
X038833Y033735D02*
X044703Y033735D01*
X044983Y033974D02*
X023902Y033974D01*
X023941Y033735D02*
X033369Y033735D01*
X033428Y033795D02*
X033288Y033655D01*
X033212Y033471D01*
X033212Y032715D01*
X033288Y032532D01*
X033428Y032392D01*
X033612Y032316D01*
X033810Y032316D01*
X033993Y032392D01*
X034134Y032532D01*
X034209Y032715D01*
X034209Y033471D01*
X034134Y033655D01*
X033993Y033795D01*
X033810Y033871D01*
X033612Y033871D01*
X033428Y033795D01*
X033223Y033497D02*
X023941Y033497D01*
X023941Y033258D02*
X033212Y033258D01*
X033212Y033020D02*
X023941Y033020D01*
X023941Y032781D02*
X033212Y032781D01*
X033284Y032543D02*
X031312Y032543D01*
X031256Y032599D02*
X030915Y032740D01*
X030546Y032740D01*
X030206Y032599D01*
X029945Y032339D01*
X029804Y031998D01*
X029804Y031629D01*
X029945Y031288D01*
X030206Y031027D01*
X030546Y030886D01*
X030915Y030886D01*
X031256Y031027D01*
X031517Y031288D01*
X031658Y031629D01*
X031658Y031998D01*
X031517Y032339D01*
X031256Y032599D01*
X031531Y032304D02*
X040363Y032304D01*
X040419Y032543D02*
X038918Y032543D01*
X038989Y032781D02*
X040721Y032781D01*
X040426Y032066D02*
X031630Y032066D01*
X031658Y031827D02*
X052069Y031827D01*
X052069Y033020D02*
X048535Y033020D01*
X048538Y033258D02*
X052069Y033258D01*
X052069Y033497D02*
X048538Y033497D01*
X048498Y033735D02*
X052069Y033735D01*
X052069Y033974D02*
X048218Y033974D01*
X048101Y033974D02*
X048101Y033974D01*
X047983Y033974D02*
X047218Y033974D01*
X047101Y033974D02*
X047101Y033974D01*
X046983Y033974D02*
X046218Y033974D01*
X046101Y033974D02*
X046101Y033974D01*
X045983Y033974D02*
X045218Y033974D01*
X045101Y033974D02*
X045101Y033974D01*
X045101Y033735D02*
X045101Y033735D01*
X045101Y033497D02*
X045101Y033497D01*
X045101Y033258D02*
X045101Y033258D01*
X045101Y033020D02*
X045101Y033020D01*
X045101Y032781D02*
X045101Y032781D01*
X045426Y032781D02*
X045776Y032781D01*
X045667Y033020D02*
X045535Y033020D01*
X045538Y033258D02*
X045663Y033258D01*
X045663Y033497D02*
X045538Y033497D01*
X045498Y033735D02*
X045703Y033735D01*
X046101Y033735D02*
X046101Y033735D01*
X046101Y033497D02*
X046101Y033497D01*
X046101Y033258D02*
X046101Y033258D01*
X046101Y033020D02*
X046101Y033020D01*
X046101Y032781D02*
X046101Y032781D01*
X046426Y032781D02*
X046776Y032781D01*
X046667Y033020D02*
X046535Y033020D01*
X046538Y033258D02*
X046663Y033258D01*
X046663Y033497D02*
X046538Y033497D01*
X046498Y033735D02*
X046703Y033735D01*
X047101Y033735D02*
X047101Y033735D01*
X047101Y033497D02*
X047101Y033497D01*
X047101Y033258D02*
X047101Y033258D01*
X047101Y033020D02*
X047101Y033020D01*
X047101Y032781D02*
X047101Y032781D01*
X047426Y032781D02*
X047776Y032781D01*
X047667Y033020D02*
X047535Y033020D01*
X047538Y033258D02*
X047663Y033258D01*
X047663Y033497D02*
X047538Y033497D01*
X047498Y033735D02*
X047703Y033735D01*
X048101Y033735D02*
X048101Y033735D01*
X048101Y033497D02*
X048101Y033497D01*
X052069Y034212D02*
X014958Y034212D01*
X014941Y034230D02*
X014941Y034246D01*
X014941Y034381D01*
X014889Y034506D01*
X014793Y034602D01*
X014668Y034653D01*
X012533Y034653D01*
X012408Y034602D01*
X012313Y034506D01*
X011813Y034006D01*
X011761Y033881D01*
X011761Y033746D01*
X011761Y032746D01*
X011813Y032621D01*
X011908Y032525D01*
X012120Y032313D01*
X011960Y032153D01*
X011033Y032153D01*
X010908Y032102D01*
X010813Y032006D01*
X010578Y031771D01*
X010479Y031812D01*
X009723Y031812D01*
X009540Y031736D01*
X009399Y031596D01*
X009323Y031413D01*
X009323Y031214D01*
X009399Y031031D01*
X009540Y030891D01*
X009723Y030815D01*
X010479Y030815D01*
X010662Y030891D01*
X010802Y031031D01*
X010805Y031036D01*
X011242Y031473D01*
X012033Y031473D01*
X012168Y031473D01*
X012293Y031525D01*
X012612Y031843D01*
X012795Y031843D01*
X013071Y032119D01*
X013071Y032508D01*
X012795Y032783D01*
X012612Y032783D01*
X012530Y032865D01*
X012601Y032865D01*
X012787Y032865D01*
X013049Y033128D01*
X013049Y033313D01*
X012601Y033313D01*
X012601Y032865D01*
X012601Y033313D01*
X012601Y033313D01*
X012601Y033314D01*
X012601Y033314D01*
X012601Y033762D01*
X012787Y033762D01*
X013049Y033499D01*
X013049Y033314D01*
X012601Y033314D01*
X012601Y033762D01*
X012530Y033762D01*
X012742Y033973D01*
X014066Y033973D01*
X014066Y033592D01*
X014261Y033397D01*
X014261Y033381D01*
X014261Y033246D01*
X014313Y033121D01*
X014408Y033025D01*
X014533Y032973D01*
X015622Y032973D01*
X015622Y032959D01*
X015695Y032783D01*
X015830Y032649D01*
X016006Y032576D01*
X016196Y032576D01*
X016372Y032649D01*
X016507Y032783D01*
X016579Y032959D01*
X016579Y033667D01*
X016507Y033843D01*
X016372Y033978D01*
X016196Y034051D01*
X016006Y034051D01*
X015830Y033978D01*
X015695Y033843D01*
X015622Y033667D01*
X015622Y033653D01*
X015136Y033653D01*
X015136Y034035D01*
X014941Y034230D01*
X014912Y034451D02*
X052069Y034451D01*
X052069Y034690D02*
X000888Y034690D01*
X000888Y034451D02*
X012258Y034451D01*
X012019Y034212D02*
X000888Y034212D01*
X000888Y033974D02*
X011799Y033974D01*
X011761Y033735D02*
X010663Y033735D01*
X010662Y033736D02*
X010479Y033812D01*
X009723Y033812D01*
X009540Y033736D01*
X009457Y033653D01*
X009017Y033653D01*
X008822Y033848D01*
X008379Y033848D01*
X008066Y033535D01*
X008066Y033259D01*
X006960Y032153D01*
X005168Y032153D01*
X005033Y032153D01*
X004908Y032102D01*
X004813Y032006D01*
X004761Y031881D01*
X004761Y029779D01*
X004531Y029549D01*
X004531Y029077D01*
X004761Y028847D01*
X004761Y027779D01*
X004635Y027653D01*
X003168Y027653D01*
X003033Y027653D01*
X002908Y027602D01*
X002408Y027102D01*
X002313Y027006D01*
X002261Y026881D01*
X002261Y024348D01*
X001879Y024348D01*
X001566Y024035D01*
X001566Y023592D01*
X001879Y023278D01*
X002322Y023278D01*
X002517Y023473D01*
X002668Y023473D01*
X002793Y023525D01*
X002889Y023621D01*
X002941Y023746D01*
X002941Y023881D01*
X002941Y026673D01*
X003242Y026973D01*
X004635Y026973D01*
X004865Y026743D01*
X005337Y026743D01*
X005671Y027077D01*
X005671Y027549D01*
X005441Y027779D01*
X005441Y028847D01*
X005671Y029077D01*
X005671Y029549D01*
X005441Y029779D01*
X005441Y031473D01*
X007168Y031473D01*
X007293Y031525D01*
X007389Y031621D01*
X008547Y032778D01*
X008822Y032778D01*
X009017Y032973D01*
X009457Y032973D01*
X009540Y032891D01*
X009723Y032815D01*
X010479Y032815D01*
X010662Y032891D01*
X010802Y033031D01*
X010878Y033214D01*
X010878Y033413D01*
X010802Y033596D01*
X010662Y033736D01*
X010843Y033497D02*
X011761Y033497D01*
X011761Y033258D02*
X010878Y033258D01*
X010791Y033020D02*
X011761Y033020D01*
X011761Y032781D02*
X010478Y032781D01*
X010491Y032779D02*
X010417Y032791D01*
X010101Y032791D01*
X010101Y032314D01*
X010101Y032314D01*
X010101Y032791D01*
X009784Y032791D01*
X009710Y032779D01*
X009639Y032756D01*
X009572Y032722D01*
X009511Y032678D01*
X009458Y032624D01*
X009414Y032564D01*
X009380Y032497D01*
X009356Y032425D01*
X009345Y032351D01*
X009345Y032314D01*
X010100Y032314D01*
X010100Y032313D01*
X009345Y032313D01*
X009345Y032276D01*
X009356Y032202D01*
X009380Y032130D01*
X009414Y032063D01*
X009458Y032002D01*
X009511Y031949D01*
X009572Y031905D01*
X009639Y031871D01*
X009710Y031848D01*
X009784Y031836D01*
X010101Y031836D01*
X010417Y031836D01*
X010491Y031848D01*
X010563Y031871D01*
X010630Y031905D01*
X010691Y031949D01*
X010744Y032002D01*
X010788Y032063D01*
X010822Y032130D01*
X010845Y032202D01*
X010857Y032276D01*
X010857Y032313D01*
X010101Y032313D01*
X010101Y031836D01*
X010101Y032313D01*
X010101Y032313D01*
X010101Y032314D01*
X010857Y032314D01*
X010857Y032351D01*
X010845Y032425D01*
X010822Y032497D01*
X010788Y032564D01*
X010744Y032624D01*
X010691Y032678D01*
X010630Y032722D01*
X010563Y032756D01*
X010491Y032779D01*
X010799Y032543D02*
X011891Y032543D01*
X012111Y032304D02*
X010857Y032304D01*
X010872Y032066D02*
X010789Y032066D01*
X010634Y031827D02*
X008814Y031827D01*
X008601Y031827D01*
X008601Y031827D01*
X008601Y031314D01*
X008601Y031314D01*
X008601Y031827D01*
X008388Y031827D01*
X007595Y031827D01*
X007357Y031589D02*
X008149Y031589D01*
X008087Y031526D02*
X008388Y031827D01*
X008601Y031589D02*
X008601Y031589D01*
X008601Y031350D02*
X008601Y031350D01*
X008600Y031314D02*
X008600Y031313D01*
X008087Y031313D01*
X008087Y031101D01*
X008388Y030800D01*
X008601Y030800D01*
X008814Y030800D01*
X009114Y031101D01*
X009114Y031313D01*
X008601Y031313D01*
X008601Y030800D01*
X008601Y031313D01*
X008601Y031313D01*
X008601Y031314D01*
X009114Y031314D01*
X009114Y031526D01*
X008814Y031827D01*
X009052Y031589D02*
X009396Y031589D01*
X009323Y031350D02*
X009114Y031350D01*
X009114Y031111D02*
X009366Y031111D01*
X009582Y030873D02*
X008887Y030873D01*
X008601Y030873D02*
X008601Y030873D01*
X008601Y031111D02*
X008601Y031111D01*
X008601Y031313D02*
X008601Y030313D01*
X011601Y030313D01*
X012101Y030813D01*
X012101Y030376D01*
X012282Y030376D01*
X012538Y030632D01*
X012538Y030813D01*
X012101Y030813D01*
X012101Y030813D01*
X012101Y030814D01*
X012101Y030814D01*
X012101Y031251D01*
X012282Y031251D01*
X012538Y030995D01*
X012538Y030814D01*
X012101Y030814D01*
X012101Y031251D01*
X011920Y031251D01*
X011663Y030995D01*
X011663Y030814D01*
X012100Y030814D01*
X012100Y030813D01*
X011663Y030813D01*
X011663Y030632D01*
X011920Y030376D01*
X012101Y030376D01*
X012101Y030813D01*
X013601Y032313D01*
X018101Y032313D01*
X018101Y031313D01*
X018101Y030800D01*
X018314Y030800D01*
X018614Y031101D01*
X018614Y031313D01*
X018101Y031313D01*
X018101Y031313D01*
X018101Y031314D01*
X018101Y031314D01*
X018101Y031827D01*
X018101Y031827D01*
X018314Y031827D01*
X018761Y031827D01*
X018761Y031589D02*
X018552Y031589D01*
X018614Y031526D02*
X018314Y031827D01*
X018101Y031827D02*
X017888Y031827D01*
X012595Y031827D01*
X012357Y031589D02*
X017649Y031589D01*
X017587Y031526D02*
X017888Y031827D01*
X018101Y031827D02*
X018101Y031314D01*
X018614Y031314D01*
X018614Y031526D01*
X018614Y031350D02*
X018761Y031350D01*
X018761Y031111D02*
X018614Y031111D01*
X018761Y030873D02*
X018387Y030873D01*
X018101Y030873D02*
X018101Y030873D01*
X018101Y030800D02*
X017888Y030800D01*
X017587Y031101D01*
X017587Y031313D01*
X018100Y031313D01*
X018100Y031314D01*
X017587Y031314D01*
X017587Y031526D01*
X017587Y031350D02*
X011118Y031350D01*
X010880Y031111D02*
X011780Y031111D01*
X011663Y030873D02*
X010619Y030873D01*
X010601Y031313D02*
X010101Y031313D01*
X010601Y031313D02*
X011101Y031813D01*
X012101Y031813D01*
X012601Y032313D01*
X012101Y032813D01*
X012101Y033813D01*
X012601Y034313D01*
X014601Y034313D01*
X014601Y033813D01*
X014601Y033313D01*
X016101Y033313D01*
X016579Y033258D02*
X016622Y033258D01*
X016622Y033020D02*
X016579Y033020D01*
X016504Y032781D02*
X016697Y032781D01*
X017101Y033313D02*
X018101Y033313D01*
X020101Y033313D01*
X020601Y033813D01*
X023601Y033813D01*
X023601Y032813D01*
X022101Y032813D01*
X021101Y031813D01*
X019101Y031813D01*
X019101Y029313D01*
X021101Y029313D01*
X021101Y019813D01*
X020601Y019313D01*
X018601Y019313D01*
X018101Y019813D01*
X017601Y019813D01*
X017601Y019291D02*
X017284Y019291D01*
X017210Y019279D01*
X017139Y019256D01*
X017072Y019222D01*
X017011Y019178D01*
X016958Y019124D01*
X016914Y019064D01*
X016880Y018997D01*
X016856Y018925D01*
X016845Y018851D01*
X016845Y018814D01*
X017600Y018814D01*
X017600Y018813D01*
X016845Y018813D01*
X016845Y018776D01*
X016856Y018702D01*
X016880Y018630D01*
X016914Y018563D01*
X016958Y018502D01*
X017011Y018449D01*
X017072Y018405D01*
X017139Y018371D01*
X017210Y018348D01*
X017284Y018336D01*
X017601Y018336D01*
X017917Y018336D01*
X017991Y018348D01*
X018063Y018371D01*
X018130Y018405D01*
X018191Y018449D01*
X018244Y018502D01*
X018288Y018563D01*
X018322Y018630D01*
X018345Y018702D01*
X018357Y018776D01*
X018357Y018813D01*
X017601Y018813D01*
X017601Y018336D01*
X017601Y018813D01*
X017601Y018813D01*
X017601Y018814D01*
X017601Y018814D01*
X017601Y019291D01*
X017917Y019291D01*
X017991Y019279D01*
X018063Y019256D01*
X018130Y019222D01*
X018191Y019178D01*
X018244Y019124D01*
X018288Y019064D01*
X018322Y018997D01*
X018345Y018925D01*
X018357Y018851D01*
X018357Y018814D01*
X017601Y018814D01*
X017601Y019291D01*
X017601Y019184D02*
X017601Y019184D01*
X017601Y018946D02*
X017601Y018946D01*
X017601Y018813D02*
X017601Y018313D01*
X022101Y018313D01*
X022101Y020294D01*
X022111Y020303D01*
X024022Y020303D01*
X024022Y019538D01*
X024142Y019423D02*
X023595Y019423D01*
X023599Y019424D02*
X023728Y019554D01*
X023798Y019722D01*
X023798Y019905D01*
X023728Y020073D01*
X023599Y020202D01*
X023431Y020272D01*
X022771Y020272D01*
X022602Y020202D01*
X022473Y020073D01*
X022403Y019905D01*
X022403Y019722D01*
X022473Y019554D01*
X022602Y019424D01*
X022761Y019359D01*
X022761Y019246D01*
X022813Y019121D01*
X022908Y019025D01*
X023408Y018525D01*
X023533Y018473D01*
X023668Y018473D01*
X023792Y018473D01*
X023911Y018355D01*
X024079Y018355D01*
X024280Y018153D01*
X016033Y018153D01*
X015908Y018102D01*
X015813Y018006D01*
X014960Y017153D01*
X012339Y017153D01*
X012559Y017373D01*
X012559Y017753D01*
X015560Y017753D01*
X015798Y017992D02*
X012898Y017992D01*
X012782Y017876D02*
X013038Y018132D01*
X013038Y018313D01*
X012601Y018313D01*
X012601Y017876D01*
X012782Y017876D01*
X012601Y017876D02*
X012601Y018313D01*
X012601Y018313D01*
X012601Y018314D01*
X012601Y018314D01*
X012601Y018751D01*
X012782Y018751D01*
X013038Y018495D01*
X013038Y018314D01*
X012601Y018314D01*
X012601Y018751D01*
X012420Y018751D01*
X012163Y018495D01*
X012163Y018314D01*
X012600Y018314D01*
X012600Y018313D01*
X012163Y018313D01*
X012163Y018132D01*
X012273Y018022D01*
X011958Y018022D01*
X012059Y018123D01*
X012059Y018503D01*
X011791Y018772D01*
X011623Y018772D01*
X011441Y018954D01*
X011441Y019359D01*
X011599Y019424D01*
X011728Y019554D01*
X011798Y019722D01*
X011798Y019905D01*
X011728Y020073D01*
X011599Y020202D01*
X011431Y020272D01*
X010771Y020272D01*
X010602Y020202D01*
X010553Y020153D01*
X010242Y020153D01*
X009832Y020563D01*
X010242Y020973D01*
X010432Y020973D01*
X010403Y020905D01*
X010403Y020722D01*
X010473Y020554D01*
X010602Y020424D01*
X010771Y020355D01*
X011431Y020355D01*
X011599Y020424D01*
X011648Y020473D01*
X012553Y020473D01*
X012602Y020424D01*
X012771Y020355D01*
X013431Y020355D01*
X013599Y020424D01*
X013728Y020554D01*
X013798Y020722D01*
X013798Y020905D01*
X013770Y020973D01*
X015432Y020973D01*
X015403Y020905D01*
X015403Y020722D01*
X015473Y020554D01*
X015602Y020424D01*
X015771Y020355D01*
X016431Y020355D01*
X016599Y020424D01*
X016648Y020473D01*
X016957Y020473D01*
X017040Y020391D01*
X017223Y020315D01*
X017979Y020315D01*
X018162Y020391D01*
X018302Y020531D01*
X018378Y020714D01*
X018378Y020913D01*
X018353Y020973D01*
X018460Y020973D01*
X018813Y020621D01*
X018908Y020525D01*
X019033Y020473D01*
X019553Y020473D01*
X019602Y020424D01*
X019771Y020355D01*
X020431Y020355D01*
X020599Y020424D01*
X020728Y020554D01*
X020761Y020632D01*
X020761Y019954D01*
X020755Y019949D01*
X020745Y019981D01*
X020714Y020043D01*
X020673Y020098D01*
X020624Y020147D01*
X020569Y020188D01*
X020507Y020219D01*
X020442Y020240D01*
X020374Y020251D01*
X020101Y020251D01*
X020101Y019814D01*
X020101Y019814D01*
X020101Y020251D01*
X019828Y020251D01*
X019760Y020240D01*
X019694Y020219D01*
X019633Y020188D01*
X019577Y020147D01*
X019528Y020098D01*
X019488Y020043D01*
X019457Y019981D01*
X019435Y019916D01*
X019425Y019848D01*
X019425Y019814D01*
X020100Y019814D01*
X020100Y019813D01*
X019425Y019813D01*
X019425Y019779D01*
X019435Y019711D01*
X019454Y019653D01*
X018742Y019653D01*
X018305Y020090D01*
X018302Y020096D01*
X018162Y020236D01*
X017979Y020312D01*
X017223Y020312D01*
X017040Y020236D01*
X016899Y020096D01*
X016823Y019913D01*
X016823Y019714D01*
X016899Y019531D01*
X017040Y019391D01*
X017223Y019315D01*
X017979Y019315D01*
X018078Y019356D01*
X018313Y019121D01*
X018408Y019025D01*
X018533Y018973D01*
X020533Y018973D01*
X020668Y018973D01*
X020793Y019025D01*
X021389Y019621D01*
X021441Y019746D01*
X021441Y019881D01*
X021441Y028973D01*
X022432Y028973D01*
X022403Y028905D01*
X022403Y028722D01*
X022473Y028554D01*
X022602Y028424D01*
X022771Y028355D01*
X023431Y028355D01*
X023599Y028424D01*
X023648Y028473D01*
X025184Y028473D01*
X025379Y028278D01*
X025822Y028278D01*
X026136Y028592D01*
X026136Y029035D01*
X025941Y029230D01*
X025941Y030397D01*
X026136Y030592D01*
X026136Y031035D01*
X025822Y031348D01*
X025379Y031348D01*
X025066Y031035D01*
X025066Y030592D01*
X025261Y030397D01*
X025261Y029230D01*
X025184Y029153D01*
X023648Y029153D01*
X023599Y029202D01*
X023441Y029268D01*
X023441Y029381D01*
X023389Y029506D01*
X023293Y029602D01*
X023168Y029653D01*
X021168Y029653D01*
X021033Y029653D01*
X019441Y029653D01*
X019441Y030989D01*
X019540Y030891D01*
X019723Y030815D01*
X020479Y030815D01*
X020662Y030891D01*
X020745Y030973D01*
X022261Y030973D01*
X022261Y030679D01*
X022102Y030520D01*
X022102Y030107D01*
X022394Y029815D01*
X022807Y029815D01*
X023099Y030107D01*
X023099Y030520D01*
X022941Y030679D01*
X022941Y031381D01*
X022941Y031973D01*
X025960Y031973D01*
X026261Y031673D01*
X026261Y029881D01*
X026261Y029746D01*
X026313Y029621D01*
X026408Y029525D01*
X026533Y029473D01*
X028960Y029473D01*
X029261Y029173D01*
X029261Y027746D01*
X029299Y027653D01*
X028941Y027653D01*
X028941Y028397D01*
X029136Y028592D01*
X029136Y029035D01*
X028822Y029348D01*
X028379Y029348D01*
X028066Y029035D01*
X028066Y028592D01*
X028261Y028397D01*
X028261Y027381D01*
X028261Y027246D01*
X028299Y027153D01*
X027742Y027153D01*
X026889Y028006D01*
X026793Y028102D01*
X026668Y028153D01*
X025245Y028153D01*
X025162Y028236D01*
X024979Y028312D01*
X024223Y028312D01*
X024040Y028236D01*
X023957Y028153D01*
X023648Y028153D01*
X023599Y028202D01*
X023431Y028272D01*
X022771Y028272D01*
X022602Y028202D01*
X022473Y028073D01*
X022403Y027905D01*
X022403Y027722D01*
X022473Y027554D01*
X022602Y027424D01*
X022771Y027355D01*
X023431Y027355D01*
X023599Y027424D01*
X023648Y027473D01*
X023957Y027473D01*
X024040Y027391D01*
X024223Y027315D01*
X024979Y027315D01*
X025162Y027391D01*
X025245Y027473D01*
X026460Y027473D01*
X027280Y026653D01*
X026742Y026653D01*
X026293Y027102D01*
X026168Y027153D01*
X026033Y027153D01*
X025245Y027153D01*
X025162Y027236D01*
X024979Y027312D01*
X024223Y027312D01*
X024040Y027236D01*
X023957Y027153D01*
X023648Y027153D01*
X023599Y027202D01*
X023431Y027272D01*
X022771Y027272D01*
X022602Y027202D01*
X022473Y027073D01*
X022403Y026905D01*
X022403Y026722D01*
X022473Y026554D01*
X022602Y026424D01*
X022771Y026355D01*
X023431Y026355D01*
X023599Y026424D01*
X023648Y026473D01*
X023957Y026473D01*
X024040Y026391D01*
X024223Y026315D01*
X024979Y026315D01*
X025162Y026391D01*
X025245Y026473D01*
X025960Y026473D01*
X026280Y026153D01*
X025245Y026153D01*
X025162Y026236D01*
X024979Y026312D01*
X024223Y026312D01*
X024040Y026236D01*
X023957Y026153D01*
X023648Y026153D01*
X023599Y026202D01*
X023431Y026272D01*
X022771Y026272D01*
X022602Y026202D01*
X022473Y026073D01*
X022403Y025905D01*
X022403Y025722D01*
X022473Y025554D01*
X022602Y025424D01*
X022771Y025355D01*
X023431Y025355D01*
X023599Y025424D01*
X023648Y025473D01*
X023957Y025473D01*
X024040Y025391D01*
X024223Y025315D01*
X024979Y025315D01*
X025162Y025391D01*
X025245Y025473D01*
X025280Y025473D01*
X025078Y025271D01*
X024979Y025312D01*
X024223Y025312D01*
X024040Y025236D01*
X023957Y025153D01*
X023648Y025153D01*
X023599Y025202D01*
X023431Y025272D01*
X022771Y025272D01*
X022602Y025202D01*
X022473Y025073D01*
X022403Y024905D01*
X022403Y024722D01*
X022473Y024554D01*
X022602Y024424D01*
X022771Y024355D01*
X023431Y024355D01*
X023599Y024424D01*
X023648Y024473D01*
X023957Y024473D01*
X024040Y024391D01*
X024223Y024315D01*
X024979Y024315D01*
X025162Y024391D01*
X025302Y024531D01*
X025305Y024536D01*
X025742Y024973D01*
X025780Y024973D01*
X025078Y024271D01*
X024979Y024312D01*
X024223Y024312D01*
X024040Y024236D01*
X023957Y024153D01*
X023648Y024153D01*
X023599Y024202D01*
X023431Y024272D01*
X022771Y024272D01*
X022602Y024202D01*
X022473Y024073D01*
X022403Y023905D01*
X022403Y023722D01*
X022473Y023554D01*
X022602Y023424D01*
X022771Y023355D01*
X023431Y023355D01*
X023599Y023424D01*
X023648Y023473D01*
X023957Y023473D01*
X024040Y023391D01*
X024223Y023315D01*
X024979Y023315D01*
X025162Y023391D01*
X025302Y023531D01*
X025305Y023536D01*
X025389Y023621D01*
X026242Y024473D01*
X026280Y024473D01*
X025078Y023271D01*
X024979Y023312D01*
X024223Y023312D01*
X024040Y023236D01*
X023957Y023153D01*
X023648Y023153D01*
X023599Y023202D01*
X023431Y023272D01*
X022771Y023272D01*
X022602Y023202D01*
X022473Y023073D01*
X022403Y022905D01*
X022403Y022722D01*
X022473Y022554D01*
X022602Y022424D01*
X022771Y022355D01*
X023431Y022355D01*
X023599Y022424D01*
X023648Y022473D01*
X023957Y022473D01*
X024040Y022391D01*
X024223Y022315D01*
X024979Y022315D01*
X025162Y022391D01*
X025302Y022531D01*
X025305Y022536D01*
X025761Y022993D01*
X025761Y022954D01*
X025078Y022271D01*
X024979Y022312D01*
X024223Y022312D01*
X024040Y022236D01*
X023957Y022153D01*
X023648Y022153D01*
X023599Y022202D01*
X023431Y022272D01*
X022771Y022272D01*
X022602Y022202D01*
X022473Y022073D01*
X022403Y021905D01*
X022403Y021722D01*
X022473Y021554D01*
X022602Y021424D01*
X022771Y021355D01*
X023431Y021355D01*
X023599Y021424D01*
X023648Y021473D01*
X023957Y021473D01*
X024040Y021391D01*
X024223Y021315D01*
X024979Y021315D01*
X025162Y021391D01*
X025302Y021531D01*
X025305Y021536D01*
X026190Y022422D01*
X026195Y022407D01*
X026227Y022345D01*
X026267Y022290D01*
X026316Y022241D01*
X026371Y022200D01*
X026433Y022169D01*
X026498Y022148D01*
X026566Y022137D01*
X026601Y022137D01*
X026635Y022137D01*
X026703Y022148D01*
X026769Y022169D01*
X026830Y022200D01*
X026886Y022241D01*
X026934Y022290D01*
X026975Y022345D01*
X027006Y022407D01*
X027027Y022472D01*
X027038Y022540D01*
X027038Y022813D01*
X026601Y022813D01*
X026601Y022137D01*
X026601Y022813D01*
X026601Y022813D01*
X026601Y022814D01*
X027038Y022814D01*
X027038Y023087D01*
X027027Y023155D01*
X027006Y023220D01*
X026975Y023281D01*
X026934Y023337D01*
X026886Y023386D01*
X026830Y023426D01*
X026769Y023458D01*
X026736Y023468D01*
X026742Y023473D01*
X027419Y023473D01*
X027341Y023441D01*
X027212Y023312D01*
X027142Y023143D01*
X027142Y022656D01*
X026821Y022015D01*
X025960Y021153D01*
X025245Y021153D01*
X025162Y021236D01*
X024979Y021312D01*
X024223Y021312D01*
X024040Y021236D01*
X023957Y021153D01*
X023648Y021153D01*
X023599Y021202D01*
X023431Y021272D01*
X022771Y021272D01*
X022602Y021202D01*
X022473Y021073D01*
X022403Y020905D01*
X022403Y020722D01*
X022473Y020554D01*
X022602Y020424D01*
X022771Y020355D01*
X023431Y020355D01*
X023599Y020424D01*
X023648Y020473D01*
X023957Y020473D01*
X024040Y020391D01*
X024223Y020315D01*
X024979Y020315D01*
X025162Y020391D01*
X025245Y020473D01*
X026033Y020473D01*
X026168Y020473D01*
X026293Y020525D01*
X027332Y021564D01*
X027375Y021601D01*
X027380Y021612D01*
X027389Y021621D01*
X027410Y021672D01*
X027632Y022116D01*
X027692Y022116D01*
X027861Y022186D01*
X027990Y022315D01*
X028059Y022483D01*
X028059Y022874D01*
X028142Y022791D01*
X028142Y022483D01*
X028212Y022315D01*
X028341Y022186D01*
X028509Y022116D01*
X028692Y022116D01*
X028861Y022186D01*
X028990Y022315D01*
X029059Y022483D01*
X029059Y022874D01*
X029142Y022791D01*
X029142Y022483D01*
X029212Y022315D01*
X029341Y022186D01*
X029509Y022116D01*
X029692Y022116D01*
X029861Y022186D01*
X029990Y022315D01*
X030059Y022483D01*
X030059Y022874D01*
X030142Y022791D01*
X030142Y022483D01*
X030212Y022315D01*
X030341Y022186D01*
X030509Y022116D01*
X030692Y022116D01*
X030861Y022186D01*
X030990Y022315D01*
X031059Y022483D01*
X031059Y022874D01*
X031142Y022791D01*
X031142Y022483D01*
X031212Y022315D01*
X031341Y022186D01*
X031509Y022116D01*
X031692Y022116D01*
X031861Y022186D01*
X031990Y022315D01*
X032059Y022483D01*
X032059Y022874D01*
X032142Y022791D01*
X032142Y022483D01*
X032212Y022315D01*
X032341Y022186D01*
X032509Y022116D01*
X032692Y022116D01*
X032861Y022186D01*
X032990Y022315D01*
X033059Y022483D01*
X033059Y022874D01*
X033142Y022791D01*
X033142Y022483D01*
X033212Y022315D01*
X033341Y022186D01*
X033509Y022116D01*
X033692Y022116D01*
X033861Y022186D01*
X033990Y022315D01*
X034059Y022483D01*
X034059Y022874D01*
X034142Y022791D01*
X034142Y022483D01*
X034212Y022315D01*
X034341Y022186D01*
X034509Y022116D01*
X034692Y022116D01*
X034861Y022186D01*
X034990Y022315D01*
X035059Y022483D01*
X035059Y023143D01*
X034990Y023312D01*
X034861Y023441D01*
X034782Y023473D01*
X034960Y023473D01*
X035261Y023173D01*
X035261Y021954D01*
X034960Y021653D01*
X027668Y021653D01*
X027533Y021653D01*
X027408Y021602D01*
X026813Y021006D01*
X026761Y020881D01*
X026761Y020746D01*
X026761Y020482D01*
X026692Y020511D01*
X026509Y020511D01*
X026341Y020441D01*
X026212Y020312D01*
X026142Y020143D01*
X026142Y019483D01*
X026212Y019315D01*
X026341Y019186D01*
X026509Y019116D01*
X026692Y019116D01*
X026761Y019144D01*
X026761Y018954D01*
X026460Y018653D01*
X025538Y018653D01*
X025538Y018813D01*
X025101Y018813D01*
X025101Y018814D01*
X025101Y018814D01*
X025101Y019251D01*
X025282Y019251D01*
X025538Y018995D01*
X025538Y018814D01*
X025101Y018814D01*
X025101Y019251D01*
X024937Y019251D01*
X025059Y019373D01*
X025059Y019753D01*
X024791Y020022D01*
X024411Y020022D01*
X024142Y019753D01*
X024142Y019373D01*
X024243Y019272D01*
X023911Y019272D01*
X023792Y019153D01*
X023742Y019153D01*
X023508Y019387D01*
X023599Y019424D01*
X023711Y019184D02*
X023823Y019184D01*
X023601Y018813D02*
X023101Y019313D01*
X023101Y019813D01*
X022606Y019423D02*
X021191Y019423D01*
X021406Y019661D02*
X022428Y019661D01*
X022403Y019900D02*
X021441Y019900D01*
X021441Y020138D02*
X022538Y020138D01*
X022717Y020377D02*
X021441Y020377D01*
X021441Y020616D02*
X022447Y020616D01*
X022403Y020854D02*
X021441Y020854D01*
X021441Y021093D02*
X022493Y021093D01*
X022101Y021313D02*
X025601Y021313D01*
X026601Y022313D01*
X026601Y022813D01*
X026601Y022762D02*
X026601Y022762D01*
X026601Y022524D02*
X026601Y022524D01*
X026601Y022285D02*
X026601Y022285D01*
X026930Y022285D02*
X026957Y022285D01*
X027036Y022524D02*
X027076Y022524D01*
X027038Y022762D02*
X027142Y022762D01*
X027142Y023001D02*
X027038Y023001D01*
X026996Y023239D02*
X027182Y023239D01*
X027601Y022813D02*
X027101Y021813D01*
X026101Y020813D01*
X024601Y020813D01*
X023101Y020813D01*
X023485Y020377D02*
X024072Y020377D01*
X023663Y020138D02*
X026142Y020138D01*
X026142Y019900D02*
X024913Y019900D01*
X025059Y019661D02*
X026142Y019661D01*
X026167Y019423D02*
X025059Y019423D01*
X025101Y019184D02*
X025101Y019184D01*
X025101Y018946D02*
X025101Y018946D01*
X025100Y018814D02*
X025100Y018813D01*
X024663Y018813D01*
X024663Y018732D01*
X024559Y018835D01*
X024559Y019003D01*
X024458Y019105D01*
X024773Y019105D01*
X024663Y018995D01*
X024663Y018814D01*
X025100Y018814D01*
X025101Y018813D02*
X024747Y018813D01*
X024663Y018946D02*
X024559Y018946D01*
X024101Y018813D02*
X024601Y018313D01*
X026601Y018313D01*
X027101Y018813D01*
X027101Y020813D01*
X027601Y021313D01*
X035101Y021313D01*
X035601Y021813D01*
X035601Y023313D01*
X035101Y023813D01*
X034601Y023813D01*
X031101Y027313D01*
X028601Y027313D01*
X028601Y028813D01*
X028968Y029203D02*
X029230Y029203D01*
X029261Y028965D02*
X029136Y028965D01*
X029136Y028726D02*
X029261Y028726D01*
X029261Y028487D02*
X029031Y028487D01*
X028941Y028249D02*
X029261Y028249D01*
X029261Y028010D02*
X028941Y028010D01*
X028941Y027772D02*
X029261Y027772D01*
X030101Y028313D02*
X032101Y028313D01*
X034601Y025813D01*
X036601Y025813D01*
X037059Y025863D02*
X037142Y025863D01*
X037142Y026003D02*
X037142Y025623D01*
X037411Y025355D01*
X037579Y025355D01*
X039261Y023673D01*
X039601Y023813D02*
X039601Y018313D01*
X040101Y017813D01*
X039642Y017791D02*
X039642Y017623D01*
X039743Y017522D01*
X039428Y017522D01*
X039538Y017632D01*
X039538Y017813D01*
X039101Y017813D01*
X039101Y017376D01*
X039265Y017376D01*
X039142Y017253D01*
X039142Y016903D01*
X036992Y016903D01*
X036389Y017506D01*
X036293Y017602D01*
X036168Y017653D01*
X034941Y017653D01*
X034941Y019266D01*
X034990Y019315D01*
X035059Y019483D01*
X035059Y020143D01*
X034990Y020312D01*
X034861Y020441D01*
X034692Y020511D01*
X034509Y020511D01*
X034341Y020441D01*
X034212Y020312D01*
X034142Y020143D01*
X034142Y019483D01*
X034212Y019315D01*
X034261Y019266D01*
X034261Y017381D01*
X034261Y017246D01*
X034313Y017121D01*
X034408Y017025D01*
X034533Y016973D01*
X035960Y016973D01*
X036563Y016371D01*
X036658Y016275D01*
X036783Y016223D01*
X041254Y016223D01*
X041184Y016153D01*
X036742Y016153D01*
X036043Y016852D01*
X035918Y016903D01*
X035783Y016903D01*
X033941Y016903D01*
X033941Y019266D01*
X033990Y019315D01*
X034059Y019483D01*
X034059Y020143D01*
X033990Y020312D01*
X033861Y020441D01*
X033692Y020511D01*
X033509Y020511D01*
X033341Y020441D01*
X033212Y020312D01*
X033142Y020143D01*
X033142Y019483D01*
X033212Y019315D01*
X033261Y019266D01*
X033261Y016631D01*
X033261Y016496D01*
X033313Y016371D01*
X033408Y016275D01*
X033533Y016223D01*
X035254Y016223D01*
X035184Y016153D01*
X033242Y016153D01*
X032941Y016454D01*
X032941Y019266D01*
X032990Y019315D01*
X033059Y019483D01*
X033059Y020143D01*
X032990Y020312D01*
X032861Y020441D01*
X032692Y020511D01*
X032509Y020511D01*
X032341Y020441D01*
X032212Y020312D01*
X032142Y020143D01*
X032142Y019483D01*
X032212Y019315D01*
X032261Y019266D01*
X032261Y016381D01*
X032261Y016246D01*
X032313Y016121D01*
X032813Y015621D01*
X032908Y015525D01*
X033033Y015473D01*
X035184Y015473D01*
X035379Y015278D01*
X035822Y015278D01*
X036136Y015592D01*
X036136Y015798D01*
X036313Y015621D01*
X036408Y015525D01*
X036533Y015473D01*
X041184Y015473D01*
X041379Y015278D01*
X041822Y015278D01*
X042136Y015592D01*
X042136Y016035D01*
X041947Y016223D01*
X042419Y016223D01*
X042799Y015652D01*
X042813Y015621D01*
X042836Y015597D01*
X042855Y015569D01*
X042884Y015549D01*
X042908Y015525D01*
X042940Y015512D01*
X042968Y015493D01*
X043001Y015487D01*
X043033Y015473D01*
X043067Y015473D01*
X043100Y015467D01*
X043134Y015473D01*
X047184Y015473D01*
X047379Y015278D01*
X047822Y015278D01*
X048136Y015592D01*
X048136Y016035D01*
X047822Y016348D01*
X047379Y016348D01*
X047184Y016153D01*
X043283Y016153D01*
X042902Y016724D01*
X042889Y016756D01*
X042865Y016780D01*
X042846Y016808D01*
X042818Y016827D01*
X042793Y016852D01*
X042762Y016865D01*
X042734Y016883D01*
X042700Y016890D01*
X042668Y016903D01*
X042634Y016903D01*
X042601Y016910D01*
X042567Y016903D01*
X040059Y016903D01*
X040059Y017253D01*
X039958Y017355D01*
X040291Y017355D01*
X040559Y017623D01*
X040559Y018003D01*
X040291Y018272D01*
X040123Y018272D01*
X039941Y018454D01*
X039941Y020993D01*
X040813Y020121D01*
X040908Y020025D01*
X041033Y019973D01*
X046033Y019973D01*
X046168Y019973D01*
X046293Y020025D01*
X046389Y020121D01*
X046441Y020246D01*
X046441Y022064D01*
X046454Y022077D01*
X046518Y022230D01*
X046518Y022396D01*
X046454Y022549D01*
X046337Y022667D01*
X046184Y022730D01*
X046018Y022730D01*
X045865Y022667D01*
X045747Y022549D01*
X045684Y022396D01*
X045684Y022230D01*
X045747Y022077D01*
X045761Y022064D01*
X045761Y020653D01*
X041242Y020653D01*
X040441Y021454D01*
X040441Y024798D01*
X040445Y024850D01*
X040441Y024865D01*
X040441Y024881D01*
X040421Y024929D01*
X040405Y024979D01*
X040395Y024991D01*
X040389Y025006D01*
X040352Y025043D01*
X039386Y026202D01*
X039386Y026535D01*
X039191Y026730D01*
X039191Y027397D01*
X039386Y027592D01*
X039386Y028035D01*
X039072Y028348D01*
X038629Y028348D01*
X038434Y028153D01*
X034287Y028153D01*
X034051Y028523D01*
X034051Y029889D01*
X034134Y029972D01*
X034209Y030155D01*
X034209Y030911D01*
X034134Y031095D01*
X033993Y031235D01*
X033810Y031311D01*
X033612Y031311D01*
X033428Y031235D01*
X033288Y031095D01*
X033212Y030911D01*
X033212Y030155D01*
X033288Y029972D01*
X033371Y029889D01*
X033371Y028460D01*
X033364Y028430D01*
X033371Y028393D01*
X033371Y028356D01*
X033383Y028327D01*
X033388Y028297D01*
X033408Y028266D01*
X033423Y028231D01*
X033444Y028209D01*
X033798Y027656D01*
X033813Y027621D01*
X033834Y027599D01*
X033851Y027573D01*
X033882Y027552D01*
X033908Y027525D01*
X033936Y027513D01*
X033962Y027496D01*
X033998Y027488D01*
X034033Y027473D01*
X034064Y027473D01*
X034094Y027467D01*
X034131Y027473D01*
X038434Y027473D01*
X038511Y027397D01*
X038511Y026730D01*
X038316Y026535D01*
X038316Y026092D01*
X038629Y025778D01*
X038854Y025778D01*
X039761Y024690D01*
X039761Y024134D01*
X038059Y025835D01*
X038059Y026003D01*
X037791Y026272D01*
X037411Y026272D01*
X037142Y026003D01*
X037241Y026102D02*
X036961Y026102D01*
X037601Y025813D02*
X039601Y023813D01*
X039701Y024194D02*
X039761Y024194D01*
X039761Y024432D02*
X039463Y024432D01*
X039224Y024671D02*
X039761Y024671D01*
X039578Y024909D02*
X038986Y024909D01*
X038747Y025148D02*
X039379Y025148D01*
X039181Y025386D02*
X038509Y025386D01*
X038270Y025625D02*
X038982Y025625D01*
X038544Y025863D02*
X038059Y025863D01*
X037961Y026102D02*
X038316Y026102D01*
X038316Y026341D02*
X034554Y026341D01*
X034316Y026579D02*
X038360Y026579D01*
X038511Y026818D02*
X034077Y026818D01*
X033839Y027056D02*
X038511Y027056D01*
X038511Y027295D02*
X033600Y027295D01*
X033362Y027533D02*
X033900Y027533D01*
X033724Y027772D02*
X033123Y027772D01*
X032885Y028010D02*
X033571Y028010D01*
X033415Y028249D02*
X032646Y028249D01*
X032407Y028487D02*
X033371Y028487D01*
X033371Y028726D02*
X030441Y028726D01*
X030441Y028965D02*
X033371Y028965D01*
X033371Y029203D02*
X030441Y029203D01*
X030441Y029442D02*
X033371Y029442D01*
X033371Y029680D02*
X030441Y029680D01*
X030425Y029919D02*
X033341Y029919D01*
X033212Y030157D02*
X030238Y030157D01*
X029999Y030396D02*
X033212Y030396D01*
X033212Y030634D02*
X029761Y030634D01*
X029522Y030873D02*
X033212Y030873D01*
X033305Y031111D02*
X031340Y031111D01*
X031542Y031350D02*
X039869Y031350D01*
X039908Y031389D02*
X039908Y031389D01*
X040108Y031589D02*
X031641Y031589D01*
X030122Y031111D02*
X029270Y031111D01*
X029101Y030813D02*
X030101Y029813D01*
X030101Y028313D01*
X029753Y029680D02*
X029715Y029680D01*
X029515Y029919D02*
X029476Y029919D01*
X029276Y030157D02*
X026941Y030157D01*
X026941Y030396D02*
X028262Y030396D01*
X028066Y030634D02*
X026941Y030634D01*
X026941Y030873D02*
X028066Y030873D01*
X028142Y031111D02*
X026941Y031111D01*
X026941Y031350D02*
X029919Y031350D01*
X029820Y031589D02*
X026941Y031589D01*
X026941Y031827D02*
X029804Y031827D01*
X029832Y032066D02*
X026829Y032066D01*
X026591Y032304D02*
X029931Y032304D01*
X030149Y032543D02*
X026352Y032543D01*
X026106Y031827D02*
X022941Y031827D01*
X022941Y031589D02*
X026261Y031589D01*
X026261Y031350D02*
X022941Y031350D01*
X022941Y031111D02*
X025142Y031111D01*
X025066Y030873D02*
X022941Y030873D01*
X022985Y030634D02*
X025066Y030634D01*
X025261Y030396D02*
X023099Y030396D01*
X023099Y030157D02*
X025261Y030157D01*
X025261Y029919D02*
X022911Y029919D01*
X022290Y029919D02*
X019441Y029919D01*
X019441Y030157D02*
X022102Y030157D01*
X022102Y030396D02*
X019441Y030396D01*
X019441Y030634D02*
X022216Y030634D01*
X022261Y030873D02*
X020619Y030873D01*
X020101Y031313D02*
X022601Y031313D01*
X021349Y032543D02*
X020799Y032543D01*
X020857Y032304D02*
X021111Y032304D01*
X021101Y032813D02*
X021601Y033313D01*
X022601Y033313D01*
X022601Y033314D01*
X023049Y033314D01*
X023049Y033473D01*
X023261Y033473D01*
X023261Y033153D01*
X023049Y033153D01*
X023049Y033313D01*
X022601Y033313D01*
X023049Y033258D02*
X023261Y033258D01*
X022152Y033258D02*
X020878Y033258D01*
X020791Y033020D02*
X021826Y033020D01*
X021588Y032781D02*
X020478Y032781D01*
X020101Y032781D02*
X020101Y032781D01*
X020101Y032543D02*
X020101Y032543D01*
X020101Y032313D02*
X018101Y032313D01*
X018325Y032781D02*
X019724Y032781D01*
X019403Y032543D02*
X013036Y032543D01*
X013071Y032304D02*
X019345Y032304D01*
X019601Y032313D02*
X020101Y032313D01*
X021101Y032813D01*
X020281Y033974D02*
X017376Y033974D01*
X017551Y033735D02*
X017766Y033735D01*
X018435Y033735D02*
X019539Y033735D01*
X017876Y032781D02*
X017504Y032781D01*
X016622Y033497D02*
X016579Y033497D01*
X016551Y033735D02*
X016650Y033735D01*
X016826Y033974D02*
X016376Y033974D01*
X015826Y033974D02*
X015136Y033974D01*
X015136Y033735D02*
X015650Y033735D01*
X015697Y032781D02*
X012798Y032781D01*
X012942Y033020D02*
X014421Y033020D01*
X014261Y033258D02*
X013049Y033258D01*
X013101Y033313D02*
X013601Y032813D01*
X013601Y032313D01*
X013018Y032066D02*
X018872Y032066D01*
X018101Y031589D02*
X018101Y031589D01*
X018101Y031350D02*
X018101Y031350D01*
X018101Y031313D02*
X018101Y030800D01*
X017815Y030873D02*
X015136Y030873D01*
X015136Y031035D02*
X014822Y031348D01*
X014379Y031348D01*
X014184Y031153D01*
X013409Y031153D01*
X013291Y031272D01*
X012911Y031272D01*
X012642Y031003D01*
X012642Y030623D01*
X012911Y030355D01*
X013291Y030355D01*
X013409Y030473D01*
X014184Y030473D01*
X014379Y030278D01*
X014822Y030278D01*
X015136Y030592D01*
X015136Y031035D01*
X015059Y031111D02*
X017587Y031111D01*
X018101Y031111D02*
X018101Y031111D01*
X018761Y030634D02*
X015136Y030634D01*
X014940Y030396D02*
X018761Y030396D01*
X018761Y030157D02*
X005441Y030157D01*
X005441Y029919D02*
X018761Y029919D01*
X018761Y029680D02*
X007010Y029680D01*
X007149Y029541D02*
X006828Y029862D01*
X006601Y029862D01*
X006601Y029314D01*
X006601Y029314D01*
X006601Y029862D01*
X006374Y029862D01*
X006052Y029541D01*
X006052Y029314D01*
X006600Y029314D01*
X006600Y029313D01*
X006052Y029313D01*
X006052Y029086D01*
X006374Y028765D01*
X006601Y028765D01*
X006828Y028765D01*
X007149Y029086D01*
X007149Y029313D01*
X006601Y029313D01*
X006601Y028765D01*
X006601Y029313D01*
X006601Y029313D01*
X006601Y029314D01*
X007149Y029314D01*
X007149Y029541D01*
X007149Y029442D02*
X011248Y029442D01*
X011313Y029506D02*
X011313Y029506D01*
X011601Y029313D02*
X019101Y029313D01*
X019033Y028973D02*
X019168Y028973D01*
X019454Y028973D01*
X019435Y028916D01*
X019425Y028848D01*
X019425Y028814D01*
X020100Y028814D01*
X020100Y028813D01*
X019425Y028813D01*
X019425Y028779D01*
X019435Y028711D01*
X019457Y028645D01*
X019488Y028584D01*
X019528Y028528D01*
X019577Y028480D01*
X019633Y028439D01*
X019694Y028408D01*
X019760Y028387D01*
X019828Y028376D01*
X020101Y028376D01*
X020374Y028376D01*
X020442Y028387D01*
X020507Y028408D01*
X020569Y028439D01*
X020624Y028480D01*
X020673Y028528D01*
X020714Y028584D01*
X020745Y028645D01*
X020761Y028694D01*
X020761Y027995D01*
X020728Y028073D01*
X020599Y028202D01*
X020431Y028272D01*
X019771Y028272D01*
X019602Y028202D01*
X019553Y028153D01*
X019242Y028153D01*
X018793Y028602D01*
X018668Y028653D01*
X018533Y028653D01*
X011770Y028653D01*
X011798Y028722D01*
X011798Y028905D01*
X011770Y028973D01*
X019033Y028973D01*
X019451Y028965D02*
X011773Y028965D01*
X011798Y028726D02*
X019433Y028726D01*
X019569Y028487D02*
X018907Y028487D01*
X019146Y028249D02*
X019715Y028249D01*
X020101Y028376D02*
X020101Y028813D01*
X020101Y028376D01*
X020101Y028487D02*
X020101Y028487D01*
X020101Y028726D02*
X020101Y028726D01*
X020101Y028813D02*
X020101Y028813D01*
X020632Y028487D02*
X020761Y028487D01*
X020761Y028249D02*
X020487Y028249D01*
X020754Y028010D02*
X020761Y028010D01*
X021441Y028010D02*
X022447Y028010D01*
X022403Y027772D02*
X021441Y027772D01*
X021441Y027533D02*
X022493Y027533D01*
X023101Y027813D02*
X024601Y027813D01*
X026601Y027813D01*
X027601Y026813D01*
X030601Y026813D01*
X034601Y022813D01*
X035059Y022762D02*
X035261Y022762D01*
X035261Y022524D02*
X035059Y022524D01*
X034960Y022285D02*
X035261Y022285D01*
X035261Y022047D02*
X027598Y022047D01*
X027478Y021808D02*
X035115Y021808D01*
X035599Y021331D02*
X039261Y021331D01*
X039261Y021093D02*
X035361Y021093D01*
X035293Y021025D02*
X035793Y021525D01*
X035793Y021525D01*
X035889Y021621D01*
X035941Y021746D01*
X035941Y023246D01*
X035941Y023381D01*
X035889Y023506D01*
X035421Y023973D01*
X035460Y023973D01*
X036313Y023121D01*
X036408Y023025D01*
X036533Y022973D01*
X038434Y022973D01*
X038629Y022778D01*
X039072Y022778D01*
X039261Y022967D01*
X039261Y018381D01*
X039261Y018251D01*
X039101Y018251D01*
X039101Y017814D01*
X039101Y017814D01*
X039101Y018251D01*
X038920Y018251D01*
X038663Y017995D01*
X038663Y017814D01*
X039100Y017814D01*
X039100Y017813D01*
X038663Y017813D01*
X038663Y017632D01*
X038920Y017376D01*
X039101Y017376D01*
X039101Y017813D01*
X039101Y017813D01*
X039101Y017814D01*
X039538Y017814D01*
X039538Y017895D01*
X039642Y017791D01*
X039642Y017753D02*
X039538Y017753D01*
X039351Y017813D02*
X039101Y017813D01*
X039101Y017753D02*
X039101Y017753D01*
X039101Y017514D02*
X039101Y017514D01*
X039165Y017276D02*
X036619Y017276D01*
X036380Y017514D02*
X038781Y017514D01*
X038663Y017753D02*
X034941Y017753D01*
X034941Y017992D02*
X038663Y017992D01*
X038899Y018230D02*
X034941Y018230D01*
X034941Y018469D02*
X039261Y018469D01*
X039261Y018707D02*
X034941Y018707D01*
X034941Y018946D02*
X039261Y018946D01*
X039261Y019184D02*
X034941Y019184D01*
X035034Y019423D02*
X039261Y019423D01*
X039261Y019661D02*
X035059Y019661D01*
X035059Y019900D02*
X039261Y019900D01*
X039261Y020138D02*
X035059Y020138D01*
X034925Y020377D02*
X039261Y020377D01*
X039261Y020616D02*
X027441Y020616D01*
X027441Y020673D02*
X027742Y020973D01*
X035033Y020973D01*
X035168Y020973D01*
X035293Y021025D01*
X035838Y021570D02*
X039261Y021570D01*
X039261Y021808D02*
X035941Y021808D01*
X035941Y022047D02*
X039261Y022047D01*
X039261Y022285D02*
X035941Y022285D01*
X035941Y022524D02*
X039261Y022524D01*
X039261Y022762D02*
X035941Y022762D01*
X035941Y023001D02*
X036467Y023001D01*
X036194Y023239D02*
X035941Y023239D01*
X035955Y023478D02*
X035901Y023478D01*
X035717Y023717D02*
X035678Y023717D01*
X035478Y023955D02*
X035440Y023955D01*
X035963Y024432D02*
X038501Y024432D01*
X038740Y024194D02*
X036201Y024194D01*
X036440Y023955D02*
X038978Y023955D01*
X038497Y023717D02*
X036678Y023717D01*
X035194Y023239D02*
X035020Y023239D01*
X035059Y023001D02*
X035261Y023001D01*
X034142Y022762D02*
X034059Y022762D01*
X034059Y022524D02*
X034142Y022524D01*
X034241Y022285D02*
X033960Y022285D01*
X033601Y022813D02*
X030101Y026313D01*
X026601Y026313D01*
X026101Y026813D01*
X024601Y026813D01*
X023101Y026813D01*
X022466Y027056D02*
X021441Y027056D01*
X021441Y026818D02*
X022403Y026818D01*
X022463Y026579D02*
X021441Y026579D01*
X021441Y026341D02*
X024160Y026341D01*
X024601Y025813D02*
X023101Y025813D01*
X029601Y025813D01*
X032601Y022813D01*
X033059Y022762D02*
X033142Y022762D01*
X033142Y022524D02*
X033059Y022524D01*
X032960Y022285D02*
X033241Y022285D01*
X032241Y022285D02*
X031960Y022285D01*
X032059Y022524D02*
X032142Y022524D01*
X032142Y022762D02*
X032059Y022762D01*
X031601Y022813D02*
X029101Y025313D01*
X025601Y025313D01*
X025101Y024813D01*
X024601Y024813D01*
X023101Y024813D01*
X023607Y024432D02*
X023998Y024432D01*
X023997Y024194D02*
X023608Y024194D01*
X023101Y023813D02*
X024601Y023813D01*
X025101Y023813D01*
X026101Y024813D01*
X028601Y024813D01*
X030601Y022813D01*
X031059Y022762D02*
X031142Y022762D01*
X031142Y022524D02*
X031059Y022524D01*
X030960Y022285D02*
X031241Y022285D01*
X030241Y022285D02*
X029960Y022285D01*
X030059Y022524D02*
X030142Y022524D01*
X030142Y022762D02*
X030059Y022762D01*
X029601Y022813D02*
X028101Y024313D01*
X026601Y024313D01*
X025101Y022813D01*
X024601Y022813D01*
X023101Y022813D01*
X023509Y023239D02*
X024048Y023239D01*
X025249Y023478D02*
X025285Y023478D01*
X025389Y023621D02*
X025389Y023621D01*
X025485Y023717D02*
X025523Y023717D01*
X025723Y023955D02*
X025762Y023955D01*
X025962Y024194D02*
X026000Y024194D01*
X026200Y024432D02*
X026239Y024432D01*
X025716Y024909D02*
X025677Y024909D01*
X025477Y024671D02*
X025439Y024671D01*
X025239Y024432D02*
X025204Y024432D01*
X025193Y025386D02*
X025152Y025386D01*
X025041Y026341D02*
X026093Y026341D01*
X026577Y026818D02*
X027116Y026818D01*
X026877Y027056D02*
X026339Y027056D01*
X026639Y027295D02*
X025021Y027295D01*
X024181Y027295D02*
X021441Y027295D01*
X021441Y028249D02*
X022715Y028249D01*
X022539Y028487D02*
X021441Y028487D01*
X021441Y028726D02*
X022403Y028726D01*
X022428Y028965D02*
X021441Y028965D01*
X021101Y029313D02*
X023101Y029313D01*
X023101Y028813D01*
X025601Y028813D01*
X025601Y030813D01*
X025941Y030396D02*
X026261Y030396D01*
X026261Y030634D02*
X026136Y030634D01*
X026136Y030873D02*
X026261Y030873D01*
X026261Y031111D02*
X026059Y031111D01*
X025941Y030157D02*
X026261Y030157D01*
X026261Y029919D02*
X025941Y029919D01*
X025941Y029680D02*
X026288Y029680D01*
X025941Y029442D02*
X028992Y029442D01*
X028234Y029203D02*
X025968Y029203D01*
X026136Y028965D02*
X028066Y028965D01*
X028066Y028726D02*
X026136Y028726D01*
X026031Y028487D02*
X028170Y028487D01*
X028261Y028249D02*
X025131Y028249D01*
X024070Y028249D02*
X023487Y028249D01*
X023597Y029203D02*
X025234Y029203D01*
X025261Y029442D02*
X023416Y029442D01*
X025261Y029680D02*
X019441Y029680D01*
X018601Y028313D02*
X019101Y027813D01*
X020101Y027813D01*
X020101Y026813D02*
X019101Y026813D01*
X018601Y027313D01*
X010101Y027313D01*
X009601Y026813D01*
X008101Y026813D01*
X008101Y027813D02*
X009601Y027813D01*
X010101Y028313D01*
X018601Y028313D01*
X017601Y027813D02*
X016101Y027813D01*
X016101Y026813D02*
X017601Y026813D01*
X018601Y026313D02*
X019101Y025813D01*
X020101Y025813D01*
X019101Y024813D02*
X018601Y025313D01*
X010101Y025313D01*
X009601Y024813D01*
X008101Y024813D01*
X008607Y024432D02*
X009739Y024432D01*
X009939Y024671D02*
X010425Y024671D01*
X010405Y024909D02*
X010177Y024909D01*
X010101Y024313D02*
X018601Y024313D01*
X019101Y023813D01*
X020101Y023813D01*
X020101Y022813D02*
X019101Y022813D01*
X018601Y023313D01*
X010101Y023313D01*
X009601Y022813D01*
X008101Y022813D01*
X008509Y023239D02*
X009546Y023239D01*
X009680Y023478D02*
X009785Y023478D01*
X009985Y023717D02*
X010406Y023717D01*
X010424Y023955D02*
X010223Y023955D01*
X010101Y024313D02*
X009601Y023813D01*
X008101Y023813D01*
X008608Y024194D02*
X009500Y024194D01*
X010031Y022762D02*
X010403Y022762D01*
X009830Y022524D02*
X009790Y022524D01*
X009592Y022285D02*
X000888Y022285D01*
X000888Y022047D02*
X007462Y022047D01*
X007403Y021808D02*
X000888Y021808D01*
X000888Y021570D02*
X007466Y021570D01*
X007493Y021093D02*
X006578Y021093D01*
X006636Y020854D02*
X007403Y020854D01*
X006601Y020313D02*
X009601Y020313D01*
X010101Y019813D01*
X011101Y019813D01*
X011101Y018813D01*
X011601Y018313D01*
X012059Y018230D02*
X012163Y018230D01*
X012163Y018469D02*
X012059Y018469D01*
X011856Y018707D02*
X012376Y018707D01*
X012601Y018707D02*
X012601Y018707D01*
X012826Y018707D02*
X016855Y018707D01*
X016863Y018946D02*
X011449Y018946D01*
X011441Y019184D02*
X017020Y019184D01*
X017007Y019423D02*
X016595Y019423D01*
X016599Y019424D02*
X016728Y019554D01*
X016798Y019722D01*
X016798Y019905D01*
X016728Y020073D01*
X016599Y020202D01*
X016431Y020272D01*
X015771Y020272D01*
X015602Y020202D01*
X015473Y020073D01*
X015403Y019905D01*
X015403Y019722D01*
X015473Y019554D01*
X015602Y019424D01*
X015771Y019355D01*
X016431Y019355D01*
X016599Y019424D01*
X016773Y019661D02*
X016845Y019661D01*
X016823Y019900D02*
X016798Y019900D01*
X016663Y020138D02*
X016942Y020138D01*
X017072Y020377D02*
X016485Y020377D01*
X016101Y020813D02*
X017601Y020813D01*
X018129Y020377D02*
X019717Y020377D01*
X019568Y020138D02*
X018260Y020138D01*
X018495Y019900D02*
X019433Y019900D01*
X019451Y019661D02*
X018734Y019661D01*
X019101Y019813D02*
X018601Y020313D01*
X014601Y020313D01*
X014101Y019813D01*
X013101Y019813D01*
X013101Y019376D01*
X013374Y019376D01*
X013442Y019387D01*
X013507Y019408D01*
X013569Y019439D01*
X013624Y019480D01*
X013673Y019528D01*
X013714Y019584D01*
X013745Y019645D01*
X013766Y019711D01*
X013777Y019779D01*
X013777Y019813D01*
X013101Y019813D01*
X013101Y019813D01*
X013101Y019814D01*
X013101Y019814D01*
X013101Y020251D01*
X013374Y020251D01*
X013442Y020240D01*
X013507Y020219D01*
X013569Y020188D01*
X013624Y020147D01*
X013673Y020098D01*
X013714Y020043D01*
X013745Y019981D01*
X013766Y019916D01*
X013777Y019848D01*
X013777Y019814D01*
X013101Y019814D01*
X013101Y020251D01*
X012828Y020251D01*
X012760Y020240D01*
X012694Y020219D01*
X012633Y020188D01*
X012577Y020147D01*
X012528Y020098D01*
X012488Y020043D01*
X012457Y019981D01*
X012435Y019916D01*
X012425Y019848D01*
X012425Y019814D01*
X013100Y019814D01*
X013100Y019813D01*
X012425Y019813D01*
X012425Y019779D01*
X012435Y019711D01*
X012457Y019645D01*
X012488Y019584D01*
X012528Y019528D01*
X012577Y019480D01*
X012633Y019439D01*
X012694Y019408D01*
X012760Y019387D01*
X012828Y019376D01*
X013101Y019376D01*
X013101Y019813D01*
X013101Y018313D01*
X012601Y018313D01*
X012601Y018230D02*
X012601Y018230D01*
X012601Y017992D02*
X012601Y017992D01*
X012601Y017876D02*
X012437Y017876D01*
X012559Y017753D01*
X012559Y017514D02*
X015321Y017514D01*
X015083Y017276D02*
X012462Y017276D01*
X011862Y017153D02*
X011533Y017153D01*
X011408Y017102D01*
X011313Y017006D01*
X010460Y016153D01*
X006017Y016153D01*
X005822Y016348D01*
X005379Y016348D01*
X005066Y016035D01*
X005066Y015592D01*
X005379Y015278D01*
X005822Y015278D01*
X006017Y015473D01*
X010533Y015473D01*
X010668Y015473D01*
X010793Y015525D01*
X011066Y015798D01*
X011066Y015592D01*
X011379Y015278D01*
X011822Y015278D01*
X012136Y015592D01*
X012136Y015868D01*
X012242Y015973D01*
X015668Y015973D01*
X015793Y016025D01*
X015889Y016121D01*
X016742Y016973D01*
X028033Y016973D01*
X028062Y016973D01*
X027978Y016903D01*
X018134Y016903D01*
X018100Y016910D01*
X018067Y016903D01*
X018033Y016903D01*
X018001Y016890D01*
X017968Y016883D01*
X017940Y016865D01*
X017908Y016852D01*
X017884Y016827D01*
X017855Y016808D01*
X017836Y016780D01*
X017813Y016756D01*
X017799Y016724D01*
X017549Y016348D01*
X017379Y016348D01*
X017066Y016035D01*
X017066Y015592D01*
X017379Y015278D01*
X017822Y015278D01*
X018136Y015592D01*
X018136Y016003D01*
X018283Y016223D01*
X023254Y016223D01*
X023066Y016035D01*
X023066Y015592D01*
X023379Y015278D01*
X023822Y015278D01*
X024017Y015473D01*
X028082Y015473D01*
X028130Y015468D01*
X028149Y015473D01*
X028168Y015473D01*
X028213Y015492D01*
X028260Y015506D01*
X028276Y015518D01*
X028293Y015525D01*
X028328Y015559D01*
X030775Y017518D01*
X030793Y017525D01*
X030828Y017560D01*
X030866Y017590D01*
X030875Y017607D01*
X030889Y017621D01*
X030908Y017666D01*
X030931Y017709D01*
X030933Y017728D01*
X030941Y017746D01*
X030941Y017794D01*
X030946Y017843D01*
X030941Y017862D01*
X030941Y019266D01*
X030990Y019315D01*
X031059Y019483D01*
X031059Y020143D01*
X030990Y020312D01*
X030861Y020441D01*
X030692Y020511D01*
X030509Y020511D01*
X030341Y020441D01*
X030212Y020312D01*
X030142Y020143D01*
X030142Y019483D01*
X030212Y019315D01*
X030261Y019266D01*
X030261Y017977D01*
X029933Y017714D01*
X029933Y017715D01*
X029935Y017731D01*
X029941Y017746D01*
X029941Y017798D01*
X029945Y017850D01*
X029941Y017865D01*
X029941Y019266D01*
X029990Y019315D01*
X030059Y019483D01*
X030059Y020143D01*
X029990Y020312D01*
X029861Y020441D01*
X029692Y020511D01*
X029509Y020511D01*
X029341Y020441D01*
X029212Y020312D01*
X029142Y020143D01*
X029142Y019483D01*
X029212Y019315D01*
X029261Y019266D01*
X029261Y017973D01*
X028915Y017685D01*
X028941Y017746D01*
X028941Y019266D01*
X028990Y019315D01*
X029059Y019483D01*
X029059Y020143D01*
X028990Y020312D01*
X028861Y020441D01*
X028692Y020511D01*
X028509Y020511D01*
X028341Y020441D01*
X028212Y020312D01*
X028142Y020143D01*
X028142Y019483D01*
X028212Y019315D01*
X028261Y019266D01*
X028261Y017954D01*
X027960Y017653D01*
X027421Y017653D01*
X027793Y018025D01*
X027889Y018121D01*
X027941Y018246D01*
X027941Y019266D01*
X027990Y019315D01*
X028059Y019483D01*
X028059Y020143D01*
X027990Y020312D01*
X027861Y020441D01*
X027692Y020511D01*
X027509Y020511D01*
X027441Y020482D01*
X027441Y020673D01*
X027622Y020854D02*
X039261Y020854D01*
X039941Y020854D02*
X040079Y020854D01*
X039941Y020616D02*
X040318Y020616D01*
X040556Y020377D02*
X039941Y020377D01*
X039941Y020138D02*
X040795Y020138D01*
X041101Y020313D02*
X046101Y020313D01*
X046101Y022313D01*
X046518Y022285D02*
X052069Y022285D01*
X052069Y022047D02*
X046441Y022047D01*
X046441Y021808D02*
X052069Y021808D01*
X052069Y021570D02*
X046441Y021570D01*
X046441Y021331D02*
X052069Y021331D01*
X052069Y021093D02*
X046441Y021093D01*
X046441Y020854D02*
X052069Y020854D01*
X052069Y020616D02*
X046441Y020616D01*
X046441Y020377D02*
X052069Y020377D01*
X052069Y020138D02*
X046396Y020138D01*
X045761Y020854D02*
X041041Y020854D01*
X040802Y021093D02*
X045761Y021093D01*
X045761Y021331D02*
X040564Y021331D01*
X040441Y021570D02*
X045761Y021570D01*
X045761Y021808D02*
X040441Y021808D01*
X040441Y022047D02*
X041426Y022047D01*
X041345Y022285D02*
X040441Y022285D01*
X040441Y022524D02*
X041393Y022524D01*
X041659Y022762D02*
X040441Y022762D01*
X040441Y023001D02*
X041429Y023001D01*
X041399Y023031D02*
X041540Y022891D01*
X041723Y022815D01*
X042479Y022815D01*
X042662Y022891D01*
X042802Y023031D01*
X042878Y023214D01*
X042878Y023413D01*
X042802Y023596D01*
X042662Y023736D01*
X042479Y023812D01*
X041723Y023812D01*
X041540Y023736D01*
X041399Y023596D01*
X041323Y023413D01*
X041323Y023214D01*
X041399Y023031D01*
X041323Y023239D02*
X040441Y023239D01*
X040441Y023478D02*
X041350Y023478D01*
X041520Y023717D02*
X040441Y023717D01*
X040441Y023955D02*
X041475Y023955D01*
X041332Y024194D02*
X040441Y024194D01*
X040441Y024432D02*
X041331Y024432D01*
X041474Y024671D02*
X040441Y024671D01*
X040429Y024909D02*
X041521Y024909D01*
X041351Y025148D02*
X040265Y025148D01*
X040066Y025386D02*
X041323Y025386D01*
X041428Y025625D02*
X039867Y025625D01*
X039668Y025863D02*
X041605Y025863D01*
X041370Y026102D02*
X039469Y026102D01*
X039386Y026341D02*
X041323Y026341D01*
X041392Y026579D02*
X039342Y026579D01*
X039191Y026818D02*
X041716Y026818D01*
X041389Y027056D02*
X039191Y027056D01*
X039191Y027295D02*
X041323Y027295D01*
X041297Y027533D02*
X041373Y027533D01*
X041364Y027772D02*
X041626Y027772D01*
X041364Y028010D02*
X042761Y028010D01*
X042761Y027772D02*
X042576Y027772D01*
X042761Y028249D02*
X041142Y028249D01*
X040851Y028249D02*
X040851Y028249D01*
X040851Y028010D02*
X040851Y028010D01*
X040851Y027772D02*
X040851Y027772D01*
X040851Y027533D02*
X040851Y027533D01*
X040404Y027533D02*
X039327Y027533D01*
X039386Y027772D02*
X040337Y027772D01*
X040337Y028010D02*
X039386Y028010D01*
X039172Y028249D02*
X040560Y028249D01*
X040256Y028965D02*
X034051Y028965D01*
X034051Y029203D02*
X040018Y029203D01*
X039799Y029442D02*
X034051Y029442D01*
X034051Y029680D02*
X039761Y029680D01*
X039761Y029919D02*
X038860Y029919D01*
X038914Y029972D02*
X038989Y030155D01*
X038989Y030911D01*
X038914Y031095D01*
X038773Y031235D01*
X038590Y031311D01*
X038392Y031311D01*
X038208Y031235D01*
X038068Y031095D01*
X037992Y030911D01*
X037992Y030155D01*
X038068Y029972D01*
X038208Y029832D01*
X038392Y029756D01*
X038590Y029756D01*
X038773Y029832D01*
X038914Y029972D01*
X038989Y030157D02*
X039761Y030157D01*
X039761Y030396D02*
X038989Y030396D01*
X038989Y030634D02*
X039761Y030634D01*
X039761Y030873D02*
X038989Y030873D01*
X038897Y031111D02*
X039761Y031111D01*
X040101Y031101D02*
X040101Y029601D01*
X040601Y029101D01*
X042601Y029101D01*
X043101Y028601D01*
X043101Y024351D01*
X045101Y024351D01*
X045487Y024194D02*
X052069Y024194D01*
X052069Y024432D02*
X045518Y024432D01*
X045370Y024671D02*
X045724Y024671D01*
X045684Y024909D02*
X043441Y024909D01*
X043441Y025148D02*
X044734Y025148D01*
X044684Y025386D02*
X043441Y025386D01*
X043441Y025625D02*
X044761Y025625D01*
X044761Y025863D02*
X043441Y025863D01*
X043441Y026102D02*
X044761Y026102D01*
X044761Y026341D02*
X043441Y026341D01*
X043441Y026579D02*
X044761Y026579D01*
X044761Y026818D02*
X043441Y026818D01*
X043441Y027056D02*
X044761Y027056D01*
X044761Y027295D02*
X043441Y027295D01*
X043441Y027533D02*
X044761Y027533D01*
X044761Y027772D02*
X043441Y027772D01*
X043441Y028010D02*
X044761Y028010D01*
X044761Y028249D02*
X043441Y028249D01*
X043441Y028487D02*
X044761Y028487D01*
X044761Y028726D02*
X043417Y028726D01*
X043218Y028965D02*
X044761Y028965D01*
X044775Y029203D02*
X042979Y029203D01*
X042495Y028726D02*
X034051Y028726D01*
X034073Y028487D02*
X042733Y028487D01*
X042560Y029919D02*
X041642Y029919D01*
X041101Y030313D02*
X043101Y030313D01*
X045101Y030313D01*
X045559Y030157D02*
X045642Y030157D01*
X045669Y029919D02*
X045533Y029919D01*
X045699Y029680D02*
X045347Y029680D01*
X045461Y029442D02*
X040741Y029442D01*
X040502Y029680D02*
X044854Y029680D01*
X044669Y029919D02*
X043642Y029919D01*
X045101Y029101D02*
X045101Y025351D01*
X045518Y025386D02*
X045761Y025386D01*
X045761Y025148D02*
X045468Y025148D01*
X045441Y025625D02*
X045761Y025625D01*
X045761Y025863D02*
X045441Y025863D01*
X045441Y026102D02*
X045761Y026102D01*
X045761Y026341D02*
X045441Y026341D01*
X045441Y026579D02*
X045761Y026579D01*
X045761Y026818D02*
X045441Y026818D01*
X045441Y027056D02*
X045761Y027056D01*
X045761Y027295D02*
X045441Y027295D01*
X045441Y027533D02*
X045761Y027533D01*
X045761Y027772D02*
X045441Y027772D01*
X045441Y028010D02*
X045761Y028010D01*
X045761Y028249D02*
X045441Y028249D01*
X045441Y028487D02*
X045761Y028487D01*
X045761Y028726D02*
X045441Y028726D01*
X045601Y029101D02*
X045101Y029101D01*
X045601Y029101D02*
X046101Y029601D01*
X042761Y026818D02*
X042486Y026818D01*
X042597Y025863D02*
X042761Y025863D01*
X042761Y024909D02*
X042681Y024909D01*
X042727Y024671D02*
X042761Y024671D01*
X042727Y023955D02*
X044967Y023955D01*
X045235Y023955D02*
X052069Y023955D01*
X052069Y023717D02*
X042682Y023717D01*
X042851Y023478D02*
X052069Y023478D01*
X052069Y023239D02*
X042878Y023239D01*
X042772Y023001D02*
X052069Y023001D01*
X052069Y022762D02*
X042543Y022762D01*
X042808Y022524D02*
X045737Y022524D01*
X045684Y022285D02*
X042857Y022285D01*
X042776Y022047D02*
X045761Y022047D01*
X046465Y022524D02*
X052069Y022524D01*
X052069Y019900D02*
X039941Y019900D01*
X039941Y019661D02*
X052069Y019661D01*
X052069Y019423D02*
X039941Y019423D01*
X039941Y019184D02*
X052069Y019184D01*
X052069Y018946D02*
X039941Y018946D01*
X039941Y018707D02*
X052069Y018707D01*
X052069Y018469D02*
X039941Y018469D01*
X040333Y018230D02*
X052069Y018230D01*
X052069Y017992D02*
X040559Y017992D01*
X040559Y017753D02*
X052069Y017753D01*
X052069Y017514D02*
X040451Y017514D01*
X040101Y017313D02*
X046601Y017313D01*
X047353Y016322D02*
X043170Y016322D01*
X043011Y016560D02*
X050016Y016560D01*
X049961Y016427D02*
X050102Y016768D01*
X050363Y017028D01*
X050704Y017170D01*
X051073Y017170D01*
X051413Y017028D01*
X051674Y016768D01*
X051815Y016427D01*
X051815Y016058D01*
X051674Y015717D01*
X051413Y015457D01*
X051073Y015315D01*
X050704Y015315D01*
X050363Y015457D01*
X050102Y015717D01*
X049961Y016058D01*
X049961Y016427D01*
X049961Y016322D02*
X047849Y016322D01*
X048088Y016083D02*
X049961Y016083D01*
X050049Y015845D02*
X048136Y015845D01*
X048136Y015606D02*
X050214Y015606D01*
X050578Y015368D02*
X047912Y015368D01*
X047290Y015368D02*
X041912Y015368D01*
X042136Y015606D02*
X042827Y015606D01*
X042671Y015845D02*
X042136Y015845D01*
X042088Y016083D02*
X042512Y016083D01*
X042601Y016563D02*
X043101Y015813D01*
X047601Y015813D01*
X048601Y015063D02*
X045101Y015063D01*
X039101Y015063D01*
X039101Y013813D01*
X038601Y013313D01*
X038601Y011313D01*
X037601Y011313D02*
X037101Y010813D01*
X035601Y010813D01*
X035101Y009813D02*
X034601Y010313D01*
X034601Y013851D01*
X035063Y014313D01*
X037601Y014313D01*
X037911Y014652D02*
X038291Y014652D01*
X038411Y014772D02*
X038142Y014503D01*
X038142Y014123D01*
X038411Y013855D01*
X038791Y013855D01*
X039059Y014123D01*
X039059Y014503D01*
X038791Y014772D01*
X038411Y014772D01*
X038142Y014413D02*
X038059Y014413D01*
X038059Y014175D02*
X038142Y014175D01*
X038329Y013936D02*
X037872Y013936D01*
X037329Y013936D02*
X035167Y013936D01*
X034941Y013698D02*
X039261Y013698D01*
X039261Y013936D02*
X038872Y013936D01*
X039059Y014175D02*
X039142Y014175D01*
X039142Y014413D02*
X039059Y014413D01*
X038911Y014652D02*
X039291Y014652D01*
X039601Y014313D02*
X039601Y013313D01*
X039101Y012813D01*
X039101Y010313D01*
X038101Y009313D01*
X036601Y009313D01*
X036101Y009813D01*
X035601Y011813D02*
X035601Y012813D01*
X035950Y013221D02*
X039027Y013221D01*
X039261Y013459D02*
X034941Y013459D01*
X034941Y013221D02*
X035251Y013221D01*
X034261Y013221D02*
X033930Y013221D01*
X033941Y013459D02*
X034261Y013459D01*
X034261Y013698D02*
X033941Y013698D01*
X033941Y013936D02*
X034268Y013936D01*
X034444Y014175D02*
X034059Y014175D01*
X034059Y014413D02*
X034683Y014413D01*
X034992Y014652D02*
X033911Y014652D01*
X033601Y014313D02*
X033601Y013313D01*
X033101Y012813D01*
X033101Y010313D01*
X032101Y009313D01*
X030601Y009313D01*
X030101Y009813D01*
X029101Y009813D02*
X028601Y010313D01*
X028601Y013851D01*
X029063Y014313D01*
X031601Y014313D01*
X031911Y014652D02*
X032291Y014652D01*
X032411Y014772D02*
X032142Y014503D01*
X032142Y014123D01*
X032411Y013855D01*
X032791Y013855D01*
X033059Y014123D01*
X033059Y014503D01*
X032791Y014772D01*
X032411Y014772D01*
X032142Y014413D02*
X032059Y014413D01*
X032059Y014175D02*
X032142Y014175D01*
X032329Y013936D02*
X031872Y013936D01*
X031329Y013936D02*
X029167Y013936D01*
X028941Y013698D02*
X033261Y013698D01*
X033101Y013813D02*
X033101Y015063D01*
X039101Y015063D01*
X039911Y014652D02*
X040992Y014652D01*
X041063Y014313D02*
X043601Y014313D01*
X043911Y014652D02*
X044291Y014652D01*
X044411Y014772D02*
X044142Y014503D01*
X044142Y014123D01*
X044411Y013855D01*
X044791Y013855D01*
X045059Y014123D01*
X045059Y014503D01*
X044791Y014772D01*
X044411Y014772D01*
X044142Y014413D02*
X044059Y014413D01*
X044059Y014175D02*
X044142Y014175D01*
X044329Y013936D02*
X043872Y013936D01*
X043329Y013936D02*
X041167Y013936D01*
X040941Y013698D02*
X045261Y013698D01*
X045101Y013813D02*
X044601Y013313D01*
X044601Y011313D01*
X043601Y011313D02*
X043101Y010813D01*
X041601Y010813D01*
X041101Y009813D02*
X040601Y010313D01*
X040601Y013851D01*
X041063Y014313D01*
X040683Y014413D02*
X040059Y014413D01*
X040059Y014175D02*
X040444Y014175D01*
X040268Y013936D02*
X039941Y013936D01*
X039941Y013698D02*
X040261Y013698D01*
X040261Y013459D02*
X039941Y013459D01*
X039930Y013221D02*
X040261Y013221D01*
X040941Y013221D02*
X041251Y013221D01*
X040941Y013459D02*
X045261Y013459D01*
X045027Y013221D02*
X041950Y013221D01*
X041601Y012813D02*
X041601Y011813D01*
X042101Y009813D02*
X042601Y009313D01*
X044101Y009313D01*
X045101Y010313D01*
X045101Y012813D01*
X045601Y013313D01*
X045601Y014313D01*
X045911Y014652D02*
X046992Y014652D01*
X047063Y014313D02*
X049601Y014313D01*
X049911Y014652D02*
X050291Y014652D01*
X050142Y014413D02*
X050059Y014413D01*
X050059Y014175D02*
X050142Y014175D01*
X050329Y013936D02*
X049872Y013936D01*
X049329Y013936D02*
X047167Y013936D01*
X046941Y013698D02*
X051261Y013698D01*
X051101Y013813D02*
X051101Y015063D01*
X051198Y015368D02*
X052069Y015368D01*
X052069Y015606D02*
X051563Y015606D01*
X051727Y015845D02*
X052069Y015845D01*
X052069Y016083D02*
X051815Y016083D01*
X051815Y016322D02*
X052069Y016322D01*
X052069Y016560D02*
X051760Y016560D01*
X051643Y016799D02*
X052069Y016799D01*
X052069Y017037D02*
X051392Y017037D01*
X052069Y017276D02*
X040037Y017276D01*
X040059Y017037D02*
X050385Y017037D01*
X050133Y016799D02*
X042852Y016799D01*
X042601Y016563D02*
X036851Y016563D01*
X036101Y017313D01*
X034601Y017313D01*
X034601Y019813D01*
X034142Y019900D02*
X034059Y019900D01*
X034059Y020138D02*
X034142Y020138D01*
X034277Y020377D02*
X033925Y020377D01*
X033277Y020377D02*
X032925Y020377D01*
X033059Y020138D02*
X033142Y020138D01*
X033142Y019900D02*
X033059Y019900D01*
X033059Y019661D02*
X033142Y019661D01*
X033167Y019423D02*
X033034Y019423D01*
X032941Y019184D02*
X033261Y019184D01*
X033261Y018946D02*
X032941Y018946D01*
X032941Y018707D02*
X033261Y018707D01*
X033261Y018469D02*
X032941Y018469D01*
X032941Y018230D02*
X033261Y018230D01*
X033261Y017992D02*
X032941Y017992D01*
X032941Y017753D02*
X033261Y017753D01*
X033261Y017514D02*
X032941Y017514D01*
X032941Y017276D02*
X033261Y017276D01*
X033261Y017037D02*
X032941Y017037D01*
X032941Y016799D02*
X033261Y016799D01*
X033261Y016560D02*
X032941Y016560D01*
X033073Y016322D02*
X033362Y016322D01*
X033601Y016563D02*
X035851Y016563D01*
X036601Y015813D01*
X041601Y015813D01*
X041290Y015368D02*
X035912Y015368D01*
X036136Y015606D02*
X036327Y015606D01*
X035601Y015813D02*
X033101Y015813D01*
X032601Y016313D01*
X032601Y019813D01*
X032142Y019900D02*
X032059Y019900D01*
X032059Y020138D02*
X032142Y020138D01*
X032059Y020143D02*
X031990Y020312D01*
X031861Y020441D01*
X031692Y020511D01*
X031509Y020511D01*
X031341Y020441D01*
X031212Y020312D01*
X031142Y020143D01*
X031142Y019483D01*
X031212Y019315D01*
X031261Y019266D01*
X031261Y017718D01*
X029696Y016348D01*
X029379Y016348D01*
X029066Y016035D01*
X029066Y015592D01*
X029379Y015278D01*
X029822Y015278D01*
X030136Y015592D01*
X030136Y015830D01*
X031783Y017271D01*
X031793Y017275D01*
X031833Y017315D01*
X031876Y017352D01*
X031881Y017363D01*
X031889Y017371D01*
X031910Y017423D01*
X031936Y017473D01*
X031936Y017485D01*
X031941Y017496D01*
X031941Y017552D01*
X031944Y017608D01*
X031941Y017619D01*
X031941Y019266D01*
X031990Y019315D01*
X032059Y019483D01*
X032059Y020143D01*
X031925Y020377D02*
X032277Y020377D01*
X031277Y020377D02*
X030925Y020377D01*
X031059Y020138D02*
X031142Y020138D01*
X031142Y019900D02*
X031059Y019900D01*
X031059Y019661D02*
X031142Y019661D01*
X031167Y019423D02*
X031034Y019423D01*
X030941Y019184D02*
X031261Y019184D01*
X031261Y018946D02*
X030941Y018946D01*
X030941Y018707D02*
X031261Y018707D01*
X031261Y018469D02*
X030941Y018469D01*
X030941Y018230D02*
X031261Y018230D01*
X031261Y017992D02*
X030941Y017992D01*
X030941Y017753D02*
X031261Y017753D01*
X031029Y017514D02*
X030771Y017514D01*
X030756Y017276D02*
X030473Y017276D01*
X030483Y017037D02*
X030175Y017037D01*
X030211Y016799D02*
X029877Y016799D01*
X029938Y016560D02*
X029579Y016560D01*
X029353Y016322D02*
X029280Y016322D01*
X029114Y016083D02*
X028982Y016083D01*
X029066Y015845D02*
X028684Y015845D01*
X028386Y015606D02*
X029066Y015606D01*
X029290Y015368D02*
X023911Y015368D01*
X023601Y015813D02*
X028101Y015813D01*
X030601Y017813D01*
X030601Y019813D01*
X030142Y019900D02*
X030059Y019900D01*
X030059Y020138D02*
X030142Y020138D01*
X030277Y020377D02*
X029925Y020377D01*
X029277Y020377D02*
X028925Y020377D01*
X029059Y020138D02*
X029142Y020138D01*
X029142Y019900D02*
X029059Y019900D01*
X029059Y019661D02*
X029142Y019661D01*
X029167Y019423D02*
X029034Y019423D01*
X028941Y019184D02*
X029261Y019184D01*
X029261Y018946D02*
X028941Y018946D01*
X028941Y018707D02*
X029261Y018707D01*
X029261Y018469D02*
X028941Y018469D01*
X028941Y018230D02*
X029261Y018230D01*
X029261Y017992D02*
X028941Y017992D01*
X028941Y017753D02*
X028997Y017753D01*
X028601Y017813D02*
X028601Y019813D01*
X028142Y019900D02*
X028059Y019900D01*
X028059Y020138D02*
X028142Y020138D01*
X028277Y020377D02*
X027925Y020377D01*
X027601Y019813D02*
X027601Y018313D01*
X027101Y017813D01*
X016101Y017813D01*
X015101Y016813D01*
X011601Y016813D01*
X010601Y015813D01*
X005601Y015813D01*
X005066Y015845D02*
X002923Y015845D01*
X002887Y015757D02*
X003028Y016097D01*
X003028Y016466D01*
X002887Y016807D01*
X002626Y017068D01*
X002285Y017209D01*
X001916Y017209D01*
X001576Y017068D01*
X001315Y016807D01*
X001174Y016466D01*
X001174Y016097D01*
X001315Y015757D01*
X001576Y015496D01*
X001916Y015355D01*
X002285Y015355D01*
X002626Y015496D01*
X002887Y015757D01*
X002736Y015606D02*
X005066Y015606D01*
X005290Y015368D02*
X002316Y015368D01*
X001886Y015368D02*
X000888Y015368D01*
X000888Y015606D02*
X001465Y015606D01*
X001278Y015845D02*
X000888Y015845D01*
X000888Y016083D02*
X001180Y016083D01*
X001174Y016322D02*
X000888Y016322D01*
X000888Y016560D02*
X001213Y016560D01*
X001311Y016799D02*
X000888Y016799D01*
X000888Y017037D02*
X001545Y017037D01*
X000888Y017276D02*
X011739Y017276D01*
X011642Y017373D02*
X011642Y017753D01*
X011601Y017813D02*
X006101Y017813D01*
X003601Y017813D01*
X003601Y025313D01*
X004101Y025813D01*
X005101Y025813D01*
X005101Y025265D01*
X005328Y025265D01*
X005649Y025586D01*
X005649Y025813D01*
X005101Y025813D01*
X005101Y025813D01*
X005101Y025814D01*
X005101Y025814D01*
X005101Y026362D01*
X005328Y026362D01*
X005649Y026041D01*
X005649Y025814D01*
X005101Y025814D01*
X005101Y026362D01*
X004874Y026362D01*
X004552Y026041D01*
X004552Y025814D01*
X005100Y025814D01*
X005100Y025813D01*
X004552Y025813D01*
X004552Y025586D01*
X004874Y025265D01*
X005101Y025265D01*
X005101Y025813D01*
X005601Y025813D01*
X006601Y026813D01*
X006601Y028813D01*
X006601Y029313D01*
X006601Y030313D01*
X007601Y031313D01*
X008601Y031313D01*
X009601Y032313D01*
X010101Y032313D01*
X010101Y032304D02*
X010101Y032304D01*
X010101Y032066D02*
X010101Y032066D01*
X010101Y032543D02*
X010101Y032543D01*
X010101Y032781D02*
X010101Y032781D01*
X009724Y032781D02*
X008825Y032781D01*
X008311Y032543D02*
X009403Y032543D01*
X009345Y032304D02*
X008072Y032304D01*
X007834Y032066D02*
X009412Y032066D01*
X008600Y031314D02*
X008087Y031314D01*
X008087Y031526D01*
X008087Y031350D02*
X005441Y031350D01*
X005441Y031111D02*
X008087Y031111D01*
X008315Y030873D02*
X005441Y030873D01*
X005441Y030634D02*
X011663Y030634D01*
X011900Y030396D02*
X005441Y030396D01*
X004761Y030396D02*
X003929Y030396D01*
X003978Y030634D02*
X004761Y030634D01*
X004761Y030873D02*
X003921Y030873D01*
X003688Y031111D02*
X004761Y031111D01*
X004761Y031350D02*
X000888Y031350D01*
X000888Y031589D02*
X002410Y031589D01*
X002461Y031537D02*
X002307Y031691D01*
X002223Y031893D01*
X002223Y032111D01*
X002307Y032313D01*
X002461Y032468D01*
X002663Y032551D01*
X003169Y032551D01*
X004124Y033506D01*
X004219Y033602D01*
X004344Y033653D01*
X004635Y033653D01*
X004865Y033883D01*
X005337Y033883D01*
X005567Y033653D01*
X006135Y033653D01*
X006365Y033883D01*
X006837Y033883D01*
X007171Y033549D01*
X007171Y033077D01*
X006837Y032743D01*
X006365Y032743D01*
X006135Y032973D01*
X005567Y032973D01*
X005337Y032743D01*
X004865Y032743D01*
X004635Y032973D01*
X004553Y032973D01*
X003894Y032314D01*
X003895Y032313D01*
X003978Y032111D01*
X003978Y031893D01*
X003895Y031691D01*
X003740Y031537D01*
X003539Y031454D01*
X002663Y031454D01*
X002461Y031537D01*
X002251Y031827D02*
X000888Y031827D01*
X000888Y032066D02*
X002223Y032066D01*
X002303Y032304D02*
X000888Y032304D01*
X000888Y032543D02*
X002643Y032543D01*
X003101Y032002D02*
X004412Y033313D01*
X005101Y033313D01*
X006601Y033313D01*
X006985Y033735D02*
X008266Y033735D01*
X008066Y033497D02*
X007171Y033497D01*
X007171Y033258D02*
X008065Y033258D01*
X007826Y033020D02*
X007113Y033020D01*
X006875Y032781D02*
X007588Y032781D01*
X007349Y032543D02*
X004122Y032543D01*
X003898Y032304D02*
X007111Y032304D01*
X007101Y031813D02*
X005101Y031813D01*
X005101Y029313D01*
X005101Y027313D01*
X003101Y027313D01*
X002601Y026813D01*
X002601Y023813D01*
X002101Y023813D01*
X001724Y024194D02*
X000888Y024194D01*
X000888Y024432D02*
X002261Y024432D01*
X002261Y024671D02*
X000888Y024671D01*
X000888Y024909D02*
X002261Y024909D01*
X002261Y025148D02*
X000888Y025148D01*
X001480Y025386D02*
X002261Y025386D01*
X002261Y025625D02*
X001671Y025625D01*
X001671Y025863D02*
X002261Y025863D01*
X002261Y026102D02*
X001618Y026102D01*
X001441Y026341D02*
X002261Y026341D01*
X002261Y026579D02*
X001441Y026579D01*
X001441Y026818D02*
X002261Y026818D01*
X002363Y027056D02*
X001650Y027056D01*
X001671Y027295D02*
X002601Y027295D01*
X002840Y027533D02*
X001671Y027533D01*
X001448Y027772D02*
X004753Y027772D01*
X004761Y028010D02*
X001441Y028010D01*
X001441Y028249D02*
X004761Y028249D01*
X004761Y028487D02*
X001445Y028487D01*
X001683Y028726D02*
X004761Y028726D01*
X004644Y028965D02*
X001922Y028965D01*
X002160Y029203D02*
X004531Y029203D01*
X004531Y029442D02*
X002399Y029442D01*
X002637Y029680D02*
X004662Y029680D01*
X004761Y029919D02*
X002876Y029919D01*
X002153Y030157D02*
X000888Y030157D01*
X000888Y029919D02*
X001914Y029919D01*
X001676Y029680D02*
X000888Y029680D01*
X000888Y029442D02*
X001437Y029442D01*
X001199Y029203D02*
X000888Y029203D01*
X000888Y028965D02*
X000960Y028965D01*
X001101Y028624D02*
X001101Y027313D01*
X001101Y025813D01*
X002941Y025863D02*
X004552Y025863D01*
X004552Y025625D02*
X002941Y025625D01*
X002941Y025386D02*
X004752Y025386D01*
X005101Y025386D02*
X005101Y025386D01*
X005101Y025625D02*
X005101Y025625D01*
X005101Y025863D02*
X005101Y025863D01*
X005101Y026102D02*
X005101Y026102D01*
X005101Y026341D02*
X005101Y026341D01*
X005350Y026341D02*
X006761Y026341D01*
X006761Y026579D02*
X002941Y026579D01*
X002941Y026341D02*
X004852Y026341D01*
X004613Y026102D02*
X002941Y026102D01*
X003086Y026818D02*
X004790Y026818D01*
X005411Y026818D02*
X006761Y026818D01*
X006761Y027056D02*
X005650Y027056D01*
X005671Y027295D02*
X006761Y027295D01*
X006761Y027533D02*
X005671Y027533D01*
X005448Y027772D02*
X006761Y027772D01*
X006817Y028010D02*
X005441Y028010D01*
X005441Y028249D02*
X007056Y028249D01*
X007294Y028487D02*
X005441Y028487D01*
X005441Y028726D02*
X007433Y028726D01*
X007451Y028965D02*
X007028Y028965D01*
X007149Y029203D02*
X007663Y029203D01*
X008101Y029203D02*
X008101Y029203D01*
X008101Y028965D02*
X008101Y028965D01*
X008101Y028813D02*
X006601Y028813D01*
X006601Y028965D02*
X006601Y028965D01*
X006601Y029203D02*
X006601Y029203D01*
X006601Y029442D02*
X006601Y029442D01*
X006601Y029680D02*
X006601Y029680D01*
X006192Y029680D02*
X005540Y029680D01*
X005671Y029442D02*
X006052Y029442D01*
X006052Y029203D02*
X005671Y029203D01*
X005558Y028965D02*
X006174Y028965D01*
X007101Y027813D02*
X007101Y024813D01*
X006101Y023813D01*
X004601Y023813D01*
X004977Y024194D02*
X005724Y024194D01*
X006239Y024432D02*
X002941Y024432D01*
X002941Y024194D02*
X004224Y024194D01*
X004066Y023955D02*
X002941Y023955D01*
X002929Y023717D02*
X004066Y023717D01*
X004180Y023478D02*
X002680Y023478D01*
X001680Y023478D02*
X000888Y023478D01*
X000888Y023239D02*
X007692Y023239D01*
X007549Y023478D02*
X006522Y023478D01*
X006636Y023717D02*
X007406Y023717D01*
X007424Y023955D02*
X006723Y023955D01*
X006962Y024194D02*
X007594Y024194D01*
X007594Y024432D02*
X007200Y024432D01*
X007410Y024671D02*
X007425Y024671D01*
X006716Y024909D02*
X002941Y024909D01*
X002941Y024671D02*
X006477Y024671D01*
X006761Y025148D02*
X002941Y025148D01*
X001566Y023955D02*
X000888Y023955D01*
X000888Y023717D02*
X001566Y023717D01*
X000888Y023001D02*
X007443Y023001D01*
X007403Y022762D02*
X000888Y022762D01*
X000888Y022524D02*
X007503Y022524D01*
X008101Y021813D02*
X009601Y021813D01*
X010101Y022313D01*
X018601Y022313D01*
X019101Y021813D01*
X020101Y021813D01*
X019101Y020813D02*
X018601Y021313D01*
X010101Y021313D01*
X009601Y020813D01*
X008101Y020813D01*
X008769Y019900D02*
X009533Y019900D01*
X009772Y019661D02*
X008750Y019661D01*
X008537Y019423D02*
X010606Y019423D01*
X010761Y019184D02*
X003441Y019184D01*
X003441Y018946D02*
X010761Y018946D01*
X010777Y018707D02*
X003559Y018707D01*
X003559Y018469D02*
X010965Y018469D01*
X011595Y019423D02*
X012665Y019423D01*
X012451Y019661D02*
X011773Y019661D01*
X011798Y019900D02*
X012433Y019900D01*
X012568Y020138D02*
X011663Y020138D01*
X011485Y020377D02*
X012717Y020377D01*
X013101Y020138D02*
X013101Y020138D01*
X013101Y019900D02*
X013101Y019900D01*
X013101Y019661D02*
X013101Y019661D01*
X013101Y019423D02*
X013101Y019423D01*
X013537Y019423D02*
X015606Y019423D01*
X015428Y019661D02*
X013750Y019661D01*
X013769Y019900D02*
X015403Y019900D01*
X015538Y020138D02*
X013633Y020138D01*
X013485Y020377D02*
X015717Y020377D01*
X015447Y020616D02*
X013754Y020616D01*
X013798Y020854D02*
X015403Y020854D01*
X016101Y021813D02*
X017601Y021813D01*
X017601Y022813D02*
X016101Y022813D01*
X016101Y023813D02*
X017601Y023813D01*
X017601Y024813D02*
X016101Y024813D01*
X016101Y025813D02*
X017601Y025813D01*
X018601Y026313D02*
X010101Y026313D01*
X009601Y025813D01*
X008101Y025813D01*
X006761Y025863D02*
X005649Y025863D01*
X005649Y025625D02*
X006761Y025625D01*
X006761Y025386D02*
X005450Y025386D01*
X005588Y026102D02*
X006761Y026102D01*
X007101Y027813D02*
X007601Y028313D01*
X009101Y028313D01*
X009601Y028813D01*
X011101Y028813D01*
X011601Y029313D01*
X010604Y029203D02*
X008538Y029203D01*
X008750Y028965D02*
X009271Y028965D01*
X009033Y028726D02*
X008769Y028726D01*
X011101Y027813D02*
X013101Y027813D01*
X013101Y026813D02*
X011101Y026813D01*
X011101Y025813D02*
X013101Y025813D01*
X013101Y024813D02*
X011101Y024813D01*
X011101Y023813D02*
X013101Y023813D01*
X013101Y022813D02*
X011101Y022813D01*
X011101Y021813D02*
X013101Y021813D01*
X013101Y020813D02*
X011101Y020813D01*
X010717Y020377D02*
X010018Y020377D01*
X009884Y020616D02*
X010447Y020616D01*
X010403Y020854D02*
X010122Y020854D01*
X009638Y021331D02*
X006340Y021331D01*
X005862Y021331D02*
X004840Y021331D01*
X004822Y021348D02*
X004379Y021348D01*
X004066Y021035D01*
X004066Y020592D01*
X004261Y020397D01*
X004261Y020230D01*
X004066Y020035D01*
X004066Y019592D01*
X004379Y019278D01*
X004822Y019278D01*
X005136Y019592D01*
X005136Y020035D01*
X004941Y020230D01*
X004941Y020397D01*
X005136Y020592D01*
X005136Y021035D01*
X004822Y021348D01*
X005078Y021093D02*
X005623Y021093D01*
X005566Y020854D02*
X005136Y020854D01*
X005136Y020616D02*
X005566Y020616D01*
X005781Y020377D02*
X004941Y020377D01*
X005032Y020138D02*
X006295Y020138D01*
X006601Y020313D02*
X006101Y020813D01*
X005136Y019900D02*
X007433Y019900D01*
X007451Y019661D02*
X005136Y019661D01*
X004967Y019423D02*
X007665Y019423D01*
X008101Y019423D02*
X008101Y019423D01*
X008101Y019661D02*
X008101Y019661D01*
X008101Y019813D02*
X006101Y017813D01*
X005849Y016322D02*
X010628Y016322D01*
X010867Y016560D02*
X002989Y016560D01*
X003028Y016322D02*
X005353Y016322D01*
X005114Y016083D02*
X003022Y016083D01*
X002890Y016799D02*
X011105Y016799D01*
X011344Y017037D02*
X002656Y017037D01*
X002951Y017514D02*
X003281Y017514D01*
X003163Y017753D02*
X003059Y017753D01*
X003059Y017992D02*
X003163Y017992D01*
X003601Y017753D02*
X003601Y017753D01*
X003601Y017514D02*
X003601Y017514D01*
X003921Y017514D02*
X011642Y017514D01*
X011642Y017373D02*
X011862Y017153D01*
X012101Y016313D02*
X011601Y015813D01*
X012136Y015845D02*
X017066Y015845D01*
X017066Y015606D02*
X012136Y015606D01*
X011912Y015368D02*
X017290Y015368D01*
X017912Y015368D02*
X023290Y015368D01*
X023066Y015606D02*
X018136Y015606D01*
X018136Y015845D02*
X023066Y015845D01*
X023114Y016083D02*
X018189Y016083D01*
X018101Y016563D02*
X017601Y015813D01*
X017114Y016083D02*
X015851Y016083D01*
X016090Y016322D02*
X017353Y016322D01*
X017690Y016560D02*
X016328Y016560D01*
X016567Y016799D02*
X017849Y016799D01*
X018101Y016563D02*
X028101Y016563D01*
X029601Y017813D01*
X029601Y019813D01*
X030059Y019661D02*
X030142Y019661D01*
X030167Y019423D02*
X030034Y019423D01*
X029941Y019184D02*
X030261Y019184D01*
X030261Y018946D02*
X029941Y018946D01*
X029941Y018707D02*
X030261Y018707D01*
X030261Y018469D02*
X029941Y018469D01*
X029941Y018230D02*
X030261Y018230D01*
X030261Y017992D02*
X029941Y017992D01*
X029941Y017753D02*
X029981Y017753D01*
X028601Y017813D02*
X028101Y017313D01*
X016601Y017313D01*
X015601Y016313D01*
X012101Y016313D01*
X011066Y015606D02*
X010874Y015606D01*
X011290Y015368D02*
X005912Y015368D01*
X004268Y013936D02*
X000888Y013936D01*
X000888Y013698D02*
X004261Y013698D01*
X004261Y013459D02*
X000916Y013459D01*
X001154Y013221D02*
X004261Y013221D01*
X005601Y012813D02*
X005601Y011813D01*
X005950Y013221D02*
X009027Y013221D01*
X009101Y010313D02*
X008101Y009313D01*
X006601Y009313D01*
X006101Y009813D01*
X000888Y015129D02*
X052069Y015129D01*
X051142Y014413D02*
X051059Y014413D01*
X051059Y014175D02*
X051142Y014175D01*
X051261Y013936D02*
X050872Y013936D01*
X051101Y013813D02*
X050601Y013313D01*
X050601Y011313D01*
X049601Y011313D02*
X049101Y010813D01*
X047601Y010813D01*
X047101Y009813D02*
X046601Y010313D01*
X046601Y013851D01*
X047063Y014313D01*
X046683Y014413D02*
X046059Y014413D01*
X046059Y014175D02*
X046444Y014175D01*
X046268Y013936D02*
X045941Y013936D01*
X045941Y013698D02*
X046261Y013698D01*
X046261Y013459D02*
X045941Y013459D01*
X045930Y013221D02*
X046261Y013221D01*
X046941Y013221D02*
X047251Y013221D01*
X046941Y013459D02*
X051261Y013459D01*
X051027Y013221D02*
X047950Y013221D01*
X047601Y012813D02*
X047601Y011813D01*
X045261Y013936D02*
X044872Y013936D01*
X045101Y013813D02*
X045101Y015063D01*
X044911Y014652D02*
X045291Y014652D01*
X045142Y014413D02*
X045059Y014413D01*
X045059Y014175D02*
X045142Y014175D01*
X051101Y012813D02*
X051101Y010313D01*
X050101Y009313D01*
X048601Y009313D01*
X048101Y009813D01*
X051101Y012813D02*
X051601Y013313D01*
X041101Y020313D02*
X040101Y021313D01*
X040101Y024813D01*
X038851Y026313D01*
X038851Y027813D01*
X034101Y027813D01*
X033711Y028423D01*
X033711Y030533D01*
X034209Y030634D02*
X035013Y030634D01*
X035013Y030534D02*
X035490Y030534D01*
X035490Y030533D01*
X035013Y030533D01*
X035013Y030217D01*
X035025Y030143D01*
X035048Y030071D01*
X035082Y030004D01*
X035127Y029944D01*
X035180Y029890D01*
X035241Y029846D01*
X035307Y029812D01*
X035379Y029789D01*
X035453Y029777D01*
X035491Y029777D01*
X035528Y029777D01*
X035603Y029789D01*
X035674Y029812D01*
X035741Y029846D01*
X035802Y029890D01*
X035855Y029944D01*
X035899Y030004D01*
X035933Y030071D01*
X035956Y030143D01*
X035968Y030217D01*
X035968Y030533D01*
X035491Y030533D01*
X035491Y029777D01*
X035491Y030533D01*
X035491Y030533D01*
X035491Y030534D01*
X035491Y030534D01*
X035491Y031290D01*
X035528Y031290D01*
X035603Y031278D01*
X035674Y031255D01*
X035741Y031220D01*
X035802Y031176D01*
X035855Y031123D01*
X035899Y031062D01*
X035933Y030995D01*
X035956Y030924D01*
X035968Y030850D01*
X035968Y030534D01*
X035491Y030534D01*
X035491Y031290D01*
X035453Y031290D01*
X035379Y031278D01*
X035307Y031255D01*
X035241Y031220D01*
X035180Y031176D01*
X035127Y031123D01*
X035082Y031062D01*
X035048Y030995D01*
X035025Y030924D01*
X035013Y030850D01*
X035013Y030534D01*
X035013Y030396D02*
X034209Y030396D01*
X034209Y030157D02*
X035023Y030157D01*
X035151Y029919D02*
X034080Y029919D01*
X034209Y030873D02*
X035017Y030873D01*
X035118Y031111D02*
X034117Y031111D01*
X035491Y031111D02*
X035491Y031111D01*
X035491Y030873D02*
X035491Y030873D01*
X035491Y030634D02*
X035491Y030634D01*
X035491Y030533D02*
X036711Y030533D01*
X036711Y030634D02*
X036711Y030634D01*
X036711Y030396D02*
X036711Y030396D01*
X036711Y030157D02*
X036711Y030157D01*
X036711Y029919D02*
X036711Y029919D01*
X037050Y029919D02*
X038121Y029919D01*
X037992Y030157D02*
X037179Y030157D01*
X037188Y030396D02*
X037992Y030396D01*
X037992Y030634D02*
X037188Y030634D01*
X037185Y030873D02*
X037992Y030873D01*
X038085Y031111D02*
X037084Y031111D01*
X036711Y031111D02*
X036711Y031111D01*
X036711Y030873D02*
X036711Y030873D01*
X036338Y031111D02*
X035864Y031111D01*
X035965Y030873D02*
X036237Y030873D01*
X036233Y030634D02*
X035968Y030634D01*
X035968Y030396D02*
X036233Y030396D01*
X036243Y030157D02*
X035959Y030157D01*
X035830Y029919D02*
X036371Y029919D01*
X035491Y029919D02*
X035491Y029919D01*
X035491Y030157D02*
X035491Y030157D01*
X035491Y030396D02*
X035491Y030396D01*
X035392Y032316D02*
X035590Y032316D01*
X035773Y032392D01*
X035914Y032532D01*
X035989Y032715D01*
X035989Y033471D01*
X035914Y033655D01*
X035773Y033795D01*
X035590Y033871D01*
X035392Y033871D01*
X035208Y033795D01*
X035068Y033655D01*
X034992Y033471D01*
X034992Y032715D01*
X035068Y032532D01*
X035208Y032392D01*
X035392Y032316D01*
X035064Y032543D02*
X034138Y032543D01*
X034209Y032781D02*
X034992Y032781D01*
X034992Y033020D02*
X034209Y033020D01*
X034209Y033258D02*
X034992Y033258D01*
X035003Y033497D02*
X034199Y033497D01*
X034053Y033735D02*
X035149Y033735D01*
X035833Y033735D02*
X036369Y033735D01*
X036428Y033795D02*
X036288Y033655D01*
X036212Y033471D01*
X036212Y032715D01*
X036288Y032532D01*
X036428Y032392D01*
X036612Y032316D01*
X036810Y032316D01*
X036993Y032392D01*
X037134Y032532D01*
X037209Y032715D01*
X037209Y033471D01*
X037134Y033655D01*
X036993Y033795D01*
X036810Y033871D01*
X036612Y033871D01*
X036428Y033795D01*
X036223Y033497D02*
X035979Y033497D01*
X035989Y033258D02*
X036212Y033258D01*
X036212Y033020D02*
X035989Y033020D01*
X035989Y032781D02*
X036212Y032781D01*
X036284Y032543D02*
X035918Y032543D01*
X037138Y032543D02*
X038064Y032543D01*
X037992Y032781D02*
X037209Y032781D01*
X037209Y033020D02*
X037992Y033020D01*
X037992Y033258D02*
X037209Y033258D01*
X037199Y033497D02*
X038003Y033497D01*
X038149Y033735D02*
X037053Y033735D01*
X040101Y031101D02*
X040351Y031351D01*
X041063Y031351D01*
X041101Y031313D01*
X040654Y030873D02*
X040441Y030873D01*
X040441Y030634D02*
X040486Y030634D01*
X040441Y029919D02*
X040560Y029919D01*
X038530Y028249D02*
X034226Y028249D01*
X032877Y027056D02*
X032839Y027056D01*
X032639Y027295D02*
X032600Y027295D01*
X032400Y027533D02*
X032362Y027533D01*
X032162Y027772D02*
X032123Y027772D01*
X033077Y026818D02*
X033116Y026818D01*
X033316Y026579D02*
X033354Y026579D01*
X033554Y026341D02*
X033593Y026341D01*
X033793Y026102D02*
X033831Y026102D01*
X034031Y025863D02*
X034070Y025863D01*
X034270Y025625D02*
X034308Y025625D01*
X034509Y025386D02*
X036379Y025386D01*
X036823Y025386D02*
X037379Y025386D01*
X037142Y025625D02*
X037059Y025625D01*
X037786Y025148D02*
X034747Y025148D01*
X034986Y024909D02*
X038024Y024909D01*
X038263Y024671D02*
X035224Y024671D01*
X029142Y022762D02*
X029059Y022762D01*
X029059Y022524D02*
X029142Y022524D01*
X029241Y022285D02*
X028960Y022285D01*
X028241Y022285D02*
X027960Y022285D01*
X028059Y022524D02*
X028142Y022524D01*
X028142Y022762D02*
X028059Y022762D01*
X028601Y022813D02*
X027601Y023813D01*
X026601Y023813D01*
X026101Y023313D01*
X026101Y022813D01*
X025101Y021813D01*
X024601Y021813D01*
X023101Y021813D01*
X022466Y021570D02*
X021441Y021570D01*
X021441Y021808D02*
X022403Y021808D01*
X022462Y022047D02*
X021441Y022047D01*
X021441Y022285D02*
X024158Y022285D01*
X025043Y022285D02*
X025092Y022285D01*
X025295Y022524D02*
X025331Y022524D01*
X025531Y022762D02*
X025569Y022762D01*
X026053Y022285D02*
X026271Y022285D01*
X025815Y022047D02*
X026837Y022047D01*
X026615Y021808D02*
X025576Y021808D01*
X025338Y021570D02*
X026376Y021570D01*
X026138Y021331D02*
X025019Y021331D01*
X024183Y021331D02*
X021441Y021331D01*
X022101Y021313D02*
X022101Y020313D01*
X020761Y020377D02*
X020485Y020377D01*
X020633Y020138D02*
X020761Y020138D01*
X020754Y020616D02*
X020761Y020616D01*
X020101Y020813D02*
X019101Y020813D01*
X018818Y020616D02*
X018337Y020616D01*
X018378Y020854D02*
X018579Y020854D01*
X020101Y020138D02*
X020101Y020138D01*
X020101Y019900D02*
X020101Y019900D01*
X020101Y019813D02*
X019101Y019813D01*
X018249Y019184D02*
X018181Y019184D01*
X018339Y018946D02*
X022988Y018946D01*
X022786Y019184D02*
X020952Y019184D01*
X023226Y018707D02*
X018346Y018707D01*
X018210Y018469D02*
X023797Y018469D01*
X023601Y018813D02*
X024101Y018813D01*
X024203Y018230D02*
X013038Y018230D01*
X013101Y018313D02*
X017601Y018313D01*
X017601Y018469D02*
X017601Y018469D01*
X017601Y018707D02*
X017601Y018707D01*
X016992Y018469D02*
X013038Y018469D01*
X012601Y018469D02*
X012601Y018469D01*
X009876Y021570D02*
X009838Y021570D01*
X010076Y021808D02*
X010403Y021808D01*
X004601Y020813D02*
X004601Y019813D01*
X004235Y019423D02*
X003441Y019423D01*
X003441Y019661D02*
X004066Y019661D01*
X004066Y019900D02*
X003441Y019900D01*
X003441Y020138D02*
X004169Y020138D01*
X004261Y020377D02*
X003441Y020377D01*
X003279Y020616D02*
X004066Y020616D01*
X004066Y020854D02*
X003041Y020854D01*
X002802Y021093D02*
X004123Y021093D01*
X004362Y021331D02*
X002340Y021331D01*
X001862Y021331D02*
X000888Y021331D01*
X000888Y021093D02*
X001623Y021093D01*
X001566Y020854D02*
X000888Y020854D01*
X000888Y020616D02*
X001566Y020616D01*
X001781Y020377D02*
X000888Y020377D01*
X000888Y020138D02*
X001169Y020138D01*
X001066Y019900D02*
X000888Y019900D01*
X000888Y019661D02*
X001066Y019661D01*
X001235Y019423D02*
X000888Y019423D01*
X000888Y019184D02*
X001261Y019184D01*
X001261Y018946D02*
X000888Y018946D01*
X000888Y018707D02*
X001277Y018707D01*
X001465Y018469D02*
X000888Y018469D01*
X000888Y018230D02*
X001703Y018230D01*
X001942Y017992D02*
X000888Y017992D01*
X000888Y017753D02*
X002142Y017753D01*
X002251Y017514D02*
X000888Y017514D01*
X001601Y018813D02*
X002601Y017813D01*
X003101Y018563D02*
X003101Y020313D01*
X002601Y020813D01*
X002101Y020813D01*
X001601Y019813D02*
X001601Y018813D01*
X013911Y014652D02*
X014291Y014652D01*
X014142Y014413D02*
X014059Y014413D01*
X014059Y014175D02*
X014142Y014175D01*
X014329Y013936D02*
X013872Y013936D01*
X015101Y015063D02*
X021101Y015063D01*
X021101Y013813D01*
X020601Y013313D01*
X020601Y011313D01*
X019601Y011313D02*
X019101Y010813D01*
X017601Y010813D01*
X017101Y009813D02*
X016601Y010313D01*
X016601Y013851D01*
X017063Y014313D01*
X019601Y014313D01*
X019911Y014652D02*
X020291Y014652D01*
X020411Y014772D02*
X020142Y014503D01*
X020142Y014123D01*
X020411Y013855D01*
X020791Y013855D01*
X021059Y014123D01*
X021059Y014503D01*
X020791Y014772D01*
X020411Y014772D01*
X020142Y014413D02*
X020059Y014413D01*
X020059Y014175D02*
X020142Y014175D01*
X020329Y013936D02*
X019872Y013936D01*
X019329Y013936D02*
X017167Y013936D01*
X016941Y013698D02*
X021261Y013698D01*
X021261Y013936D02*
X020872Y013936D01*
X021059Y014175D02*
X021142Y014175D01*
X021142Y014413D02*
X021059Y014413D01*
X020911Y014652D02*
X021291Y014652D01*
X021601Y014313D02*
X021601Y013313D01*
X021101Y012813D01*
X021101Y010313D01*
X020101Y009313D01*
X018601Y009313D01*
X018101Y009813D01*
X017601Y011813D02*
X017601Y012813D01*
X017950Y013221D02*
X021027Y013221D01*
X021261Y013459D02*
X016941Y013459D01*
X016941Y013221D02*
X017251Y013221D01*
X016261Y013221D02*
X015930Y013221D01*
X015941Y013459D02*
X016261Y013459D01*
X016261Y013698D02*
X015941Y013698D01*
X015941Y013936D02*
X016268Y013936D01*
X016444Y014175D02*
X016059Y014175D01*
X016059Y014413D02*
X016683Y014413D01*
X016992Y014652D02*
X015911Y014652D01*
X021101Y015063D02*
X027101Y015063D01*
X027101Y013813D01*
X026601Y013313D01*
X026601Y011313D01*
X025601Y011313D02*
X025101Y010813D01*
X023601Y010813D01*
X023101Y009813D02*
X022601Y010313D01*
X022601Y013851D01*
X023063Y014313D01*
X025601Y014313D01*
X025911Y014652D02*
X026291Y014652D01*
X026411Y014772D02*
X026142Y014503D01*
X026142Y014123D01*
X026411Y013855D01*
X026791Y013855D01*
X027059Y014123D01*
X027059Y014503D01*
X026791Y014772D01*
X026411Y014772D01*
X026142Y014413D02*
X026059Y014413D01*
X026059Y014175D02*
X026142Y014175D01*
X026329Y013936D02*
X025872Y013936D01*
X025329Y013936D02*
X023167Y013936D01*
X022941Y013698D02*
X027261Y013698D01*
X027261Y013936D02*
X026872Y013936D01*
X027059Y014175D02*
X027142Y014175D01*
X027142Y014413D02*
X027059Y014413D01*
X026911Y014652D02*
X027291Y014652D01*
X027601Y014313D02*
X027601Y013313D01*
X027101Y012813D01*
X027101Y010313D01*
X026101Y009313D01*
X024601Y009313D01*
X024101Y009813D01*
X023601Y011813D02*
X023601Y012813D01*
X023950Y013221D02*
X027027Y013221D01*
X027261Y013459D02*
X022941Y013459D01*
X022941Y013221D02*
X023251Y013221D01*
X022261Y013221D02*
X021930Y013221D01*
X021941Y013459D02*
X022261Y013459D01*
X022261Y013698D02*
X021941Y013698D01*
X021941Y013936D02*
X022268Y013936D01*
X022444Y014175D02*
X022059Y014175D01*
X022059Y014413D02*
X022683Y014413D01*
X022992Y014652D02*
X021911Y014652D01*
X027101Y015063D02*
X033101Y015063D01*
X032827Y015606D02*
X030136Y015606D01*
X030153Y015845D02*
X032589Y015845D01*
X032350Y016083D02*
X030425Y016083D01*
X030698Y016322D02*
X032261Y016322D01*
X032261Y016560D02*
X030971Y016560D01*
X031243Y016799D02*
X032261Y016799D01*
X032261Y017037D02*
X031516Y017037D01*
X031794Y017276D02*
X032261Y017276D01*
X032261Y017514D02*
X031941Y017514D01*
X031941Y017753D02*
X032261Y017753D01*
X032261Y017992D02*
X031941Y017992D01*
X031941Y018230D02*
X032261Y018230D01*
X032261Y018469D02*
X031941Y018469D01*
X031941Y018707D02*
X032261Y018707D01*
X032261Y018946D02*
X031941Y018946D01*
X031941Y019184D02*
X032261Y019184D01*
X032167Y019423D02*
X032034Y019423D01*
X032059Y019661D02*
X032142Y019661D01*
X031601Y019813D02*
X031601Y017563D01*
X029601Y015813D01*
X029912Y015368D02*
X035290Y015368D01*
X036573Y016322D02*
X036612Y016322D01*
X036373Y016560D02*
X036335Y016560D01*
X036135Y016799D02*
X036096Y016799D01*
X036858Y017037D02*
X039142Y017037D01*
X039101Y017992D02*
X039101Y017992D01*
X039101Y018230D02*
X039101Y018230D01*
X034261Y018230D02*
X033941Y018230D01*
X033941Y017992D02*
X034261Y017992D01*
X034261Y017753D02*
X033941Y017753D01*
X033941Y017514D02*
X034261Y017514D01*
X034261Y017276D02*
X033941Y017276D01*
X033941Y017037D02*
X034396Y017037D01*
X033601Y016563D02*
X033601Y019813D01*
X034059Y019661D02*
X034142Y019661D01*
X034167Y019423D02*
X034034Y019423D01*
X033941Y019184D02*
X034261Y019184D01*
X034261Y018946D02*
X033941Y018946D01*
X033941Y018707D02*
X034261Y018707D01*
X034261Y018469D02*
X033941Y018469D01*
X033291Y014652D02*
X032911Y014652D01*
X033059Y014413D02*
X033142Y014413D01*
X033142Y014175D02*
X033059Y014175D01*
X032872Y013936D02*
X033261Y013936D01*
X033101Y013813D02*
X032601Y013313D01*
X032601Y011313D01*
X031601Y011313D02*
X031101Y010813D01*
X029601Y010813D01*
X029601Y011813D02*
X029601Y012813D01*
X029950Y013221D02*
X033027Y013221D01*
X033261Y013459D02*
X028941Y013459D01*
X028941Y013221D02*
X029251Y013221D01*
X028261Y013221D02*
X027930Y013221D01*
X027941Y013459D02*
X028261Y013459D01*
X028261Y013698D02*
X027941Y013698D01*
X027941Y013936D02*
X028268Y013936D01*
X028444Y014175D02*
X028059Y014175D01*
X028059Y014413D02*
X028683Y014413D01*
X028992Y014652D02*
X027911Y014652D01*
X028060Y017753D02*
X027521Y017753D01*
X027760Y017992D02*
X028261Y017992D01*
X028261Y018230D02*
X027934Y018230D01*
X027941Y018469D02*
X028261Y018469D01*
X028261Y018707D02*
X027941Y018707D01*
X027941Y018946D02*
X028261Y018946D01*
X028261Y019184D02*
X027941Y019184D01*
X028034Y019423D02*
X028167Y019423D01*
X028142Y019661D02*
X028059Y019661D01*
X026752Y018946D02*
X025538Y018946D01*
X025538Y018707D02*
X026514Y018707D01*
X026344Y019184D02*
X025349Y019184D01*
X024289Y019900D02*
X023798Y019900D01*
X023773Y019661D02*
X024142Y019661D01*
X025129Y020377D02*
X026277Y020377D01*
X026384Y020616D02*
X026761Y020616D01*
X026761Y020854D02*
X026622Y020854D01*
X026861Y021093D02*
X026899Y021093D01*
X027099Y021331D02*
X027138Y021331D01*
X027339Y021570D02*
X027376Y021570D01*
X022503Y022524D02*
X021441Y022524D01*
X021441Y022762D02*
X022403Y022762D01*
X022443Y023001D02*
X021441Y023001D01*
X021441Y023239D02*
X022692Y023239D01*
X022549Y023478D02*
X021441Y023478D01*
X021441Y023717D02*
X022406Y023717D01*
X022424Y023955D02*
X021441Y023955D01*
X021441Y024194D02*
X022594Y024194D01*
X022594Y024432D02*
X021441Y024432D01*
X021441Y024671D02*
X022425Y024671D01*
X022405Y024909D02*
X021441Y024909D01*
X021441Y025148D02*
X022548Y025148D01*
X022694Y025386D02*
X021441Y025386D01*
X021441Y025625D02*
X022444Y025625D01*
X022403Y025863D02*
X021441Y025863D01*
X021441Y026102D02*
X022502Y026102D01*
X023507Y025386D02*
X024050Y025386D01*
X027123Y027772D02*
X028261Y027772D01*
X028261Y028010D02*
X026885Y028010D01*
X027362Y027533D02*
X028261Y027533D01*
X028261Y027295D02*
X027600Y027295D01*
X028940Y030396D02*
X029038Y030396D01*
X029101Y030813D02*
X028601Y030813D01*
X020101Y024813D02*
X019101Y024813D01*
X014262Y030396D02*
X013332Y030396D01*
X012870Y030396D02*
X012302Y030396D01*
X012101Y030396D02*
X012101Y030396D01*
X012101Y030634D02*
X012101Y030634D01*
X012101Y030873D02*
X012101Y030873D01*
X012101Y031111D02*
X012101Y031111D01*
X012421Y031111D02*
X012750Y031111D01*
X012642Y030873D02*
X012538Y030873D01*
X012538Y030634D02*
X012642Y030634D01*
X013101Y030813D02*
X014601Y030813D01*
X012601Y033020D02*
X012601Y033020D01*
X012601Y033258D02*
X012601Y033258D01*
X012601Y033313D02*
X013101Y033313D01*
X013049Y033497D02*
X014161Y033497D01*
X014066Y033735D02*
X012813Y033735D01*
X012601Y033735D02*
X012601Y033735D01*
X012601Y033497D02*
X012601Y033497D01*
X010101Y033313D02*
X008601Y033313D01*
X007101Y031813D01*
X006327Y032781D02*
X005375Y032781D01*
X004827Y032781D02*
X004360Y032781D01*
X003876Y033258D02*
X000888Y033258D01*
X000888Y033020D02*
X003637Y033020D01*
X003399Y032781D02*
X000888Y032781D01*
X000888Y033497D02*
X004114Y033497D01*
X004717Y033735D02*
X000888Y033735D01*
X003978Y032066D02*
X004872Y032066D01*
X004761Y031827D02*
X003951Y031827D01*
X003792Y031589D02*
X004761Y031589D01*
X003101Y030624D02*
X001101Y028624D01*
X000888Y030396D02*
X002273Y030396D01*
X002223Y030634D02*
X000888Y030634D01*
X000888Y030873D02*
X002281Y030873D01*
X002514Y031111D02*
X000888Y031111D01*
X003736Y030157D02*
X004761Y030157D01*
X005485Y033735D02*
X006217Y033735D01*
X008935Y033735D02*
X009539Y033735D01*
X019441Y030873D02*
X019582Y030873D01*
X042101Y022762D02*
X042101Y022762D01*
X042101Y022524D02*
X042101Y022524D01*
X042101Y022285D02*
X042101Y022285D01*
X042101Y022047D02*
X042101Y022047D01*
D22*
X012601Y018313D02*
X011601Y017813D01*
D23*
X022101Y020313D02*
X022111Y020303D01*
X024022Y019538D02*
X024747Y018813D01*
X039351Y017813D02*
X040101Y017313D01*
D24*
X041101Y008313D02*
X038101Y008313D01*
X035101Y008313D01*
X035101Y006813D01*
X035101Y005813D01*
X037601Y003313D01*
X037839Y002845D01*
X036101Y002845D02*
X036101Y001313D01*
X042101Y001313D01*
X042101Y002845D01*
X041869Y002845D01*
X043601Y003313D02*
X043839Y002845D01*
X043601Y003313D02*
X041101Y005813D01*
X041101Y006813D01*
X041101Y008313D01*
X044101Y008313D01*
X047101Y008313D01*
X047101Y006813D01*
X047101Y005813D01*
X049601Y003313D01*
X049839Y002845D01*
X047869Y002845D02*
X047869Y001313D01*
X042101Y001313D01*
X036101Y001313D02*
X030101Y001313D01*
X030101Y002845D01*
X029869Y002845D01*
X031601Y003313D02*
X031839Y002845D01*
X031601Y003313D02*
X029101Y005813D01*
X029101Y006813D01*
X029101Y008313D01*
X032101Y008313D01*
X035101Y008313D01*
X029101Y008313D02*
X026101Y008313D01*
X023101Y008313D01*
X023101Y006813D01*
X023101Y005813D01*
X025601Y003313D01*
X025839Y002845D01*
X024101Y002845D02*
X024101Y001313D01*
X030101Y001313D01*
X035869Y002845D02*
X036101Y002845D01*
X047101Y008313D02*
X050101Y008313D01*
X024101Y002845D02*
X023869Y002845D01*
X024101Y001313D02*
X018101Y001313D01*
X018101Y002845D01*
X017869Y002845D01*
X018101Y001313D02*
X012101Y001313D01*
X012101Y002845D01*
X011869Y002845D01*
X013601Y003313D02*
X013839Y002845D01*
X013601Y003313D02*
X011101Y005813D01*
X011101Y006313D01*
X008101Y003313D01*
X007839Y002845D01*
X007601Y003313D01*
X005101Y005813D01*
X005101Y006813D01*
X005101Y007748D01*
X002747Y010102D01*
X002747Y008132D02*
X001919Y008132D01*
X001101Y007313D01*
X001101Y001313D01*
X006101Y001313D01*
X006101Y002845D01*
X005869Y002845D01*
X006101Y001313D02*
X012101Y001313D01*
X017101Y005813D02*
X017101Y006813D01*
X017101Y008313D01*
X020101Y008313D01*
X023101Y008313D01*
X017101Y008313D02*
X014101Y008313D01*
X011101Y008313D01*
X011101Y006813D01*
X011101Y006313D01*
X011101Y008313D02*
X008101Y008313D01*
X017101Y005813D02*
X019601Y003313D01*
X019839Y002845D01*
D25*
X046101Y022313D03*
X045101Y024351D03*
X046101Y024851D03*
X045101Y025351D03*
M02*
