%
M48
M72
T01C0.0236
T02C0.0240
T03C0.0320
T04C0.0360
T05C0.0400
T06C0.0500
T07C0.0520
T08C0.1260
%
T01
X45101Y25351
X46101Y24851
X45101Y24351
X46101Y22313
T02
X12601Y32313
X12601Y33313
X22601Y33313
X22601Y32313
T03
X5101Y6813
X6101Y6813
X6101Y9813
X5101Y9813
X5601Y10813
X5601Y11813
X5601Y12813
X7601Y11313
X8601Y11313
X9601Y11313
X11601Y10813
X11601Y11813
X11601Y12813
X13601Y11313
X14601Y11313
X15601Y11313
X17601Y10813
X17601Y11813
X17601Y12813
X19601Y11313
X20601Y11313
X21601Y11313
X23601Y10813
X23601Y11813
X23601Y12813
X25601Y11313
X26601Y11313
X27601Y11313
X29601Y10813
X29601Y11813
X29601Y12813
X31601Y11313
X32601Y11313
X33601Y11313
X35601Y10813
X35601Y11813
X35601Y12813
X37601Y11313
X38601Y11313
X39601Y11313
X41601Y10813
X41601Y11813
X41601Y12813
X43601Y11313
X44601Y11313
X45601Y11313
X47601Y10813
X47601Y11813
X47601Y12813
X49601Y11313
X50601Y11313
X51601Y11313
X48101Y9813
X47101Y9813
X47101Y6813
X48101Y6813
X42101Y6813
X41101Y6813
X41101Y9813
X42101Y9813
X36101Y9813
X35101Y9813
X35101Y6813
X36101Y6813
X30101Y6813
X29101Y6813
X29101Y9813
X30101Y9813
X24101Y9813
X23101Y9813
X23101Y6813
X24101Y6813
X18101Y6813
X17101Y6813
X17101Y9813
X18101Y9813
X12101Y9813
X11101Y9813
X11101Y6813
X12101Y6813
X13601Y14313
X14601Y14313
X15601Y14313
X17601Y15813
X19601Y14313
X20601Y14313
X21601Y14313
X23601Y15813
X25601Y14313
X26601Y14313
X27601Y14313
X29601Y15813
X31601Y14313
X32601Y14313
X33601Y14313
X35601Y15813
X37601Y14313
X38601Y14313
X39601Y14313
X41601Y15813
X39601Y17063
X40101Y17813
X39101Y17813
X34601Y19813
X33601Y19813
X32601Y19813
X31601Y19813
X30601Y19813
X29601Y19813
X28601Y19813
X27601Y19813
X26601Y19813
X25101Y18813
X24601Y19563
X24101Y18813
X23101Y19813
X23101Y20813
X23101Y21813
X23101Y22813
X23101Y23813
X23101Y24813
X23101Y25813
X23101Y26813
X23101Y27813
X23101Y28813
X25601Y28813
X25601Y30813
X28601Y30813
X28601Y28813
X36601Y25813
X37601Y25813
X38851Y26313
X38851Y27813
X40851Y27813
X45101Y30313
X46101Y30313
X47101Y30313
X48101Y30313
X48101Y33313
X47101Y33313
X46101Y33313
X45101Y33313
X38851Y23313
X34601Y22813
X33601Y22813
X32601Y22813
X31601Y22813
X30601Y22813
X29601Y22813
X28601Y22813
X27601Y22813
X26601Y22813
X20101Y22813
X20101Y23813
X20101Y24813
X20101Y25813
X20101Y26813
X20101Y27813
X20101Y28813
X18101Y31313
X18101Y33313
X14601Y33813
X14601Y30813
X13101Y30813
X12101Y30813
X11101Y28813
X11101Y27813
X11101Y26813
X11101Y25813
X11101Y24813
X11101Y23813
X11101Y22813
X11101Y21813
X11101Y20813
X11101Y19813
X11601Y18313
X12101Y17563
X12601Y18313
X13101Y19813
X13101Y20813
X13101Y21813
X13101Y22813
X13101Y23813
X13101Y24813
X13101Y25813
X13101Y26813
X13101Y27813
X16101Y27813
X16101Y26813
X16101Y25813
X16101Y24813
X16101Y23813
X16101Y22813
X16101Y21813
X16101Y20813
X16101Y19813
X20101Y19813
X20101Y20813
X20101Y21813
X11601Y15813
X9601Y14313
X8601Y14313
X7601Y14313
X5601Y15813
X3601Y17813
X3101Y18563
X2601Y17813
X1601Y19813
X2101Y20813
X4601Y20813
X4601Y19813
X6101Y20813
X8101Y20813
X8101Y19813
X8101Y21813
X8101Y22813
X8101Y23813
X8101Y24813
X8101Y25813
X8101Y26813
X8101Y27813
X8101Y28813
X6601Y29313
X5101Y29313
X5101Y27313
X5101Y25813
X4601Y23813
X6101Y23813
X2101Y23813
X1101Y25813
X1101Y27313
X8601Y31313
X8601Y33313
X6601Y33313
X5101Y33313
X43601Y14313
X44601Y14313
X45601Y14313
X47601Y15813
X49601Y14313
X50601Y14313
X51601Y14313
T04
X16101Y33313
X17101Y33313
X41101Y31313
X41101Y30313
X43101Y30313
X43101Y31313
X43101Y32313
X41101Y32313
T05
X8101Y7313
X8101Y8313
X8101Y9313
X14101Y9313
X14101Y8313
X14101Y7313
X20101Y7313
X20101Y8313
X20101Y9313
X26101Y9313
X26101Y8313
X26101Y7313
X32101Y7313
X32101Y8313
X32101Y9313
X38101Y9313
X38101Y8313
X38101Y7313
X44101Y7313
X44101Y8313
X44101Y9313
X50101Y9313
X50101Y8313
X50101Y7313
X42101Y22313
X42101Y23313
X42101Y24313
X42101Y25313
X42101Y26313
X42101Y27313
X38491Y30533
X36711Y30533
X35491Y30533
X33711Y30533
X33711Y33093
X35491Y33093
X36711Y33093
X38491Y33093
X24601Y27813
X24601Y26813
X24601Y25813
X24601Y24813
X24601Y23813
X24601Y22813
X24601Y21813
X24601Y20813
X17601Y20813
X17601Y19813
X17601Y18813
X17601Y21813
X17601Y22813
X17601Y23813
X17601Y24813
X17601Y25813
X17601Y26813
X17601Y27813
X22601Y30313
X20101Y31313
X20101Y32313
X20101Y33313
X10101Y33313
X10101Y32313
X10101Y31313
T06
X3101Y30624
X3101Y32002
T07
X3899Y2845
X5869Y2845
X7839Y2845
X9899Y2845
X11869Y2845
X13839Y2845
X15899Y2845
X17869Y2845
X19839Y2845
X21899Y2845
X23869Y2845
X25839Y2845
X27899Y2845
X29869Y2845
X31839Y2845
X33899Y2845
X35869Y2845
X37839Y2845
X39899Y2845
X41869Y2845
X43839Y2845
X45899Y2845
X47869Y2845
X49839Y2845
X2747Y10102
X2747Y8132
X2747Y6162
T08
X2101Y16282
X30731Y31813
X50888Y16243
M30
