G75*
G70*
%OFA0B0*%
%FSLAX24Y24*%
%IPPOS*%
%LPD*%
%AMOC8*
5,1,8,0,0,1.08239X$1,22.5*
%
%ADD10C,0.0000*%
%ADD11OC8,0.0630*%
%ADD12OC8,0.0500*%
%ADD13C,0.0750*%
%ADD14C,0.0600*%
%ADD15C,0.0600*%
%ADD16OC8,0.0600*%
%ADD17OC8,0.0520*%
%ADD18C,0.0160*%
%ADD19C,0.0356*%
D10*
X000258Y000893D02*
X000258Y019397D01*
X020731Y019397D01*
X020731Y000893D01*
X000258Y000893D01*
X001114Y006798D02*
X001116Y006848D01*
X001122Y006898D01*
X001132Y006948D01*
X001145Y006996D01*
X001162Y007044D01*
X001183Y007090D01*
X001207Y007134D01*
X001235Y007176D01*
X001266Y007216D01*
X001300Y007253D01*
X001337Y007288D01*
X001376Y007319D01*
X001417Y007348D01*
X001461Y007373D01*
X001507Y007395D01*
X001554Y007413D01*
X001602Y007427D01*
X001651Y007438D01*
X001701Y007445D01*
X001751Y007448D01*
X001802Y007447D01*
X001852Y007442D01*
X001902Y007433D01*
X001950Y007421D01*
X001998Y007404D01*
X002044Y007384D01*
X002089Y007361D01*
X002132Y007334D01*
X002172Y007304D01*
X002210Y007271D01*
X002245Y007235D01*
X002278Y007196D01*
X002307Y007155D01*
X002333Y007112D01*
X002356Y007067D01*
X002375Y007020D01*
X002390Y006972D01*
X002402Y006923D01*
X002410Y006873D01*
X002414Y006823D01*
X002414Y006773D01*
X002410Y006723D01*
X002402Y006673D01*
X002390Y006624D01*
X002375Y006576D01*
X002356Y006529D01*
X002333Y006484D01*
X002307Y006441D01*
X002278Y006400D01*
X002245Y006361D01*
X002210Y006325D01*
X002172Y006292D01*
X002132Y006262D01*
X002089Y006235D01*
X002044Y006212D01*
X001998Y006192D01*
X001950Y006175D01*
X001902Y006163D01*
X001852Y006154D01*
X001802Y006149D01*
X001751Y006148D01*
X001701Y006151D01*
X001651Y006158D01*
X001602Y006169D01*
X001554Y006183D01*
X001507Y006201D01*
X001461Y006223D01*
X001417Y006248D01*
X001376Y006277D01*
X001337Y006308D01*
X001300Y006343D01*
X001266Y006380D01*
X001235Y006420D01*
X001207Y006462D01*
X001183Y006506D01*
X001162Y006552D01*
X001145Y006600D01*
X001132Y006648D01*
X001122Y006698D01*
X001116Y006748D01*
X001114Y006798D01*
D11*
X008526Y003861D03*
X008526Y001861D03*
X008057Y015853D03*
X009388Y015853D03*
X012388Y015853D03*
X013719Y015853D03*
X016719Y015853D03*
X017762Y015853D03*
X019762Y015853D03*
X005057Y015853D03*
X004120Y015853D03*
X001120Y015853D03*
D12*
X009428Y006798D03*
X009428Y005798D03*
D13*
X002602Y003156D02*
X001852Y003156D01*
X001852Y001778D02*
X002602Y001778D01*
D14*
X007364Y005798D02*
X007964Y005798D01*
X007964Y006798D02*
X007364Y006798D01*
X007364Y007798D02*
X007964Y007798D01*
X005208Y009560D02*
X004608Y009560D01*
X004608Y010560D02*
X005208Y010560D01*
X005208Y011560D02*
X004608Y011560D01*
X004608Y012560D02*
X005208Y012560D01*
X005208Y013560D02*
X004608Y013560D01*
X004608Y014560D02*
X005208Y014560D01*
X011670Y016932D02*
X012270Y016932D01*
X012270Y018712D02*
X011670Y018712D01*
X014230Y018712D02*
X014830Y018712D01*
X014830Y016932D02*
X014230Y016932D01*
X016789Y016932D02*
X017389Y016932D01*
X017389Y018712D02*
X016789Y018712D01*
X019349Y018712D02*
X019949Y018712D01*
X019949Y016932D02*
X019349Y016932D01*
X019113Y005842D02*
X019113Y005242D01*
X018113Y005242D02*
X018113Y005842D01*
X017113Y005842D02*
X017113Y005242D01*
X016113Y005242D02*
X016113Y005842D01*
X015113Y005842D02*
X015113Y005242D01*
X014113Y005242D02*
X014113Y005842D01*
X013113Y005842D02*
X013113Y005242D01*
X012113Y005242D02*
X012113Y005842D01*
D15*
X006770Y001861D03*
D16*
X004770Y001861D03*
X004770Y003861D03*
X006770Y003861D03*
D17*
X006557Y017322D03*
X006557Y018322D03*
X009313Y018322D03*
X009313Y017322D03*
X002227Y017322D03*
X002227Y018322D03*
D18*
X002420Y018399D01*
X002920Y018899D01*
X006670Y018899D01*
X009170Y016399D01*
X012670Y016399D01*
X012920Y016149D01*
X012920Y015899D01*
X014920Y013899D01*
X014920Y011899D01*
X015180Y012145D02*
X015180Y013847D01*
X015180Y013950D01*
X015140Y014046D01*
X013828Y015358D01*
X013924Y015358D01*
X014214Y015648D01*
X014214Y015737D01*
X015660Y014291D01*
X015660Y013145D01*
X015616Y013101D01*
X015562Y012970D01*
X015562Y012827D01*
X015616Y012696D01*
X015717Y012595D01*
X015848Y012540D01*
X015991Y012540D01*
X016123Y012595D01*
X016223Y012696D01*
X016278Y012827D01*
X016278Y012970D01*
X016223Y013101D01*
X016180Y013145D01*
X016180Y014347D01*
X016180Y014450D01*
X016140Y014546D01*
X014234Y016452D01*
X014926Y016452D01*
X015102Y016525D01*
X015216Y016639D01*
X015562Y016639D01*
X016224Y015977D01*
X016224Y015648D01*
X016514Y015358D01*
X016924Y015358D01*
X017214Y015648D01*
X017214Y016058D01*
X016924Y016348D01*
X016588Y016348D01*
X015817Y017119D01*
X015721Y017158D01*
X015618Y017158D01*
X015256Y017158D01*
X015237Y017204D01*
X015102Y017339D01*
X014926Y017412D01*
X014135Y017412D01*
X013958Y017339D01*
X013823Y017204D01*
X013750Y017027D01*
X013750Y016935D01*
X012428Y018258D01*
X012455Y018267D01*
X012522Y018301D01*
X012583Y018346D01*
X012636Y018399D01*
X012681Y018460D01*
X012715Y018527D01*
X012739Y018599D01*
X012750Y018674D01*
X012750Y018692D01*
X011991Y018692D01*
X011991Y018732D01*
X012750Y018732D01*
X012750Y018749D01*
X012739Y018824D01*
X012715Y018896D01*
X012681Y018963D01*
X012652Y019003D01*
X013849Y019003D01*
X013820Y018963D01*
X013786Y018896D01*
X013762Y018824D01*
X013750Y018749D01*
X013750Y018732D01*
X014510Y018732D01*
X014510Y018692D01*
X013750Y018692D01*
X013750Y018674D01*
X013762Y018599D01*
X013786Y018527D01*
X013820Y018460D01*
X013864Y018399D01*
X013918Y018346D01*
X013979Y018301D01*
X014046Y018267D01*
X014118Y018244D01*
X014193Y018232D01*
X014510Y018232D01*
X014510Y018691D01*
X014550Y018691D01*
X014550Y018232D01*
X014868Y018232D01*
X014943Y018244D01*
X015015Y018267D01*
X015082Y018301D01*
X015143Y018346D01*
X015196Y018399D01*
X015241Y018460D01*
X015275Y018527D01*
X015299Y018599D01*
X015310Y018674D01*
X015310Y018692D01*
X014551Y018692D01*
X014551Y018732D01*
X015310Y018732D01*
X015310Y018749D01*
X015299Y018824D01*
X015275Y018896D01*
X015241Y018963D01*
X015212Y019003D01*
X016407Y019003D01*
X016378Y018963D01*
X016344Y018896D01*
X016320Y018824D01*
X016309Y018749D01*
X016309Y018732D01*
X017068Y018732D01*
X017068Y018692D01*
X016309Y018692D01*
X016309Y018674D01*
X016320Y018599D01*
X016344Y018527D01*
X016378Y018460D01*
X016422Y018399D01*
X016476Y018346D01*
X016537Y018301D01*
X016604Y018267D01*
X016676Y018244D01*
X016751Y018232D01*
X017068Y018232D01*
X017068Y018691D01*
X017109Y018691D01*
X017109Y018232D01*
X017426Y018232D01*
X017501Y018244D01*
X017573Y018267D01*
X017640Y018301D01*
X017701Y018346D01*
X017755Y018399D01*
X017799Y018460D01*
X017833Y018527D01*
X017857Y018599D01*
X017868Y018674D01*
X017868Y018692D01*
X017109Y018692D01*
X017109Y018732D01*
X017868Y018732D01*
X017868Y018749D01*
X017857Y018824D01*
X017833Y018896D01*
X017799Y018963D01*
X017770Y019003D01*
X018967Y019003D01*
X018938Y018963D01*
X018904Y018896D01*
X018880Y018824D01*
X018869Y018749D01*
X018869Y018732D01*
X019628Y018732D01*
X019628Y018692D01*
X018869Y018692D01*
X018869Y018674D01*
X018880Y018599D01*
X018904Y018527D01*
X018938Y018460D01*
X018982Y018399D01*
X019036Y018346D01*
X019097Y018301D01*
X019164Y018267D01*
X019236Y018244D01*
X019311Y018232D01*
X019628Y018232D01*
X019628Y018691D01*
X019669Y018691D01*
X019669Y018232D01*
X019986Y018232D01*
X020061Y018244D01*
X020133Y018267D01*
X020200Y018301D01*
X020261Y018346D01*
X020315Y018399D01*
X020337Y018430D01*
X020337Y017222D01*
X020220Y017339D01*
X020044Y017412D01*
X019253Y017412D01*
X019077Y017339D01*
X018942Y017204D01*
X018869Y017027D01*
X018869Y016836D01*
X018942Y016660D01*
X019077Y016525D01*
X019253Y016452D01*
X020044Y016452D01*
X020220Y016525D01*
X020337Y016641D01*
X020337Y001286D01*
X002864Y001286D01*
X002916Y001308D01*
X003072Y001464D01*
X003157Y001668D01*
X003157Y001889D01*
X003072Y002093D01*
X002916Y002249D01*
X002712Y002333D01*
X001741Y002333D01*
X001537Y002249D01*
X001381Y002093D01*
X001297Y001889D01*
X001297Y001668D01*
X001381Y001464D01*
X001537Y001308D01*
X001590Y001286D01*
X000652Y001286D01*
X000652Y005463D01*
X000702Y005414D01*
X001096Y005186D01*
X001536Y005068D01*
X001992Y005068D01*
X002432Y005186D01*
X002826Y005414D01*
X003148Y005736D01*
X003376Y006130D01*
X003494Y006570D01*
X003494Y007026D01*
X003376Y007466D01*
X003148Y007860D01*
X002826Y008182D01*
X002432Y008410D01*
X001992Y008528D01*
X001536Y008528D01*
X001096Y008410D01*
X000702Y008182D01*
X000652Y008133D01*
X000652Y015622D01*
X000915Y015358D01*
X001325Y015358D01*
X001615Y015648D01*
X001615Y016058D01*
X001325Y016348D01*
X000915Y016348D01*
X000652Y016085D01*
X000652Y019003D01*
X002656Y019003D01*
X002412Y018759D01*
X002409Y018762D01*
X002045Y018762D01*
X001787Y018504D01*
X001787Y018139D01*
X002045Y017882D01*
X002409Y017882D01*
X002667Y018139D01*
X002667Y018278D01*
X003027Y018639D01*
X006252Y018639D01*
X006117Y018504D01*
X006117Y018139D01*
X006375Y017882D01*
X006569Y017882D01*
X006689Y017762D01*
X006375Y017762D01*
X006117Y017504D01*
X006117Y017139D01*
X006375Y016882D01*
X006740Y016882D01*
X006910Y017052D01*
X006910Y015847D01*
X006949Y015751D01*
X007022Y015678D01*
X008272Y014428D01*
X008368Y014389D01*
X008471Y014389D01*
X009312Y014389D01*
X015062Y008639D01*
X015062Y008577D01*
X015116Y008446D01*
X015153Y008408D01*
X014166Y008408D01*
X014123Y008452D01*
X013991Y008507D01*
X013848Y008507D01*
X013717Y008452D01*
X013616Y008351D01*
X013562Y008220D01*
X013562Y008077D01*
X013616Y007946D01*
X013717Y007845D01*
X013848Y007790D01*
X013991Y007790D01*
X014123Y007845D01*
X014166Y007889D01*
X015562Y007889D01*
X017128Y006322D01*
X017017Y006322D01*
X016841Y006249D01*
X016706Y006114D01*
X016633Y005938D01*
X016633Y005147D01*
X016706Y004970D01*
X016841Y004835D01*
X017017Y004762D01*
X017208Y004762D01*
X017384Y004835D01*
X017519Y004970D01*
X017593Y005147D01*
X017593Y005858D01*
X017633Y005818D01*
X017633Y005147D01*
X017706Y004970D01*
X017841Y004835D01*
X018017Y004762D01*
X018208Y004762D01*
X018384Y004835D01*
X018519Y004970D01*
X018593Y005147D01*
X018593Y005938D01*
X018519Y006114D01*
X018384Y006249D01*
X018208Y006322D01*
X018017Y006322D01*
X017909Y006277D01*
X015817Y008369D01*
X015721Y008408D01*
X015686Y008408D01*
X015723Y008446D01*
X015778Y008577D01*
X015778Y008720D01*
X015723Y008851D01*
X015623Y008952D01*
X015491Y009007D01*
X015429Y009007D01*
X009640Y014796D01*
X009567Y014869D01*
X009471Y014908D01*
X008527Y014908D01*
X008078Y015358D01*
X008262Y015358D01*
X008552Y015648D01*
X008552Y016058D01*
X008262Y016348D01*
X007852Y016348D01*
X007562Y016058D01*
X007562Y015873D01*
X007430Y016006D01*
X007430Y017597D01*
X007430Y017700D01*
X007390Y017796D01*
X006997Y018188D01*
X006997Y018203D01*
X009018Y016183D01*
X008893Y016058D01*
X008893Y015648D01*
X009183Y015358D01*
X009593Y015358D01*
X009883Y015648D01*
X009883Y016058D01*
X009803Y016139D01*
X011974Y016139D01*
X011893Y016058D01*
X011893Y015648D01*
X012183Y015358D01*
X012593Y015358D01*
X012843Y015608D01*
X014660Y013791D01*
X014660Y012145D01*
X014616Y012101D01*
X014562Y011970D01*
X014562Y011827D01*
X014616Y011696D01*
X014717Y011595D01*
X014848Y011540D01*
X014991Y011540D01*
X015123Y011595D01*
X015223Y011696D01*
X015278Y011827D01*
X015278Y011970D01*
X015223Y012101D01*
X015180Y012145D01*
X015180Y012210D02*
X020337Y012210D01*
X020337Y012368D02*
X015180Y012368D01*
X015180Y012527D02*
X020337Y012527D01*
X020337Y012685D02*
X016213Y012685D01*
X016278Y012844D02*
X020337Y012844D01*
X020337Y013003D02*
X016264Y013003D01*
X016180Y013161D02*
X020337Y013161D01*
X020337Y013320D02*
X016180Y013320D01*
X016180Y013478D02*
X020337Y013478D01*
X020337Y013637D02*
X016180Y013637D01*
X016180Y013795D02*
X020337Y013795D01*
X020337Y013954D02*
X016180Y013954D01*
X016180Y014112D02*
X020337Y014112D01*
X020337Y014271D02*
X016180Y014271D01*
X016180Y014429D02*
X020337Y014429D01*
X020337Y014588D02*
X016098Y014588D01*
X015939Y014747D02*
X020337Y014747D01*
X020337Y014905D02*
X015781Y014905D01*
X015622Y015064D02*
X020337Y015064D01*
X020337Y015222D02*
X015464Y015222D01*
X015305Y015381D02*
X016491Y015381D01*
X016333Y015539D02*
X015147Y015539D01*
X014988Y015698D02*
X016224Y015698D01*
X016224Y015856D02*
X014829Y015856D01*
X014671Y016015D02*
X016186Y016015D01*
X016027Y016173D02*
X014512Y016173D01*
X014354Y016332D02*
X015869Y016332D01*
X015710Y016491D02*
X015019Y016491D01*
X014670Y016899D02*
X014530Y016932D01*
X014670Y016899D02*
X015670Y016899D01*
X016670Y015899D01*
X016719Y015853D01*
X017214Y015856D02*
X017267Y015856D01*
X017267Y015698D02*
X017214Y015698D01*
X017267Y015648D02*
X017557Y015358D01*
X017967Y015358D01*
X018257Y015648D01*
X018257Y016058D01*
X017967Y016348D01*
X017557Y016348D01*
X017267Y016058D01*
X017267Y015648D01*
X017376Y015539D02*
X017105Y015539D01*
X016946Y015381D02*
X017535Y015381D01*
X017990Y015381D02*
X019535Y015381D01*
X019557Y015358D02*
X019762Y015358D01*
X019762Y015853D01*
X019762Y015853D01*
X019267Y015853D01*
X019267Y015648D01*
X019557Y015358D01*
X019762Y015358D02*
X019967Y015358D01*
X020257Y015648D01*
X020257Y015853D01*
X019763Y015853D01*
X019763Y015853D01*
X020257Y015853D01*
X020257Y016058D01*
X019967Y016348D01*
X019762Y016348D01*
X019557Y016348D01*
X019267Y016058D01*
X019267Y015853D01*
X019762Y015853D01*
X019762Y015853D01*
X019762Y015358D01*
X019762Y015381D02*
X019762Y015381D01*
X019762Y015539D02*
X019762Y015539D01*
X019762Y015698D02*
X019762Y015698D01*
X019762Y015854D02*
X019762Y016348D01*
X019762Y015854D01*
X019762Y015854D01*
X019762Y015856D02*
X019762Y015856D01*
X019762Y016015D02*
X019762Y016015D01*
X019762Y016173D02*
X019762Y016173D01*
X019762Y016332D02*
X019762Y016332D01*
X019541Y016332D02*
X017983Y016332D01*
X018142Y016173D02*
X019382Y016173D01*
X019267Y016015D02*
X018257Y016015D01*
X018257Y015856D02*
X019267Y015856D01*
X019267Y015698D02*
X018257Y015698D01*
X018148Y015539D02*
X019376Y015539D01*
X019990Y015381D02*
X020337Y015381D01*
X020337Y015539D02*
X020148Y015539D01*
X020257Y015698D02*
X020337Y015698D01*
X020337Y015856D02*
X020257Y015856D01*
X020257Y016015D02*
X020337Y016015D01*
X020337Y016173D02*
X020142Y016173D01*
X019983Y016332D02*
X020337Y016332D01*
X020337Y016491D02*
X020138Y016491D01*
X020276Y017283D02*
X020337Y017283D01*
X020337Y017442D02*
X013244Y017442D01*
X013086Y017600D02*
X020337Y017600D01*
X020337Y017759D02*
X012927Y017759D01*
X012768Y017917D02*
X020337Y017917D01*
X020337Y018076D02*
X012610Y018076D01*
X012451Y018234D02*
X014175Y018234D01*
X013870Y018393D02*
X012631Y018393D01*
X012723Y018552D02*
X013778Y018552D01*
X013777Y018869D02*
X012724Y018869D01*
X011991Y018710D02*
X014510Y018710D01*
X014551Y018710D02*
X017068Y018710D01*
X017109Y018710D02*
X019628Y018710D01*
X019628Y018552D02*
X019669Y018552D01*
X019669Y018393D02*
X019628Y018393D01*
X019628Y018234D02*
X019669Y018234D01*
X019293Y018234D02*
X017444Y018234D01*
X017109Y018234D02*
X017068Y018234D01*
X017068Y018393D02*
X017109Y018393D01*
X017109Y018552D02*
X017068Y018552D01*
X016733Y018234D02*
X014886Y018234D01*
X014550Y018234D02*
X014510Y018234D01*
X014510Y018393D02*
X014550Y018393D01*
X014550Y018552D02*
X014510Y018552D01*
X015191Y018393D02*
X016428Y018393D01*
X016336Y018552D02*
X015283Y018552D01*
X015284Y018869D02*
X016335Y018869D01*
X017749Y018393D02*
X018988Y018393D01*
X018896Y018552D02*
X017841Y018552D01*
X017842Y018869D02*
X018895Y018869D01*
X020004Y018234D02*
X020337Y018234D01*
X020337Y018393D02*
X020309Y018393D01*
X019021Y017283D02*
X017716Y017283D01*
X017660Y017339D02*
X017484Y017412D01*
X016693Y017412D01*
X016517Y017339D01*
X016382Y017204D01*
X016309Y017027D01*
X016309Y016836D01*
X016382Y016660D01*
X016517Y016525D01*
X016693Y016452D01*
X017484Y016452D01*
X017660Y016525D01*
X017795Y016660D01*
X017868Y016836D01*
X017868Y017027D01*
X017795Y017204D01*
X017660Y017339D01*
X017828Y017125D02*
X018909Y017125D01*
X018869Y016966D02*
X017868Y016966D01*
X017857Y016808D02*
X018880Y016808D01*
X018952Y016649D02*
X017785Y016649D01*
X017578Y016491D02*
X019159Y016491D01*
X017541Y016332D02*
X016940Y016332D01*
X017099Y016173D02*
X017382Y016173D01*
X017267Y016015D02*
X017214Y016015D01*
X016599Y016491D02*
X016445Y016491D01*
X016392Y016649D02*
X016287Y016649D01*
X016320Y016808D02*
X016128Y016808D01*
X015970Y016966D02*
X016309Y016966D01*
X016349Y017125D02*
X015803Y017125D01*
X015158Y017283D02*
X016461Y017283D01*
X014570Y015381D02*
X013946Y015381D01*
X013964Y015222D02*
X014728Y015222D01*
X014887Y015064D02*
X014122Y015064D01*
X014281Y014905D02*
X015045Y014905D01*
X015204Y014747D02*
X014439Y014747D01*
X014598Y014588D02*
X015362Y014588D01*
X015521Y014429D02*
X014756Y014429D01*
X014915Y014271D02*
X015660Y014271D01*
X015660Y014112D02*
X015073Y014112D01*
X015178Y013954D02*
X015660Y013954D01*
X015660Y013795D02*
X015180Y013795D01*
X015180Y013637D02*
X015660Y013637D01*
X015660Y013478D02*
X015180Y013478D01*
X015180Y013320D02*
X015660Y013320D01*
X015660Y013161D02*
X015180Y013161D01*
X015180Y013003D02*
X015575Y013003D01*
X015562Y012844D02*
X015180Y012844D01*
X015180Y012685D02*
X015626Y012685D01*
X015920Y012899D02*
X015920Y014399D01*
X012170Y018149D01*
X009420Y018149D01*
X009313Y018322D01*
X009706Y018552D02*
X011218Y018552D01*
X011226Y018527D02*
X011260Y018460D01*
X011297Y018408D01*
X009753Y018408D01*
X009753Y018504D01*
X009496Y018762D01*
X009131Y018762D01*
X008873Y018504D01*
X008873Y018139D01*
X009131Y017882D01*
X009496Y017882D01*
X009502Y017889D01*
X012062Y017889D01*
X013602Y016348D01*
X013514Y016348D01*
X013224Y016058D01*
X013224Y015962D01*
X013180Y016006D01*
X013180Y016097D01*
X013180Y016200D01*
X013140Y016296D01*
X012890Y016546D01*
X012817Y016619D01*
X012721Y016658D01*
X012676Y016658D01*
X012677Y016660D01*
X012750Y016836D01*
X012750Y017027D01*
X012677Y017204D01*
X012542Y017339D01*
X012366Y017412D01*
X011575Y017412D01*
X011398Y017339D01*
X011263Y017204D01*
X011190Y017027D01*
X011190Y016836D01*
X011263Y016660D01*
X011265Y016658D01*
X009277Y016658D01*
X006933Y019003D01*
X011289Y019003D01*
X011260Y018963D01*
X011226Y018896D01*
X011202Y018824D01*
X011190Y018749D01*
X011190Y018732D01*
X011950Y018732D01*
X011950Y018692D01*
X011190Y018692D01*
X011190Y018674D01*
X011202Y018599D01*
X011226Y018527D01*
X011217Y018869D02*
X007067Y018869D01*
X007226Y018710D02*
X009080Y018710D01*
X008921Y018552D02*
X007384Y018552D01*
X007543Y018393D02*
X008873Y018393D01*
X008873Y018234D02*
X007701Y018234D01*
X007860Y018076D02*
X008937Y018076D01*
X009095Y017917D02*
X008018Y017917D01*
X008177Y017759D02*
X009128Y017759D01*
X009131Y017762D02*
X008873Y017504D01*
X008873Y017139D01*
X009131Y016882D01*
X009496Y016882D01*
X009753Y017139D01*
X009753Y017504D01*
X009496Y017762D01*
X009131Y017762D01*
X008970Y017600D02*
X008336Y017600D01*
X008494Y017442D02*
X008873Y017442D01*
X008873Y017283D02*
X008653Y017283D01*
X008811Y017125D02*
X008888Y017125D01*
X008970Y016966D02*
X009047Y016966D01*
X009128Y016808D02*
X011202Y016808D01*
X011190Y016966D02*
X009580Y016966D01*
X009739Y017125D02*
X011231Y017125D01*
X011343Y017283D02*
X009753Y017283D01*
X009753Y017442D02*
X012509Y017442D01*
X012598Y017283D02*
X012667Y017283D01*
X012710Y017125D02*
X012826Y017125D01*
X012750Y016966D02*
X012984Y016966D01*
X013143Y016808D02*
X012738Y016808D01*
X012744Y016649D02*
X013301Y016649D01*
X013460Y016491D02*
X012945Y016491D01*
X013104Y016332D02*
X013498Y016332D01*
X013339Y016173D02*
X013180Y016173D01*
X013180Y016015D02*
X013224Y016015D01*
X012911Y015539D02*
X012774Y015539D01*
X012616Y015381D02*
X013070Y015381D01*
X013228Y015222D02*
X008214Y015222D01*
X008285Y015381D02*
X009161Y015381D01*
X009002Y015539D02*
X008444Y015539D01*
X008552Y015698D02*
X008893Y015698D01*
X008893Y015856D02*
X008552Y015856D01*
X008552Y016015D02*
X008893Y016015D01*
X009008Y016173D02*
X008437Y016173D01*
X008279Y016332D02*
X008869Y016332D01*
X008710Y016491D02*
X007430Y016491D01*
X007430Y016649D02*
X008551Y016649D01*
X008393Y016808D02*
X007430Y016808D01*
X007430Y016966D02*
X008234Y016966D01*
X008076Y017125D02*
X007430Y017125D01*
X007430Y017283D02*
X007917Y017283D01*
X007759Y017442D02*
X007430Y017442D01*
X007430Y017600D02*
X007600Y017600D01*
X007442Y017759D02*
X007405Y017759D01*
X007283Y017917D02*
X007268Y017917D01*
X007125Y018076D02*
X007110Y018076D01*
X007170Y017649D02*
X006670Y018149D01*
X006557Y018322D01*
X006117Y018393D02*
X002782Y018393D01*
X002667Y018234D02*
X006117Y018234D01*
X006181Y018076D02*
X002603Y018076D01*
X002445Y017917D02*
X006340Y017917D01*
X006372Y017759D02*
X002412Y017759D01*
X002409Y017762D02*
X002045Y017762D01*
X001787Y017504D01*
X001787Y017139D01*
X002045Y016882D01*
X002409Y016882D01*
X002667Y017139D01*
X002667Y017504D01*
X002409Y017762D01*
X002570Y017600D02*
X006214Y017600D01*
X006117Y017442D02*
X002667Y017442D01*
X002667Y017283D02*
X006117Y017283D01*
X006132Y017125D02*
X002652Y017125D01*
X002493Y016966D02*
X006291Y016966D01*
X006824Y016966D02*
X006910Y016966D01*
X006910Y016808D02*
X000652Y016808D01*
X000652Y016966D02*
X001960Y016966D01*
X001802Y017125D02*
X000652Y017125D01*
X000652Y017283D02*
X001787Y017283D01*
X001787Y017442D02*
X000652Y017442D01*
X000652Y017600D02*
X001883Y017600D01*
X002042Y017759D02*
X000652Y017759D01*
X000652Y017917D02*
X002009Y017917D01*
X001850Y018076D02*
X000652Y018076D01*
X000652Y018234D02*
X001787Y018234D01*
X001787Y018393D02*
X000652Y018393D01*
X000652Y018552D02*
X001834Y018552D01*
X001993Y018710D02*
X000652Y018710D01*
X000652Y018869D02*
X002522Y018869D01*
X002940Y018552D02*
X006165Y018552D01*
X007170Y017649D02*
X007170Y015899D01*
X008420Y014649D01*
X009420Y014649D01*
X015420Y008649D01*
X015772Y008563D02*
X020337Y008563D01*
X020337Y008405D02*
X015730Y008405D01*
X015940Y008246D02*
X020337Y008246D01*
X020337Y008088D02*
X016098Y008088D01*
X016257Y007929D02*
X020337Y007929D01*
X020337Y007771D02*
X016415Y007771D01*
X016574Y007612D02*
X020337Y007612D01*
X020337Y007454D02*
X016732Y007454D01*
X016891Y007295D02*
X020337Y007295D01*
X020337Y007136D02*
X017049Y007136D01*
X017208Y006978D02*
X020337Y006978D01*
X020337Y006819D02*
X017366Y006819D01*
X017525Y006661D02*
X020337Y006661D01*
X020337Y006502D02*
X017684Y006502D01*
X017842Y006344D02*
X020337Y006344D01*
X020337Y006185D02*
X019448Y006185D01*
X019384Y006249D02*
X019208Y006322D01*
X019017Y006322D01*
X018841Y006249D01*
X018706Y006114D01*
X018633Y005938D01*
X018633Y005147D01*
X018706Y004970D01*
X018841Y004835D01*
X019017Y004762D01*
X019208Y004762D01*
X019384Y004835D01*
X019519Y004970D01*
X019593Y005147D01*
X019593Y005938D01*
X019519Y006114D01*
X019384Y006249D01*
X019556Y006027D02*
X020337Y006027D01*
X020337Y005868D02*
X019593Y005868D01*
X019593Y005710D02*
X020337Y005710D01*
X020337Y005551D02*
X019593Y005551D01*
X019593Y005392D02*
X020337Y005392D01*
X020337Y005234D02*
X019593Y005234D01*
X019563Y005075D02*
X020337Y005075D01*
X020337Y004917D02*
X019466Y004917D01*
X018759Y004917D02*
X018466Y004917D01*
X018563Y005075D02*
X018662Y005075D01*
X018633Y005234D02*
X018593Y005234D01*
X018593Y005392D02*
X018633Y005392D01*
X018633Y005551D02*
X018593Y005551D01*
X018593Y005710D02*
X018633Y005710D01*
X018633Y005868D02*
X018593Y005868D01*
X018556Y006027D02*
X018669Y006027D01*
X018777Y006185D02*
X018448Y006185D01*
X018170Y005649D02*
X018113Y005542D01*
X018170Y005649D02*
X015670Y008149D01*
X013920Y008149D01*
X013670Y008405D02*
X012430Y008405D01*
X012430Y008563D02*
X015067Y008563D01*
X014979Y008722D02*
X012430Y008722D01*
X012430Y008880D02*
X014820Y008880D01*
X014661Y009039D02*
X012430Y009039D01*
X012430Y009198D02*
X014503Y009198D01*
X014344Y009356D02*
X012430Y009356D01*
X012430Y009515D02*
X014186Y009515D01*
X014027Y009673D02*
X012430Y009673D01*
X012430Y009832D02*
X013869Y009832D01*
X013710Y009990D02*
X012430Y009990D01*
X012430Y010149D02*
X013552Y010149D01*
X013393Y010307D02*
X012430Y010307D01*
X012430Y010466D02*
X013235Y010466D01*
X013076Y010624D02*
X012430Y010624D01*
X012430Y010783D02*
X012918Y010783D01*
X012759Y010941D02*
X012430Y010941D01*
X012430Y010950D02*
X012390Y011046D01*
X012317Y011119D01*
X012278Y011158D01*
X012278Y011220D01*
X012223Y011351D01*
X012123Y011452D01*
X011991Y011507D01*
X011848Y011507D01*
X011717Y011452D01*
X011616Y011351D01*
X011562Y011220D01*
X011562Y011077D01*
X011592Y011004D01*
X011467Y010952D01*
X011366Y010851D01*
X011312Y010720D01*
X011312Y010577D01*
X011366Y010446D01*
X011410Y010402D01*
X011410Y006256D01*
X011272Y006119D01*
X011199Y006046D01*
X011160Y005950D01*
X011160Y005276D01*
X010430Y006006D01*
X010430Y010402D01*
X010473Y010446D01*
X010528Y010577D01*
X010528Y010720D01*
X010473Y010851D01*
X010373Y010952D01*
X010241Y011007D01*
X010098Y011007D01*
X009967Y010952D01*
X009866Y010851D01*
X009812Y010720D01*
X009812Y010577D01*
X009866Y010446D01*
X009910Y010402D01*
X009910Y005950D01*
X009910Y005847D01*
X009949Y005751D01*
X011699Y004001D01*
X011772Y003928D01*
X011868Y003889D01*
X012868Y003889D01*
X012971Y003889D01*
X013067Y003928D01*
X013935Y004796D01*
X014017Y004762D01*
X014208Y004762D01*
X014384Y004835D01*
X014519Y004970D01*
X014593Y005147D01*
X014593Y005938D01*
X014519Y006114D01*
X014495Y006139D01*
X014730Y006139D01*
X014706Y006114D01*
X014633Y005938D01*
X014633Y005147D01*
X014706Y004970D01*
X014841Y004835D01*
X015017Y004762D01*
X015208Y004762D01*
X015384Y004835D01*
X015519Y004970D01*
X015593Y005147D01*
X015593Y005858D01*
X015633Y005818D01*
X015633Y005147D01*
X015706Y004970D01*
X015841Y004835D01*
X016017Y004762D01*
X016208Y004762D01*
X016384Y004835D01*
X016519Y004970D01*
X016593Y005147D01*
X016593Y005938D01*
X016519Y006114D01*
X016384Y006249D01*
X016208Y006322D01*
X016017Y006322D01*
X015909Y006277D01*
X015567Y006619D01*
X015471Y006658D01*
X015368Y006658D01*
X012916Y006658D01*
X012873Y006702D01*
X012741Y006757D01*
X012598Y006757D01*
X012467Y006702D01*
X012430Y006665D01*
X012430Y010950D01*
X012336Y011100D02*
X012600Y011100D01*
X012442Y011259D02*
X012262Y011259D01*
X012283Y011417D02*
X012157Y011417D01*
X012125Y011576D02*
X007464Y011576D01*
X007306Y011417D02*
X011682Y011417D01*
X011578Y011259D02*
X007147Y011259D01*
X006989Y011100D02*
X011562Y011100D01*
X011456Y010941D02*
X010383Y010941D01*
X010502Y010783D02*
X011338Y010783D01*
X011312Y010624D02*
X010528Y010624D01*
X010482Y010466D02*
X011358Y010466D01*
X011410Y010307D02*
X010430Y010307D01*
X010430Y010149D02*
X011410Y010149D01*
X011410Y009990D02*
X010430Y009990D01*
X010430Y009832D02*
X011410Y009832D01*
X011410Y009673D02*
X010430Y009673D01*
X010430Y009515D02*
X011410Y009515D01*
X011410Y009356D02*
X010430Y009356D01*
X010430Y009198D02*
X011410Y009198D01*
X011410Y009039D02*
X010430Y009039D01*
X010430Y008880D02*
X011410Y008880D01*
X011410Y008722D02*
X010430Y008722D01*
X010430Y008563D02*
X011410Y008563D01*
X011410Y008405D02*
X010430Y008405D01*
X010430Y008246D02*
X011410Y008246D01*
X011410Y008088D02*
X010430Y008088D01*
X010430Y007929D02*
X011410Y007929D01*
X011410Y007771D02*
X010430Y007771D01*
X010430Y007612D02*
X011410Y007612D01*
X011410Y007454D02*
X010430Y007454D01*
X010430Y007295D02*
X011410Y007295D01*
X011410Y007136D02*
X010430Y007136D01*
X010430Y006978D02*
X011410Y006978D01*
X011410Y006819D02*
X010430Y006819D01*
X010430Y006661D02*
X011410Y006661D01*
X011410Y006502D02*
X010430Y006502D01*
X010430Y006344D02*
X011410Y006344D01*
X011339Y006185D02*
X010430Y006185D01*
X010430Y006027D02*
X011191Y006027D01*
X011272Y006119D02*
X011272Y006119D01*
X011420Y005899D02*
X011420Y005149D01*
X011920Y004649D01*
X012420Y004649D01*
X013170Y005399D01*
X013113Y005542D01*
X012170Y005649D02*
X012113Y005542D01*
X012170Y005649D02*
X012170Y010899D01*
X011920Y011149D01*
X011670Y010649D02*
X011670Y006149D01*
X011420Y005899D01*
X011160Y005868D02*
X010568Y005868D01*
X010726Y005710D02*
X011160Y005710D01*
X011160Y005551D02*
X010885Y005551D01*
X011043Y005392D02*
X011160Y005392D01*
X010784Y004917D02*
X000652Y004917D01*
X000652Y005075D02*
X001509Y005075D01*
X001013Y005234D02*
X000652Y005234D01*
X000652Y005392D02*
X000738Y005392D01*
X000652Y004758D02*
X010942Y004758D01*
X011101Y004600D02*
X000652Y004600D01*
X000652Y004441D02*
X011259Y004441D01*
X011418Y004283D02*
X008804Y004283D01*
X008731Y004356D02*
X008526Y004356D01*
X008526Y003861D01*
X008526Y003366D01*
X008731Y003366D01*
X009021Y003656D01*
X009021Y003861D01*
X008526Y003861D01*
X008526Y003861D01*
X008526Y003861D01*
X008526Y003366D01*
X008321Y003366D01*
X008031Y003656D01*
X008031Y003861D01*
X008526Y003861D01*
X008526Y003861D01*
X009021Y003861D01*
X009021Y004066D01*
X008731Y004356D01*
X008526Y004356D02*
X008321Y004356D01*
X008031Y004066D01*
X008031Y003861D01*
X008526Y003861D01*
X008526Y003861D01*
X008526Y004356D01*
X008526Y004283D02*
X008526Y004283D01*
X008526Y004124D02*
X008526Y004124D01*
X008526Y003966D02*
X008526Y003966D01*
X008526Y003807D02*
X008526Y003807D01*
X008526Y003649D02*
X008526Y003649D01*
X008526Y003490D02*
X008526Y003490D01*
X008855Y003490D02*
X020337Y003490D01*
X020337Y003649D02*
X009013Y003649D01*
X009021Y003807D02*
X020337Y003807D01*
X020337Y003966D02*
X013104Y003966D01*
X013263Y004124D02*
X020337Y004124D01*
X020337Y004283D02*
X013421Y004283D01*
X013580Y004441D02*
X020337Y004441D01*
X020337Y004600D02*
X013739Y004600D01*
X013897Y004758D02*
X020337Y004758D01*
X020337Y003331D02*
X005470Y003331D01*
X005527Y003389D02*
X006564Y003389D01*
X006571Y003381D01*
X006969Y003381D01*
X007250Y003662D01*
X007250Y004060D01*
X006969Y004341D01*
X006571Y004341D01*
X006290Y004060D01*
X006290Y003908D01*
X005471Y003908D01*
X005368Y003908D01*
X005272Y003869D01*
X005245Y003841D01*
X004790Y003841D01*
X004790Y003881D01*
X005250Y003881D01*
X005250Y004060D01*
X004969Y004341D01*
X004790Y004341D01*
X004790Y003881D01*
X004750Y003881D01*
X004750Y003841D01*
X004290Y003841D01*
X004290Y003662D01*
X004544Y003408D01*
X003098Y003408D01*
X003072Y003471D01*
X002916Y003627D01*
X002712Y003711D01*
X001741Y003711D01*
X001537Y003627D01*
X001381Y003471D01*
X001297Y003267D01*
X001297Y003046D01*
X001381Y002842D01*
X001537Y002686D01*
X001741Y002601D01*
X002712Y002601D01*
X002916Y002686D01*
X003072Y002842D01*
X003091Y002889D01*
X004971Y002889D01*
X005067Y002928D01*
X005140Y003001D01*
X005140Y003001D01*
X005527Y003389D01*
X005420Y003649D02*
X004920Y003149D01*
X002420Y003149D01*
X002227Y003156D01*
X002864Y003649D02*
X004304Y003649D01*
X004290Y003807D02*
X000652Y003807D01*
X000652Y003649D02*
X001590Y003649D01*
X001400Y003490D02*
X000652Y003490D01*
X000652Y003331D02*
X001324Y003331D01*
X001297Y003173D02*
X000652Y003173D01*
X000652Y003014D02*
X001310Y003014D01*
X001376Y002856D02*
X000652Y002856D01*
X000652Y002697D02*
X001526Y002697D01*
X001510Y002222D02*
X000652Y002222D01*
X000652Y002380D02*
X020337Y002380D01*
X020337Y002222D02*
X008865Y002222D01*
X008731Y002356D02*
X008321Y002356D01*
X008031Y002066D01*
X008031Y001656D01*
X008321Y001366D01*
X008731Y001366D01*
X009021Y001656D01*
X009021Y002066D01*
X008731Y002356D01*
X009021Y002063D02*
X020337Y002063D01*
X020337Y001905D02*
X009021Y001905D01*
X009021Y001746D02*
X020337Y001746D01*
X020337Y001587D02*
X008952Y001587D01*
X008794Y001429D02*
X020337Y001429D01*
X020337Y002539D02*
X000652Y002539D01*
X000652Y002063D02*
X001369Y002063D01*
X001303Y001905D02*
X000652Y001905D01*
X000652Y001746D02*
X001297Y001746D01*
X001330Y001587D02*
X000652Y001587D01*
X000652Y001429D02*
X001416Y001429D01*
X002943Y002222D02*
X004452Y002222D01*
X004571Y002341D02*
X004290Y002060D01*
X004290Y001662D01*
X004571Y001381D01*
X004969Y001381D01*
X005250Y001662D01*
X005250Y002060D01*
X004969Y002341D01*
X004571Y002341D01*
X004293Y002063D02*
X003085Y002063D01*
X003150Y001905D02*
X004290Y001905D01*
X004290Y001746D02*
X003157Y001746D01*
X003123Y001587D02*
X004365Y001587D01*
X004523Y001429D02*
X003037Y001429D01*
X002928Y002697D02*
X020337Y002697D01*
X020337Y002856D02*
X003078Y002856D01*
X003053Y003490D02*
X004462Y003490D01*
X004290Y003881D02*
X004750Y003881D01*
X004750Y004341D01*
X004571Y004341D01*
X004290Y004060D01*
X004290Y003881D01*
X004290Y003966D02*
X000652Y003966D01*
X000652Y004124D02*
X004354Y004124D01*
X004513Y004283D02*
X000652Y004283D01*
X002019Y005075D02*
X010625Y005075D01*
X010467Y005234D02*
X002515Y005234D01*
X002789Y005392D02*
X007105Y005392D01*
X007112Y005388D02*
X007179Y005353D01*
X007251Y005330D01*
X007326Y005318D01*
X007644Y005318D01*
X007644Y005778D01*
X007684Y005778D01*
X007684Y005818D01*
X008444Y005818D01*
X008444Y005836D01*
X008432Y005911D01*
X008409Y005982D01*
X008374Y006050D01*
X008330Y006111D01*
X008276Y006164D01*
X008215Y006209D01*
X008148Y006243D01*
X008076Y006266D01*
X008002Y006278D01*
X007684Y006278D01*
X007684Y005818D01*
X007644Y005818D01*
X007644Y006278D01*
X007326Y006278D01*
X007251Y006266D01*
X007179Y006243D01*
X007112Y006209D01*
X007051Y006164D01*
X006998Y006111D01*
X006953Y006050D01*
X006919Y005982D01*
X006896Y005911D01*
X006884Y005836D01*
X006884Y005818D01*
X007644Y005818D01*
X007644Y005778D01*
X006884Y005778D01*
X006884Y005760D01*
X006896Y005686D01*
X006919Y005614D01*
X006953Y005547D01*
X006998Y005485D01*
X007051Y005432D01*
X007112Y005388D01*
X006951Y005551D02*
X002963Y005551D01*
X003122Y005710D02*
X006892Y005710D01*
X006889Y005868D02*
X003224Y005868D01*
X003316Y006027D02*
X006942Y006027D01*
X007080Y006185D02*
X003391Y006185D01*
X003433Y006344D02*
X007206Y006344D01*
X007268Y006318D02*
X008059Y006318D01*
X008236Y006391D01*
X008371Y006526D01*
X008417Y006639D01*
X008998Y006639D01*
X008998Y006620D01*
X009249Y006368D01*
X009606Y006368D01*
X009858Y006620D01*
X009858Y006976D01*
X009606Y007228D01*
X009249Y007228D01*
X009180Y007158D01*
X008282Y007158D01*
X008236Y007205D01*
X008059Y007278D01*
X007268Y007278D01*
X007092Y007205D01*
X006957Y007070D01*
X006884Y006894D01*
X006884Y006703D01*
X006957Y006526D01*
X007092Y006391D01*
X007268Y006318D01*
X006981Y006502D02*
X003475Y006502D01*
X003494Y006661D02*
X006901Y006661D01*
X006884Y006819D02*
X003494Y006819D01*
X003494Y006978D02*
X006919Y006978D01*
X007023Y007136D02*
X003464Y007136D01*
X003422Y007295D02*
X009910Y007295D01*
X009910Y007136D02*
X009697Y007136D01*
X009856Y006978D02*
X009910Y006978D01*
X009910Y006819D02*
X009858Y006819D01*
X009858Y006661D02*
X009910Y006661D01*
X009910Y006502D02*
X009740Y006502D01*
X009910Y006344D02*
X008121Y006344D01*
X008248Y006185D02*
X009207Y006185D01*
X009249Y006228D02*
X008998Y005976D01*
X008998Y005798D01*
X008998Y005620D01*
X009249Y005368D01*
X009427Y005368D01*
X009427Y005798D01*
X008998Y005798D01*
X009427Y005798D01*
X009427Y005798D01*
X009428Y005798D01*
X009428Y005798D01*
X009858Y005798D01*
X009858Y005620D01*
X009606Y005368D01*
X009428Y005368D01*
X009428Y005798D01*
X009858Y005798D01*
X009858Y005976D01*
X009606Y006228D01*
X009428Y006228D01*
X009428Y005799D01*
X009427Y005799D01*
X009427Y006228D01*
X009249Y006228D01*
X009427Y006185D02*
X009428Y006185D01*
X009427Y006027D02*
X009428Y006027D01*
X009427Y005868D02*
X009428Y005868D01*
X009427Y005710D02*
X009428Y005710D01*
X009427Y005551D02*
X009428Y005551D01*
X009427Y005392D02*
X009428Y005392D01*
X009630Y005392D02*
X010308Y005392D01*
X010149Y005551D02*
X009789Y005551D01*
X009858Y005710D02*
X009991Y005710D01*
X009910Y005868D02*
X009858Y005868D01*
X009807Y006027D02*
X009910Y006027D01*
X009910Y006185D02*
X009649Y006185D01*
X009115Y006502D02*
X008347Y006502D01*
X008386Y006027D02*
X009048Y006027D01*
X008998Y005868D02*
X008439Y005868D01*
X008444Y005778D02*
X007684Y005778D01*
X007684Y005318D01*
X008002Y005318D01*
X008076Y005330D01*
X008148Y005353D01*
X008215Y005388D01*
X008276Y005432D01*
X008330Y005485D01*
X008374Y005547D01*
X008409Y005614D01*
X008432Y005686D01*
X008444Y005760D01*
X008444Y005778D01*
X008436Y005710D02*
X008998Y005710D01*
X009067Y005551D02*
X008377Y005551D01*
X008222Y005392D02*
X009225Y005392D01*
X010170Y005899D02*
X011920Y004149D01*
X012920Y004149D01*
X014170Y005399D01*
X014113Y005542D01*
X014593Y005551D02*
X014633Y005551D01*
X014633Y005392D02*
X014593Y005392D01*
X014593Y005234D02*
X014633Y005234D01*
X014662Y005075D02*
X014563Y005075D01*
X014466Y004917D02*
X014759Y004917D01*
X015466Y004917D02*
X015759Y004917D01*
X015662Y005075D02*
X015563Y005075D01*
X015593Y005234D02*
X015633Y005234D01*
X015633Y005392D02*
X015593Y005392D01*
X015593Y005551D02*
X015633Y005551D01*
X015633Y005710D02*
X015593Y005710D01*
X016113Y005542D02*
X016170Y005649D01*
X015420Y006399D01*
X012670Y006399D01*
X012914Y006661D02*
X016790Y006661D01*
X016948Y006502D02*
X015684Y006502D01*
X015842Y006344D02*
X017107Y006344D01*
X016777Y006185D02*
X016448Y006185D01*
X016556Y006027D02*
X016669Y006027D01*
X016633Y005868D02*
X016593Y005868D01*
X016593Y005710D02*
X016633Y005710D01*
X016633Y005551D02*
X016593Y005551D01*
X016593Y005392D02*
X016633Y005392D01*
X016633Y005234D02*
X016593Y005234D01*
X016563Y005075D02*
X016662Y005075D01*
X016759Y004917D02*
X016466Y004917D01*
X017466Y004917D02*
X017759Y004917D01*
X017662Y005075D02*
X017563Y005075D01*
X017593Y005234D02*
X017633Y005234D01*
X017633Y005392D02*
X017593Y005392D01*
X017593Y005551D02*
X017633Y005551D01*
X017633Y005710D02*
X017593Y005710D01*
X016631Y006819D02*
X012430Y006819D01*
X012430Y006978D02*
X016473Y006978D01*
X016314Y007136D02*
X012430Y007136D01*
X012430Y007295D02*
X016155Y007295D01*
X015997Y007454D02*
X012430Y007454D01*
X012430Y007612D02*
X015838Y007612D01*
X015680Y007771D02*
X012430Y007771D01*
X012430Y007929D02*
X013633Y007929D01*
X013562Y008088D02*
X012430Y008088D01*
X012430Y008246D02*
X013573Y008246D01*
X014763Y009673D02*
X020337Y009673D01*
X020337Y009515D02*
X014921Y009515D01*
X015080Y009356D02*
X020337Y009356D01*
X020337Y009198D02*
X015238Y009198D01*
X015397Y009039D02*
X020337Y009039D01*
X020337Y008880D02*
X015694Y008880D01*
X015777Y008722D02*
X020337Y008722D01*
X020337Y009832D02*
X014604Y009832D01*
X014446Y009990D02*
X020337Y009990D01*
X020337Y010149D02*
X014287Y010149D01*
X014129Y010307D02*
X020337Y010307D01*
X020337Y010466D02*
X013970Y010466D01*
X013811Y010624D02*
X020337Y010624D01*
X020337Y010783D02*
X013653Y010783D01*
X013494Y010941D02*
X020337Y010941D01*
X020337Y011100D02*
X013336Y011100D01*
X013177Y011259D02*
X020337Y011259D01*
X020337Y011417D02*
X013019Y011417D01*
X012860Y011576D02*
X014763Y011576D01*
X014600Y011734D02*
X012702Y011734D01*
X012543Y011893D02*
X014562Y011893D01*
X014595Y012051D02*
X012385Y012051D01*
X012226Y012210D02*
X014660Y012210D01*
X014660Y012368D02*
X012067Y012368D01*
X011909Y012527D02*
X014660Y012527D01*
X014660Y012685D02*
X011750Y012685D01*
X011592Y012844D02*
X014660Y012844D01*
X014660Y013003D02*
X011433Y013003D01*
X011275Y013161D02*
X014660Y013161D01*
X014660Y013320D02*
X011116Y013320D01*
X010958Y013478D02*
X014660Y013478D01*
X014660Y013637D02*
X010799Y013637D01*
X010641Y013795D02*
X014655Y013795D01*
X014497Y013954D02*
X010482Y013954D01*
X010323Y014112D02*
X014338Y014112D01*
X014180Y014271D02*
X010165Y014271D01*
X010006Y014429D02*
X014021Y014429D01*
X013862Y014588D02*
X009848Y014588D01*
X009689Y014747D02*
X013704Y014747D01*
X013545Y014905D02*
X009480Y014905D01*
X009616Y015381D02*
X012161Y015381D01*
X012002Y015539D02*
X009774Y015539D01*
X009883Y015698D02*
X011893Y015698D01*
X011893Y015856D02*
X009883Y015856D01*
X009883Y016015D02*
X011893Y016015D01*
X013387Y015064D02*
X008372Y015064D01*
X007954Y014747D02*
X005651Y014747D01*
X005653Y014744D02*
X005618Y014811D01*
X005574Y014873D01*
X005521Y014926D01*
X005459Y014970D01*
X005392Y015005D01*
X005320Y015028D01*
X005246Y015040D01*
X004928Y015040D01*
X004928Y014580D01*
X005688Y014580D01*
X005688Y014598D01*
X005676Y014672D01*
X005653Y014744D01*
X005688Y014588D02*
X008112Y014588D01*
X008271Y014429D02*
X005670Y014429D01*
X005676Y014447D02*
X005688Y014522D01*
X005688Y014540D01*
X004928Y014540D01*
X004928Y014580D01*
X004888Y014580D01*
X004888Y015040D01*
X004570Y015040D01*
X004495Y015028D01*
X004424Y015005D01*
X004356Y014970D01*
X004295Y014926D01*
X004242Y014873D01*
X004197Y014811D01*
X004163Y014744D01*
X004140Y014672D01*
X004128Y014598D01*
X004128Y014580D01*
X004888Y014580D01*
X004888Y014540D01*
X004928Y014540D01*
X004928Y014080D01*
X005246Y014080D01*
X005320Y014092D01*
X005392Y014115D01*
X005459Y014149D01*
X005521Y014194D01*
X005574Y014247D01*
X005618Y014308D01*
X005653Y014376D01*
X005676Y014447D01*
X005591Y014271D02*
X009430Y014271D01*
X009588Y014112D02*
X005384Y014112D01*
X005303Y014040D02*
X004512Y014040D01*
X004336Y013967D01*
X004201Y013832D01*
X004128Y013655D01*
X004128Y013464D01*
X004201Y013288D01*
X004336Y013153D01*
X004512Y013080D01*
X005303Y013080D01*
X005480Y013153D01*
X005615Y013288D01*
X005688Y013464D01*
X005688Y013655D01*
X005615Y013832D01*
X005480Y013967D01*
X005303Y014040D01*
X005493Y013954D02*
X008971Y013954D01*
X008967Y013952D02*
X008866Y013851D01*
X008812Y013720D01*
X008812Y013658D01*
X005688Y010534D01*
X005688Y010655D01*
X005646Y010757D01*
X007179Y012290D01*
X007241Y012290D01*
X007373Y012345D01*
X007473Y012446D01*
X007528Y012577D01*
X007528Y012720D01*
X007473Y012851D01*
X007373Y012952D01*
X007241Y013007D01*
X007098Y013007D01*
X006967Y012952D01*
X006866Y012851D01*
X006812Y012720D01*
X006812Y012658D01*
X005688Y011534D01*
X005688Y011655D01*
X005615Y011832D01*
X005480Y011967D01*
X005303Y012040D01*
X004512Y012040D01*
X004336Y011967D01*
X004201Y011832D01*
X004128Y011655D01*
X004128Y011464D01*
X004201Y011288D01*
X004336Y011153D01*
X004512Y011080D01*
X005233Y011080D01*
X005193Y011040D01*
X004512Y011040D01*
X004336Y010967D01*
X004201Y010832D01*
X004128Y010655D01*
X004128Y010464D01*
X004201Y010288D01*
X004336Y010153D01*
X004512Y010080D01*
X005233Y010080D01*
X005193Y010040D01*
X004512Y010040D01*
X004336Y009967D01*
X004201Y009832D01*
X004128Y009655D01*
X004128Y009464D01*
X004201Y009288D01*
X004336Y009153D01*
X004512Y009080D01*
X005303Y009080D01*
X005480Y009153D01*
X005615Y009288D01*
X005688Y009464D01*
X005688Y009655D01*
X005646Y009757D01*
X009179Y013290D01*
X009241Y013290D01*
X009373Y013345D01*
X009473Y013446D01*
X009528Y013577D01*
X009528Y013720D01*
X009473Y013851D01*
X009373Y013952D01*
X009241Y014007D01*
X009098Y014007D01*
X008967Y013952D01*
X008843Y013795D02*
X005630Y013795D01*
X005688Y013637D02*
X008790Y013637D01*
X008632Y013478D02*
X005688Y013478D01*
X005628Y013320D02*
X008473Y013320D01*
X008315Y013161D02*
X005488Y013161D01*
X005393Y013003D02*
X007089Y013003D01*
X007251Y013003D02*
X008156Y013003D01*
X007998Y012844D02*
X007476Y012844D01*
X007528Y012685D02*
X007839Y012685D01*
X007680Y012527D02*
X007507Y012527D01*
X007522Y012368D02*
X007396Y012368D01*
X007363Y012210D02*
X007099Y012210D01*
X007205Y012051D02*
X006940Y012051D01*
X007046Y011893D02*
X006782Y011893D01*
X006888Y011734D02*
X006623Y011734D01*
X006729Y011576D02*
X006465Y011576D01*
X006571Y011417D02*
X006306Y011417D01*
X006412Y011259D02*
X006147Y011259D01*
X006254Y011100D02*
X005989Y011100D01*
X006095Y010941D02*
X005830Y010941D01*
X005936Y010783D02*
X005672Y010783D01*
X005688Y010624D02*
X005778Y010624D01*
X006196Y010307D02*
X009910Y010307D01*
X009910Y010149D02*
X006038Y010149D01*
X005879Y009990D02*
X009910Y009990D01*
X009910Y009832D02*
X005721Y009832D01*
X005681Y009673D02*
X009910Y009673D01*
X009910Y009515D02*
X005688Y009515D01*
X005643Y009356D02*
X009910Y009356D01*
X009910Y009198D02*
X005524Y009198D01*
X004920Y009399D02*
X004908Y009560D01*
X004920Y009399D02*
X009170Y013649D01*
X009496Y013795D02*
X009905Y013795D01*
X010064Y013637D02*
X009528Y013637D01*
X009487Y013478D02*
X010222Y013478D01*
X010381Y013320D02*
X009311Y013320D01*
X009050Y013161D02*
X010539Y013161D01*
X010698Y013003D02*
X008891Y013003D01*
X008733Y012844D02*
X010856Y012844D01*
X011015Y012685D02*
X008574Y012685D01*
X008416Y012527D02*
X011174Y012527D01*
X011332Y012368D02*
X008257Y012368D01*
X008099Y012210D02*
X011491Y012210D01*
X011649Y012051D02*
X007940Y012051D01*
X007782Y011893D02*
X011808Y011893D01*
X011966Y011734D02*
X007623Y011734D01*
X007170Y012649D02*
X004920Y010399D01*
X004908Y010560D01*
X004346Y010149D02*
X000652Y010149D01*
X000652Y010307D02*
X004193Y010307D01*
X004128Y010466D02*
X000652Y010466D01*
X000652Y010624D02*
X004128Y010624D01*
X004181Y010783D02*
X000652Y010783D01*
X000652Y010941D02*
X004311Y010941D01*
X004464Y011100D02*
X000652Y011100D01*
X000652Y011259D02*
X004230Y011259D01*
X004147Y011417D02*
X000652Y011417D01*
X000652Y011576D02*
X004128Y011576D01*
X004161Y011734D02*
X000652Y011734D01*
X000652Y011893D02*
X004262Y011893D01*
X004336Y012153D02*
X004512Y012080D01*
X005303Y012080D01*
X005480Y012153D01*
X005615Y012288D01*
X005688Y012464D01*
X005688Y012655D01*
X005615Y012832D01*
X005480Y012967D01*
X005303Y013040D01*
X004512Y013040D01*
X004336Y012967D01*
X004201Y012832D01*
X004128Y012655D01*
X004128Y012464D01*
X004201Y012288D01*
X004336Y012153D01*
X004279Y012210D02*
X000652Y012210D01*
X000652Y012368D02*
X004168Y012368D01*
X004128Y012527D02*
X000652Y012527D01*
X000652Y012685D02*
X004140Y012685D01*
X004213Y012844D02*
X000652Y012844D01*
X000652Y013003D02*
X004422Y013003D01*
X004328Y013161D02*
X000652Y013161D01*
X000652Y013320D02*
X004188Y013320D01*
X004128Y013478D02*
X000652Y013478D01*
X000652Y013637D02*
X004128Y013637D01*
X004186Y013795D02*
X000652Y013795D01*
X000652Y013954D02*
X004323Y013954D01*
X004424Y014115D02*
X004495Y014092D01*
X004570Y014080D01*
X004888Y014080D01*
X004888Y014540D01*
X004128Y014540D01*
X004128Y014522D01*
X004140Y014447D01*
X004163Y014376D01*
X004197Y014308D01*
X004242Y014247D01*
X004295Y014194D01*
X004356Y014149D01*
X004424Y014115D01*
X004432Y014112D02*
X000652Y014112D01*
X000652Y014271D02*
X004224Y014271D01*
X004146Y014429D02*
X000652Y014429D01*
X000652Y014588D02*
X004128Y014588D01*
X004164Y014747D02*
X000652Y014747D01*
X000652Y014905D02*
X004274Y014905D01*
X004325Y015358D02*
X003915Y015358D01*
X003625Y015648D01*
X003625Y016058D01*
X003915Y016348D01*
X004325Y016348D01*
X004589Y016085D01*
X004852Y016348D01*
X005262Y016348D01*
X005552Y016058D01*
X005552Y015648D01*
X005262Y015358D01*
X004852Y015358D01*
X004589Y015622D01*
X004325Y015358D01*
X004348Y015381D02*
X004830Y015381D01*
X004671Y015539D02*
X004506Y015539D01*
X003893Y015381D02*
X001348Y015381D01*
X001506Y015539D02*
X003734Y015539D01*
X003625Y015698D02*
X001615Y015698D01*
X001615Y015856D02*
X003625Y015856D01*
X003625Y016015D02*
X001615Y016015D01*
X001500Y016173D02*
X003741Y016173D01*
X003899Y016332D02*
X001342Y016332D01*
X000899Y016332D02*
X000652Y016332D01*
X000652Y016491D02*
X006910Y016491D01*
X006910Y016649D02*
X000652Y016649D01*
X000652Y016173D02*
X000741Y016173D01*
X000734Y015539D02*
X000652Y015539D01*
X000652Y015381D02*
X000893Y015381D01*
X000652Y015222D02*
X007478Y015222D01*
X007320Y015381D02*
X005285Y015381D01*
X005444Y015539D02*
X007161Y015539D01*
X007003Y015698D02*
X005552Y015698D01*
X005552Y015856D02*
X006910Y015856D01*
X006910Y016015D02*
X005552Y016015D01*
X005437Y016173D02*
X006910Y016173D01*
X006910Y016332D02*
X005279Y016332D01*
X004836Y016332D02*
X004342Y016332D01*
X004500Y016173D02*
X004678Y016173D01*
X004888Y014905D02*
X004928Y014905D01*
X004928Y014747D02*
X004888Y014747D01*
X004888Y014588D02*
X004928Y014588D01*
X004928Y014429D02*
X004888Y014429D01*
X004888Y014271D02*
X004928Y014271D01*
X004928Y014112D02*
X004888Y014112D01*
X005541Y014905D02*
X007795Y014905D01*
X007637Y015064D02*
X000652Y015064D01*
X000652Y012051D02*
X006205Y012051D01*
X006046Y011893D02*
X005554Y011893D01*
X005655Y011734D02*
X005888Y011734D01*
X005729Y011576D02*
X005688Y011576D01*
X005537Y012210D02*
X006363Y012210D01*
X006522Y012368D02*
X005648Y012368D01*
X005688Y012527D02*
X006680Y012527D01*
X006812Y012685D02*
X005675Y012685D01*
X005603Y012844D02*
X006863Y012844D01*
X006830Y010941D02*
X009956Y010941D01*
X009838Y010783D02*
X006672Y010783D01*
X006513Y010624D02*
X009812Y010624D01*
X009858Y010466D02*
X006355Y010466D01*
X004393Y009990D02*
X000652Y009990D01*
X000652Y009832D02*
X004201Y009832D01*
X004135Y009673D02*
X000652Y009673D01*
X000652Y009515D02*
X004128Y009515D01*
X004173Y009356D02*
X000652Y009356D01*
X000652Y009198D02*
X004291Y009198D01*
X003079Y007929D02*
X006899Y007929D01*
X006884Y007894D02*
X006884Y007703D01*
X006957Y007526D01*
X007092Y007391D01*
X007268Y007318D01*
X008059Y007318D01*
X008236Y007391D01*
X008371Y007526D01*
X008444Y007703D01*
X008444Y007894D01*
X008371Y008070D01*
X008236Y008205D01*
X008059Y008278D01*
X007268Y008278D01*
X007092Y008205D01*
X006957Y008070D01*
X006884Y007894D01*
X006884Y007771D02*
X003200Y007771D01*
X003291Y007612D02*
X006921Y007612D01*
X007029Y007454D02*
X003379Y007454D01*
X002921Y008088D02*
X006975Y008088D01*
X007191Y008246D02*
X002715Y008246D01*
X002441Y008405D02*
X009910Y008405D01*
X009910Y008563D02*
X000652Y008563D01*
X000652Y008405D02*
X001087Y008405D01*
X000812Y008246D02*
X000652Y008246D01*
X000652Y008722D02*
X009910Y008722D01*
X009910Y008880D02*
X000652Y008880D01*
X000652Y009039D02*
X009910Y009039D01*
X009910Y008246D02*
X008136Y008246D01*
X008353Y008088D02*
X009910Y008088D01*
X009910Y007929D02*
X008429Y007929D01*
X008444Y007771D02*
X009910Y007771D01*
X009910Y007612D02*
X008406Y007612D01*
X008298Y007454D02*
X009910Y007454D01*
X009420Y006899D02*
X009428Y006798D01*
X009420Y006899D02*
X007670Y006899D01*
X007664Y006798D01*
X007644Y006185D02*
X007684Y006185D01*
X007684Y006027D02*
X007644Y006027D01*
X007644Y005868D02*
X007684Y005868D01*
X007684Y005710D02*
X007644Y005710D01*
X007644Y005551D02*
X007684Y005551D01*
X007684Y005392D02*
X007644Y005392D01*
X008248Y004283D02*
X007027Y004283D01*
X007186Y004124D02*
X008089Y004124D01*
X008031Y003966D02*
X007250Y003966D01*
X007250Y003807D02*
X008031Y003807D01*
X008039Y003649D02*
X007236Y003649D01*
X007078Y003490D02*
X008197Y003490D01*
X009021Y003966D02*
X011735Y003966D01*
X011576Y004124D02*
X008963Y004124D01*
X010170Y005899D02*
X010170Y010649D01*
X009747Y013954D02*
X009368Y013954D01*
X007562Y016015D02*
X007430Y016015D01*
X007430Y016173D02*
X007678Y016173D01*
X007836Y016332D02*
X007430Y016332D01*
X009498Y017759D02*
X012192Y017759D01*
X012350Y017600D02*
X009657Y017600D01*
X009547Y018710D02*
X011950Y018710D01*
X013403Y017283D02*
X013903Y017283D01*
X013791Y017125D02*
X013561Y017125D01*
X013720Y016966D02*
X013750Y016966D01*
X014214Y015698D02*
X014253Y015698D01*
X014105Y015539D02*
X014411Y015539D01*
X015244Y012051D02*
X020337Y012051D01*
X020337Y011893D02*
X015278Y011893D01*
X015239Y011734D02*
X020337Y011734D01*
X020337Y011576D02*
X015076Y011576D01*
X014669Y006027D02*
X014556Y006027D01*
X014593Y005868D02*
X014633Y005868D01*
X014633Y005710D02*
X014593Y005710D01*
X020337Y003173D02*
X005312Y003173D01*
X005153Y003014D02*
X020337Y003014D01*
X008258Y001429D02*
X006981Y001429D01*
X007042Y001454D02*
X007177Y001589D01*
X007250Y001766D01*
X007250Y001957D01*
X007177Y002133D01*
X007042Y002268D01*
X006866Y002341D01*
X006675Y002341D01*
X006498Y002268D01*
X006363Y002133D01*
X006290Y001957D01*
X006290Y001766D01*
X006363Y001589D01*
X006498Y001454D01*
X006675Y001381D01*
X006866Y001381D01*
X007042Y001454D01*
X007175Y001587D02*
X008100Y001587D01*
X008031Y001746D02*
X007242Y001746D01*
X007250Y001905D02*
X008031Y001905D01*
X008031Y002063D02*
X007206Y002063D01*
X007088Y002222D02*
X008186Y002222D01*
X006559Y001429D02*
X005017Y001429D01*
X005175Y001587D02*
X006365Y001587D01*
X006298Y001746D02*
X005250Y001746D01*
X005250Y001905D02*
X006290Y001905D01*
X006334Y002063D02*
X005247Y002063D01*
X005088Y002222D02*
X006452Y002222D01*
X006670Y003649D02*
X005420Y003649D01*
X005250Y003966D02*
X006290Y003966D01*
X006354Y004124D02*
X005186Y004124D01*
X005027Y004283D02*
X006513Y004283D01*
X006770Y003861D02*
X006670Y003649D01*
X004790Y003966D02*
X004750Y003966D01*
X004750Y004124D02*
X004790Y004124D01*
X004790Y004283D02*
X004750Y004283D01*
D19*
X010170Y010649D03*
X011670Y010649D03*
X011920Y011149D03*
X009170Y013649D03*
X007170Y012649D03*
X012670Y006399D03*
X013920Y008149D03*
X015420Y008649D03*
X014920Y011899D03*
X015920Y012899D03*
M02*
