%
M48
M72
T01C0.0236
T02C0.0240
T03C0.0320
T04C0.0400
T05C0.0500
T06C0.1300
%
T01
X10170Y10649
X11670Y10649
X11920Y11149
X9170Y13649
X7170Y12649
X12670Y6399
X13920Y8149
X15420Y8649
X14920Y11899
X15920Y12899
T02
X9428Y6798
X9428Y5798
T03
X8526Y3861
X8526Y1861
X8057Y15853
X9388Y15853
X9313Y17322
X9313Y18322
X6557Y18322
X6557Y17322
X5057Y15853
X4120Y15853
X2227Y17322
X2227Y18322
X1120Y15853
X12388Y15853
X13719Y15853
X16719Y15853
X17762Y15853
X19762Y15853
T04
X19649Y16932
X19649Y18712
X17089Y18712
X17089Y16932
X14530Y16932
X14530Y18712
X11970Y18712
X11970Y16932
X4908Y14560
X4908Y13560
X4908Y12560
X4908Y11560
X4908Y10560
X4908Y9560
X7664Y7798
X7664Y6798
X7664Y5798
X6770Y3861
X4770Y3861
X4770Y1861
X6770Y1861
X12113Y5542
X13113Y5542
X14113Y5542
X15113Y5542
X16113Y5542
X17113Y5542
X18113Y5542
X19113Y5542
T05
X2227Y1778
X2227Y3156
T06
X1764Y6798
M30
