G75*
G70*
%OFA0B0*%
%FSLAX24Y24*%
%IPPOS*%
%LPD*%
%AMOC8*
5,1,8,0,0,1.08239X$1,22.5*
%
%ADD10C,0.0000*%
%ADD11R,0.1200X0.0200*%
%ADD12C,0.0050*%
%ADD13C,0.0070*%
%ADD14C,0.0160*%
%ADD15C,0.0059*%
%ADD16C,0.0040*%
%ADD17C,0.0060*%
%ADD18C,0.0020*%
%ADD19R,0.0200X0.1200*%
%ADD20C,0.0080*%
%ADD21C,0.0100*%
%ADD22C,0.0300*%
%ADD23R,0.0200X0.0300*%
%ADD24R,0.0400X0.0300*%
%ADD25R,0.0300X0.0200*%
%ADD26R,0.0300X0.0400*%
%ADD27R,0.0350X0.0500*%
D10*
X000258Y000893D02*
X000258Y019397D01*
X020731Y019397D01*
X020731Y000893D01*
X000258Y000893D01*
X001114Y006798D02*
X001116Y006848D01*
X001122Y006898D01*
X001132Y006948D01*
X001145Y006996D01*
X001162Y007044D01*
X001183Y007090D01*
X001207Y007134D01*
X001235Y007176D01*
X001266Y007216D01*
X001300Y007253D01*
X001337Y007288D01*
X001376Y007319D01*
X001417Y007348D01*
X001461Y007373D01*
X001507Y007395D01*
X001554Y007413D01*
X001602Y007427D01*
X001651Y007438D01*
X001701Y007445D01*
X001751Y007448D01*
X001802Y007447D01*
X001852Y007442D01*
X001902Y007433D01*
X001950Y007421D01*
X001998Y007404D01*
X002044Y007384D01*
X002089Y007361D01*
X002132Y007334D01*
X002172Y007304D01*
X002210Y007271D01*
X002245Y007235D01*
X002278Y007196D01*
X002307Y007155D01*
X002333Y007112D01*
X002356Y007067D01*
X002375Y007020D01*
X002390Y006972D01*
X002402Y006923D01*
X002410Y006873D01*
X002414Y006823D01*
X002414Y006773D01*
X002410Y006723D01*
X002402Y006673D01*
X002390Y006624D01*
X002375Y006576D01*
X002356Y006529D01*
X002333Y006484D01*
X002307Y006441D01*
X002278Y006400D01*
X002245Y006361D01*
X002210Y006325D01*
X002172Y006292D01*
X002132Y006262D01*
X002089Y006235D01*
X002044Y006212D01*
X001998Y006192D01*
X001950Y006175D01*
X001902Y006163D01*
X001852Y006154D01*
X001802Y006149D01*
X001751Y006148D01*
X001701Y006151D01*
X001651Y006158D01*
X001602Y006169D01*
X001554Y006183D01*
X001507Y006201D01*
X001461Y006223D01*
X001417Y006248D01*
X001376Y006277D01*
X001337Y006308D01*
X001300Y006343D01*
X001266Y006380D01*
X001235Y006420D01*
X001207Y006462D01*
X001183Y006506D01*
X001162Y006552D01*
X001145Y006600D01*
X001132Y006648D01*
X001122Y006698D01*
X001116Y006748D01*
X001114Y006798D01*
D11*
X008526Y003061D03*
X008526Y002661D03*
X009428Y006098D03*
D12*
X008428Y006298D02*
X008430Y006361D01*
X008436Y006423D01*
X008446Y006485D01*
X008459Y006547D01*
X008477Y006607D01*
X008498Y006666D01*
X008523Y006724D01*
X008552Y006780D01*
X008584Y006834D01*
X008619Y006886D01*
X008657Y006935D01*
X008699Y006983D01*
X008743Y007027D01*
X008791Y007069D01*
X008840Y007107D01*
X008892Y007142D01*
X008946Y007174D01*
X009002Y007203D01*
X009060Y007228D01*
X009119Y007249D01*
X009179Y007267D01*
X009241Y007280D01*
X009303Y007290D01*
X009365Y007296D01*
X009428Y007298D01*
X009491Y007296D01*
X009553Y007290D01*
X009615Y007280D01*
X009677Y007267D01*
X009737Y007249D01*
X009796Y007228D01*
X009854Y007203D01*
X009910Y007174D01*
X009964Y007142D01*
X010016Y007107D01*
X010065Y007069D01*
X010113Y007027D01*
X010157Y006983D01*
X010199Y006935D01*
X010237Y006886D01*
X010272Y006834D01*
X010304Y006780D01*
X010333Y006724D01*
X010358Y006666D01*
X010379Y006607D01*
X010397Y006547D01*
X010410Y006485D01*
X010420Y006423D01*
X010426Y006361D01*
X010428Y006298D01*
X010426Y006235D01*
X010420Y006173D01*
X010410Y006111D01*
X010397Y006049D01*
X010379Y005989D01*
X010358Y005930D01*
X010333Y005872D01*
X010304Y005816D01*
X010272Y005762D01*
X010237Y005710D01*
X010199Y005661D01*
X010157Y005613D01*
X010113Y005569D01*
X010065Y005527D01*
X010016Y005489D01*
X009964Y005454D01*
X009910Y005422D01*
X009854Y005393D01*
X009796Y005368D01*
X009737Y005347D01*
X009677Y005329D01*
X009615Y005316D01*
X009553Y005306D01*
X009491Y005300D01*
X009428Y005298D01*
X009365Y005300D01*
X009303Y005306D01*
X009241Y005316D01*
X009179Y005329D01*
X009119Y005347D01*
X009060Y005368D01*
X009002Y005393D01*
X008946Y005422D01*
X008892Y005454D01*
X008840Y005489D01*
X008791Y005527D01*
X008743Y005569D01*
X008699Y005613D01*
X008657Y005661D01*
X008619Y005710D01*
X008584Y005762D01*
X008552Y005816D01*
X008523Y005872D01*
X008498Y005930D01*
X008477Y005989D01*
X008459Y006049D01*
X008446Y006111D01*
X008436Y006173D01*
X008430Y006235D01*
X008428Y006298D01*
X008828Y006348D02*
X010028Y006348D01*
X010028Y006548D01*
X008828Y006548D01*
X008828Y006348D01*
X008928Y006698D02*
X008928Y006998D01*
X009078Y006848D02*
X008778Y006848D01*
X011202Y006938D02*
X011277Y006863D01*
X011202Y006938D02*
X011202Y007088D01*
X011277Y007163D01*
X011352Y007163D01*
X011653Y006863D01*
X011653Y007163D01*
X011578Y006703D02*
X011653Y006628D01*
X011653Y006477D01*
X011578Y006402D01*
X011277Y006402D01*
X011202Y006477D01*
X011202Y006628D01*
X011277Y006703D01*
X010301Y003726D02*
X010301Y003426D01*
X010301Y003576D02*
X009851Y003576D01*
X010001Y003426D01*
X009926Y003266D02*
X009851Y003191D01*
X009851Y003040D01*
X009926Y002965D01*
X010226Y002965D01*
X010301Y003040D01*
X010301Y003191D01*
X010226Y003266D01*
X008526Y003511D02*
X008526Y003011D01*
X008526Y002661D02*
X008526Y002211D01*
X008085Y002955D02*
X008085Y003181D01*
X008010Y003256D01*
X007935Y003256D01*
X007860Y003181D01*
X007860Y002955D01*
X008085Y002955D02*
X007635Y002955D01*
X007635Y003181D01*
X007710Y003256D01*
X007785Y003256D01*
X007860Y003181D01*
X007785Y003416D02*
X007635Y003566D01*
X008085Y003566D01*
X008085Y003416D02*
X008085Y003716D01*
X004698Y008335D02*
X004547Y008335D01*
X004472Y008410D01*
X004623Y008560D02*
X004698Y008560D01*
X004773Y008485D01*
X004773Y008410D01*
X004698Y008335D01*
X004698Y008560D02*
X004773Y008635D01*
X004773Y008710D01*
X004698Y008785D01*
X004547Y008785D01*
X004472Y008710D01*
X004312Y008710D02*
X004312Y008560D01*
X004237Y008485D01*
X004012Y008485D01*
X004012Y008335D02*
X004012Y008785D01*
X004237Y008785D01*
X004312Y008710D01*
X003852Y008785D02*
X003702Y008785D01*
X003777Y008785D02*
X003777Y008410D01*
X003702Y008335D01*
X003627Y008335D01*
X003552Y008410D01*
X001677Y003156D02*
X001679Y003203D01*
X001685Y003249D01*
X001695Y003295D01*
X001708Y003339D01*
X001726Y003383D01*
X001747Y003424D01*
X001771Y003464D01*
X001799Y003502D01*
X001830Y003537D01*
X001864Y003569D01*
X001900Y003598D01*
X001939Y003624D01*
X001979Y003647D01*
X002022Y003666D01*
X002066Y003682D01*
X002111Y003694D01*
X002157Y003702D01*
X002204Y003706D01*
X002250Y003706D01*
X002297Y003702D01*
X002343Y003694D01*
X002388Y003682D01*
X002432Y003666D01*
X002475Y003647D01*
X002515Y003624D01*
X002554Y003598D01*
X002590Y003569D01*
X002624Y003537D01*
X002655Y003502D01*
X002683Y003464D01*
X002707Y003424D01*
X002728Y003383D01*
X002746Y003339D01*
X002759Y003295D01*
X002769Y003249D01*
X002775Y003203D01*
X002777Y003156D01*
X002775Y003109D01*
X002769Y003063D01*
X002759Y003017D01*
X002746Y002973D01*
X002728Y002929D01*
X002707Y002888D01*
X002683Y002848D01*
X002655Y002810D01*
X002624Y002775D01*
X002590Y002743D01*
X002554Y002714D01*
X002515Y002688D01*
X002475Y002665D01*
X002432Y002646D01*
X002388Y002630D01*
X002343Y002618D01*
X002297Y002610D01*
X002250Y002606D01*
X002204Y002606D01*
X002157Y002610D01*
X002111Y002618D01*
X002066Y002630D01*
X002022Y002646D01*
X001979Y002665D01*
X001939Y002688D01*
X001900Y002714D01*
X001864Y002743D01*
X001830Y002775D01*
X001799Y002810D01*
X001771Y002848D01*
X001747Y002888D01*
X001726Y002929D01*
X001708Y002973D01*
X001695Y003017D01*
X001685Y003063D01*
X001679Y003109D01*
X001677Y003156D01*
X001677Y001778D02*
X001679Y001825D01*
X001685Y001871D01*
X001695Y001917D01*
X001708Y001961D01*
X001726Y002005D01*
X001747Y002046D01*
X001771Y002086D01*
X001799Y002124D01*
X001830Y002159D01*
X001864Y002191D01*
X001900Y002220D01*
X001939Y002246D01*
X001979Y002269D01*
X002022Y002288D01*
X002066Y002304D01*
X002111Y002316D01*
X002157Y002324D01*
X002204Y002328D01*
X002250Y002328D01*
X002297Y002324D01*
X002343Y002316D01*
X002388Y002304D01*
X002432Y002288D01*
X002475Y002269D01*
X002515Y002246D01*
X002554Y002220D01*
X002590Y002191D01*
X002624Y002159D01*
X002655Y002124D01*
X002683Y002086D01*
X002707Y002046D01*
X002728Y002005D01*
X002746Y001961D01*
X002759Y001917D01*
X002769Y001871D01*
X002775Y001825D01*
X002777Y001778D01*
X002775Y001731D01*
X002769Y001685D01*
X002759Y001639D01*
X002746Y001595D01*
X002728Y001551D01*
X002707Y001510D01*
X002683Y001470D01*
X002655Y001432D01*
X002624Y001397D01*
X002590Y001365D01*
X002554Y001336D01*
X002515Y001310D01*
X002475Y001287D01*
X002432Y001268D01*
X002388Y001252D01*
X002343Y001240D01*
X002297Y001232D01*
X002250Y001228D01*
X002204Y001228D01*
X002157Y001232D01*
X002111Y001240D01*
X002066Y001252D01*
X002022Y001268D01*
X001979Y001287D01*
X001939Y001310D01*
X001900Y001336D01*
X001864Y001365D01*
X001830Y001397D01*
X001799Y001432D01*
X001771Y001470D01*
X001747Y001510D01*
X001726Y001551D01*
X001708Y001595D01*
X001695Y001639D01*
X001685Y001685D01*
X001679Y001731D01*
X001677Y001778D01*
X014863Y014728D02*
X014863Y015179D01*
X015088Y015179D01*
X015163Y015104D01*
X015163Y014953D01*
X015088Y014878D01*
X014863Y014878D01*
X015013Y014878D02*
X015163Y014728D01*
X015323Y014803D02*
X015398Y014728D01*
X015548Y014728D01*
X015623Y014803D01*
X015623Y014878D01*
X015548Y014953D01*
X015473Y014953D01*
X015548Y014953D02*
X015623Y015028D01*
X015623Y015104D01*
X015548Y015179D01*
X015398Y015179D01*
X015323Y015104D01*
X015783Y015104D02*
X015859Y015179D01*
X016009Y015179D01*
X016084Y015104D01*
X016084Y015028D01*
X015783Y014728D01*
X016084Y014728D01*
X016219Y015353D02*
X016219Y015853D01*
X016219Y016353D01*
X014219Y016353D01*
X014219Y015853D01*
X014219Y015353D01*
X016219Y015353D01*
X016219Y015853D02*
X016419Y015853D01*
X017787Y017253D02*
X017862Y017178D01*
X018012Y017178D01*
X018087Y017253D01*
X018248Y017253D02*
X018323Y017178D01*
X018473Y017178D01*
X018548Y017253D01*
X018548Y017328D01*
X018473Y017403D01*
X018398Y017403D01*
X018473Y017403D02*
X018548Y017478D01*
X018548Y017554D01*
X018473Y017629D01*
X018323Y017629D01*
X018248Y017554D01*
X018087Y017554D02*
X018012Y017629D01*
X017862Y017629D01*
X017787Y017554D01*
X017787Y017253D01*
X018212Y016347D02*
X018438Y016347D01*
X018513Y016272D01*
X018513Y016122D01*
X018438Y016047D01*
X018212Y016047D01*
X018212Y015897D02*
X018212Y016347D01*
X018673Y016272D02*
X018673Y015972D01*
X018748Y015897D01*
X018898Y015897D01*
X018973Y015972D01*
X018973Y016122D01*
X018823Y016122D01*
X018973Y016272D02*
X018898Y016347D01*
X018748Y016347D01*
X018673Y016272D01*
X018612Y015853D02*
X018112Y015853D01*
X018962Y015853D02*
X019412Y015853D01*
X019433Y015897D02*
X019433Y016347D01*
X019283Y016197D01*
X019133Y016347D01*
X019133Y015897D01*
X014315Y016347D02*
X014015Y016347D01*
X014165Y016347D02*
X014165Y015897D01*
X014219Y015853D02*
X014019Y015853D01*
X013855Y015972D02*
X013780Y015897D01*
X013630Y015897D01*
X013555Y015972D01*
X013630Y016122D02*
X013555Y016197D01*
X013555Y016272D01*
X013630Y016347D01*
X013780Y016347D01*
X013855Y016272D01*
X013780Y016122D02*
X013855Y016047D01*
X013855Y015972D01*
X013780Y016122D02*
X013630Y016122D01*
X013394Y016122D02*
X013319Y016047D01*
X013094Y016047D01*
X013094Y015897D02*
X013094Y016347D01*
X013319Y016347D01*
X013394Y016272D01*
X013394Y016122D01*
X013244Y016047D02*
X013394Y015897D01*
X012088Y015853D02*
X011888Y015853D01*
X011888Y016353D01*
X009888Y016353D01*
X009888Y015853D01*
X009888Y015353D01*
X011888Y015353D01*
X011888Y015853D01*
X010674Y016528D02*
X010374Y016528D01*
X010524Y016528D02*
X010524Y016979D01*
X010374Y016828D01*
X010213Y016753D02*
X010138Y016678D01*
X009913Y016678D01*
X009913Y016528D02*
X009913Y016979D01*
X010138Y016979D01*
X010213Y016904D01*
X010213Y016753D01*
X010063Y016678D02*
X010213Y016528D01*
X009888Y015853D02*
X009688Y015853D01*
X007757Y015853D02*
X007557Y015853D01*
X007557Y016353D01*
X005557Y016353D01*
X005557Y015853D01*
X005557Y015353D01*
X007557Y015353D01*
X007557Y015853D01*
X006343Y016528D02*
X006043Y016528D01*
X006343Y016828D01*
X006343Y016904D01*
X006268Y016979D01*
X006118Y016979D01*
X006043Y016904D01*
X005883Y016904D02*
X005883Y016753D01*
X005808Y016678D01*
X005582Y016678D01*
X005582Y016528D02*
X005582Y016979D01*
X005808Y016979D01*
X005883Y016904D01*
X005733Y016678D02*
X005883Y016528D01*
X005557Y015853D02*
X005357Y015853D01*
X003820Y015853D02*
X003620Y015853D01*
X003620Y016353D01*
X001620Y016353D01*
X001620Y015853D01*
X001620Y015353D01*
X003620Y015353D01*
X003620Y015853D01*
X002406Y016603D02*
X002331Y016528D01*
X002181Y016528D01*
X002106Y016603D01*
X001946Y016528D02*
X001796Y016678D01*
X001871Y016678D02*
X001645Y016678D01*
X001645Y016528D02*
X001645Y016979D01*
X001871Y016979D01*
X001946Y016904D01*
X001946Y016753D01*
X001871Y016678D01*
X002106Y016904D02*
X002181Y016979D01*
X002331Y016979D01*
X002406Y016904D01*
X002406Y016828D01*
X002331Y016753D01*
X002406Y016678D01*
X002406Y016603D01*
X002331Y016753D02*
X002256Y016753D01*
X001620Y015853D02*
X001420Y015853D01*
X001541Y019097D02*
X001992Y019097D01*
X001992Y019397D01*
X001992Y019557D02*
X001992Y019857D01*
X001992Y020017D02*
X001992Y020243D01*
X001917Y020318D01*
X001616Y020318D01*
X001541Y020243D01*
X001541Y020017D01*
X001992Y020017D01*
X001767Y019707D02*
X001767Y019557D01*
X001992Y019557D02*
X001541Y019557D01*
X001541Y019857D01*
X001616Y020478D02*
X001541Y020553D01*
X001541Y020703D01*
X001616Y020778D01*
X001692Y020778D01*
X001767Y020703D01*
X001842Y020778D01*
X001917Y020778D01*
X001992Y020703D01*
X001992Y020553D01*
X001917Y020478D01*
X001767Y020628D02*
X001767Y020703D01*
X005872Y020703D02*
X005872Y020553D01*
X005947Y020478D01*
X005947Y020318D02*
X005872Y020243D01*
X005872Y020017D01*
X006322Y020017D01*
X006322Y020243D01*
X006247Y020318D01*
X005947Y020318D01*
X005872Y020703D02*
X005947Y020778D01*
X006022Y020778D01*
X006322Y020478D01*
X006322Y020778D01*
X006322Y019857D02*
X006322Y019557D01*
X005872Y019557D01*
X005872Y019857D01*
X006097Y019707D02*
X006097Y019557D01*
X006322Y019397D02*
X006322Y019097D01*
X005872Y019097D01*
X008628Y019097D02*
X009078Y019097D01*
X009078Y019397D01*
X009078Y019557D02*
X009078Y019857D01*
X009078Y020017D02*
X009078Y020243D01*
X009003Y020318D01*
X008703Y020318D01*
X008628Y020243D01*
X008628Y020017D01*
X009078Y020017D01*
X008853Y019707D02*
X008853Y019557D01*
X008628Y019557D02*
X008628Y019857D01*
X008628Y019557D02*
X009078Y019557D01*
X009078Y020478D02*
X009078Y020778D01*
X009078Y020628D02*
X008628Y020628D01*
X008778Y020478D01*
X019962Y005407D02*
X019887Y005332D01*
X019887Y005182D01*
X019962Y005107D01*
X019962Y004947D02*
X019887Y004872D01*
X019887Y004646D01*
X020338Y004646D01*
X020187Y004646D02*
X020187Y004872D01*
X020112Y004947D01*
X019962Y004947D01*
X020338Y005107D02*
X020037Y005407D01*
X019962Y005407D01*
X020338Y005407D02*
X020338Y005107D01*
X019887Y004486D02*
X019887Y004336D01*
X019887Y004411D02*
X020263Y004411D01*
X020338Y004336D01*
X020338Y004261D01*
X020263Y004186D01*
D13*
X004189Y003666D02*
X003979Y003456D01*
X003979Y003561D02*
X003979Y003245D01*
X004189Y003245D02*
X003559Y003245D01*
X003559Y003561D01*
X003664Y003666D01*
X003874Y003666D01*
X003979Y003561D01*
X004189Y003021D02*
X003559Y003021D01*
X003559Y002601D02*
X004189Y002601D01*
X003979Y002811D01*
X004189Y003021D01*
X003874Y002377D02*
X003664Y002377D01*
X003559Y002272D01*
X003559Y001956D01*
X004189Y001956D01*
X003979Y001956D02*
X003979Y002272D01*
X003874Y002377D01*
X003919Y005333D02*
X003919Y005648D01*
X003814Y005753D01*
X003603Y005753D01*
X003498Y005648D01*
X003498Y005333D01*
X004129Y005333D01*
X003919Y005543D02*
X004129Y005753D01*
X004129Y005978D02*
X004129Y006398D01*
X004024Y006622D02*
X004129Y006727D01*
X004129Y006937D01*
X004024Y007043D01*
X003814Y007043D01*
X003814Y006832D01*
X004024Y006622D02*
X003603Y006622D01*
X003498Y006727D01*
X003498Y006937D01*
X003603Y007043D01*
X003708Y007267D02*
X003498Y007477D01*
X004129Y007477D01*
X004129Y007267D02*
X004129Y007687D01*
X003498Y006398D02*
X003498Y005978D01*
X004129Y005978D01*
X003814Y005978D02*
X003814Y006188D01*
D14*
X001931Y003550D02*
X002522Y002763D01*
X001931Y002172D02*
X002522Y001385D01*
D15*
X003014Y001089D02*
X003014Y003845D01*
X003290Y003845D01*
X003290Y001089D01*
X003014Y001089D01*
X001400Y001089D01*
X000888Y001089D01*
X000888Y003845D01*
X001400Y003845D01*
X001400Y001089D01*
X000888Y001089D02*
X000731Y001089D01*
X000731Y003845D01*
X000888Y003845D01*
X001400Y003845D02*
X003014Y003845D01*
D16*
X003044Y005068D02*
X002810Y005068D01*
X002694Y005185D01*
X002810Y005302D01*
X003044Y005302D01*
X003044Y005427D02*
X003044Y005661D01*
X003044Y005544D02*
X002694Y005544D01*
X002810Y005427D01*
X002869Y005302D02*
X002869Y005068D01*
X002869Y005786D02*
X002810Y005903D01*
X002810Y005961D01*
X002869Y006020D01*
X002985Y006020D01*
X003044Y005961D01*
X003044Y005845D01*
X002985Y005786D01*
X002869Y005786D02*
X002694Y005786D01*
X002694Y006020D01*
X002985Y006204D02*
X003044Y006204D01*
X003044Y006262D01*
X002985Y006262D01*
X002985Y006204D01*
X003044Y006262D02*
X003161Y006145D01*
X003044Y006385D02*
X002810Y006618D01*
X002752Y006618D01*
X002694Y006560D01*
X002694Y006443D01*
X002752Y006385D01*
X002810Y006744D02*
X002810Y006802D01*
X002869Y006861D01*
X002810Y006919D01*
X002869Y006977D01*
X003044Y006977D01*
X003044Y006861D02*
X002869Y006861D01*
X002810Y006744D02*
X003044Y006744D01*
X003044Y006618D02*
X003044Y006385D01*
X003044Y007103D02*
X002810Y007103D01*
X002810Y007161D01*
X002869Y007220D01*
X002810Y007278D01*
X002869Y007336D01*
X003044Y007336D01*
X003044Y007220D02*
X002869Y007220D01*
X001267Y003206D02*
X001267Y003020D01*
X001267Y003113D02*
X000987Y003113D01*
X001080Y003020D01*
X001080Y001828D02*
X001033Y001828D01*
X000987Y001782D01*
X000987Y001688D01*
X001033Y001642D01*
X001080Y001828D02*
X001267Y001642D01*
X001267Y001828D01*
X015502Y009785D02*
X015502Y009938D01*
X015502Y009861D02*
X015886Y009861D01*
X015963Y009785D01*
X015963Y009708D01*
X015886Y009631D01*
X015963Y010091D02*
X015502Y010091D01*
X015963Y010398D01*
X015502Y010398D01*
X015502Y010552D02*
X015733Y010552D01*
X015656Y010705D01*
X015656Y010782D01*
X015733Y010859D01*
X015886Y010859D01*
X015963Y010782D01*
X015963Y010629D01*
X015886Y010552D01*
X015502Y010552D02*
X015502Y010859D01*
X015656Y011012D02*
X015502Y011166D01*
X015963Y011166D01*
X015963Y011319D02*
X015963Y011012D01*
X015733Y011473D02*
X015733Y011779D01*
X015809Y011933D02*
X015733Y012010D01*
X015733Y012163D01*
X015809Y012240D01*
X015886Y012240D01*
X015963Y012163D01*
X015963Y012010D01*
X015886Y011933D01*
X015809Y011933D01*
X015733Y012010D02*
X015656Y011933D01*
X015579Y011933D01*
X015502Y012010D01*
X015502Y012163D01*
X015579Y012240D01*
X015656Y012240D01*
X015733Y012163D01*
X015733Y012393D02*
X015733Y012700D01*
X015963Y012854D02*
X015502Y012854D01*
X015656Y013007D01*
X015502Y013160D01*
X015963Y013160D01*
X015963Y013314D02*
X015656Y013621D01*
X015656Y013774D02*
X015963Y014081D01*
X015963Y013774D02*
X015656Y014081D01*
X015963Y013621D02*
X015656Y013314D01*
X015502Y011703D02*
X015733Y011473D01*
X015963Y011703D02*
X015502Y011703D01*
D17*
X014100Y016622D02*
X013750Y016622D01*
X012750Y016622D01*
X012400Y016622D01*
X012050Y017422D02*
X012050Y017522D01*
X011950Y017522D01*
X011950Y018122D01*
X012050Y018122D01*
X012050Y018222D01*
X012400Y019022D02*
X012800Y019022D01*
X013750Y019022D01*
X014100Y019022D01*
X014450Y018222D02*
X014450Y018122D01*
X014550Y018122D01*
X014550Y017522D01*
X014450Y017522D01*
X014450Y017422D01*
X013150Y017822D02*
X013152Y017842D01*
X013158Y017860D01*
X013167Y017878D01*
X013179Y017893D01*
X013194Y017905D01*
X013212Y017914D01*
X013230Y017920D01*
X013250Y017922D01*
X013270Y017920D01*
X013288Y017914D01*
X013306Y017905D01*
X013321Y017893D01*
X013333Y017878D01*
X013342Y017860D01*
X013348Y017842D01*
X013350Y017822D01*
X013348Y017802D01*
X013342Y017784D01*
X013333Y017766D01*
X013321Y017751D01*
X013306Y017739D01*
X013288Y017730D01*
X013270Y017724D01*
X013250Y017722D01*
X013230Y017724D01*
X013212Y017730D01*
X013194Y017739D01*
X013179Y017751D01*
X013167Y017766D01*
X013158Y017784D01*
X013152Y017802D01*
X013150Y017822D01*
X012550Y017822D02*
X012552Y017874D01*
X012558Y017926D01*
X012568Y017978D01*
X012581Y018028D01*
X012598Y018078D01*
X012619Y018126D01*
X012644Y018172D01*
X012672Y018216D01*
X012703Y018258D01*
X012737Y018298D01*
X012774Y018335D01*
X012814Y018369D01*
X012856Y018400D01*
X012900Y018428D01*
X012946Y018453D01*
X012994Y018474D01*
X013044Y018491D01*
X013094Y018504D01*
X013146Y018514D01*
X013198Y018520D01*
X013250Y018522D01*
X013302Y018520D01*
X013354Y018514D01*
X013406Y018504D01*
X013456Y018491D01*
X013506Y018474D01*
X013554Y018453D01*
X013600Y018428D01*
X013644Y018400D01*
X013686Y018369D01*
X013726Y018335D01*
X013763Y018298D01*
X013797Y018258D01*
X013828Y018216D01*
X013856Y018172D01*
X013881Y018126D01*
X013902Y018078D01*
X013919Y018028D01*
X013932Y017978D01*
X013942Y017926D01*
X013948Y017874D01*
X013950Y017822D01*
X013948Y017770D01*
X013942Y017718D01*
X013932Y017666D01*
X013919Y017616D01*
X013902Y017566D01*
X013881Y017518D01*
X013856Y017472D01*
X013828Y017428D01*
X013797Y017386D01*
X013763Y017346D01*
X013726Y017309D01*
X013686Y017275D01*
X013644Y017244D01*
X013600Y017216D01*
X013554Y017191D01*
X013506Y017170D01*
X013456Y017153D01*
X013406Y017140D01*
X013354Y017130D01*
X013302Y017124D01*
X013250Y017122D01*
X013198Y017124D01*
X013146Y017130D01*
X013094Y017140D01*
X013044Y017153D01*
X012994Y017170D01*
X012946Y017191D01*
X012900Y017216D01*
X012856Y017244D01*
X012814Y017275D01*
X012774Y017309D01*
X012737Y017346D01*
X012703Y017386D01*
X012672Y017428D01*
X012644Y017472D01*
X012619Y017518D01*
X012598Y017566D01*
X012581Y017616D01*
X012568Y017666D01*
X012558Y017718D01*
X012552Y017770D01*
X012550Y017822D01*
X008313Y017822D02*
X008315Y017885D01*
X008321Y017947D01*
X008331Y018009D01*
X008344Y018071D01*
X008362Y018131D01*
X008383Y018190D01*
X008408Y018248D01*
X008437Y018304D01*
X008469Y018358D01*
X008504Y018410D01*
X008542Y018459D01*
X008584Y018507D01*
X008628Y018551D01*
X008676Y018593D01*
X008725Y018631D01*
X008777Y018666D01*
X008831Y018698D01*
X008887Y018727D01*
X008945Y018752D01*
X009004Y018773D01*
X009064Y018791D01*
X009126Y018804D01*
X009188Y018814D01*
X009250Y018820D01*
X009313Y018822D01*
X009376Y018820D01*
X009438Y018814D01*
X009500Y018804D01*
X009562Y018791D01*
X009622Y018773D01*
X009681Y018752D01*
X009739Y018727D01*
X009795Y018698D01*
X009849Y018666D01*
X009901Y018631D01*
X009950Y018593D01*
X009998Y018551D01*
X010042Y018507D01*
X010084Y018459D01*
X010122Y018410D01*
X010157Y018358D01*
X010189Y018304D01*
X010218Y018248D01*
X010243Y018190D01*
X010264Y018131D01*
X010282Y018071D01*
X010295Y018009D01*
X010305Y017947D01*
X010311Y017885D01*
X010313Y017822D01*
X010311Y017759D01*
X010305Y017697D01*
X010295Y017635D01*
X010282Y017573D01*
X010264Y017513D01*
X010243Y017454D01*
X010218Y017396D01*
X010189Y017340D01*
X010157Y017286D01*
X010122Y017234D01*
X010084Y017185D01*
X010042Y017137D01*
X009998Y017093D01*
X009950Y017051D01*
X009901Y017013D01*
X009849Y016978D01*
X009795Y016946D01*
X009739Y016917D01*
X009681Y016892D01*
X009622Y016871D01*
X009562Y016853D01*
X009500Y016840D01*
X009438Y016830D01*
X009376Y016824D01*
X009313Y016822D01*
X009250Y016824D01*
X009188Y016830D01*
X009126Y016840D01*
X009064Y016853D01*
X009004Y016871D01*
X008945Y016892D01*
X008887Y016917D01*
X008831Y016946D01*
X008777Y016978D01*
X008725Y017013D01*
X008676Y017051D01*
X008628Y017093D01*
X008584Y017137D01*
X008542Y017185D01*
X008504Y017234D01*
X008469Y017286D01*
X008437Y017340D01*
X008408Y017396D01*
X008383Y017454D01*
X008362Y017513D01*
X008344Y017573D01*
X008331Y017635D01*
X008321Y017697D01*
X008315Y017759D01*
X008313Y017822D01*
X005557Y017822D02*
X005559Y017885D01*
X005565Y017947D01*
X005575Y018009D01*
X005588Y018071D01*
X005606Y018131D01*
X005627Y018190D01*
X005652Y018248D01*
X005681Y018304D01*
X005713Y018358D01*
X005748Y018410D01*
X005786Y018459D01*
X005828Y018507D01*
X005872Y018551D01*
X005920Y018593D01*
X005969Y018631D01*
X006021Y018666D01*
X006075Y018698D01*
X006131Y018727D01*
X006189Y018752D01*
X006248Y018773D01*
X006308Y018791D01*
X006370Y018804D01*
X006432Y018814D01*
X006494Y018820D01*
X006557Y018822D01*
X006620Y018820D01*
X006682Y018814D01*
X006744Y018804D01*
X006806Y018791D01*
X006866Y018773D01*
X006925Y018752D01*
X006983Y018727D01*
X007039Y018698D01*
X007093Y018666D01*
X007145Y018631D01*
X007194Y018593D01*
X007242Y018551D01*
X007286Y018507D01*
X007328Y018459D01*
X007366Y018410D01*
X007401Y018358D01*
X007433Y018304D01*
X007462Y018248D01*
X007487Y018190D01*
X007508Y018131D01*
X007526Y018071D01*
X007539Y018009D01*
X007549Y017947D01*
X007555Y017885D01*
X007557Y017822D01*
X007555Y017759D01*
X007549Y017697D01*
X007539Y017635D01*
X007526Y017573D01*
X007508Y017513D01*
X007487Y017454D01*
X007462Y017396D01*
X007433Y017340D01*
X007401Y017286D01*
X007366Y017234D01*
X007328Y017185D01*
X007286Y017137D01*
X007242Y017093D01*
X007194Y017051D01*
X007145Y017013D01*
X007093Y016978D01*
X007039Y016946D01*
X006983Y016917D01*
X006925Y016892D01*
X006866Y016871D01*
X006806Y016853D01*
X006744Y016840D01*
X006682Y016830D01*
X006620Y016824D01*
X006557Y016822D01*
X006494Y016824D01*
X006432Y016830D01*
X006370Y016840D01*
X006308Y016853D01*
X006248Y016871D01*
X006189Y016892D01*
X006131Y016917D01*
X006075Y016946D01*
X006021Y016978D01*
X005969Y017013D01*
X005920Y017051D01*
X005872Y017093D01*
X005828Y017137D01*
X005786Y017185D01*
X005748Y017234D01*
X005713Y017286D01*
X005681Y017340D01*
X005652Y017396D01*
X005627Y017454D01*
X005606Y017513D01*
X005588Y017573D01*
X005575Y017635D01*
X005565Y017697D01*
X005559Y017759D01*
X005557Y017822D01*
X004158Y015060D02*
X003158Y015060D01*
X003158Y014060D01*
X003158Y013060D01*
X003158Y012060D01*
X003158Y011060D01*
X003158Y010060D01*
X003158Y009060D01*
X004158Y009060D01*
X004158Y010060D01*
X004158Y011060D01*
X004158Y012060D01*
X004158Y013060D01*
X004158Y014060D01*
X004158Y015060D01*
X004158Y014060D02*
X003158Y014060D01*
X003158Y013060D02*
X004158Y013060D01*
X004158Y012060D02*
X003158Y012060D01*
X003158Y011060D02*
X004158Y011060D01*
X004158Y010060D02*
X003158Y010060D01*
X001764Y008848D02*
X001764Y008498D01*
X001164Y008498D01*
X001164Y008848D01*
X000414Y008848D01*
X000414Y004748D01*
X001164Y004748D01*
X001164Y005098D01*
X001764Y005098D01*
X001764Y004748D01*
X006664Y004748D01*
X006664Y008848D01*
X001764Y008848D01*
X001054Y006798D02*
X001056Y006851D01*
X001062Y006904D01*
X001072Y006956D01*
X001086Y007007D01*
X001103Y007057D01*
X001124Y007106D01*
X001149Y007153D01*
X001177Y007198D01*
X001209Y007241D01*
X001244Y007281D01*
X001281Y007318D01*
X001321Y007353D01*
X001364Y007385D01*
X001409Y007413D01*
X001456Y007438D01*
X001505Y007459D01*
X001555Y007476D01*
X001606Y007490D01*
X001658Y007500D01*
X001711Y007506D01*
X001764Y007508D01*
X001817Y007506D01*
X001870Y007500D01*
X001922Y007490D01*
X001973Y007476D01*
X002023Y007459D01*
X002072Y007438D01*
X002119Y007413D01*
X002164Y007385D01*
X002207Y007353D01*
X002247Y007318D01*
X002284Y007281D01*
X002319Y007241D01*
X002351Y007198D01*
X002379Y007153D01*
X002404Y007106D01*
X002425Y007057D01*
X002442Y007007D01*
X002456Y006956D01*
X002466Y006904D01*
X002472Y006851D01*
X002474Y006798D01*
X002472Y006745D01*
X002466Y006692D01*
X002456Y006640D01*
X002442Y006589D01*
X002425Y006539D01*
X002404Y006490D01*
X002379Y006443D01*
X002351Y006398D01*
X002319Y006355D01*
X002284Y006315D01*
X002247Y006278D01*
X002207Y006243D01*
X002164Y006211D01*
X002119Y006183D01*
X002072Y006158D01*
X002023Y006137D01*
X001973Y006120D01*
X001922Y006106D01*
X001870Y006096D01*
X001817Y006090D01*
X001764Y006088D01*
X001711Y006090D01*
X001658Y006096D01*
X001606Y006106D01*
X001555Y006120D01*
X001505Y006137D01*
X001456Y006158D01*
X001409Y006183D01*
X001364Y006211D01*
X001321Y006243D01*
X001281Y006278D01*
X001244Y006315D01*
X001209Y006355D01*
X001177Y006398D01*
X001149Y006443D01*
X001124Y006490D01*
X001103Y006539D01*
X001086Y006589D01*
X001072Y006640D01*
X001062Y006692D01*
X001056Y006745D01*
X001054Y006798D01*
X005270Y003861D02*
X005670Y003861D01*
X007370Y003861D02*
X007319Y003940D01*
X007265Y004016D01*
X007206Y004089D01*
X007144Y004160D01*
X007079Y004227D01*
X007011Y004291D01*
X006940Y004351D01*
X006865Y004408D01*
X006788Y004462D01*
X006709Y004511D01*
X006627Y004557D01*
X006543Y004598D01*
X006457Y004635D01*
X006369Y004669D01*
X006280Y004697D01*
X006190Y004722D01*
X006098Y004742D01*
X006006Y004757D01*
X005913Y004768D01*
X005820Y004774D01*
X005726Y004776D01*
X005632Y004773D01*
X005539Y004766D01*
X005446Y004754D01*
X005354Y004737D01*
X005263Y004716D01*
X005173Y004691D01*
X005084Y004661D01*
X004997Y004627D01*
X004911Y004589D01*
X004828Y004546D01*
X004746Y004500D01*
X004667Y004449D01*
X004591Y004395D01*
X004517Y004337D01*
X004447Y004276D01*
X004379Y004211D01*
X004315Y004143D01*
X004254Y004072D01*
X004196Y003998D01*
X004142Y003921D01*
X004092Y003842D01*
X004046Y003761D01*
X004005Y003677D01*
X003967Y003591D01*
X003933Y003504D01*
X003904Y003415D01*
X003879Y003325D01*
X003859Y003233D01*
X003843Y003141D01*
X003831Y003048D01*
X003824Y002955D01*
X003822Y002861D01*
X003824Y002767D01*
X003831Y002674D01*
X003843Y002581D01*
X003859Y002489D01*
X003879Y002397D01*
X003904Y002307D01*
X003933Y002218D01*
X003967Y002131D01*
X004005Y002045D01*
X004046Y001961D01*
X004092Y001880D01*
X004142Y001801D01*
X004196Y001724D01*
X004254Y001650D01*
X004315Y001579D01*
X004379Y001511D01*
X004447Y001446D01*
X004517Y001385D01*
X004591Y001327D01*
X004667Y001273D01*
X004746Y001222D01*
X004828Y001176D01*
X004911Y001133D01*
X004997Y001095D01*
X005084Y001061D01*
X005173Y001031D01*
X005263Y001006D01*
X005354Y000985D01*
X005446Y000968D01*
X005539Y000956D01*
X005632Y000949D01*
X005726Y000946D01*
X005820Y000948D01*
X005913Y000954D01*
X006006Y000965D01*
X006098Y000980D01*
X006190Y001000D01*
X006280Y001025D01*
X006369Y001053D01*
X006457Y001087D01*
X006543Y001124D01*
X006627Y001165D01*
X006709Y001211D01*
X006788Y001260D01*
X006865Y001314D01*
X006940Y001371D01*
X007011Y001431D01*
X007079Y001495D01*
X007144Y001562D01*
X007206Y001633D01*
X007265Y001706D01*
X007319Y001782D01*
X007370Y001861D01*
X007370Y003861D01*
X006070Y002061D02*
X006070Y001661D01*
X006270Y001861D02*
X005870Y001861D01*
X011613Y003792D02*
X012613Y003792D01*
X013613Y003792D01*
X014613Y003792D01*
X015613Y003792D01*
X016613Y003792D01*
X017613Y003792D01*
X018613Y003792D01*
X019613Y003792D01*
X019613Y004792D01*
X018613Y004792D01*
X017613Y004792D01*
X016613Y004792D01*
X015613Y004792D01*
X014613Y004792D01*
X013613Y004792D01*
X012613Y004792D01*
X011613Y004792D01*
X011613Y003792D01*
X012613Y003792D02*
X012613Y004792D01*
X013613Y004792D02*
X013613Y003792D01*
X014613Y003792D02*
X014613Y004792D01*
X015613Y004792D02*
X015613Y003792D01*
X016613Y003792D02*
X016613Y004792D01*
X017613Y004792D02*
X017613Y003792D01*
X018613Y003792D02*
X018613Y004792D01*
X018869Y016622D02*
X017869Y016622D01*
X017519Y016622D01*
X017169Y017422D02*
X017169Y017522D01*
X017069Y017522D01*
X017069Y018122D01*
X017169Y018122D01*
X017169Y018222D01*
X017519Y019022D02*
X017919Y019022D01*
X018869Y019022D01*
X019219Y019022D01*
X019569Y018222D02*
X019569Y018122D01*
X019669Y018122D01*
X019669Y017522D01*
X019569Y017522D01*
X019569Y017422D01*
X019219Y016622D02*
X018869Y016622D01*
X018269Y017822D02*
X018271Y017842D01*
X018277Y017860D01*
X018286Y017878D01*
X018298Y017893D01*
X018313Y017905D01*
X018331Y017914D01*
X018349Y017920D01*
X018369Y017922D01*
X018389Y017920D01*
X018407Y017914D01*
X018425Y017905D01*
X018440Y017893D01*
X018452Y017878D01*
X018461Y017860D01*
X018467Y017842D01*
X018469Y017822D01*
X018467Y017802D01*
X018461Y017784D01*
X018452Y017766D01*
X018440Y017751D01*
X018425Y017739D01*
X018407Y017730D01*
X018389Y017724D01*
X018369Y017722D01*
X018349Y017724D01*
X018331Y017730D01*
X018313Y017739D01*
X018298Y017751D01*
X018286Y017766D01*
X018277Y017784D01*
X018271Y017802D01*
X018269Y017822D01*
X017669Y017822D02*
X017671Y017874D01*
X017677Y017926D01*
X017687Y017978D01*
X017700Y018028D01*
X017717Y018078D01*
X017738Y018126D01*
X017763Y018172D01*
X017791Y018216D01*
X017822Y018258D01*
X017856Y018298D01*
X017893Y018335D01*
X017933Y018369D01*
X017975Y018400D01*
X018019Y018428D01*
X018065Y018453D01*
X018113Y018474D01*
X018163Y018491D01*
X018213Y018504D01*
X018265Y018514D01*
X018317Y018520D01*
X018369Y018522D01*
X018421Y018520D01*
X018473Y018514D01*
X018525Y018504D01*
X018575Y018491D01*
X018625Y018474D01*
X018673Y018453D01*
X018719Y018428D01*
X018763Y018400D01*
X018805Y018369D01*
X018845Y018335D01*
X018882Y018298D01*
X018916Y018258D01*
X018947Y018216D01*
X018975Y018172D01*
X019000Y018126D01*
X019021Y018078D01*
X019038Y018028D01*
X019051Y017978D01*
X019061Y017926D01*
X019067Y017874D01*
X019069Y017822D01*
X019067Y017770D01*
X019061Y017718D01*
X019051Y017666D01*
X019038Y017616D01*
X019021Y017566D01*
X019000Y017518D01*
X018975Y017472D01*
X018947Y017428D01*
X018916Y017386D01*
X018882Y017346D01*
X018845Y017309D01*
X018805Y017275D01*
X018763Y017244D01*
X018719Y017216D01*
X018673Y017191D01*
X018625Y017170D01*
X018575Y017153D01*
X018525Y017140D01*
X018473Y017130D01*
X018421Y017124D01*
X018369Y017122D01*
X018317Y017124D01*
X018265Y017130D01*
X018213Y017140D01*
X018163Y017153D01*
X018113Y017170D01*
X018065Y017191D01*
X018019Y017216D01*
X017975Y017244D01*
X017933Y017275D01*
X017893Y017309D01*
X017856Y017346D01*
X017822Y017386D01*
X017791Y017428D01*
X017763Y017472D01*
X017738Y017518D01*
X017717Y017566D01*
X017700Y017616D01*
X017687Y017666D01*
X017677Y017718D01*
X017671Y017770D01*
X017669Y017822D01*
X001227Y017822D02*
X001229Y017885D01*
X001235Y017947D01*
X001245Y018009D01*
X001258Y018071D01*
X001276Y018131D01*
X001297Y018190D01*
X001322Y018248D01*
X001351Y018304D01*
X001383Y018358D01*
X001418Y018410D01*
X001456Y018459D01*
X001498Y018507D01*
X001542Y018551D01*
X001590Y018593D01*
X001639Y018631D01*
X001691Y018666D01*
X001745Y018698D01*
X001801Y018727D01*
X001859Y018752D01*
X001918Y018773D01*
X001978Y018791D01*
X002040Y018804D01*
X002102Y018814D01*
X002164Y018820D01*
X002227Y018822D01*
X002290Y018820D01*
X002352Y018814D01*
X002414Y018804D01*
X002476Y018791D01*
X002536Y018773D01*
X002595Y018752D01*
X002653Y018727D01*
X002709Y018698D01*
X002763Y018666D01*
X002815Y018631D01*
X002864Y018593D01*
X002912Y018551D01*
X002956Y018507D01*
X002998Y018459D01*
X003036Y018410D01*
X003071Y018358D01*
X003103Y018304D01*
X003132Y018248D01*
X003157Y018190D01*
X003178Y018131D01*
X003196Y018071D01*
X003209Y018009D01*
X003219Y017947D01*
X003225Y017885D01*
X003227Y017822D01*
X003225Y017759D01*
X003219Y017697D01*
X003209Y017635D01*
X003196Y017573D01*
X003178Y017513D01*
X003157Y017454D01*
X003132Y017396D01*
X003103Y017340D01*
X003071Y017286D01*
X003036Y017234D01*
X002998Y017185D01*
X002956Y017137D01*
X002912Y017093D01*
X002864Y017051D01*
X002815Y017013D01*
X002763Y016978D01*
X002709Y016946D01*
X002653Y016917D01*
X002595Y016892D01*
X002536Y016871D01*
X002476Y016853D01*
X002414Y016840D01*
X002352Y016830D01*
X002290Y016824D01*
X002227Y016822D01*
X002164Y016824D01*
X002102Y016830D01*
X002040Y016840D01*
X001978Y016853D01*
X001918Y016871D01*
X001859Y016892D01*
X001801Y016917D01*
X001745Y016946D01*
X001691Y016978D01*
X001639Y017013D01*
X001590Y017051D01*
X001542Y017093D01*
X001498Y017137D01*
X001456Y017185D01*
X001418Y017234D01*
X001383Y017286D01*
X001351Y017340D01*
X001322Y017396D01*
X001297Y017454D01*
X001276Y017513D01*
X001258Y017573D01*
X001245Y017635D01*
X001235Y017697D01*
X001229Y017759D01*
X001227Y017822D01*
D18*
X003164Y008598D02*
X003164Y004998D01*
X006414Y004998D01*
X006414Y008598D01*
X003164Y008598D01*
X012750Y016622D02*
X012750Y016722D01*
X013750Y016722D01*
X013750Y016622D01*
X013750Y018922D02*
X012800Y018922D01*
X012800Y019022D01*
X013750Y019022D02*
X013750Y018922D01*
X017919Y018922D02*
X017919Y019022D01*
X017919Y018922D02*
X018869Y018922D01*
X018869Y019022D01*
X018869Y016722D02*
X017869Y016722D01*
X017869Y016622D01*
X018869Y016622D02*
X018869Y016722D01*
D19*
X018962Y015853D03*
X018562Y015853D03*
D20*
X010063Y018822D02*
X008563Y018822D01*
X007307Y018822D02*
X005807Y018822D01*
X002977Y018822D02*
X001477Y018822D01*
D21*
X001423Y018779D01*
X001371Y018733D01*
X001322Y018684D01*
X001275Y018632D01*
X001232Y018578D01*
X001191Y018522D01*
X001154Y018463D01*
X001120Y018403D01*
X001090Y018340D01*
X001063Y018277D01*
X001039Y018211D01*
X001019Y018145D01*
X001003Y018077D01*
X000991Y018009D01*
X000983Y017940D01*
X000978Y017871D01*
X000977Y017801D01*
X000980Y017732D01*
X000987Y017663D01*
X000998Y017595D01*
X001012Y017527D01*
X001031Y017460D01*
X001053Y017394D01*
X001078Y017329D01*
X001107Y017266D01*
X001140Y017205D01*
X001176Y017146D01*
X001215Y017089D01*
X001257Y017033D01*
X001302Y016981D01*
X001350Y016931D01*
X001401Y016884D01*
X001455Y016839D01*
X001510Y016798D01*
X001568Y016760D01*
X001628Y016725D01*
X001690Y016693D01*
X001753Y016665D01*
X001818Y016641D01*
X001884Y016620D01*
X001952Y016603D01*
X002020Y016589D01*
X002089Y016580D01*
X002158Y016574D01*
X002227Y016572D01*
X002296Y016574D01*
X002365Y016580D01*
X002434Y016589D01*
X002502Y016603D01*
X002570Y016620D01*
X002636Y016641D01*
X002701Y016665D01*
X002764Y016693D01*
X002826Y016725D01*
X002886Y016760D01*
X002944Y016798D01*
X002999Y016839D01*
X003053Y016884D01*
X003104Y016931D01*
X003152Y016981D01*
X003197Y017033D01*
X003239Y017089D01*
X003278Y017146D01*
X003314Y017205D01*
X003347Y017266D01*
X003376Y017329D01*
X003401Y017394D01*
X003423Y017460D01*
X003442Y017527D01*
X003456Y017595D01*
X003467Y017663D01*
X003474Y017732D01*
X003477Y017801D01*
X003476Y017871D01*
X003471Y017940D01*
X003463Y018009D01*
X003451Y018077D01*
X003435Y018145D01*
X003415Y018211D01*
X003391Y018277D01*
X003364Y018340D01*
X003334Y018403D01*
X003300Y018463D01*
X003263Y018522D01*
X003222Y018578D01*
X003179Y018632D01*
X003132Y018684D01*
X003083Y018733D01*
X003031Y018779D01*
X002977Y018822D01*
X005807Y018822D02*
X005753Y018779D01*
X005701Y018733D01*
X005652Y018684D01*
X005605Y018632D01*
X005562Y018578D01*
X005521Y018522D01*
X005484Y018463D01*
X005450Y018403D01*
X005420Y018340D01*
X005393Y018277D01*
X005369Y018211D01*
X005349Y018145D01*
X005333Y018077D01*
X005321Y018009D01*
X005313Y017940D01*
X005308Y017871D01*
X005307Y017801D01*
X005310Y017732D01*
X005317Y017663D01*
X005328Y017595D01*
X005342Y017527D01*
X005361Y017460D01*
X005383Y017394D01*
X005408Y017329D01*
X005437Y017266D01*
X005470Y017205D01*
X005506Y017146D01*
X005545Y017089D01*
X005587Y017033D01*
X005632Y016981D01*
X005680Y016931D01*
X005731Y016884D01*
X005785Y016839D01*
X005840Y016798D01*
X005898Y016760D01*
X005958Y016725D01*
X006020Y016693D01*
X006083Y016665D01*
X006148Y016641D01*
X006214Y016620D01*
X006282Y016603D01*
X006350Y016589D01*
X006419Y016580D01*
X006488Y016574D01*
X006557Y016572D01*
X006626Y016574D01*
X006695Y016580D01*
X006764Y016589D01*
X006832Y016603D01*
X006900Y016620D01*
X006966Y016641D01*
X007031Y016665D01*
X007094Y016693D01*
X007156Y016725D01*
X007216Y016760D01*
X007274Y016798D01*
X007329Y016839D01*
X007383Y016884D01*
X007434Y016931D01*
X007482Y016981D01*
X007527Y017033D01*
X007569Y017089D01*
X007608Y017146D01*
X007644Y017205D01*
X007677Y017266D01*
X007706Y017329D01*
X007731Y017394D01*
X007753Y017460D01*
X007772Y017527D01*
X007786Y017595D01*
X007797Y017663D01*
X007804Y017732D01*
X007807Y017801D01*
X007806Y017871D01*
X007801Y017940D01*
X007793Y018009D01*
X007781Y018077D01*
X007765Y018145D01*
X007745Y018211D01*
X007721Y018277D01*
X007694Y018340D01*
X007664Y018403D01*
X007630Y018463D01*
X007593Y018522D01*
X007552Y018578D01*
X007509Y018632D01*
X007462Y018684D01*
X007413Y018733D01*
X007361Y018779D01*
X007307Y018822D01*
X008563Y018822D02*
X008509Y018779D01*
X008457Y018733D01*
X008408Y018684D01*
X008361Y018632D01*
X008318Y018578D01*
X008277Y018522D01*
X008240Y018463D01*
X008206Y018403D01*
X008176Y018340D01*
X008149Y018277D01*
X008125Y018211D01*
X008105Y018145D01*
X008089Y018077D01*
X008077Y018009D01*
X008069Y017940D01*
X008064Y017871D01*
X008063Y017801D01*
X008066Y017732D01*
X008073Y017663D01*
X008084Y017595D01*
X008098Y017527D01*
X008117Y017460D01*
X008139Y017394D01*
X008164Y017329D01*
X008193Y017266D01*
X008226Y017205D01*
X008262Y017146D01*
X008301Y017089D01*
X008343Y017033D01*
X008388Y016981D01*
X008436Y016931D01*
X008487Y016884D01*
X008541Y016839D01*
X008596Y016798D01*
X008654Y016760D01*
X008714Y016725D01*
X008776Y016693D01*
X008839Y016665D01*
X008904Y016641D01*
X008970Y016620D01*
X009038Y016603D01*
X009106Y016589D01*
X009175Y016580D01*
X009244Y016574D01*
X009313Y016572D01*
X009382Y016574D01*
X009451Y016580D01*
X009520Y016589D01*
X009588Y016603D01*
X009656Y016620D01*
X009722Y016641D01*
X009787Y016665D01*
X009850Y016693D01*
X009912Y016725D01*
X009972Y016760D01*
X010030Y016798D01*
X010085Y016839D01*
X010139Y016884D01*
X010190Y016931D01*
X010238Y016981D01*
X010283Y017033D01*
X010325Y017089D01*
X010364Y017146D01*
X010400Y017205D01*
X010433Y017266D01*
X010462Y017329D01*
X010487Y017394D01*
X010509Y017460D01*
X010528Y017527D01*
X010542Y017595D01*
X010553Y017663D01*
X010560Y017732D01*
X010563Y017801D01*
X010562Y017871D01*
X010557Y017940D01*
X010549Y018009D01*
X010537Y018077D01*
X010521Y018145D01*
X010501Y018211D01*
X010477Y018277D01*
X010450Y018340D01*
X010420Y018403D01*
X010386Y018463D01*
X010349Y018522D01*
X010308Y018578D01*
X010265Y018632D01*
X010218Y018684D01*
X010169Y018733D01*
X010117Y018779D01*
X010063Y018822D01*
D22*
X002908Y014560D02*
X000658Y014560D01*
X000658Y013560D02*
X002908Y013560D01*
X002908Y012560D02*
X000658Y012560D01*
X000658Y011560D02*
X002908Y011560D01*
X002908Y010560D02*
X000658Y010560D01*
X000658Y009560D02*
X002908Y009560D01*
X012113Y003542D02*
X012113Y001292D01*
X013113Y001292D02*
X013113Y003542D01*
X014113Y003542D02*
X014113Y001292D01*
X015113Y001292D02*
X015113Y003542D01*
X016113Y003542D02*
X016113Y001292D01*
X017113Y001292D02*
X017113Y003542D01*
X018113Y003542D02*
X018113Y001292D01*
X019113Y001292D02*
X019113Y003542D01*
D23*
X003058Y009560D03*
X003058Y010560D03*
X003058Y011560D03*
X003058Y012560D03*
X003058Y013560D03*
X003058Y014560D03*
D24*
X004358Y014560D03*
X004358Y013560D03*
X004358Y012560D03*
X004358Y011560D03*
X004358Y010560D03*
X004358Y009560D03*
D25*
X012113Y003692D03*
X013113Y003692D03*
X014113Y003692D03*
X015113Y003692D03*
X016113Y003692D03*
X017113Y003692D03*
X018113Y003692D03*
X019113Y003692D03*
D26*
X019113Y004992D03*
X018113Y004992D03*
X017113Y004992D03*
X016113Y004992D03*
X015113Y004992D03*
X014113Y004992D03*
X013113Y004992D03*
X012113Y004992D03*
D27*
X006839Y005798D03*
X006839Y006798D03*
X006839Y007798D03*
M02*
