G75*
G70*
%OFA0B0*%
%FSLAX24Y24*%
%IPPOS*%
%LPD*%
%AMOC8*
5,1,8,0,0,1.08239X$1,22.5*
%
%ADD10C,0.0000*%
D10*
X000101Y000101D02*
X000101Y039471D01*
X039471Y039471D01*
X039471Y000101D01*
X000101Y000101D01*
X000258Y002463D02*
X000260Y002513D01*
X000266Y002563D01*
X000276Y002612D01*
X000290Y002660D01*
X000307Y002707D01*
X000328Y002752D01*
X000353Y002796D01*
X000381Y002837D01*
X000413Y002876D01*
X000447Y002913D01*
X000484Y002947D01*
X000524Y002977D01*
X000566Y003004D01*
X000610Y003028D01*
X000656Y003049D01*
X000703Y003065D01*
X000751Y003078D01*
X000801Y003087D01*
X000850Y003092D01*
X000901Y003093D01*
X000951Y003090D01*
X001000Y003083D01*
X001049Y003072D01*
X001097Y003057D01*
X001143Y003039D01*
X001188Y003017D01*
X001231Y002991D01*
X001272Y002962D01*
X001311Y002930D01*
X001347Y002895D01*
X001379Y002857D01*
X001409Y002817D01*
X001436Y002774D01*
X001459Y002730D01*
X001478Y002684D01*
X001494Y002636D01*
X001506Y002587D01*
X001514Y002538D01*
X001518Y002488D01*
X001518Y002438D01*
X001514Y002388D01*
X001506Y002339D01*
X001494Y002290D01*
X001478Y002242D01*
X001459Y002196D01*
X001436Y002152D01*
X001409Y002109D01*
X001379Y002069D01*
X001347Y002031D01*
X001311Y001996D01*
X001272Y001964D01*
X001231Y001935D01*
X001188Y001909D01*
X001143Y001887D01*
X001097Y001869D01*
X001049Y001854D01*
X001000Y001843D01*
X000951Y001836D01*
X000901Y001833D01*
X000850Y001834D01*
X000801Y001839D01*
X000751Y001848D01*
X000703Y001861D01*
X000656Y001877D01*
X000610Y001898D01*
X000566Y001922D01*
X000524Y001949D01*
X000484Y001979D01*
X000447Y002013D01*
X000413Y002050D01*
X000381Y002089D01*
X000353Y002130D01*
X000328Y002174D01*
X000307Y002219D01*
X000290Y002266D01*
X000276Y002314D01*
X000266Y002363D01*
X000260Y002413D01*
X000258Y002463D01*
X000258Y015061D02*
X000260Y015111D01*
X000266Y015161D01*
X000276Y015210D01*
X000290Y015258D01*
X000307Y015305D01*
X000328Y015350D01*
X000353Y015394D01*
X000381Y015435D01*
X000413Y015474D01*
X000447Y015511D01*
X000484Y015545D01*
X000524Y015575D01*
X000566Y015602D01*
X000610Y015626D01*
X000656Y015647D01*
X000703Y015663D01*
X000751Y015676D01*
X000801Y015685D01*
X000850Y015690D01*
X000901Y015691D01*
X000951Y015688D01*
X001000Y015681D01*
X001049Y015670D01*
X001097Y015655D01*
X001143Y015637D01*
X001188Y015615D01*
X001231Y015589D01*
X001272Y015560D01*
X001311Y015528D01*
X001347Y015493D01*
X001379Y015455D01*
X001409Y015415D01*
X001436Y015372D01*
X001459Y015328D01*
X001478Y015282D01*
X001494Y015234D01*
X001506Y015185D01*
X001514Y015136D01*
X001518Y015086D01*
X001518Y015036D01*
X001514Y014986D01*
X001506Y014937D01*
X001494Y014888D01*
X001478Y014840D01*
X001459Y014794D01*
X001436Y014750D01*
X001409Y014707D01*
X001379Y014667D01*
X001347Y014629D01*
X001311Y014594D01*
X001272Y014562D01*
X001231Y014533D01*
X001188Y014507D01*
X001143Y014485D01*
X001097Y014467D01*
X001049Y014452D01*
X001000Y014441D01*
X000951Y014434D01*
X000901Y014431D01*
X000850Y014432D01*
X000801Y014437D01*
X000751Y014446D01*
X000703Y014459D01*
X000656Y014475D01*
X000610Y014496D01*
X000566Y014520D01*
X000524Y014547D01*
X000484Y014577D01*
X000447Y014611D01*
X000413Y014648D01*
X000381Y014687D01*
X000353Y014728D01*
X000328Y014772D01*
X000307Y014817D01*
X000290Y014864D01*
X000276Y014912D01*
X000266Y014961D01*
X000260Y015011D01*
X000258Y015061D01*
X001046Y019786D02*
X001048Y019836D01*
X001054Y019886D01*
X001064Y019935D01*
X001078Y019983D01*
X001095Y020030D01*
X001116Y020075D01*
X001141Y020119D01*
X001169Y020160D01*
X001201Y020199D01*
X001235Y020236D01*
X001272Y020270D01*
X001312Y020300D01*
X001354Y020327D01*
X001398Y020351D01*
X001444Y020372D01*
X001491Y020388D01*
X001539Y020401D01*
X001589Y020410D01*
X001638Y020415D01*
X001689Y020416D01*
X001739Y020413D01*
X001788Y020406D01*
X001837Y020395D01*
X001885Y020380D01*
X001931Y020362D01*
X001976Y020340D01*
X002019Y020314D01*
X002060Y020285D01*
X002099Y020253D01*
X002135Y020218D01*
X002167Y020180D01*
X002197Y020140D01*
X002224Y020097D01*
X002247Y020053D01*
X002266Y020007D01*
X002282Y019959D01*
X002294Y019910D01*
X002302Y019861D01*
X002306Y019811D01*
X002306Y019761D01*
X002302Y019711D01*
X002294Y019662D01*
X002282Y019613D01*
X002266Y019565D01*
X002247Y019519D01*
X002224Y019475D01*
X002197Y019432D01*
X002167Y019392D01*
X002135Y019354D01*
X002099Y019319D01*
X002060Y019287D01*
X002019Y019258D01*
X001976Y019232D01*
X001931Y019210D01*
X001885Y019192D01*
X001837Y019177D01*
X001788Y019166D01*
X001739Y019159D01*
X001689Y019156D01*
X001638Y019157D01*
X001589Y019162D01*
X001539Y019171D01*
X001491Y019184D01*
X001444Y019200D01*
X001398Y019221D01*
X001354Y019245D01*
X001312Y019272D01*
X001272Y019302D01*
X001235Y019336D01*
X001201Y019373D01*
X001169Y019412D01*
X001141Y019453D01*
X001116Y019497D01*
X001095Y019542D01*
X001078Y019589D01*
X001064Y019637D01*
X001054Y019686D01*
X001048Y019736D01*
X001046Y019786D01*
X001439Y022542D02*
X001441Y022592D01*
X001447Y022642D01*
X001457Y022691D01*
X001471Y022739D01*
X001488Y022786D01*
X001509Y022831D01*
X001534Y022875D01*
X001562Y022916D01*
X001594Y022955D01*
X001628Y022992D01*
X001665Y023026D01*
X001705Y023056D01*
X001747Y023083D01*
X001791Y023107D01*
X001837Y023128D01*
X001884Y023144D01*
X001932Y023157D01*
X001982Y023166D01*
X002031Y023171D01*
X002082Y023172D01*
X002132Y023169D01*
X002181Y023162D01*
X002230Y023151D01*
X002278Y023136D01*
X002324Y023118D01*
X002369Y023096D01*
X002412Y023070D01*
X002453Y023041D01*
X002492Y023009D01*
X002528Y022974D01*
X002560Y022936D01*
X002590Y022896D01*
X002617Y022853D01*
X002640Y022809D01*
X002659Y022763D01*
X002675Y022715D01*
X002687Y022666D01*
X002695Y022617D01*
X002699Y022567D01*
X002699Y022517D01*
X002695Y022467D01*
X002687Y022418D01*
X002675Y022369D01*
X002659Y022321D01*
X002640Y022275D01*
X002617Y022231D01*
X002590Y022188D01*
X002560Y022148D01*
X002528Y022110D01*
X002492Y022075D01*
X002453Y022043D01*
X002412Y022014D01*
X002369Y021988D01*
X002324Y021966D01*
X002278Y021948D01*
X002230Y021933D01*
X002181Y021922D01*
X002132Y021915D01*
X002082Y021912D01*
X002031Y021913D01*
X001982Y021918D01*
X001932Y021927D01*
X001884Y021940D01*
X001837Y021956D01*
X001791Y021977D01*
X001747Y022001D01*
X001705Y022028D01*
X001665Y022058D01*
X001628Y022092D01*
X001594Y022129D01*
X001562Y022168D01*
X001534Y022209D01*
X001509Y022253D01*
X001488Y022298D01*
X001471Y022345D01*
X001457Y022393D01*
X001447Y022442D01*
X001441Y022492D01*
X001439Y022542D01*
X001046Y031991D02*
X001048Y032041D01*
X001054Y032091D01*
X001064Y032140D01*
X001078Y032188D01*
X001095Y032235D01*
X001116Y032280D01*
X001141Y032324D01*
X001169Y032365D01*
X001201Y032404D01*
X001235Y032441D01*
X001272Y032475D01*
X001312Y032505D01*
X001354Y032532D01*
X001398Y032556D01*
X001444Y032577D01*
X001491Y032593D01*
X001539Y032606D01*
X001589Y032615D01*
X001638Y032620D01*
X001689Y032621D01*
X001739Y032618D01*
X001788Y032611D01*
X001837Y032600D01*
X001885Y032585D01*
X001931Y032567D01*
X001976Y032545D01*
X002019Y032519D01*
X002060Y032490D01*
X002099Y032458D01*
X002135Y032423D01*
X002167Y032385D01*
X002197Y032345D01*
X002224Y032302D01*
X002247Y032258D01*
X002266Y032212D01*
X002282Y032164D01*
X002294Y032115D01*
X002302Y032066D01*
X002306Y032016D01*
X002306Y031966D01*
X002302Y031916D01*
X002294Y031867D01*
X002282Y031818D01*
X002266Y031770D01*
X002247Y031724D01*
X002224Y031680D01*
X002197Y031637D01*
X002167Y031597D01*
X002135Y031559D01*
X002099Y031524D01*
X002060Y031492D01*
X002019Y031463D01*
X001976Y031437D01*
X001931Y031415D01*
X001885Y031397D01*
X001837Y031382D01*
X001788Y031371D01*
X001739Y031364D01*
X001689Y031361D01*
X001638Y031362D01*
X001589Y031367D01*
X001539Y031376D01*
X001491Y031389D01*
X001444Y031405D01*
X001398Y031426D01*
X001354Y031450D01*
X001312Y031477D01*
X001272Y031507D01*
X001235Y031541D01*
X001201Y031578D01*
X001169Y031617D01*
X001141Y031658D01*
X001116Y031702D01*
X001095Y031747D01*
X001078Y031794D01*
X001064Y031842D01*
X001054Y031891D01*
X001048Y031941D01*
X001046Y031991D01*
X000258Y038683D02*
X000260Y038733D01*
X000266Y038783D01*
X000276Y038832D01*
X000290Y038880D01*
X000307Y038927D01*
X000328Y038972D01*
X000353Y039016D01*
X000381Y039057D01*
X000413Y039096D01*
X000447Y039133D01*
X000484Y039167D01*
X000524Y039197D01*
X000566Y039224D01*
X000610Y039248D01*
X000656Y039269D01*
X000703Y039285D01*
X000751Y039298D01*
X000801Y039307D01*
X000850Y039312D01*
X000901Y039313D01*
X000951Y039310D01*
X001000Y039303D01*
X001049Y039292D01*
X001097Y039277D01*
X001143Y039259D01*
X001188Y039237D01*
X001231Y039211D01*
X001272Y039182D01*
X001311Y039150D01*
X001347Y039115D01*
X001379Y039077D01*
X001409Y039037D01*
X001436Y038994D01*
X001459Y038950D01*
X001478Y038904D01*
X001494Y038856D01*
X001506Y038807D01*
X001514Y038758D01*
X001518Y038708D01*
X001518Y038658D01*
X001514Y038608D01*
X001506Y038559D01*
X001494Y038510D01*
X001478Y038462D01*
X001459Y038416D01*
X001436Y038372D01*
X001409Y038329D01*
X001379Y038289D01*
X001347Y038251D01*
X001311Y038216D01*
X001272Y038184D01*
X001231Y038155D01*
X001188Y038129D01*
X001143Y038107D01*
X001097Y038089D01*
X001049Y038074D01*
X001000Y038063D01*
X000951Y038056D01*
X000901Y038053D01*
X000850Y038054D01*
X000801Y038059D01*
X000751Y038068D01*
X000703Y038081D01*
X000656Y038097D01*
X000610Y038118D01*
X000566Y038142D01*
X000524Y038169D01*
X000484Y038199D01*
X000447Y038233D01*
X000413Y038270D01*
X000381Y038309D01*
X000353Y038350D01*
X000328Y038394D01*
X000307Y038439D01*
X000290Y038486D01*
X000276Y038534D01*
X000266Y038583D01*
X000260Y038633D01*
X000258Y038683D01*
X012463Y019786D02*
X012465Y019836D01*
X012471Y019886D01*
X012481Y019935D01*
X012495Y019983D01*
X012512Y020030D01*
X012533Y020075D01*
X012558Y020119D01*
X012586Y020160D01*
X012618Y020199D01*
X012652Y020236D01*
X012689Y020270D01*
X012729Y020300D01*
X012771Y020327D01*
X012815Y020351D01*
X012861Y020372D01*
X012908Y020388D01*
X012956Y020401D01*
X013006Y020410D01*
X013055Y020415D01*
X013106Y020416D01*
X013156Y020413D01*
X013205Y020406D01*
X013254Y020395D01*
X013302Y020380D01*
X013348Y020362D01*
X013393Y020340D01*
X013436Y020314D01*
X013477Y020285D01*
X013516Y020253D01*
X013552Y020218D01*
X013584Y020180D01*
X013614Y020140D01*
X013641Y020097D01*
X013664Y020053D01*
X013683Y020007D01*
X013699Y019959D01*
X013711Y019910D01*
X013719Y019861D01*
X013723Y019811D01*
X013723Y019761D01*
X013719Y019711D01*
X013711Y019662D01*
X013699Y019613D01*
X013683Y019565D01*
X013664Y019519D01*
X013641Y019475D01*
X013614Y019432D01*
X013584Y019392D01*
X013552Y019354D01*
X013516Y019319D01*
X013477Y019287D01*
X013436Y019258D01*
X013393Y019232D01*
X013348Y019210D01*
X013302Y019192D01*
X013254Y019177D01*
X013205Y019166D01*
X013156Y019159D01*
X013106Y019156D01*
X013055Y019157D01*
X013006Y019162D01*
X012956Y019171D01*
X012908Y019184D01*
X012861Y019200D01*
X012815Y019221D01*
X012771Y019245D01*
X012729Y019272D01*
X012689Y019302D01*
X012652Y019336D01*
X012618Y019373D01*
X012586Y019412D01*
X012558Y019453D01*
X012533Y019497D01*
X012512Y019542D01*
X012495Y019589D01*
X012481Y019637D01*
X012471Y019686D01*
X012465Y019736D01*
X012463Y019786D01*
X024274Y019786D02*
X024276Y019836D01*
X024282Y019886D01*
X024292Y019935D01*
X024306Y019983D01*
X024323Y020030D01*
X024344Y020075D01*
X024369Y020119D01*
X024397Y020160D01*
X024429Y020199D01*
X024463Y020236D01*
X024500Y020270D01*
X024540Y020300D01*
X024582Y020327D01*
X024626Y020351D01*
X024672Y020372D01*
X024719Y020388D01*
X024767Y020401D01*
X024817Y020410D01*
X024866Y020415D01*
X024917Y020416D01*
X024967Y020413D01*
X025016Y020406D01*
X025065Y020395D01*
X025113Y020380D01*
X025159Y020362D01*
X025204Y020340D01*
X025247Y020314D01*
X025288Y020285D01*
X025327Y020253D01*
X025363Y020218D01*
X025395Y020180D01*
X025425Y020140D01*
X025452Y020097D01*
X025475Y020053D01*
X025494Y020007D01*
X025510Y019959D01*
X025522Y019910D01*
X025530Y019861D01*
X025534Y019811D01*
X025534Y019761D01*
X025530Y019711D01*
X025522Y019662D01*
X025510Y019613D01*
X025494Y019565D01*
X025475Y019519D01*
X025452Y019475D01*
X025425Y019432D01*
X025395Y019392D01*
X025363Y019354D01*
X025327Y019319D01*
X025288Y019287D01*
X025247Y019258D01*
X025204Y019232D01*
X025159Y019210D01*
X025113Y019192D01*
X025065Y019177D01*
X025016Y019166D01*
X024967Y019159D01*
X024917Y019156D01*
X024866Y019157D01*
X024817Y019162D01*
X024767Y019171D01*
X024719Y019184D01*
X024672Y019200D01*
X024626Y019221D01*
X024582Y019245D01*
X024540Y019272D01*
X024500Y019302D01*
X024463Y019336D01*
X024429Y019373D01*
X024397Y019412D01*
X024369Y019453D01*
X024344Y019497D01*
X024323Y019542D01*
X024306Y019589D01*
X024292Y019637D01*
X024282Y019686D01*
X024276Y019736D01*
X024274Y019786D01*
X033329Y019392D02*
X033331Y019442D01*
X033337Y019492D01*
X033347Y019541D01*
X033361Y019589D01*
X033378Y019636D01*
X033399Y019681D01*
X033424Y019725D01*
X033452Y019766D01*
X033484Y019805D01*
X033518Y019842D01*
X033555Y019876D01*
X033595Y019906D01*
X033637Y019933D01*
X033681Y019957D01*
X033727Y019978D01*
X033774Y019994D01*
X033822Y020007D01*
X033872Y020016D01*
X033921Y020021D01*
X033972Y020022D01*
X034022Y020019D01*
X034071Y020012D01*
X034120Y020001D01*
X034168Y019986D01*
X034214Y019968D01*
X034259Y019946D01*
X034302Y019920D01*
X034343Y019891D01*
X034382Y019859D01*
X034418Y019824D01*
X034450Y019786D01*
X034480Y019746D01*
X034507Y019703D01*
X034530Y019659D01*
X034549Y019613D01*
X034565Y019565D01*
X034577Y019516D01*
X034585Y019467D01*
X034589Y019417D01*
X034589Y019367D01*
X034585Y019317D01*
X034577Y019268D01*
X034565Y019219D01*
X034549Y019171D01*
X034530Y019125D01*
X034507Y019081D01*
X034480Y019038D01*
X034450Y018998D01*
X034418Y018960D01*
X034382Y018925D01*
X034343Y018893D01*
X034302Y018864D01*
X034259Y018838D01*
X034214Y018816D01*
X034168Y018798D01*
X034120Y018783D01*
X034071Y018772D01*
X034022Y018765D01*
X033972Y018762D01*
X033921Y018763D01*
X033872Y018768D01*
X033822Y018777D01*
X033774Y018790D01*
X033727Y018806D01*
X033681Y018827D01*
X033637Y018851D01*
X033595Y018878D01*
X033555Y018908D01*
X033518Y018942D01*
X033484Y018979D01*
X033452Y019018D01*
X033424Y019059D01*
X033399Y019103D01*
X033378Y019148D01*
X033361Y019195D01*
X033347Y019243D01*
X033337Y019292D01*
X033331Y019342D01*
X033329Y019392D01*
X038053Y015061D02*
X038055Y015111D01*
X038061Y015161D01*
X038071Y015210D01*
X038085Y015258D01*
X038102Y015305D01*
X038123Y015350D01*
X038148Y015394D01*
X038176Y015435D01*
X038208Y015474D01*
X038242Y015511D01*
X038279Y015545D01*
X038319Y015575D01*
X038361Y015602D01*
X038405Y015626D01*
X038451Y015647D01*
X038498Y015663D01*
X038546Y015676D01*
X038596Y015685D01*
X038645Y015690D01*
X038696Y015691D01*
X038746Y015688D01*
X038795Y015681D01*
X038844Y015670D01*
X038892Y015655D01*
X038938Y015637D01*
X038983Y015615D01*
X039026Y015589D01*
X039067Y015560D01*
X039106Y015528D01*
X039142Y015493D01*
X039174Y015455D01*
X039204Y015415D01*
X039231Y015372D01*
X039254Y015328D01*
X039273Y015282D01*
X039289Y015234D01*
X039301Y015185D01*
X039309Y015136D01*
X039313Y015086D01*
X039313Y015036D01*
X039309Y014986D01*
X039301Y014937D01*
X039289Y014888D01*
X039273Y014840D01*
X039254Y014794D01*
X039231Y014750D01*
X039204Y014707D01*
X039174Y014667D01*
X039142Y014629D01*
X039106Y014594D01*
X039067Y014562D01*
X039026Y014533D01*
X038983Y014507D01*
X038938Y014485D01*
X038892Y014467D01*
X038844Y014452D01*
X038795Y014441D01*
X038746Y014434D01*
X038696Y014431D01*
X038645Y014432D01*
X038596Y014437D01*
X038546Y014446D01*
X038498Y014459D01*
X038451Y014475D01*
X038405Y014496D01*
X038361Y014520D01*
X038319Y014547D01*
X038279Y014577D01*
X038242Y014611D01*
X038208Y014648D01*
X038176Y014687D01*
X038148Y014728D01*
X038123Y014772D01*
X038102Y014817D01*
X038085Y014864D01*
X038071Y014912D01*
X038061Y014961D01*
X038055Y015011D01*
X038053Y015061D01*
X038053Y002463D02*
X038055Y002513D01*
X038061Y002563D01*
X038071Y002612D01*
X038085Y002660D01*
X038102Y002707D01*
X038123Y002752D01*
X038148Y002796D01*
X038176Y002837D01*
X038208Y002876D01*
X038242Y002913D01*
X038279Y002947D01*
X038319Y002977D01*
X038361Y003004D01*
X038405Y003028D01*
X038451Y003049D01*
X038498Y003065D01*
X038546Y003078D01*
X038596Y003087D01*
X038645Y003092D01*
X038696Y003093D01*
X038746Y003090D01*
X038795Y003083D01*
X038844Y003072D01*
X038892Y003057D01*
X038938Y003039D01*
X038983Y003017D01*
X039026Y002991D01*
X039067Y002962D01*
X039106Y002930D01*
X039142Y002895D01*
X039174Y002857D01*
X039204Y002817D01*
X039231Y002774D01*
X039254Y002730D01*
X039273Y002684D01*
X039289Y002636D01*
X039301Y002587D01*
X039309Y002538D01*
X039313Y002488D01*
X039313Y002438D01*
X039309Y002388D01*
X039301Y002339D01*
X039289Y002290D01*
X039273Y002242D01*
X039254Y002196D01*
X039231Y002152D01*
X039204Y002109D01*
X039174Y002069D01*
X039142Y002031D01*
X039106Y001996D01*
X039067Y001964D01*
X039026Y001935D01*
X038983Y001909D01*
X038938Y001887D01*
X038892Y001869D01*
X038844Y001854D01*
X038795Y001843D01*
X038746Y001836D01*
X038696Y001833D01*
X038645Y001834D01*
X038596Y001839D01*
X038546Y001848D01*
X038498Y001861D01*
X038451Y001877D01*
X038405Y001898D01*
X038361Y001922D01*
X038319Y001949D01*
X038279Y001979D01*
X038242Y002013D01*
X038208Y002050D01*
X038176Y002089D01*
X038148Y002130D01*
X038123Y002174D01*
X038102Y002219D01*
X038085Y002266D01*
X038071Y002314D01*
X038061Y002363D01*
X038055Y002413D01*
X038053Y002463D01*
X024274Y031991D02*
X024276Y032041D01*
X024282Y032091D01*
X024292Y032140D01*
X024306Y032188D01*
X024323Y032235D01*
X024344Y032280D01*
X024369Y032324D01*
X024397Y032365D01*
X024429Y032404D01*
X024463Y032441D01*
X024500Y032475D01*
X024540Y032505D01*
X024582Y032532D01*
X024626Y032556D01*
X024672Y032577D01*
X024719Y032593D01*
X024767Y032606D01*
X024817Y032615D01*
X024866Y032620D01*
X024917Y032621D01*
X024967Y032618D01*
X025016Y032611D01*
X025065Y032600D01*
X025113Y032585D01*
X025159Y032567D01*
X025204Y032545D01*
X025247Y032519D01*
X025288Y032490D01*
X025327Y032458D01*
X025363Y032423D01*
X025395Y032385D01*
X025425Y032345D01*
X025452Y032302D01*
X025475Y032258D01*
X025494Y032212D01*
X025510Y032164D01*
X025522Y032115D01*
X025530Y032066D01*
X025534Y032016D01*
X025534Y031966D01*
X025530Y031916D01*
X025522Y031867D01*
X025510Y031818D01*
X025494Y031770D01*
X025475Y031724D01*
X025452Y031680D01*
X025425Y031637D01*
X025395Y031597D01*
X025363Y031559D01*
X025327Y031524D01*
X025288Y031492D01*
X025247Y031463D01*
X025204Y031437D01*
X025159Y031415D01*
X025113Y031397D01*
X025065Y031382D01*
X025016Y031371D01*
X024967Y031364D01*
X024917Y031361D01*
X024866Y031362D01*
X024817Y031367D01*
X024767Y031376D01*
X024719Y031389D01*
X024672Y031405D01*
X024626Y031426D01*
X024582Y031450D01*
X024540Y031477D01*
X024500Y031507D01*
X024463Y031541D01*
X024429Y031578D01*
X024397Y031617D01*
X024369Y031658D01*
X024344Y031702D01*
X024323Y031747D01*
X024306Y031794D01*
X024292Y031842D01*
X024282Y031891D01*
X024276Y031941D01*
X024274Y031991D01*
X038053Y038683D02*
X038055Y038733D01*
X038061Y038783D01*
X038071Y038832D01*
X038085Y038880D01*
X038102Y038927D01*
X038123Y038972D01*
X038148Y039016D01*
X038176Y039057D01*
X038208Y039096D01*
X038242Y039133D01*
X038279Y039167D01*
X038319Y039197D01*
X038361Y039224D01*
X038405Y039248D01*
X038451Y039269D01*
X038498Y039285D01*
X038546Y039298D01*
X038596Y039307D01*
X038645Y039312D01*
X038696Y039313D01*
X038746Y039310D01*
X038795Y039303D01*
X038844Y039292D01*
X038892Y039277D01*
X038938Y039259D01*
X038983Y039237D01*
X039026Y039211D01*
X039067Y039182D01*
X039106Y039150D01*
X039142Y039115D01*
X039174Y039077D01*
X039204Y039037D01*
X039231Y038994D01*
X039254Y038950D01*
X039273Y038904D01*
X039289Y038856D01*
X039301Y038807D01*
X039309Y038758D01*
X039313Y038708D01*
X039313Y038658D01*
X039309Y038608D01*
X039301Y038559D01*
X039289Y038510D01*
X039273Y038462D01*
X039254Y038416D01*
X039231Y038372D01*
X039204Y038329D01*
X039174Y038289D01*
X039142Y038251D01*
X039106Y038216D01*
X039067Y038184D01*
X039026Y038155D01*
X038983Y038129D01*
X038938Y038107D01*
X038892Y038089D01*
X038844Y038074D01*
X038795Y038063D01*
X038746Y038056D01*
X038696Y038053D01*
X038645Y038054D01*
X038596Y038059D01*
X038546Y038068D01*
X038498Y038081D01*
X038451Y038097D01*
X038405Y038118D01*
X038361Y038142D01*
X038319Y038169D01*
X038279Y038199D01*
X038242Y038233D01*
X038208Y038270D01*
X038176Y038309D01*
X038148Y038350D01*
X038123Y038394D01*
X038102Y038439D01*
X038085Y038486D01*
X038071Y038534D01*
X038061Y038583D01*
X038055Y038633D01*
X038053Y038683D01*
M02*
