G75*
G70*
%OFA0B0*%
%FSLAX24Y24*%
%IPPOS*%
%LPD*%
%AMOC8*
5,1,8,0,0,1.08239X$1,22.5*
%
%ADD10C,0.0000*%
%ADD11C,0.0030*%
%ADD12C,0.0060*%
%ADD13C,0.0050*%
%ADD14C,0.0200*%
%ADD15R,0.4200X0.0250*%
%ADD16R,0.0750X0.0250*%
%ADD17R,0.0300X0.0250*%
%ADD18R,0.0200X0.1200*%
%ADD19R,0.1200X0.0200*%
%ADD20C,0.0160*%
%ADD21C,0.0059*%
%ADD22C,0.0040*%
%ADD23C,0.0100*%
%ADD24C,0.0020*%
%ADD25C,0.0080*%
%ADD26R,0.0500X0.0750*%
%ADD27R,0.0300X0.0700*%
%ADD28R,0.0500X0.0300*%
%ADD29R,0.0300X0.1500*%
%ADD30C,0.0070*%
D10*
X000101Y000101D02*
X000101Y039471D01*
X039471Y039471D01*
X039471Y000101D01*
X000101Y000101D01*
X000258Y002463D02*
X000260Y002513D01*
X000266Y002563D01*
X000276Y002612D01*
X000290Y002660D01*
X000307Y002707D01*
X000328Y002752D01*
X000353Y002796D01*
X000381Y002837D01*
X000413Y002876D01*
X000447Y002913D01*
X000484Y002947D01*
X000524Y002977D01*
X000566Y003004D01*
X000610Y003028D01*
X000656Y003049D01*
X000703Y003065D01*
X000751Y003078D01*
X000801Y003087D01*
X000850Y003092D01*
X000901Y003093D01*
X000951Y003090D01*
X001000Y003083D01*
X001049Y003072D01*
X001097Y003057D01*
X001143Y003039D01*
X001188Y003017D01*
X001231Y002991D01*
X001272Y002962D01*
X001311Y002930D01*
X001347Y002895D01*
X001379Y002857D01*
X001409Y002817D01*
X001436Y002774D01*
X001459Y002730D01*
X001478Y002684D01*
X001494Y002636D01*
X001506Y002587D01*
X001514Y002538D01*
X001518Y002488D01*
X001518Y002438D01*
X001514Y002388D01*
X001506Y002339D01*
X001494Y002290D01*
X001478Y002242D01*
X001459Y002196D01*
X001436Y002152D01*
X001409Y002109D01*
X001379Y002069D01*
X001347Y002031D01*
X001311Y001996D01*
X001272Y001964D01*
X001231Y001935D01*
X001188Y001909D01*
X001143Y001887D01*
X001097Y001869D01*
X001049Y001854D01*
X001000Y001843D01*
X000951Y001836D01*
X000901Y001833D01*
X000850Y001834D01*
X000801Y001839D01*
X000751Y001848D01*
X000703Y001861D01*
X000656Y001877D01*
X000610Y001898D01*
X000566Y001922D01*
X000524Y001949D01*
X000484Y001979D01*
X000447Y002013D01*
X000413Y002050D01*
X000381Y002089D01*
X000353Y002130D01*
X000328Y002174D01*
X000307Y002219D01*
X000290Y002266D01*
X000276Y002314D01*
X000266Y002363D01*
X000260Y002413D01*
X000258Y002463D01*
X000258Y015061D02*
X000260Y015111D01*
X000266Y015161D01*
X000276Y015210D01*
X000290Y015258D01*
X000307Y015305D01*
X000328Y015350D01*
X000353Y015394D01*
X000381Y015435D01*
X000413Y015474D01*
X000447Y015511D01*
X000484Y015545D01*
X000524Y015575D01*
X000566Y015602D01*
X000610Y015626D01*
X000656Y015647D01*
X000703Y015663D01*
X000751Y015676D01*
X000801Y015685D01*
X000850Y015690D01*
X000901Y015691D01*
X000951Y015688D01*
X001000Y015681D01*
X001049Y015670D01*
X001097Y015655D01*
X001143Y015637D01*
X001188Y015615D01*
X001231Y015589D01*
X001272Y015560D01*
X001311Y015528D01*
X001347Y015493D01*
X001379Y015455D01*
X001409Y015415D01*
X001436Y015372D01*
X001459Y015328D01*
X001478Y015282D01*
X001494Y015234D01*
X001506Y015185D01*
X001514Y015136D01*
X001518Y015086D01*
X001518Y015036D01*
X001514Y014986D01*
X001506Y014937D01*
X001494Y014888D01*
X001478Y014840D01*
X001459Y014794D01*
X001436Y014750D01*
X001409Y014707D01*
X001379Y014667D01*
X001347Y014629D01*
X001311Y014594D01*
X001272Y014562D01*
X001231Y014533D01*
X001188Y014507D01*
X001143Y014485D01*
X001097Y014467D01*
X001049Y014452D01*
X001000Y014441D01*
X000951Y014434D01*
X000901Y014431D01*
X000850Y014432D01*
X000801Y014437D01*
X000751Y014446D01*
X000703Y014459D01*
X000656Y014475D01*
X000610Y014496D01*
X000566Y014520D01*
X000524Y014547D01*
X000484Y014577D01*
X000447Y014611D01*
X000413Y014648D01*
X000381Y014687D01*
X000353Y014728D01*
X000328Y014772D01*
X000307Y014817D01*
X000290Y014864D01*
X000276Y014912D01*
X000266Y014961D01*
X000260Y015011D01*
X000258Y015061D01*
X001046Y019786D02*
X001048Y019836D01*
X001054Y019886D01*
X001064Y019935D01*
X001078Y019983D01*
X001095Y020030D01*
X001116Y020075D01*
X001141Y020119D01*
X001169Y020160D01*
X001201Y020199D01*
X001235Y020236D01*
X001272Y020270D01*
X001312Y020300D01*
X001354Y020327D01*
X001398Y020351D01*
X001444Y020372D01*
X001491Y020388D01*
X001539Y020401D01*
X001589Y020410D01*
X001638Y020415D01*
X001689Y020416D01*
X001739Y020413D01*
X001788Y020406D01*
X001837Y020395D01*
X001885Y020380D01*
X001931Y020362D01*
X001976Y020340D01*
X002019Y020314D01*
X002060Y020285D01*
X002099Y020253D01*
X002135Y020218D01*
X002167Y020180D01*
X002197Y020140D01*
X002224Y020097D01*
X002247Y020053D01*
X002266Y020007D01*
X002282Y019959D01*
X002294Y019910D01*
X002302Y019861D01*
X002306Y019811D01*
X002306Y019761D01*
X002302Y019711D01*
X002294Y019662D01*
X002282Y019613D01*
X002266Y019565D01*
X002247Y019519D01*
X002224Y019475D01*
X002197Y019432D01*
X002167Y019392D01*
X002135Y019354D01*
X002099Y019319D01*
X002060Y019287D01*
X002019Y019258D01*
X001976Y019232D01*
X001931Y019210D01*
X001885Y019192D01*
X001837Y019177D01*
X001788Y019166D01*
X001739Y019159D01*
X001689Y019156D01*
X001638Y019157D01*
X001589Y019162D01*
X001539Y019171D01*
X001491Y019184D01*
X001444Y019200D01*
X001398Y019221D01*
X001354Y019245D01*
X001312Y019272D01*
X001272Y019302D01*
X001235Y019336D01*
X001201Y019373D01*
X001169Y019412D01*
X001141Y019453D01*
X001116Y019497D01*
X001095Y019542D01*
X001078Y019589D01*
X001064Y019637D01*
X001054Y019686D01*
X001048Y019736D01*
X001046Y019786D01*
X001439Y022542D02*
X001441Y022592D01*
X001447Y022642D01*
X001457Y022691D01*
X001471Y022739D01*
X001488Y022786D01*
X001509Y022831D01*
X001534Y022875D01*
X001562Y022916D01*
X001594Y022955D01*
X001628Y022992D01*
X001665Y023026D01*
X001705Y023056D01*
X001747Y023083D01*
X001791Y023107D01*
X001837Y023128D01*
X001884Y023144D01*
X001932Y023157D01*
X001982Y023166D01*
X002031Y023171D01*
X002082Y023172D01*
X002132Y023169D01*
X002181Y023162D01*
X002230Y023151D01*
X002278Y023136D01*
X002324Y023118D01*
X002369Y023096D01*
X002412Y023070D01*
X002453Y023041D01*
X002492Y023009D01*
X002528Y022974D01*
X002560Y022936D01*
X002590Y022896D01*
X002617Y022853D01*
X002640Y022809D01*
X002659Y022763D01*
X002675Y022715D01*
X002687Y022666D01*
X002695Y022617D01*
X002699Y022567D01*
X002699Y022517D01*
X002695Y022467D01*
X002687Y022418D01*
X002675Y022369D01*
X002659Y022321D01*
X002640Y022275D01*
X002617Y022231D01*
X002590Y022188D01*
X002560Y022148D01*
X002528Y022110D01*
X002492Y022075D01*
X002453Y022043D01*
X002412Y022014D01*
X002369Y021988D01*
X002324Y021966D01*
X002278Y021948D01*
X002230Y021933D01*
X002181Y021922D01*
X002132Y021915D01*
X002082Y021912D01*
X002031Y021913D01*
X001982Y021918D01*
X001932Y021927D01*
X001884Y021940D01*
X001837Y021956D01*
X001791Y021977D01*
X001747Y022001D01*
X001705Y022028D01*
X001665Y022058D01*
X001628Y022092D01*
X001594Y022129D01*
X001562Y022168D01*
X001534Y022209D01*
X001509Y022253D01*
X001488Y022298D01*
X001471Y022345D01*
X001457Y022393D01*
X001447Y022442D01*
X001441Y022492D01*
X001439Y022542D01*
X001046Y031991D02*
X001048Y032041D01*
X001054Y032091D01*
X001064Y032140D01*
X001078Y032188D01*
X001095Y032235D01*
X001116Y032280D01*
X001141Y032324D01*
X001169Y032365D01*
X001201Y032404D01*
X001235Y032441D01*
X001272Y032475D01*
X001312Y032505D01*
X001354Y032532D01*
X001398Y032556D01*
X001444Y032577D01*
X001491Y032593D01*
X001539Y032606D01*
X001589Y032615D01*
X001638Y032620D01*
X001689Y032621D01*
X001739Y032618D01*
X001788Y032611D01*
X001837Y032600D01*
X001885Y032585D01*
X001931Y032567D01*
X001976Y032545D01*
X002019Y032519D01*
X002060Y032490D01*
X002099Y032458D01*
X002135Y032423D01*
X002167Y032385D01*
X002197Y032345D01*
X002224Y032302D01*
X002247Y032258D01*
X002266Y032212D01*
X002282Y032164D01*
X002294Y032115D01*
X002302Y032066D01*
X002306Y032016D01*
X002306Y031966D01*
X002302Y031916D01*
X002294Y031867D01*
X002282Y031818D01*
X002266Y031770D01*
X002247Y031724D01*
X002224Y031680D01*
X002197Y031637D01*
X002167Y031597D01*
X002135Y031559D01*
X002099Y031524D01*
X002060Y031492D01*
X002019Y031463D01*
X001976Y031437D01*
X001931Y031415D01*
X001885Y031397D01*
X001837Y031382D01*
X001788Y031371D01*
X001739Y031364D01*
X001689Y031361D01*
X001638Y031362D01*
X001589Y031367D01*
X001539Y031376D01*
X001491Y031389D01*
X001444Y031405D01*
X001398Y031426D01*
X001354Y031450D01*
X001312Y031477D01*
X001272Y031507D01*
X001235Y031541D01*
X001201Y031578D01*
X001169Y031617D01*
X001141Y031658D01*
X001116Y031702D01*
X001095Y031747D01*
X001078Y031794D01*
X001064Y031842D01*
X001054Y031891D01*
X001048Y031941D01*
X001046Y031991D01*
X000258Y038683D02*
X000260Y038733D01*
X000266Y038783D01*
X000276Y038832D01*
X000290Y038880D01*
X000307Y038927D01*
X000328Y038972D01*
X000353Y039016D01*
X000381Y039057D01*
X000413Y039096D01*
X000447Y039133D01*
X000484Y039167D01*
X000524Y039197D01*
X000566Y039224D01*
X000610Y039248D01*
X000656Y039269D01*
X000703Y039285D01*
X000751Y039298D01*
X000801Y039307D01*
X000850Y039312D01*
X000901Y039313D01*
X000951Y039310D01*
X001000Y039303D01*
X001049Y039292D01*
X001097Y039277D01*
X001143Y039259D01*
X001188Y039237D01*
X001231Y039211D01*
X001272Y039182D01*
X001311Y039150D01*
X001347Y039115D01*
X001379Y039077D01*
X001409Y039037D01*
X001436Y038994D01*
X001459Y038950D01*
X001478Y038904D01*
X001494Y038856D01*
X001506Y038807D01*
X001514Y038758D01*
X001518Y038708D01*
X001518Y038658D01*
X001514Y038608D01*
X001506Y038559D01*
X001494Y038510D01*
X001478Y038462D01*
X001459Y038416D01*
X001436Y038372D01*
X001409Y038329D01*
X001379Y038289D01*
X001347Y038251D01*
X001311Y038216D01*
X001272Y038184D01*
X001231Y038155D01*
X001188Y038129D01*
X001143Y038107D01*
X001097Y038089D01*
X001049Y038074D01*
X001000Y038063D01*
X000951Y038056D01*
X000901Y038053D01*
X000850Y038054D01*
X000801Y038059D01*
X000751Y038068D01*
X000703Y038081D01*
X000656Y038097D01*
X000610Y038118D01*
X000566Y038142D01*
X000524Y038169D01*
X000484Y038199D01*
X000447Y038233D01*
X000413Y038270D01*
X000381Y038309D01*
X000353Y038350D01*
X000328Y038394D01*
X000307Y038439D01*
X000290Y038486D01*
X000276Y038534D01*
X000266Y038583D01*
X000260Y038633D01*
X000258Y038683D01*
X012463Y019786D02*
X012465Y019836D01*
X012471Y019886D01*
X012481Y019935D01*
X012495Y019983D01*
X012512Y020030D01*
X012533Y020075D01*
X012558Y020119D01*
X012586Y020160D01*
X012618Y020199D01*
X012652Y020236D01*
X012689Y020270D01*
X012729Y020300D01*
X012771Y020327D01*
X012815Y020351D01*
X012861Y020372D01*
X012908Y020388D01*
X012956Y020401D01*
X013006Y020410D01*
X013055Y020415D01*
X013106Y020416D01*
X013156Y020413D01*
X013205Y020406D01*
X013254Y020395D01*
X013302Y020380D01*
X013348Y020362D01*
X013393Y020340D01*
X013436Y020314D01*
X013477Y020285D01*
X013516Y020253D01*
X013552Y020218D01*
X013584Y020180D01*
X013614Y020140D01*
X013641Y020097D01*
X013664Y020053D01*
X013683Y020007D01*
X013699Y019959D01*
X013711Y019910D01*
X013719Y019861D01*
X013723Y019811D01*
X013723Y019761D01*
X013719Y019711D01*
X013711Y019662D01*
X013699Y019613D01*
X013683Y019565D01*
X013664Y019519D01*
X013641Y019475D01*
X013614Y019432D01*
X013584Y019392D01*
X013552Y019354D01*
X013516Y019319D01*
X013477Y019287D01*
X013436Y019258D01*
X013393Y019232D01*
X013348Y019210D01*
X013302Y019192D01*
X013254Y019177D01*
X013205Y019166D01*
X013156Y019159D01*
X013106Y019156D01*
X013055Y019157D01*
X013006Y019162D01*
X012956Y019171D01*
X012908Y019184D01*
X012861Y019200D01*
X012815Y019221D01*
X012771Y019245D01*
X012729Y019272D01*
X012689Y019302D01*
X012652Y019336D01*
X012618Y019373D01*
X012586Y019412D01*
X012558Y019453D01*
X012533Y019497D01*
X012512Y019542D01*
X012495Y019589D01*
X012481Y019637D01*
X012471Y019686D01*
X012465Y019736D01*
X012463Y019786D01*
X024274Y019786D02*
X024276Y019836D01*
X024282Y019886D01*
X024292Y019935D01*
X024306Y019983D01*
X024323Y020030D01*
X024344Y020075D01*
X024369Y020119D01*
X024397Y020160D01*
X024429Y020199D01*
X024463Y020236D01*
X024500Y020270D01*
X024540Y020300D01*
X024582Y020327D01*
X024626Y020351D01*
X024672Y020372D01*
X024719Y020388D01*
X024767Y020401D01*
X024817Y020410D01*
X024866Y020415D01*
X024917Y020416D01*
X024967Y020413D01*
X025016Y020406D01*
X025065Y020395D01*
X025113Y020380D01*
X025159Y020362D01*
X025204Y020340D01*
X025247Y020314D01*
X025288Y020285D01*
X025327Y020253D01*
X025363Y020218D01*
X025395Y020180D01*
X025425Y020140D01*
X025452Y020097D01*
X025475Y020053D01*
X025494Y020007D01*
X025510Y019959D01*
X025522Y019910D01*
X025530Y019861D01*
X025534Y019811D01*
X025534Y019761D01*
X025530Y019711D01*
X025522Y019662D01*
X025510Y019613D01*
X025494Y019565D01*
X025475Y019519D01*
X025452Y019475D01*
X025425Y019432D01*
X025395Y019392D01*
X025363Y019354D01*
X025327Y019319D01*
X025288Y019287D01*
X025247Y019258D01*
X025204Y019232D01*
X025159Y019210D01*
X025113Y019192D01*
X025065Y019177D01*
X025016Y019166D01*
X024967Y019159D01*
X024917Y019156D01*
X024866Y019157D01*
X024817Y019162D01*
X024767Y019171D01*
X024719Y019184D01*
X024672Y019200D01*
X024626Y019221D01*
X024582Y019245D01*
X024540Y019272D01*
X024500Y019302D01*
X024463Y019336D01*
X024429Y019373D01*
X024397Y019412D01*
X024369Y019453D01*
X024344Y019497D01*
X024323Y019542D01*
X024306Y019589D01*
X024292Y019637D01*
X024282Y019686D01*
X024276Y019736D01*
X024274Y019786D01*
X033329Y019392D02*
X033331Y019442D01*
X033337Y019492D01*
X033347Y019541D01*
X033361Y019589D01*
X033378Y019636D01*
X033399Y019681D01*
X033424Y019725D01*
X033452Y019766D01*
X033484Y019805D01*
X033518Y019842D01*
X033555Y019876D01*
X033595Y019906D01*
X033637Y019933D01*
X033681Y019957D01*
X033727Y019978D01*
X033774Y019994D01*
X033822Y020007D01*
X033872Y020016D01*
X033921Y020021D01*
X033972Y020022D01*
X034022Y020019D01*
X034071Y020012D01*
X034120Y020001D01*
X034168Y019986D01*
X034214Y019968D01*
X034259Y019946D01*
X034302Y019920D01*
X034343Y019891D01*
X034382Y019859D01*
X034418Y019824D01*
X034450Y019786D01*
X034480Y019746D01*
X034507Y019703D01*
X034530Y019659D01*
X034549Y019613D01*
X034565Y019565D01*
X034577Y019516D01*
X034585Y019467D01*
X034589Y019417D01*
X034589Y019367D01*
X034585Y019317D01*
X034577Y019268D01*
X034565Y019219D01*
X034549Y019171D01*
X034530Y019125D01*
X034507Y019081D01*
X034480Y019038D01*
X034450Y018998D01*
X034418Y018960D01*
X034382Y018925D01*
X034343Y018893D01*
X034302Y018864D01*
X034259Y018838D01*
X034214Y018816D01*
X034168Y018798D01*
X034120Y018783D01*
X034071Y018772D01*
X034022Y018765D01*
X033972Y018762D01*
X033921Y018763D01*
X033872Y018768D01*
X033822Y018777D01*
X033774Y018790D01*
X033727Y018806D01*
X033681Y018827D01*
X033637Y018851D01*
X033595Y018878D01*
X033555Y018908D01*
X033518Y018942D01*
X033484Y018979D01*
X033452Y019018D01*
X033424Y019059D01*
X033399Y019103D01*
X033378Y019148D01*
X033361Y019195D01*
X033347Y019243D01*
X033337Y019292D01*
X033331Y019342D01*
X033329Y019392D01*
X038053Y015061D02*
X038055Y015111D01*
X038061Y015161D01*
X038071Y015210D01*
X038085Y015258D01*
X038102Y015305D01*
X038123Y015350D01*
X038148Y015394D01*
X038176Y015435D01*
X038208Y015474D01*
X038242Y015511D01*
X038279Y015545D01*
X038319Y015575D01*
X038361Y015602D01*
X038405Y015626D01*
X038451Y015647D01*
X038498Y015663D01*
X038546Y015676D01*
X038596Y015685D01*
X038645Y015690D01*
X038696Y015691D01*
X038746Y015688D01*
X038795Y015681D01*
X038844Y015670D01*
X038892Y015655D01*
X038938Y015637D01*
X038983Y015615D01*
X039026Y015589D01*
X039067Y015560D01*
X039106Y015528D01*
X039142Y015493D01*
X039174Y015455D01*
X039204Y015415D01*
X039231Y015372D01*
X039254Y015328D01*
X039273Y015282D01*
X039289Y015234D01*
X039301Y015185D01*
X039309Y015136D01*
X039313Y015086D01*
X039313Y015036D01*
X039309Y014986D01*
X039301Y014937D01*
X039289Y014888D01*
X039273Y014840D01*
X039254Y014794D01*
X039231Y014750D01*
X039204Y014707D01*
X039174Y014667D01*
X039142Y014629D01*
X039106Y014594D01*
X039067Y014562D01*
X039026Y014533D01*
X038983Y014507D01*
X038938Y014485D01*
X038892Y014467D01*
X038844Y014452D01*
X038795Y014441D01*
X038746Y014434D01*
X038696Y014431D01*
X038645Y014432D01*
X038596Y014437D01*
X038546Y014446D01*
X038498Y014459D01*
X038451Y014475D01*
X038405Y014496D01*
X038361Y014520D01*
X038319Y014547D01*
X038279Y014577D01*
X038242Y014611D01*
X038208Y014648D01*
X038176Y014687D01*
X038148Y014728D01*
X038123Y014772D01*
X038102Y014817D01*
X038085Y014864D01*
X038071Y014912D01*
X038061Y014961D01*
X038055Y015011D01*
X038053Y015061D01*
X038053Y002463D02*
X038055Y002513D01*
X038061Y002563D01*
X038071Y002612D01*
X038085Y002660D01*
X038102Y002707D01*
X038123Y002752D01*
X038148Y002796D01*
X038176Y002837D01*
X038208Y002876D01*
X038242Y002913D01*
X038279Y002947D01*
X038319Y002977D01*
X038361Y003004D01*
X038405Y003028D01*
X038451Y003049D01*
X038498Y003065D01*
X038546Y003078D01*
X038596Y003087D01*
X038645Y003092D01*
X038696Y003093D01*
X038746Y003090D01*
X038795Y003083D01*
X038844Y003072D01*
X038892Y003057D01*
X038938Y003039D01*
X038983Y003017D01*
X039026Y002991D01*
X039067Y002962D01*
X039106Y002930D01*
X039142Y002895D01*
X039174Y002857D01*
X039204Y002817D01*
X039231Y002774D01*
X039254Y002730D01*
X039273Y002684D01*
X039289Y002636D01*
X039301Y002587D01*
X039309Y002538D01*
X039313Y002488D01*
X039313Y002438D01*
X039309Y002388D01*
X039301Y002339D01*
X039289Y002290D01*
X039273Y002242D01*
X039254Y002196D01*
X039231Y002152D01*
X039204Y002109D01*
X039174Y002069D01*
X039142Y002031D01*
X039106Y001996D01*
X039067Y001964D01*
X039026Y001935D01*
X038983Y001909D01*
X038938Y001887D01*
X038892Y001869D01*
X038844Y001854D01*
X038795Y001843D01*
X038746Y001836D01*
X038696Y001833D01*
X038645Y001834D01*
X038596Y001839D01*
X038546Y001848D01*
X038498Y001861D01*
X038451Y001877D01*
X038405Y001898D01*
X038361Y001922D01*
X038319Y001949D01*
X038279Y001979D01*
X038242Y002013D01*
X038208Y002050D01*
X038176Y002089D01*
X038148Y002130D01*
X038123Y002174D01*
X038102Y002219D01*
X038085Y002266D01*
X038071Y002314D01*
X038061Y002363D01*
X038055Y002413D01*
X038053Y002463D01*
X024274Y031991D02*
X024276Y032041D01*
X024282Y032091D01*
X024292Y032140D01*
X024306Y032188D01*
X024323Y032235D01*
X024344Y032280D01*
X024369Y032324D01*
X024397Y032365D01*
X024429Y032404D01*
X024463Y032441D01*
X024500Y032475D01*
X024540Y032505D01*
X024582Y032532D01*
X024626Y032556D01*
X024672Y032577D01*
X024719Y032593D01*
X024767Y032606D01*
X024817Y032615D01*
X024866Y032620D01*
X024917Y032621D01*
X024967Y032618D01*
X025016Y032611D01*
X025065Y032600D01*
X025113Y032585D01*
X025159Y032567D01*
X025204Y032545D01*
X025247Y032519D01*
X025288Y032490D01*
X025327Y032458D01*
X025363Y032423D01*
X025395Y032385D01*
X025425Y032345D01*
X025452Y032302D01*
X025475Y032258D01*
X025494Y032212D01*
X025510Y032164D01*
X025522Y032115D01*
X025530Y032066D01*
X025534Y032016D01*
X025534Y031966D01*
X025530Y031916D01*
X025522Y031867D01*
X025510Y031818D01*
X025494Y031770D01*
X025475Y031724D01*
X025452Y031680D01*
X025425Y031637D01*
X025395Y031597D01*
X025363Y031559D01*
X025327Y031524D01*
X025288Y031492D01*
X025247Y031463D01*
X025204Y031437D01*
X025159Y031415D01*
X025113Y031397D01*
X025065Y031382D01*
X025016Y031371D01*
X024967Y031364D01*
X024917Y031361D01*
X024866Y031362D01*
X024817Y031367D01*
X024767Y031376D01*
X024719Y031389D01*
X024672Y031405D01*
X024626Y031426D01*
X024582Y031450D01*
X024540Y031477D01*
X024500Y031507D01*
X024463Y031541D01*
X024429Y031578D01*
X024397Y031617D01*
X024369Y031658D01*
X024344Y031702D01*
X024323Y031747D01*
X024306Y031794D01*
X024292Y031842D01*
X024282Y031891D01*
X024276Y031941D01*
X024274Y031991D01*
X038053Y038683D02*
X038055Y038733D01*
X038061Y038783D01*
X038071Y038832D01*
X038085Y038880D01*
X038102Y038927D01*
X038123Y038972D01*
X038148Y039016D01*
X038176Y039057D01*
X038208Y039096D01*
X038242Y039133D01*
X038279Y039167D01*
X038319Y039197D01*
X038361Y039224D01*
X038405Y039248D01*
X038451Y039269D01*
X038498Y039285D01*
X038546Y039298D01*
X038596Y039307D01*
X038645Y039312D01*
X038696Y039313D01*
X038746Y039310D01*
X038795Y039303D01*
X038844Y039292D01*
X038892Y039277D01*
X038938Y039259D01*
X038983Y039237D01*
X039026Y039211D01*
X039067Y039182D01*
X039106Y039150D01*
X039142Y039115D01*
X039174Y039077D01*
X039204Y039037D01*
X039231Y038994D01*
X039254Y038950D01*
X039273Y038904D01*
X039289Y038856D01*
X039301Y038807D01*
X039309Y038758D01*
X039313Y038708D01*
X039313Y038658D01*
X039309Y038608D01*
X039301Y038559D01*
X039289Y038510D01*
X039273Y038462D01*
X039254Y038416D01*
X039231Y038372D01*
X039204Y038329D01*
X039174Y038289D01*
X039142Y038251D01*
X039106Y038216D01*
X039067Y038184D01*
X039026Y038155D01*
X038983Y038129D01*
X038938Y038107D01*
X038892Y038089D01*
X038844Y038074D01*
X038795Y038063D01*
X038746Y038056D01*
X038696Y038053D01*
X038645Y038054D01*
X038596Y038059D01*
X038546Y038068D01*
X038498Y038081D01*
X038451Y038097D01*
X038405Y038118D01*
X038361Y038142D01*
X038319Y038169D01*
X038279Y038199D01*
X038242Y038233D01*
X038208Y038270D01*
X038176Y038309D01*
X038148Y038350D01*
X038123Y038394D01*
X038102Y038439D01*
X038085Y038486D01*
X038071Y038534D01*
X038061Y038583D01*
X038055Y038633D01*
X038053Y038683D01*
D11*
X027394Y027499D02*
X027248Y027499D01*
X027248Y027208D01*
X027394Y027208D01*
X027442Y027257D01*
X027442Y027450D01*
X027394Y027499D01*
X027147Y027499D02*
X027147Y027208D01*
X026954Y027499D01*
X026954Y027208D01*
X026853Y027257D02*
X026853Y027353D01*
X026756Y027353D01*
X026853Y027257D02*
X026804Y027208D01*
X026707Y027208D01*
X026659Y027257D01*
X026659Y027450D01*
X026707Y027499D01*
X026804Y027499D01*
X026853Y027450D01*
X023784Y020485D02*
X023687Y020485D01*
X023639Y020436D01*
X023639Y020243D01*
X023832Y020436D01*
X023832Y020243D01*
X023784Y020195D01*
X023687Y020195D01*
X023639Y020243D01*
X023538Y020243D02*
X023538Y020436D01*
X023489Y020485D01*
X023344Y020485D01*
X023344Y020195D01*
X023489Y020195D01*
X023538Y020243D01*
X023784Y020485D02*
X023832Y020436D01*
X023761Y017156D02*
X023616Y017156D01*
X023616Y016866D01*
X023761Y016866D01*
X023809Y016914D01*
X023809Y017108D01*
X023761Y017156D01*
X023910Y017108D02*
X023959Y017156D01*
X024056Y017156D01*
X024104Y017108D01*
X023910Y016914D01*
X023959Y016866D01*
X024056Y016866D01*
X024104Y016914D01*
X024104Y017108D01*
X023910Y017108D02*
X023910Y016914D01*
X015120Y020388D02*
X015023Y020195D01*
X014927Y020388D01*
X014825Y020388D02*
X014777Y020340D01*
X014825Y020291D01*
X014825Y020243D01*
X014777Y020195D01*
X014680Y020195D01*
X014632Y020243D01*
X014533Y020243D02*
X014533Y020195D01*
X014485Y020195D01*
X014485Y020243D01*
X014533Y020243D01*
X014383Y020243D02*
X014335Y020195D01*
X014238Y020195D01*
X014190Y020243D01*
X014287Y020340D02*
X014335Y020340D01*
X014383Y020291D01*
X014383Y020243D01*
X014335Y020340D02*
X014383Y020388D01*
X014383Y020436D01*
X014335Y020485D01*
X014238Y020485D01*
X014190Y020436D01*
X014089Y020340D02*
X013895Y020340D01*
X013992Y020436D02*
X013992Y020243D01*
X014632Y020436D02*
X014680Y020485D01*
X014777Y020485D01*
X014825Y020436D01*
X014825Y020388D01*
X014777Y020340D02*
X014729Y020340D01*
X014383Y016154D02*
X014432Y016106D01*
X014432Y016057D01*
X014383Y016009D01*
X014432Y015961D01*
X014432Y015912D01*
X014383Y015864D01*
X014287Y015864D01*
X014238Y015912D01*
X014139Y015912D02*
X014139Y015864D01*
X014091Y015864D01*
X014091Y015912D01*
X014139Y015912D01*
X013990Y015912D02*
X013941Y015864D01*
X013845Y015864D01*
X013796Y015912D01*
X013893Y016009D02*
X013941Y016009D01*
X013990Y015961D01*
X013990Y015912D01*
X013941Y016009D02*
X013990Y016057D01*
X013990Y016106D01*
X013941Y016154D01*
X013845Y016154D01*
X013796Y016106D01*
X013695Y016009D02*
X013502Y016009D01*
X013598Y016106D02*
X013598Y015912D01*
X014238Y016106D02*
X014287Y016154D01*
X014383Y016154D01*
X014383Y016009D02*
X014335Y016009D01*
X014533Y016057D02*
X014630Y015864D01*
X014726Y016057D01*
X002014Y010704D02*
X002014Y010607D01*
X002014Y010656D02*
X001724Y010656D01*
X001724Y010607D01*
X001869Y010506D02*
X002014Y010506D01*
X002014Y010361D01*
X001965Y010313D01*
X001917Y010361D01*
X001917Y010506D01*
X001869Y010506D02*
X001820Y010458D01*
X001820Y010361D01*
X001820Y010212D02*
X001820Y010066D01*
X001869Y010018D01*
X001965Y010018D01*
X002014Y010066D01*
X002014Y010212D01*
X001965Y009917D02*
X001917Y009869D01*
X001917Y009772D01*
X001869Y009723D01*
X001820Y009772D01*
X001820Y009917D01*
X001965Y009917D02*
X002014Y009869D01*
X002014Y009723D01*
X002014Y009622D02*
X001869Y009622D01*
X001820Y009574D01*
X001820Y009477D01*
X001917Y009477D02*
X001917Y009622D01*
X002014Y009622D02*
X002014Y009477D01*
X001965Y009429D01*
X001917Y009477D01*
X001869Y009328D02*
X001917Y009279D01*
X001917Y009134D01*
X002014Y009134D02*
X001724Y009134D01*
X001724Y009279D01*
X001772Y009328D01*
X001869Y009328D01*
X001965Y008738D02*
X001724Y008738D01*
X001724Y008545D02*
X001965Y008545D01*
X002014Y008593D01*
X002014Y008690D01*
X001965Y008738D01*
X002014Y008444D02*
X001820Y008444D01*
X001724Y008347D01*
X001820Y008250D01*
X002014Y008250D01*
X002014Y008149D02*
X002014Y007956D01*
X001724Y007956D01*
X001724Y008149D01*
X001869Y008052D02*
X001869Y007956D01*
X001869Y007854D02*
X001917Y007806D01*
X001917Y007661D01*
X001917Y007758D02*
X002014Y007854D01*
X001869Y007854D02*
X001772Y007854D01*
X001724Y007806D01*
X001724Y007661D01*
X002014Y007661D01*
X002014Y007560D02*
X001917Y007463D01*
X001917Y007511D02*
X001917Y007366D01*
X002014Y007366D02*
X001724Y007366D01*
X001724Y007511D01*
X001772Y007560D01*
X001869Y007560D01*
X001917Y007511D01*
X001869Y007265D02*
X001869Y007072D01*
X001820Y007072D02*
X001724Y007168D01*
X001820Y007265D01*
X002014Y007265D01*
X002014Y007072D02*
X001820Y007072D01*
X001820Y006970D02*
X001869Y006922D01*
X001869Y006777D01*
X002014Y006777D02*
X001724Y006777D01*
X001724Y006922D01*
X001772Y006970D01*
X001820Y006970D01*
X001869Y006922D02*
X001917Y006970D01*
X001965Y006970D01*
X002014Y006922D01*
X002014Y006777D01*
X001869Y008250D02*
X001869Y008444D01*
X001899Y037616D02*
X001753Y037616D01*
X001705Y037664D01*
X001753Y037713D01*
X001899Y037713D01*
X001899Y037761D02*
X001899Y037616D01*
X001899Y037761D02*
X001850Y037809D01*
X001753Y037809D01*
X001309Y037761D02*
X001164Y037761D01*
X001116Y037809D01*
X001116Y037858D01*
X001164Y037906D01*
X001261Y037906D01*
X001309Y037858D01*
X001309Y037664D01*
X001261Y037616D01*
X001164Y037616D01*
X001116Y037664D01*
X002294Y037616D02*
X002488Y037616D01*
X002391Y037616D02*
X002391Y037906D01*
X002294Y037809D01*
X002589Y037858D02*
X002637Y037906D01*
X002734Y037906D01*
X002782Y037858D01*
X002782Y037809D01*
X002589Y037616D01*
X002782Y037616D01*
X003178Y037809D02*
X003275Y037616D01*
X003372Y037809D01*
X003768Y037906D02*
X003816Y037954D01*
X003913Y037858D01*
X003961Y037906D01*
X037557Y013066D02*
X037605Y013066D01*
X037702Y013066D02*
X037896Y013066D01*
X037896Y013018D02*
X037896Y013115D01*
X037896Y013215D02*
X037896Y013360D01*
X037847Y013408D01*
X037799Y013360D01*
X037799Y013263D01*
X037751Y013215D01*
X037702Y013263D01*
X037702Y013408D01*
X037751Y013509D02*
X037702Y013558D01*
X037702Y013703D01*
X037799Y013654D02*
X037799Y013558D01*
X037751Y013509D01*
X037896Y013509D02*
X037896Y013654D01*
X037847Y013703D01*
X037799Y013654D01*
X037847Y013804D02*
X037799Y013852D01*
X037799Y013997D01*
X037751Y013997D02*
X037896Y013997D01*
X037896Y013852D01*
X037847Y013804D01*
X037702Y013852D02*
X037702Y013949D01*
X037751Y013997D01*
X037702Y014098D02*
X037702Y014244D01*
X037751Y014292D01*
X037896Y014292D01*
X037847Y014393D02*
X037896Y014441D01*
X037896Y014587D01*
X037847Y014688D02*
X037751Y014688D01*
X037702Y014736D01*
X037702Y014833D01*
X037751Y014881D01*
X037799Y014881D01*
X037799Y014688D01*
X037847Y014688D02*
X037896Y014736D01*
X037896Y014833D01*
X037702Y014587D02*
X037702Y014441D01*
X037751Y014393D01*
X037847Y014393D01*
X037896Y014098D02*
X037702Y014098D01*
X037702Y013066D02*
X037702Y013018D01*
X037702Y012917D02*
X037896Y012917D01*
X037896Y012772D01*
X037847Y012723D01*
X037702Y012723D01*
X037654Y012622D02*
X037751Y012622D01*
X037799Y012574D01*
X037799Y012429D01*
X037896Y012429D02*
X037605Y012429D01*
X037605Y012574D01*
X037654Y012622D01*
X037751Y012033D02*
X037799Y012033D01*
X037799Y011840D01*
X037847Y011840D02*
X037751Y011840D01*
X037702Y011888D01*
X037702Y011985D01*
X037751Y012033D01*
X037896Y011985D02*
X037896Y011888D01*
X037847Y011840D01*
X037896Y011740D02*
X037847Y011691D01*
X037654Y011691D01*
X037702Y011643D02*
X037702Y011740D01*
X037702Y011543D02*
X037702Y011494D01*
X037799Y011398D01*
X037896Y011398D02*
X037702Y011398D01*
X037751Y011296D02*
X037896Y011296D01*
X037896Y011151D01*
X037847Y011103D01*
X037799Y011151D01*
X037799Y011296D01*
X037751Y011296D02*
X037702Y011248D01*
X037702Y011151D01*
X037654Y011002D02*
X037605Y010953D01*
X037605Y010857D01*
X037654Y010808D01*
X037847Y010808D01*
X037896Y010857D01*
X037896Y010953D01*
X037847Y011002D01*
D12*
X036201Y011851D02*
X036201Y015351D01*
X035351Y015351D01*
X035349Y015321D01*
X035344Y015291D01*
X035335Y015262D01*
X035322Y015235D01*
X035307Y015209D01*
X035288Y015185D01*
X035267Y015164D01*
X035243Y015145D01*
X035217Y015130D01*
X035190Y015117D01*
X035161Y015108D01*
X035131Y015103D01*
X035101Y015101D01*
X035071Y015103D01*
X035041Y015108D01*
X035012Y015117D01*
X034985Y015130D01*
X034959Y015145D01*
X034935Y015164D01*
X034914Y015185D01*
X034895Y015209D01*
X034880Y015235D01*
X034867Y015262D01*
X034858Y015291D01*
X034853Y015321D01*
X034851Y015351D01*
X034001Y015351D01*
X034001Y011851D01*
X036201Y011851D01*
X035575Y009969D02*
X035545Y010004D01*
X035514Y010037D01*
X035479Y010067D01*
X035443Y010094D01*
X035405Y010118D01*
X035365Y010140D01*
X035323Y010158D01*
X035280Y010174D01*
X035236Y010186D01*
X035192Y010194D01*
X035146Y010199D01*
X035101Y010201D01*
X035056Y010199D01*
X035010Y010194D01*
X034966Y010186D01*
X034922Y010174D01*
X034879Y010158D01*
X034837Y010140D01*
X034797Y010118D01*
X034759Y010094D01*
X034723Y010067D01*
X034688Y010037D01*
X034657Y010004D01*
X034627Y009969D01*
X035101Y009001D02*
X035147Y009003D01*
X035193Y009008D01*
X035239Y009017D01*
X035284Y009029D01*
X035327Y009045D01*
X035369Y009064D01*
X035410Y009087D01*
X035449Y009112D01*
X035485Y009140D01*
X035520Y009171D01*
X035552Y009205D01*
X035581Y009241D01*
X035101Y009001D02*
X035054Y009003D01*
X035006Y009009D01*
X034960Y009018D01*
X034914Y009031D01*
X034870Y009047D01*
X034826Y009067D01*
X034785Y009091D01*
X034746Y009117D01*
X034709Y009147D01*
X034674Y009180D01*
X034642Y009215D01*
X034613Y009252D01*
X031701Y011851D02*
X031701Y015351D01*
X030851Y015351D01*
X030849Y015321D01*
X030844Y015291D01*
X030835Y015262D01*
X030822Y015235D01*
X030807Y015209D01*
X030788Y015185D01*
X030767Y015164D01*
X030743Y015145D01*
X030717Y015130D01*
X030690Y015117D01*
X030661Y015108D01*
X030631Y015103D01*
X030601Y015101D01*
X030571Y015103D01*
X030541Y015108D01*
X030512Y015117D01*
X030485Y015130D01*
X030459Y015145D01*
X030435Y015164D01*
X030414Y015185D01*
X030395Y015209D01*
X030380Y015235D01*
X030367Y015262D01*
X030358Y015291D01*
X030353Y015321D01*
X030351Y015351D01*
X029501Y015351D01*
X029501Y011851D01*
X031701Y011851D01*
X031075Y009969D02*
X031045Y010004D01*
X031014Y010037D01*
X030979Y010067D01*
X030943Y010094D01*
X030905Y010118D01*
X030865Y010140D01*
X030823Y010158D01*
X030780Y010174D01*
X030736Y010186D01*
X030692Y010194D01*
X030646Y010199D01*
X030601Y010201D01*
X030556Y010199D01*
X030510Y010194D01*
X030466Y010186D01*
X030422Y010174D01*
X030379Y010158D01*
X030337Y010140D01*
X030297Y010118D01*
X030259Y010094D01*
X030223Y010067D01*
X030188Y010037D01*
X030157Y010004D01*
X030127Y009969D01*
X030601Y009001D02*
X030647Y009003D01*
X030693Y009008D01*
X030739Y009017D01*
X030784Y009029D01*
X030827Y009045D01*
X030869Y009064D01*
X030910Y009087D01*
X030949Y009112D01*
X030985Y009140D01*
X031020Y009171D01*
X031052Y009205D01*
X031081Y009241D01*
X030601Y009001D02*
X030554Y009003D01*
X030506Y009009D01*
X030460Y009018D01*
X030414Y009031D01*
X030370Y009047D01*
X030326Y009067D01*
X030285Y009091D01*
X030246Y009117D01*
X030209Y009147D01*
X030174Y009180D01*
X030142Y009215D01*
X030113Y009252D01*
X029101Y006151D02*
X029101Y005001D01*
X029201Y004901D01*
X033001Y004901D01*
X033101Y005001D01*
X033101Y006151D01*
X033601Y006151D02*
X033601Y005001D01*
X033701Y004901D01*
X037501Y004901D01*
X037601Y005001D01*
X037601Y006151D01*
X037534Y004013D02*
X037534Y003313D01*
X037534Y001613D01*
X037534Y001063D01*
X033534Y001063D01*
X033534Y001613D01*
X033534Y003313D01*
X037534Y003313D01*
X037534Y004013D02*
X033534Y004013D01*
X033534Y003663D01*
X033534Y003313D01*
X033334Y003263D01*
X033334Y003713D01*
X033534Y003663D01*
X033597Y003313D02*
X033597Y001613D01*
X033597Y001063D01*
X029597Y001063D01*
X029597Y001613D01*
X029597Y003313D01*
X033597Y003313D01*
X033597Y004013D01*
X029597Y004013D01*
X029597Y003663D01*
X029597Y003313D01*
X029397Y003263D01*
X029397Y003713D01*
X029597Y003663D01*
X029660Y003313D02*
X029660Y001613D01*
X029660Y001063D01*
X025660Y001063D01*
X025660Y001613D01*
X025660Y003313D01*
X029660Y003313D01*
X029660Y004013D01*
X025660Y004013D01*
X025660Y003663D01*
X025660Y003313D01*
X025460Y003263D01*
X025460Y003713D01*
X025660Y003663D01*
X025723Y003313D02*
X025723Y001613D01*
X025723Y001063D01*
X021723Y001063D01*
X021723Y001613D01*
X021723Y003313D01*
X025723Y003313D01*
X025723Y004013D01*
X021723Y004013D01*
X021723Y003663D01*
X021723Y003313D01*
X021523Y003263D01*
X021523Y003713D01*
X021723Y003663D01*
X021786Y003313D02*
X021786Y001613D01*
X021786Y001063D01*
X017786Y001063D01*
X017786Y001613D01*
X017786Y003313D01*
X021786Y003313D01*
X021786Y004013D01*
X017786Y004013D01*
X017786Y003663D01*
X017786Y003313D01*
X017586Y003263D01*
X017586Y003713D01*
X017786Y003663D01*
X017849Y003313D02*
X017849Y001613D01*
X017849Y001063D01*
X013849Y001063D01*
X013849Y001613D01*
X013849Y003313D01*
X017849Y003313D01*
X017849Y004013D01*
X013849Y004013D01*
X013849Y003663D01*
X013849Y003313D01*
X013649Y003263D01*
X013649Y003713D01*
X013849Y003663D01*
X013912Y003313D02*
X013912Y001613D01*
X013912Y001063D01*
X009912Y001063D01*
X009912Y001613D01*
X009912Y003313D01*
X013912Y003313D01*
X013912Y004013D01*
X009912Y004013D01*
X009912Y003663D01*
X009912Y003313D01*
X009712Y003263D01*
X009712Y003713D01*
X009912Y003663D01*
X009975Y003313D02*
X009975Y001613D01*
X009975Y001063D01*
X005975Y001063D01*
X005975Y001613D01*
X005975Y003313D01*
X009975Y003313D01*
X009975Y004013D01*
X005975Y004013D01*
X005975Y003663D01*
X005975Y003313D01*
X005775Y003263D01*
X005775Y003713D01*
X005975Y003663D01*
X006038Y003313D02*
X006038Y001613D01*
X006038Y001063D01*
X002038Y001063D01*
X002038Y001613D01*
X002038Y003313D01*
X006038Y003313D01*
X006038Y004013D01*
X002038Y004013D01*
X002038Y003663D01*
X002038Y003313D01*
X001838Y003263D01*
X001838Y003713D01*
X002038Y003663D01*
X002848Y003663D02*
X002850Y003691D01*
X002856Y003718D01*
X002865Y003744D01*
X002878Y003769D01*
X002895Y003792D01*
X002914Y003812D01*
X002936Y003829D01*
X002960Y003843D01*
X002986Y003853D01*
X003013Y003860D01*
X003041Y003863D01*
X003069Y003862D01*
X003096Y003857D01*
X003123Y003848D01*
X003148Y003836D01*
X003171Y003821D01*
X003192Y003802D01*
X003210Y003781D01*
X003225Y003757D01*
X003236Y003731D01*
X003244Y003705D01*
X003248Y003677D01*
X003248Y003649D01*
X003244Y003621D01*
X003236Y003595D01*
X003225Y003569D01*
X003210Y003545D01*
X003192Y003524D01*
X003171Y003505D01*
X003148Y003490D01*
X003123Y003478D01*
X003096Y003469D01*
X003069Y003464D01*
X003041Y003463D01*
X003013Y003466D01*
X002986Y003473D01*
X002960Y003483D01*
X002936Y003497D01*
X002914Y003514D01*
X002895Y003534D01*
X002878Y003557D01*
X002865Y003582D01*
X002856Y003608D01*
X002850Y003635D01*
X002848Y003663D01*
X002201Y004901D02*
X002101Y005001D01*
X002101Y006151D01*
X002201Y004901D02*
X006001Y004901D01*
X006101Y005001D01*
X006101Y006151D01*
X006601Y006151D02*
X006601Y005001D01*
X006701Y004901D01*
X010501Y004901D01*
X010601Y005001D01*
X010601Y006151D01*
X011101Y006151D02*
X011101Y005001D01*
X011201Y004901D01*
X015001Y004901D01*
X015101Y005001D01*
X015101Y006151D01*
X015601Y006151D02*
X015601Y005001D01*
X015701Y004901D01*
X019501Y004901D01*
X019601Y005001D01*
X019601Y006151D01*
X020101Y006151D02*
X020101Y005001D01*
X020201Y004901D01*
X024001Y004901D01*
X024101Y005001D01*
X024101Y006151D01*
X024601Y006151D02*
X024601Y005001D01*
X024701Y004901D01*
X028501Y004901D01*
X028601Y005001D01*
X028601Y006151D01*
X028450Y003663D02*
X028452Y003691D01*
X028458Y003718D01*
X028467Y003744D01*
X028480Y003769D01*
X028497Y003792D01*
X028516Y003812D01*
X028538Y003829D01*
X028562Y003843D01*
X028588Y003853D01*
X028615Y003860D01*
X028643Y003863D01*
X028671Y003862D01*
X028698Y003857D01*
X028725Y003848D01*
X028750Y003836D01*
X028773Y003821D01*
X028794Y003802D01*
X028812Y003781D01*
X028827Y003757D01*
X028838Y003731D01*
X028846Y003705D01*
X028850Y003677D01*
X028850Y003649D01*
X028846Y003621D01*
X028838Y003595D01*
X028827Y003569D01*
X028812Y003545D01*
X028794Y003524D01*
X028773Y003505D01*
X028750Y003490D01*
X028725Y003478D01*
X028698Y003469D01*
X028671Y003464D01*
X028643Y003463D01*
X028615Y003466D01*
X028588Y003473D01*
X028562Y003483D01*
X028538Y003497D01*
X028516Y003514D01*
X028497Y003534D01*
X028480Y003557D01*
X028467Y003582D01*
X028458Y003608D01*
X028452Y003635D01*
X028450Y003663D01*
X026470Y003663D02*
X026472Y003691D01*
X026478Y003718D01*
X026487Y003744D01*
X026500Y003769D01*
X026517Y003792D01*
X026536Y003812D01*
X026558Y003829D01*
X026582Y003843D01*
X026608Y003853D01*
X026635Y003860D01*
X026663Y003863D01*
X026691Y003862D01*
X026718Y003857D01*
X026745Y003848D01*
X026770Y003836D01*
X026793Y003821D01*
X026814Y003802D01*
X026832Y003781D01*
X026847Y003757D01*
X026858Y003731D01*
X026866Y003705D01*
X026870Y003677D01*
X026870Y003649D01*
X026866Y003621D01*
X026858Y003595D01*
X026847Y003569D01*
X026832Y003545D01*
X026814Y003524D01*
X026793Y003505D01*
X026770Y003490D01*
X026745Y003478D01*
X026718Y003469D01*
X026691Y003464D01*
X026663Y003463D01*
X026635Y003466D01*
X026608Y003473D01*
X026582Y003483D01*
X026558Y003497D01*
X026536Y003514D01*
X026517Y003534D01*
X026500Y003557D01*
X026487Y003582D01*
X026478Y003608D01*
X026472Y003635D01*
X026470Y003663D01*
X024513Y003663D02*
X024515Y003691D01*
X024521Y003718D01*
X024530Y003744D01*
X024543Y003769D01*
X024560Y003792D01*
X024579Y003812D01*
X024601Y003829D01*
X024625Y003843D01*
X024651Y003853D01*
X024678Y003860D01*
X024706Y003863D01*
X024734Y003862D01*
X024761Y003857D01*
X024788Y003848D01*
X024813Y003836D01*
X024836Y003821D01*
X024857Y003802D01*
X024875Y003781D01*
X024890Y003757D01*
X024901Y003731D01*
X024909Y003705D01*
X024913Y003677D01*
X024913Y003649D01*
X024909Y003621D01*
X024901Y003595D01*
X024890Y003569D01*
X024875Y003545D01*
X024857Y003524D01*
X024836Y003505D01*
X024813Y003490D01*
X024788Y003478D01*
X024761Y003469D01*
X024734Y003464D01*
X024706Y003463D01*
X024678Y003466D01*
X024651Y003473D01*
X024625Y003483D01*
X024601Y003497D01*
X024579Y003514D01*
X024560Y003534D01*
X024543Y003557D01*
X024530Y003582D01*
X024521Y003608D01*
X024515Y003635D01*
X024513Y003663D01*
X022533Y003663D02*
X022535Y003691D01*
X022541Y003718D01*
X022550Y003744D01*
X022563Y003769D01*
X022580Y003792D01*
X022599Y003812D01*
X022621Y003829D01*
X022645Y003843D01*
X022671Y003853D01*
X022698Y003860D01*
X022726Y003863D01*
X022754Y003862D01*
X022781Y003857D01*
X022808Y003848D01*
X022833Y003836D01*
X022856Y003821D01*
X022877Y003802D01*
X022895Y003781D01*
X022910Y003757D01*
X022921Y003731D01*
X022929Y003705D01*
X022933Y003677D01*
X022933Y003649D01*
X022929Y003621D01*
X022921Y003595D01*
X022910Y003569D01*
X022895Y003545D01*
X022877Y003524D01*
X022856Y003505D01*
X022833Y003490D01*
X022808Y003478D01*
X022781Y003469D01*
X022754Y003464D01*
X022726Y003463D01*
X022698Y003466D01*
X022671Y003473D01*
X022645Y003483D01*
X022621Y003497D01*
X022599Y003514D01*
X022580Y003534D01*
X022563Y003557D01*
X022550Y003582D01*
X022541Y003608D01*
X022535Y003635D01*
X022533Y003663D01*
X020576Y003663D02*
X020578Y003691D01*
X020584Y003718D01*
X020593Y003744D01*
X020606Y003769D01*
X020623Y003792D01*
X020642Y003812D01*
X020664Y003829D01*
X020688Y003843D01*
X020714Y003853D01*
X020741Y003860D01*
X020769Y003863D01*
X020797Y003862D01*
X020824Y003857D01*
X020851Y003848D01*
X020876Y003836D01*
X020899Y003821D01*
X020920Y003802D01*
X020938Y003781D01*
X020953Y003757D01*
X020964Y003731D01*
X020972Y003705D01*
X020976Y003677D01*
X020976Y003649D01*
X020972Y003621D01*
X020964Y003595D01*
X020953Y003569D01*
X020938Y003545D01*
X020920Y003524D01*
X020899Y003505D01*
X020876Y003490D01*
X020851Y003478D01*
X020824Y003469D01*
X020797Y003464D01*
X020769Y003463D01*
X020741Y003466D01*
X020714Y003473D01*
X020688Y003483D01*
X020664Y003497D01*
X020642Y003514D01*
X020623Y003534D01*
X020606Y003557D01*
X020593Y003582D01*
X020584Y003608D01*
X020578Y003635D01*
X020576Y003663D01*
X018596Y003663D02*
X018598Y003691D01*
X018604Y003718D01*
X018613Y003744D01*
X018626Y003769D01*
X018643Y003792D01*
X018662Y003812D01*
X018684Y003829D01*
X018708Y003843D01*
X018734Y003853D01*
X018761Y003860D01*
X018789Y003863D01*
X018817Y003862D01*
X018844Y003857D01*
X018871Y003848D01*
X018896Y003836D01*
X018919Y003821D01*
X018940Y003802D01*
X018958Y003781D01*
X018973Y003757D01*
X018984Y003731D01*
X018992Y003705D01*
X018996Y003677D01*
X018996Y003649D01*
X018992Y003621D01*
X018984Y003595D01*
X018973Y003569D01*
X018958Y003545D01*
X018940Y003524D01*
X018919Y003505D01*
X018896Y003490D01*
X018871Y003478D01*
X018844Y003469D01*
X018817Y003464D01*
X018789Y003463D01*
X018761Y003466D01*
X018734Y003473D01*
X018708Y003483D01*
X018684Y003497D01*
X018662Y003514D01*
X018643Y003534D01*
X018626Y003557D01*
X018613Y003582D01*
X018604Y003608D01*
X018598Y003635D01*
X018596Y003663D01*
X016639Y003663D02*
X016641Y003691D01*
X016647Y003718D01*
X016656Y003744D01*
X016669Y003769D01*
X016686Y003792D01*
X016705Y003812D01*
X016727Y003829D01*
X016751Y003843D01*
X016777Y003853D01*
X016804Y003860D01*
X016832Y003863D01*
X016860Y003862D01*
X016887Y003857D01*
X016914Y003848D01*
X016939Y003836D01*
X016962Y003821D01*
X016983Y003802D01*
X017001Y003781D01*
X017016Y003757D01*
X017027Y003731D01*
X017035Y003705D01*
X017039Y003677D01*
X017039Y003649D01*
X017035Y003621D01*
X017027Y003595D01*
X017016Y003569D01*
X017001Y003545D01*
X016983Y003524D01*
X016962Y003505D01*
X016939Y003490D01*
X016914Y003478D01*
X016887Y003469D01*
X016860Y003464D01*
X016832Y003463D01*
X016804Y003466D01*
X016777Y003473D01*
X016751Y003483D01*
X016727Y003497D01*
X016705Y003514D01*
X016686Y003534D01*
X016669Y003557D01*
X016656Y003582D01*
X016647Y003608D01*
X016641Y003635D01*
X016639Y003663D01*
X014659Y003663D02*
X014661Y003691D01*
X014667Y003718D01*
X014676Y003744D01*
X014689Y003769D01*
X014706Y003792D01*
X014725Y003812D01*
X014747Y003829D01*
X014771Y003843D01*
X014797Y003853D01*
X014824Y003860D01*
X014852Y003863D01*
X014880Y003862D01*
X014907Y003857D01*
X014934Y003848D01*
X014959Y003836D01*
X014982Y003821D01*
X015003Y003802D01*
X015021Y003781D01*
X015036Y003757D01*
X015047Y003731D01*
X015055Y003705D01*
X015059Y003677D01*
X015059Y003649D01*
X015055Y003621D01*
X015047Y003595D01*
X015036Y003569D01*
X015021Y003545D01*
X015003Y003524D01*
X014982Y003505D01*
X014959Y003490D01*
X014934Y003478D01*
X014907Y003469D01*
X014880Y003464D01*
X014852Y003463D01*
X014824Y003466D01*
X014797Y003473D01*
X014771Y003483D01*
X014747Y003497D01*
X014725Y003514D01*
X014706Y003534D01*
X014689Y003557D01*
X014676Y003582D01*
X014667Y003608D01*
X014661Y003635D01*
X014659Y003663D01*
X012702Y003663D02*
X012704Y003691D01*
X012710Y003718D01*
X012719Y003744D01*
X012732Y003769D01*
X012749Y003792D01*
X012768Y003812D01*
X012790Y003829D01*
X012814Y003843D01*
X012840Y003853D01*
X012867Y003860D01*
X012895Y003863D01*
X012923Y003862D01*
X012950Y003857D01*
X012977Y003848D01*
X013002Y003836D01*
X013025Y003821D01*
X013046Y003802D01*
X013064Y003781D01*
X013079Y003757D01*
X013090Y003731D01*
X013098Y003705D01*
X013102Y003677D01*
X013102Y003649D01*
X013098Y003621D01*
X013090Y003595D01*
X013079Y003569D01*
X013064Y003545D01*
X013046Y003524D01*
X013025Y003505D01*
X013002Y003490D01*
X012977Y003478D01*
X012950Y003469D01*
X012923Y003464D01*
X012895Y003463D01*
X012867Y003466D01*
X012840Y003473D01*
X012814Y003483D01*
X012790Y003497D01*
X012768Y003514D01*
X012749Y003534D01*
X012732Y003557D01*
X012719Y003582D01*
X012710Y003608D01*
X012704Y003635D01*
X012702Y003663D01*
X010722Y003663D02*
X010724Y003691D01*
X010730Y003718D01*
X010739Y003744D01*
X010752Y003769D01*
X010769Y003792D01*
X010788Y003812D01*
X010810Y003829D01*
X010834Y003843D01*
X010860Y003853D01*
X010887Y003860D01*
X010915Y003863D01*
X010943Y003862D01*
X010970Y003857D01*
X010997Y003848D01*
X011022Y003836D01*
X011045Y003821D01*
X011066Y003802D01*
X011084Y003781D01*
X011099Y003757D01*
X011110Y003731D01*
X011118Y003705D01*
X011122Y003677D01*
X011122Y003649D01*
X011118Y003621D01*
X011110Y003595D01*
X011099Y003569D01*
X011084Y003545D01*
X011066Y003524D01*
X011045Y003505D01*
X011022Y003490D01*
X010997Y003478D01*
X010970Y003469D01*
X010943Y003464D01*
X010915Y003463D01*
X010887Y003466D01*
X010860Y003473D01*
X010834Y003483D01*
X010810Y003497D01*
X010788Y003514D01*
X010769Y003534D01*
X010752Y003557D01*
X010739Y003582D01*
X010730Y003608D01*
X010724Y003635D01*
X010722Y003663D01*
X008765Y003663D02*
X008767Y003691D01*
X008773Y003718D01*
X008782Y003744D01*
X008795Y003769D01*
X008812Y003792D01*
X008831Y003812D01*
X008853Y003829D01*
X008877Y003843D01*
X008903Y003853D01*
X008930Y003860D01*
X008958Y003863D01*
X008986Y003862D01*
X009013Y003857D01*
X009040Y003848D01*
X009065Y003836D01*
X009088Y003821D01*
X009109Y003802D01*
X009127Y003781D01*
X009142Y003757D01*
X009153Y003731D01*
X009161Y003705D01*
X009165Y003677D01*
X009165Y003649D01*
X009161Y003621D01*
X009153Y003595D01*
X009142Y003569D01*
X009127Y003545D01*
X009109Y003524D01*
X009088Y003505D01*
X009065Y003490D01*
X009040Y003478D01*
X009013Y003469D01*
X008986Y003464D01*
X008958Y003463D01*
X008930Y003466D01*
X008903Y003473D01*
X008877Y003483D01*
X008853Y003497D01*
X008831Y003514D01*
X008812Y003534D01*
X008795Y003557D01*
X008782Y003582D01*
X008773Y003608D01*
X008767Y003635D01*
X008765Y003663D01*
X006785Y003663D02*
X006787Y003691D01*
X006793Y003718D01*
X006802Y003744D01*
X006815Y003769D01*
X006832Y003792D01*
X006851Y003812D01*
X006873Y003829D01*
X006897Y003843D01*
X006923Y003853D01*
X006950Y003860D01*
X006978Y003863D01*
X007006Y003862D01*
X007033Y003857D01*
X007060Y003848D01*
X007085Y003836D01*
X007108Y003821D01*
X007129Y003802D01*
X007147Y003781D01*
X007162Y003757D01*
X007173Y003731D01*
X007181Y003705D01*
X007185Y003677D01*
X007185Y003649D01*
X007181Y003621D01*
X007173Y003595D01*
X007162Y003569D01*
X007147Y003545D01*
X007129Y003524D01*
X007108Y003505D01*
X007085Y003490D01*
X007060Y003478D01*
X007033Y003469D01*
X007006Y003464D01*
X006978Y003463D01*
X006950Y003466D01*
X006923Y003473D01*
X006897Y003483D01*
X006873Y003497D01*
X006851Y003514D01*
X006832Y003534D01*
X006815Y003557D01*
X006802Y003582D01*
X006793Y003608D01*
X006787Y003635D01*
X006785Y003663D01*
X004828Y003663D02*
X004830Y003691D01*
X004836Y003718D01*
X004845Y003744D01*
X004858Y003769D01*
X004875Y003792D01*
X004894Y003812D01*
X004916Y003829D01*
X004940Y003843D01*
X004966Y003853D01*
X004993Y003860D01*
X005021Y003863D01*
X005049Y003862D01*
X005076Y003857D01*
X005103Y003848D01*
X005128Y003836D01*
X005151Y003821D01*
X005172Y003802D01*
X005190Y003781D01*
X005205Y003757D01*
X005216Y003731D01*
X005224Y003705D01*
X005228Y003677D01*
X005228Y003649D01*
X005224Y003621D01*
X005216Y003595D01*
X005205Y003569D01*
X005190Y003545D01*
X005172Y003524D01*
X005151Y003505D01*
X005128Y003490D01*
X005103Y003478D01*
X005076Y003469D01*
X005049Y003464D01*
X005021Y003463D01*
X004993Y003466D01*
X004966Y003473D01*
X004940Y003483D01*
X004916Y003497D01*
X004894Y003514D01*
X004875Y003534D01*
X004858Y003557D01*
X004845Y003582D01*
X004836Y003608D01*
X004830Y003635D01*
X004828Y003663D01*
X005975Y001613D02*
X009975Y001613D01*
X009912Y001613D02*
X013912Y001613D01*
X013849Y001613D02*
X017849Y001613D01*
X017786Y001613D02*
X021786Y001613D01*
X021723Y001613D02*
X025723Y001613D01*
X025660Y001613D02*
X029660Y001613D01*
X029597Y001613D02*
X033597Y001613D01*
X033534Y001613D02*
X037534Y001613D01*
X036324Y003663D02*
X036326Y003691D01*
X036332Y003718D01*
X036341Y003744D01*
X036354Y003769D01*
X036371Y003792D01*
X036390Y003812D01*
X036412Y003829D01*
X036436Y003843D01*
X036462Y003853D01*
X036489Y003860D01*
X036517Y003863D01*
X036545Y003862D01*
X036572Y003857D01*
X036599Y003848D01*
X036624Y003836D01*
X036647Y003821D01*
X036668Y003802D01*
X036686Y003781D01*
X036701Y003757D01*
X036712Y003731D01*
X036720Y003705D01*
X036724Y003677D01*
X036724Y003649D01*
X036720Y003621D01*
X036712Y003595D01*
X036701Y003569D01*
X036686Y003545D01*
X036668Y003524D01*
X036647Y003505D01*
X036624Y003490D01*
X036599Y003478D01*
X036572Y003469D01*
X036545Y003464D01*
X036517Y003463D01*
X036489Y003466D01*
X036462Y003473D01*
X036436Y003483D01*
X036412Y003497D01*
X036390Y003514D01*
X036371Y003534D01*
X036354Y003557D01*
X036341Y003582D01*
X036332Y003608D01*
X036326Y003635D01*
X036324Y003663D01*
X034344Y003663D02*
X034346Y003691D01*
X034352Y003718D01*
X034361Y003744D01*
X034374Y003769D01*
X034391Y003792D01*
X034410Y003812D01*
X034432Y003829D01*
X034456Y003843D01*
X034482Y003853D01*
X034509Y003860D01*
X034537Y003863D01*
X034565Y003862D01*
X034592Y003857D01*
X034619Y003848D01*
X034644Y003836D01*
X034667Y003821D01*
X034688Y003802D01*
X034706Y003781D01*
X034721Y003757D01*
X034732Y003731D01*
X034740Y003705D01*
X034744Y003677D01*
X034744Y003649D01*
X034740Y003621D01*
X034732Y003595D01*
X034721Y003569D01*
X034706Y003545D01*
X034688Y003524D01*
X034667Y003505D01*
X034644Y003490D01*
X034619Y003478D01*
X034592Y003469D01*
X034565Y003464D01*
X034537Y003463D01*
X034509Y003466D01*
X034482Y003473D01*
X034456Y003483D01*
X034432Y003497D01*
X034410Y003514D01*
X034391Y003534D01*
X034374Y003557D01*
X034361Y003582D01*
X034352Y003608D01*
X034346Y003635D01*
X034344Y003663D01*
X032387Y003663D02*
X032389Y003691D01*
X032395Y003718D01*
X032404Y003744D01*
X032417Y003769D01*
X032434Y003792D01*
X032453Y003812D01*
X032475Y003829D01*
X032499Y003843D01*
X032525Y003853D01*
X032552Y003860D01*
X032580Y003863D01*
X032608Y003862D01*
X032635Y003857D01*
X032662Y003848D01*
X032687Y003836D01*
X032710Y003821D01*
X032731Y003802D01*
X032749Y003781D01*
X032764Y003757D01*
X032775Y003731D01*
X032783Y003705D01*
X032787Y003677D01*
X032787Y003649D01*
X032783Y003621D01*
X032775Y003595D01*
X032764Y003569D01*
X032749Y003545D01*
X032731Y003524D01*
X032710Y003505D01*
X032687Y003490D01*
X032662Y003478D01*
X032635Y003469D01*
X032608Y003464D01*
X032580Y003463D01*
X032552Y003466D01*
X032525Y003473D01*
X032499Y003483D01*
X032475Y003497D01*
X032453Y003514D01*
X032434Y003534D01*
X032417Y003557D01*
X032404Y003582D01*
X032395Y003608D01*
X032389Y003635D01*
X032387Y003663D01*
X030407Y003663D02*
X030409Y003691D01*
X030415Y003718D01*
X030424Y003744D01*
X030437Y003769D01*
X030454Y003792D01*
X030473Y003812D01*
X030495Y003829D01*
X030519Y003843D01*
X030545Y003853D01*
X030572Y003860D01*
X030600Y003863D01*
X030628Y003862D01*
X030655Y003857D01*
X030682Y003848D01*
X030707Y003836D01*
X030730Y003821D01*
X030751Y003802D01*
X030769Y003781D01*
X030784Y003757D01*
X030795Y003731D01*
X030803Y003705D01*
X030807Y003677D01*
X030807Y003649D01*
X030803Y003621D01*
X030795Y003595D01*
X030784Y003569D01*
X030769Y003545D01*
X030751Y003524D01*
X030730Y003505D01*
X030707Y003490D01*
X030682Y003478D01*
X030655Y003469D01*
X030628Y003464D01*
X030600Y003463D01*
X030572Y003466D01*
X030545Y003473D01*
X030519Y003483D01*
X030495Y003497D01*
X030473Y003514D01*
X030454Y003534D01*
X030437Y003557D01*
X030424Y003582D01*
X030415Y003608D01*
X030409Y003635D01*
X030407Y003663D01*
X026575Y009969D02*
X026545Y010004D01*
X026514Y010037D01*
X026479Y010067D01*
X026443Y010094D01*
X026405Y010118D01*
X026365Y010140D01*
X026323Y010158D01*
X026280Y010174D01*
X026236Y010186D01*
X026192Y010194D01*
X026146Y010199D01*
X026101Y010201D01*
X026056Y010199D01*
X026010Y010194D01*
X025966Y010186D01*
X025922Y010174D01*
X025879Y010158D01*
X025837Y010140D01*
X025797Y010118D01*
X025759Y010094D01*
X025723Y010067D01*
X025688Y010037D01*
X025657Y010004D01*
X025627Y009969D01*
X026101Y009001D02*
X026147Y009003D01*
X026193Y009008D01*
X026239Y009017D01*
X026284Y009029D01*
X026327Y009045D01*
X026369Y009064D01*
X026410Y009087D01*
X026449Y009112D01*
X026485Y009140D01*
X026520Y009171D01*
X026552Y009205D01*
X026581Y009241D01*
X026101Y009001D02*
X026054Y009003D01*
X026006Y009009D01*
X025960Y009018D01*
X025914Y009031D01*
X025870Y009047D01*
X025826Y009067D01*
X025785Y009091D01*
X025746Y009117D01*
X025709Y009147D01*
X025674Y009180D01*
X025642Y009215D01*
X025613Y009252D01*
X025001Y011851D02*
X027201Y011851D01*
X027201Y015351D01*
X026351Y015351D01*
X026349Y015321D01*
X026344Y015291D01*
X026335Y015262D01*
X026322Y015235D01*
X026307Y015209D01*
X026288Y015185D01*
X026267Y015164D01*
X026243Y015145D01*
X026217Y015130D01*
X026190Y015117D01*
X026161Y015108D01*
X026131Y015103D01*
X026101Y015101D01*
X026071Y015103D01*
X026041Y015108D01*
X026012Y015117D01*
X025985Y015130D01*
X025959Y015145D01*
X025935Y015164D01*
X025914Y015185D01*
X025895Y015209D01*
X025880Y015235D01*
X025867Y015262D01*
X025858Y015291D01*
X025853Y015321D01*
X025851Y015351D01*
X025001Y015351D01*
X025001Y011851D01*
X022701Y011851D02*
X022701Y015351D01*
X021851Y015351D01*
X021849Y015321D01*
X021844Y015291D01*
X021835Y015262D01*
X021822Y015235D01*
X021807Y015209D01*
X021788Y015185D01*
X021767Y015164D01*
X021743Y015145D01*
X021717Y015130D01*
X021690Y015117D01*
X021661Y015108D01*
X021631Y015103D01*
X021601Y015101D01*
X021571Y015103D01*
X021541Y015108D01*
X021512Y015117D01*
X021485Y015130D01*
X021459Y015145D01*
X021435Y015164D01*
X021414Y015185D01*
X021395Y015209D01*
X021380Y015235D01*
X021367Y015262D01*
X021358Y015291D01*
X021353Y015321D01*
X021351Y015351D01*
X020501Y015351D01*
X020501Y011851D01*
X022701Y011851D01*
X022075Y009969D02*
X022045Y010004D01*
X022014Y010037D01*
X021979Y010067D01*
X021943Y010094D01*
X021905Y010118D01*
X021865Y010140D01*
X021823Y010158D01*
X021780Y010174D01*
X021736Y010186D01*
X021692Y010194D01*
X021646Y010199D01*
X021601Y010201D01*
X021556Y010199D01*
X021510Y010194D01*
X021466Y010186D01*
X021422Y010174D01*
X021379Y010158D01*
X021337Y010140D01*
X021297Y010118D01*
X021259Y010094D01*
X021223Y010067D01*
X021188Y010037D01*
X021157Y010004D01*
X021127Y009969D01*
X021601Y009001D02*
X021647Y009003D01*
X021693Y009008D01*
X021739Y009017D01*
X021784Y009029D01*
X021827Y009045D01*
X021869Y009064D01*
X021910Y009087D01*
X021949Y009112D01*
X021985Y009140D01*
X022020Y009171D01*
X022052Y009205D01*
X022081Y009241D01*
X021601Y009001D02*
X021554Y009003D01*
X021506Y009009D01*
X021460Y009018D01*
X021414Y009031D01*
X021370Y009047D01*
X021326Y009067D01*
X021285Y009091D01*
X021246Y009117D01*
X021209Y009147D01*
X021174Y009180D01*
X021142Y009215D01*
X021113Y009252D01*
X018201Y011851D02*
X018201Y015351D01*
X017351Y015351D01*
X017349Y015321D01*
X017344Y015291D01*
X017335Y015262D01*
X017322Y015235D01*
X017307Y015209D01*
X017288Y015185D01*
X017267Y015164D01*
X017243Y015145D01*
X017217Y015130D01*
X017190Y015117D01*
X017161Y015108D01*
X017131Y015103D01*
X017101Y015101D01*
X017071Y015103D01*
X017041Y015108D01*
X017012Y015117D01*
X016985Y015130D01*
X016959Y015145D01*
X016935Y015164D01*
X016914Y015185D01*
X016895Y015209D01*
X016880Y015235D01*
X016867Y015262D01*
X016858Y015291D01*
X016853Y015321D01*
X016851Y015351D01*
X016001Y015351D01*
X016001Y011851D01*
X018201Y011851D01*
X017575Y009969D02*
X017545Y010004D01*
X017514Y010037D01*
X017479Y010067D01*
X017443Y010094D01*
X017405Y010118D01*
X017365Y010140D01*
X017323Y010158D01*
X017280Y010174D01*
X017236Y010186D01*
X017192Y010194D01*
X017146Y010199D01*
X017101Y010201D01*
X017056Y010199D01*
X017010Y010194D01*
X016966Y010186D01*
X016922Y010174D01*
X016879Y010158D01*
X016837Y010140D01*
X016797Y010118D01*
X016759Y010094D01*
X016723Y010067D01*
X016688Y010037D01*
X016657Y010004D01*
X016627Y009969D01*
X017101Y009001D02*
X017147Y009003D01*
X017193Y009008D01*
X017239Y009017D01*
X017284Y009029D01*
X017327Y009045D01*
X017369Y009064D01*
X017410Y009087D01*
X017449Y009112D01*
X017485Y009140D01*
X017520Y009171D01*
X017552Y009205D01*
X017581Y009241D01*
X017101Y009001D02*
X017054Y009003D01*
X017006Y009009D01*
X016960Y009018D01*
X016914Y009031D01*
X016870Y009047D01*
X016826Y009067D01*
X016785Y009091D01*
X016746Y009117D01*
X016709Y009147D01*
X016674Y009180D01*
X016642Y009215D01*
X016613Y009252D01*
X013701Y011851D02*
X013701Y015351D01*
X012851Y015351D01*
X012849Y015321D01*
X012844Y015291D01*
X012835Y015262D01*
X012822Y015235D01*
X012807Y015209D01*
X012788Y015185D01*
X012767Y015164D01*
X012743Y015145D01*
X012717Y015130D01*
X012690Y015117D01*
X012661Y015108D01*
X012631Y015103D01*
X012601Y015101D01*
X012571Y015103D01*
X012541Y015108D01*
X012512Y015117D01*
X012485Y015130D01*
X012459Y015145D01*
X012435Y015164D01*
X012414Y015185D01*
X012395Y015209D01*
X012380Y015235D01*
X012367Y015262D01*
X012358Y015291D01*
X012353Y015321D01*
X012351Y015351D01*
X011501Y015351D01*
X011501Y011851D01*
X013701Y011851D01*
X013075Y009969D02*
X013045Y010004D01*
X013014Y010037D01*
X012979Y010067D01*
X012943Y010094D01*
X012905Y010118D01*
X012865Y010140D01*
X012823Y010158D01*
X012780Y010174D01*
X012736Y010186D01*
X012692Y010194D01*
X012646Y010199D01*
X012601Y010201D01*
X012556Y010199D01*
X012510Y010194D01*
X012466Y010186D01*
X012422Y010174D01*
X012379Y010158D01*
X012337Y010140D01*
X012297Y010118D01*
X012259Y010094D01*
X012223Y010067D01*
X012188Y010037D01*
X012157Y010004D01*
X012127Y009969D01*
X012601Y009001D02*
X012647Y009003D01*
X012693Y009008D01*
X012739Y009017D01*
X012784Y009029D01*
X012827Y009045D01*
X012869Y009064D01*
X012910Y009087D01*
X012949Y009112D01*
X012985Y009140D01*
X013020Y009171D01*
X013052Y009205D01*
X013081Y009241D01*
X012601Y009001D02*
X012554Y009003D01*
X012506Y009009D01*
X012460Y009018D01*
X012414Y009031D01*
X012370Y009047D01*
X012326Y009067D01*
X012285Y009091D01*
X012246Y009117D01*
X012209Y009147D01*
X012174Y009180D01*
X012142Y009215D01*
X012113Y009252D01*
X009201Y011851D02*
X009201Y015351D01*
X008351Y015351D01*
X008349Y015321D01*
X008344Y015291D01*
X008335Y015262D01*
X008322Y015235D01*
X008307Y015209D01*
X008288Y015185D01*
X008267Y015164D01*
X008243Y015145D01*
X008217Y015130D01*
X008190Y015117D01*
X008161Y015108D01*
X008131Y015103D01*
X008101Y015101D01*
X008071Y015103D01*
X008041Y015108D01*
X008012Y015117D01*
X007985Y015130D01*
X007959Y015145D01*
X007935Y015164D01*
X007914Y015185D01*
X007895Y015209D01*
X007880Y015235D01*
X007867Y015262D01*
X007858Y015291D01*
X007853Y015321D01*
X007851Y015351D01*
X007001Y015351D01*
X007001Y011851D01*
X009201Y011851D01*
X008575Y009969D02*
X008545Y010004D01*
X008514Y010037D01*
X008479Y010067D01*
X008443Y010094D01*
X008405Y010118D01*
X008365Y010140D01*
X008323Y010158D01*
X008280Y010174D01*
X008236Y010186D01*
X008192Y010194D01*
X008146Y010199D01*
X008101Y010201D01*
X008056Y010199D01*
X008010Y010194D01*
X007966Y010186D01*
X007922Y010174D01*
X007879Y010158D01*
X007837Y010140D01*
X007797Y010118D01*
X007759Y010094D01*
X007723Y010067D01*
X007688Y010037D01*
X007657Y010004D01*
X007627Y009969D01*
X008101Y009001D02*
X008147Y009003D01*
X008193Y009008D01*
X008239Y009017D01*
X008284Y009029D01*
X008327Y009045D01*
X008369Y009064D01*
X008410Y009087D01*
X008449Y009112D01*
X008485Y009140D01*
X008520Y009171D01*
X008552Y009205D01*
X008581Y009241D01*
X008101Y009001D02*
X008054Y009003D01*
X008006Y009009D01*
X007960Y009018D01*
X007914Y009031D01*
X007870Y009047D01*
X007826Y009067D01*
X007785Y009091D01*
X007746Y009117D01*
X007709Y009147D01*
X007674Y009180D01*
X007642Y009215D01*
X007613Y009252D01*
X004701Y011851D02*
X004701Y015351D01*
X003851Y015351D01*
X003849Y015321D01*
X003844Y015291D01*
X003835Y015262D01*
X003822Y015235D01*
X003807Y015209D01*
X003788Y015185D01*
X003767Y015164D01*
X003743Y015145D01*
X003717Y015130D01*
X003690Y015117D01*
X003661Y015108D01*
X003631Y015103D01*
X003601Y015101D01*
X003571Y015103D01*
X003541Y015108D01*
X003512Y015117D01*
X003485Y015130D01*
X003459Y015145D01*
X003435Y015164D01*
X003414Y015185D01*
X003395Y015209D01*
X003380Y015235D01*
X003367Y015262D01*
X003358Y015291D01*
X003353Y015321D01*
X003351Y015351D01*
X002501Y015351D01*
X002501Y011851D01*
X004701Y011851D01*
X004075Y009969D02*
X004045Y010004D01*
X004014Y010037D01*
X003979Y010067D01*
X003943Y010094D01*
X003905Y010118D01*
X003865Y010140D01*
X003823Y010158D01*
X003780Y010174D01*
X003736Y010186D01*
X003692Y010194D01*
X003646Y010199D01*
X003601Y010201D01*
X003556Y010199D01*
X003510Y010194D01*
X003466Y010186D01*
X003422Y010174D01*
X003379Y010158D01*
X003337Y010140D01*
X003297Y010118D01*
X003259Y010094D01*
X003223Y010067D01*
X003188Y010037D01*
X003157Y010004D01*
X003127Y009969D01*
X003601Y009001D02*
X003647Y009003D01*
X003693Y009008D01*
X003739Y009017D01*
X003784Y009029D01*
X003827Y009045D01*
X003869Y009064D01*
X003910Y009087D01*
X003949Y009112D01*
X003985Y009140D01*
X004020Y009171D01*
X004052Y009205D01*
X004081Y009241D01*
X003601Y009001D02*
X003554Y009003D01*
X003506Y009009D01*
X003460Y009018D01*
X003414Y009031D01*
X003370Y009047D01*
X003326Y009067D01*
X003285Y009091D01*
X003246Y009117D01*
X003209Y009147D01*
X003174Y009180D01*
X003142Y009215D01*
X003113Y009252D01*
X002038Y001613D02*
X006038Y001613D01*
X014601Y016101D02*
X015101Y016101D01*
X015351Y016351D01*
X015601Y016101D01*
X016101Y016101D01*
X016351Y016351D01*
X016351Y016851D01*
X016101Y017101D01*
X015601Y017101D01*
X015351Y016851D01*
X015351Y016351D01*
X015351Y016851D02*
X015101Y017101D01*
X014601Y017101D01*
X014351Y016851D01*
X014351Y016351D01*
X014601Y016101D01*
X016351Y016351D02*
X016601Y016101D01*
X017101Y016101D01*
X017351Y016351D01*
X017601Y016101D01*
X018101Y016101D01*
X018351Y016351D01*
X018601Y016101D01*
X019101Y016101D01*
X019351Y016351D01*
X019351Y016851D01*
X019101Y017101D01*
X018601Y017101D01*
X018351Y016851D01*
X018351Y016351D01*
X018351Y016851D02*
X018101Y017101D01*
X017601Y017101D01*
X017351Y016851D01*
X017351Y016351D01*
X017351Y016851D02*
X017101Y017101D01*
X016601Y017101D01*
X016351Y016851D01*
X016601Y019101D02*
X016351Y019351D01*
X016101Y019101D01*
X015601Y019101D01*
X015351Y019351D01*
X015101Y019101D01*
X014601Y019101D01*
X014351Y019351D01*
X014351Y019851D01*
X014601Y020101D01*
X015101Y020101D01*
X015351Y019851D01*
X015601Y020101D01*
X016101Y020101D01*
X016351Y019851D01*
X016351Y019351D01*
X016601Y019101D02*
X017101Y019101D01*
X017351Y019351D01*
X017601Y019101D01*
X018101Y019101D01*
X018351Y019351D01*
X018601Y019101D01*
X019101Y019101D01*
X019351Y019351D01*
X019351Y019851D01*
X019101Y020101D01*
X018601Y020101D01*
X018351Y019851D01*
X018351Y019351D01*
X018351Y019851D02*
X018101Y020101D01*
X017601Y020101D01*
X017351Y019851D01*
X017351Y019351D01*
X017351Y019851D02*
X017101Y020101D01*
X016601Y020101D01*
X016351Y019851D01*
X015351Y019851D02*
X015351Y019351D01*
X019351Y019351D02*
X019601Y019101D01*
X020101Y019101D01*
X020351Y019351D01*
X020601Y019101D01*
X021101Y019101D01*
X021351Y019351D01*
X021601Y019101D01*
X022101Y019101D01*
X022351Y019351D01*
X022601Y019101D01*
X023101Y019101D01*
X023351Y019351D01*
X023351Y019851D01*
X023101Y020101D01*
X022601Y020101D01*
X022351Y019851D01*
X022351Y019351D01*
X022351Y019851D02*
X022101Y020101D01*
X021601Y020101D01*
X021351Y019851D01*
X021351Y019351D01*
X021351Y019851D02*
X021101Y020101D01*
X020601Y020101D01*
X020351Y019851D01*
X020351Y019351D01*
X020351Y019851D02*
X020101Y020101D01*
X019601Y020101D01*
X019351Y019851D01*
X019601Y017101D02*
X019351Y016851D01*
X019601Y017101D02*
X020101Y017101D01*
X020351Y016851D01*
X020601Y017101D01*
X021101Y017101D01*
X021351Y016851D01*
X021601Y017101D01*
X022101Y017101D01*
X022351Y016851D01*
X022601Y017101D01*
X023101Y017101D01*
X023351Y016851D01*
X023351Y016351D01*
X023101Y016101D01*
X022601Y016101D01*
X022351Y016351D01*
X022101Y016101D01*
X021601Y016101D01*
X021351Y016351D01*
X021101Y016101D01*
X020601Y016101D01*
X020351Y016351D01*
X020101Y016101D01*
X019601Y016101D01*
X019351Y016351D01*
X020351Y016351D02*
X020351Y016851D01*
X021351Y016851D02*
X021351Y016351D01*
X022351Y016351D02*
X022351Y016851D01*
X023201Y020851D02*
X023951Y020851D01*
X023953Y020890D01*
X023959Y020929D01*
X023968Y020967D01*
X023981Y021004D01*
X023998Y021040D01*
X024018Y021073D01*
X024042Y021105D01*
X024068Y021134D01*
X024097Y021160D01*
X024129Y021184D01*
X024162Y021204D01*
X024198Y021221D01*
X024235Y021234D01*
X024273Y021243D01*
X024312Y021249D01*
X024351Y021251D01*
X024390Y021249D01*
X024429Y021243D01*
X024467Y021234D01*
X024504Y021221D01*
X024540Y021204D01*
X024573Y021184D01*
X024605Y021160D01*
X024634Y021134D01*
X024660Y021105D01*
X024684Y021073D01*
X024704Y021040D01*
X024721Y021004D01*
X024734Y020967D01*
X024743Y020929D01*
X024749Y020890D01*
X024751Y020851D01*
X025501Y020851D01*
X025501Y027851D01*
X023201Y027851D01*
X023201Y020851D01*
X028101Y023351D02*
X028351Y023101D01*
X028851Y023101D01*
X029101Y023351D01*
X029351Y023101D01*
X029851Y023101D01*
X030101Y023351D01*
X030101Y023851D01*
X029851Y024101D01*
X029351Y024101D01*
X029101Y023851D01*
X029101Y023351D01*
X029101Y023851D02*
X028851Y024101D01*
X028351Y024101D01*
X028101Y023851D01*
X028101Y023351D01*
X028351Y025101D02*
X028851Y025101D01*
X029101Y025351D01*
X029351Y025101D01*
X029851Y025101D01*
X030101Y025351D01*
X030101Y025851D01*
X029851Y026101D01*
X029351Y026101D01*
X029101Y025851D01*
X029101Y025351D01*
X029101Y025851D02*
X028851Y026101D01*
X028351Y026101D01*
X028101Y025851D01*
X028101Y025351D01*
X028351Y025101D01*
X028351Y027101D02*
X028851Y027101D01*
X029101Y027351D01*
X029101Y027851D01*
X028851Y028101D01*
X029101Y028351D01*
X029101Y028851D01*
X028851Y029101D01*
X029101Y029351D01*
X029101Y029851D01*
X028851Y030101D01*
X029101Y030351D01*
X029101Y030851D01*
X028851Y031101D01*
X029101Y031351D01*
X029101Y031851D01*
X028851Y032101D01*
X029101Y032351D01*
X029101Y032851D01*
X028851Y033101D01*
X028351Y033101D01*
X028101Y032851D01*
X028101Y032351D01*
X028351Y032101D01*
X028101Y031851D01*
X028101Y031351D01*
X028351Y031101D01*
X028101Y030851D01*
X028101Y030351D01*
X028351Y030101D01*
X028101Y029851D01*
X028101Y029351D01*
X028351Y029101D01*
X028101Y028851D01*
X028101Y028351D01*
X028351Y028101D01*
X028101Y027851D01*
X028101Y027351D01*
X028351Y027101D01*
X026351Y028851D02*
X026101Y028601D01*
X025601Y028601D01*
X025351Y028851D01*
X025351Y030351D01*
X025101Y030601D01*
X024601Y030601D01*
X024351Y030351D01*
X024351Y028851D01*
X024101Y028601D01*
X023601Y028601D01*
X023351Y028851D01*
X023101Y028601D01*
X022601Y028601D01*
X022351Y028851D01*
X022351Y030351D01*
X022601Y030601D01*
X023101Y030601D01*
X023351Y030351D01*
X023351Y028851D01*
X024351Y028851D02*
X024601Y028601D01*
X025101Y028601D01*
X025351Y028851D01*
X026351Y028851D02*
X026351Y030351D01*
X026101Y030601D01*
X025601Y030601D01*
X025351Y030351D01*
X024351Y030351D02*
X024101Y030601D01*
X023601Y030601D01*
X023351Y030351D01*
X022101Y030851D02*
X021851Y030601D01*
X021351Y030601D01*
X021101Y030851D01*
X021101Y032351D01*
X021351Y032601D01*
X021851Y032601D01*
X022101Y032351D01*
X022101Y030851D01*
X021101Y030851D02*
X020851Y030601D01*
X020351Y030601D01*
X020101Y030851D01*
X020101Y032351D01*
X020351Y032601D01*
X020851Y032601D01*
X021101Y032351D01*
X020101Y032351D02*
X019851Y032601D01*
X019351Y032601D01*
X019101Y032351D01*
X019101Y030851D01*
X019351Y030601D01*
X019851Y030601D01*
X020101Y030851D01*
X019101Y030851D02*
X018851Y030601D01*
X018351Y030601D01*
X018101Y030851D01*
X018101Y032351D01*
X018351Y032601D01*
X018851Y032601D01*
X019101Y032351D01*
X018101Y032351D02*
X017851Y032601D01*
X017351Y032601D01*
X017101Y032351D01*
X017101Y030851D01*
X017351Y030601D01*
X017851Y030601D01*
X018101Y030851D01*
X017101Y030851D02*
X016851Y030601D01*
X016351Y030601D01*
X016101Y030851D01*
X016101Y032351D01*
X016351Y032601D01*
X016851Y032601D01*
X017101Y032351D01*
X016101Y032351D02*
X015851Y032601D01*
X015351Y032601D01*
X015101Y032351D01*
X015101Y030851D01*
X015351Y030601D01*
X015851Y030601D01*
X016101Y030851D01*
X015101Y030851D02*
X014851Y030601D01*
X014351Y030601D01*
X014101Y030851D01*
X014101Y032351D01*
X014351Y032601D01*
X014851Y032601D01*
X015101Y032351D01*
X014851Y035101D02*
X014351Y035101D01*
X014101Y035351D01*
X014101Y035851D01*
X014351Y036101D01*
X014851Y036101D01*
X015101Y035851D01*
X015101Y035351D01*
X014851Y035101D01*
X013601Y035201D02*
X013601Y036001D01*
X013501Y036101D01*
X012701Y036101D01*
X012601Y036001D01*
X012501Y036101D01*
X011701Y036101D01*
X011601Y036001D01*
X011601Y035201D01*
X011701Y035101D01*
X012501Y035101D01*
X012601Y035201D01*
X012701Y035101D01*
X013501Y035101D01*
X013601Y035201D01*
X011351Y032601D02*
X011601Y032351D01*
X011601Y030851D01*
X011351Y030601D01*
X010851Y030601D01*
X010601Y030851D01*
X010601Y032351D01*
X010851Y032601D01*
X011351Y032601D01*
X010601Y032351D02*
X010351Y032601D01*
X009851Y032601D01*
X009601Y032351D01*
X009601Y030851D01*
X009851Y030601D01*
X010351Y030601D01*
X010601Y030851D01*
X009601Y030851D02*
X009351Y030601D01*
X008851Y030601D01*
X008601Y030851D01*
X008601Y032351D01*
X008851Y032601D01*
X009351Y032601D01*
X009601Y032351D01*
X008601Y032351D02*
X008351Y032601D01*
X007851Y032601D01*
X007601Y032351D01*
X007601Y030851D01*
X007851Y030601D01*
X008351Y030601D01*
X008601Y030851D01*
X007601Y030851D02*
X007351Y030601D01*
X006851Y030601D01*
X006601Y030851D01*
X006601Y032351D01*
X006851Y032601D01*
X007351Y032601D01*
X007601Y032351D01*
X006601Y032351D02*
X006351Y032601D01*
X005851Y032601D01*
X005601Y032351D01*
X005601Y030851D01*
X005851Y030601D01*
X006351Y030601D01*
X006601Y030851D01*
X005601Y030851D02*
X005351Y030601D01*
X004851Y030601D01*
X004601Y030851D01*
X004601Y032351D01*
X004851Y032601D01*
X005351Y032601D01*
X005601Y032351D01*
X004601Y032351D02*
X004351Y032601D01*
X003851Y032601D01*
X003601Y032351D01*
X003601Y030851D01*
X003851Y030601D01*
X004351Y030601D01*
X004601Y030851D01*
X008901Y035201D02*
X008901Y039001D01*
X009001Y039101D01*
X010151Y039101D01*
X007701Y038101D02*
X007701Y036101D01*
X006601Y036101D02*
X006201Y036101D01*
X006401Y036301D02*
X006401Y035901D01*
X007701Y036101D02*
X007650Y036022D01*
X007596Y035946D01*
X007537Y035873D01*
X007475Y035802D01*
X007410Y035735D01*
X007342Y035671D01*
X007271Y035611D01*
X007196Y035554D01*
X007119Y035500D01*
X007040Y035451D01*
X006958Y035405D01*
X006874Y035364D01*
X006788Y035327D01*
X006700Y035293D01*
X006611Y035265D01*
X006521Y035240D01*
X006429Y035220D01*
X006337Y035205D01*
X006244Y035194D01*
X006151Y035188D01*
X006057Y035186D01*
X005963Y035189D01*
X005870Y035196D01*
X005777Y035208D01*
X005685Y035225D01*
X005594Y035246D01*
X005504Y035271D01*
X005415Y035301D01*
X005328Y035335D01*
X005242Y035373D01*
X005159Y035416D01*
X005077Y035462D01*
X004998Y035513D01*
X004922Y035567D01*
X004848Y035625D01*
X004778Y035686D01*
X004710Y035751D01*
X004646Y035819D01*
X004585Y035890D01*
X004527Y035964D01*
X004473Y036041D01*
X004423Y036120D01*
X004377Y036201D01*
X004336Y036285D01*
X004298Y036371D01*
X004264Y036458D01*
X004235Y036547D01*
X004210Y036637D01*
X004190Y036729D01*
X004174Y036821D01*
X004162Y036914D01*
X004155Y037007D01*
X004153Y037101D01*
X004155Y037195D01*
X004162Y037288D01*
X004174Y037381D01*
X004190Y037473D01*
X004210Y037565D01*
X004235Y037655D01*
X004264Y037744D01*
X004298Y037831D01*
X004336Y037917D01*
X004377Y038001D01*
X004423Y038082D01*
X004473Y038161D01*
X004527Y038238D01*
X004585Y038312D01*
X004646Y038383D01*
X004710Y038451D01*
X004778Y038516D01*
X004848Y038577D01*
X004922Y038635D01*
X004998Y038689D01*
X005077Y038740D01*
X005159Y038786D01*
X005242Y038829D01*
X005328Y038867D01*
X005415Y038901D01*
X005504Y038931D01*
X005594Y038956D01*
X005685Y038977D01*
X005777Y038994D01*
X005870Y039006D01*
X005963Y039013D01*
X006057Y039016D01*
X006151Y039014D01*
X006244Y039008D01*
X006337Y038997D01*
X006429Y038982D01*
X006521Y038962D01*
X006611Y038937D01*
X006700Y038909D01*
X006788Y038875D01*
X006874Y038838D01*
X006958Y038797D01*
X007040Y038751D01*
X007119Y038702D01*
X007196Y038648D01*
X007271Y038591D01*
X007342Y038531D01*
X007410Y038467D01*
X007475Y038400D01*
X007537Y038329D01*
X007596Y038256D01*
X007650Y038180D01*
X007701Y038101D01*
X006001Y038101D02*
X005601Y038101D01*
X008901Y035201D02*
X009001Y035101D01*
X010151Y035101D01*
X014101Y038351D02*
X014351Y038101D01*
X014851Y038101D01*
X015101Y038351D01*
X015101Y038851D01*
X014851Y039101D01*
X014351Y039101D01*
X014101Y038851D01*
X014101Y038351D01*
X017601Y035501D02*
X017601Y034701D01*
X017701Y034601D01*
X017601Y034501D01*
X017601Y033701D01*
X017701Y033601D01*
X018501Y033601D01*
X018601Y033701D01*
X018601Y034501D01*
X018501Y034601D01*
X018601Y034701D01*
X018601Y035501D01*
X018501Y035601D01*
X017701Y035601D01*
X017601Y035501D01*
X018469Y036627D02*
X018504Y036657D01*
X018537Y036688D01*
X018567Y036723D01*
X018594Y036759D01*
X018618Y036797D01*
X018640Y036837D01*
X018658Y036879D01*
X018674Y036922D01*
X018686Y036966D01*
X018694Y037010D01*
X018699Y037056D01*
X018701Y037101D01*
X018699Y037146D01*
X018694Y037192D01*
X018686Y037236D01*
X018674Y037280D01*
X018658Y037323D01*
X018640Y037365D01*
X018618Y037405D01*
X018594Y037443D01*
X018567Y037479D01*
X018537Y037514D01*
X018504Y037545D01*
X018469Y037575D01*
X017501Y037101D02*
X017503Y037055D01*
X017508Y037009D01*
X017517Y036963D01*
X017529Y036918D01*
X017545Y036875D01*
X017564Y036833D01*
X017587Y036792D01*
X017612Y036753D01*
X017640Y036717D01*
X017671Y036682D01*
X017705Y036650D01*
X017741Y036621D01*
X017501Y037101D02*
X017503Y037148D01*
X017509Y037196D01*
X017518Y037242D01*
X017531Y037288D01*
X017547Y037332D01*
X017567Y037376D01*
X017591Y037417D01*
X017617Y037456D01*
X017647Y037493D01*
X017680Y037528D01*
X017715Y037560D01*
X017752Y037589D01*
X020301Y037401D02*
X020301Y036801D01*
X020401Y036801D01*
X020401Y036701D01*
X020401Y037401D02*
X020401Y037501D01*
X020401Y037401D02*
X020301Y037401D01*
X020751Y038301D02*
X021151Y038301D01*
X022101Y038301D01*
X022451Y038301D01*
X022801Y037501D02*
X022801Y037401D01*
X022901Y037401D01*
X022901Y036801D01*
X022801Y036801D01*
X022801Y036701D01*
X022451Y035901D02*
X022101Y035901D01*
X021101Y035901D01*
X020751Y035901D01*
X021501Y037101D02*
X021503Y037121D01*
X021509Y037139D01*
X021518Y037157D01*
X021530Y037172D01*
X021545Y037184D01*
X021563Y037193D01*
X021581Y037199D01*
X021601Y037201D01*
X021621Y037199D01*
X021639Y037193D01*
X021657Y037184D01*
X021672Y037172D01*
X021684Y037157D01*
X021693Y037139D01*
X021699Y037121D01*
X021701Y037101D01*
X021699Y037081D01*
X021693Y037063D01*
X021684Y037045D01*
X021672Y037030D01*
X021657Y037018D01*
X021639Y037009D01*
X021621Y037003D01*
X021601Y037001D01*
X021581Y037003D01*
X021563Y037009D01*
X021545Y037018D01*
X021530Y037030D01*
X021518Y037045D01*
X021509Y037063D01*
X021503Y037081D01*
X021501Y037101D01*
X020901Y037101D02*
X020903Y037153D01*
X020909Y037205D01*
X020919Y037257D01*
X020932Y037307D01*
X020949Y037357D01*
X020970Y037405D01*
X020995Y037451D01*
X021023Y037495D01*
X021054Y037537D01*
X021088Y037577D01*
X021125Y037614D01*
X021165Y037648D01*
X021207Y037679D01*
X021251Y037707D01*
X021297Y037732D01*
X021345Y037753D01*
X021395Y037770D01*
X021445Y037783D01*
X021497Y037793D01*
X021549Y037799D01*
X021601Y037801D01*
X021653Y037799D01*
X021705Y037793D01*
X021757Y037783D01*
X021807Y037770D01*
X021857Y037753D01*
X021905Y037732D01*
X021951Y037707D01*
X021995Y037679D01*
X022037Y037648D01*
X022077Y037614D01*
X022114Y037577D01*
X022148Y037537D01*
X022179Y037495D01*
X022207Y037451D01*
X022232Y037405D01*
X022253Y037357D01*
X022270Y037307D01*
X022283Y037257D01*
X022293Y037205D01*
X022299Y037153D01*
X022301Y037101D01*
X022299Y037049D01*
X022293Y036997D01*
X022283Y036945D01*
X022270Y036895D01*
X022253Y036845D01*
X022232Y036797D01*
X022207Y036751D01*
X022179Y036707D01*
X022148Y036665D01*
X022114Y036625D01*
X022077Y036588D01*
X022037Y036554D01*
X021995Y036523D01*
X021951Y036495D01*
X021905Y036470D01*
X021857Y036449D01*
X021807Y036432D01*
X021757Y036419D01*
X021705Y036409D01*
X021653Y036403D01*
X021601Y036401D01*
X021549Y036403D01*
X021497Y036409D01*
X021445Y036419D01*
X021395Y036432D01*
X021345Y036449D01*
X021297Y036470D01*
X021251Y036495D01*
X021207Y036523D01*
X021165Y036554D01*
X021125Y036588D01*
X021088Y036625D01*
X021054Y036665D01*
X021023Y036707D01*
X020995Y036751D01*
X020970Y036797D01*
X020949Y036845D01*
X020932Y036895D01*
X020919Y036945D01*
X020909Y036997D01*
X020903Y037049D01*
X020901Y037101D01*
X027801Y036801D02*
X027901Y036801D01*
X027901Y036701D01*
X027801Y036801D02*
X027801Y037401D01*
X027901Y037401D01*
X027901Y037501D01*
X028251Y038301D02*
X028651Y038301D01*
X029601Y038301D01*
X029951Y038301D01*
X030301Y037501D02*
X030301Y037401D01*
X030401Y037401D01*
X030401Y036801D01*
X030301Y036801D01*
X030301Y036701D01*
X029951Y035901D02*
X029601Y035901D01*
X028601Y035901D01*
X028251Y035901D01*
X029001Y037101D02*
X029003Y037121D01*
X029009Y037139D01*
X029018Y037157D01*
X029030Y037172D01*
X029045Y037184D01*
X029063Y037193D01*
X029081Y037199D01*
X029101Y037201D01*
X029121Y037199D01*
X029139Y037193D01*
X029157Y037184D01*
X029172Y037172D01*
X029184Y037157D01*
X029193Y037139D01*
X029199Y037121D01*
X029201Y037101D01*
X029199Y037081D01*
X029193Y037063D01*
X029184Y037045D01*
X029172Y037030D01*
X029157Y037018D01*
X029139Y037009D01*
X029121Y037003D01*
X029101Y037001D01*
X029081Y037003D01*
X029063Y037009D01*
X029045Y037018D01*
X029030Y037030D01*
X029018Y037045D01*
X029009Y037063D01*
X029003Y037081D01*
X029001Y037101D01*
X028401Y037101D02*
X028403Y037153D01*
X028409Y037205D01*
X028419Y037257D01*
X028432Y037307D01*
X028449Y037357D01*
X028470Y037405D01*
X028495Y037451D01*
X028523Y037495D01*
X028554Y037537D01*
X028588Y037577D01*
X028625Y037614D01*
X028665Y037648D01*
X028707Y037679D01*
X028751Y037707D01*
X028797Y037732D01*
X028845Y037753D01*
X028895Y037770D01*
X028945Y037783D01*
X028997Y037793D01*
X029049Y037799D01*
X029101Y037801D01*
X029153Y037799D01*
X029205Y037793D01*
X029257Y037783D01*
X029307Y037770D01*
X029357Y037753D01*
X029405Y037732D01*
X029451Y037707D01*
X029495Y037679D01*
X029537Y037648D01*
X029577Y037614D01*
X029614Y037577D01*
X029648Y037537D01*
X029679Y037495D01*
X029707Y037451D01*
X029732Y037405D01*
X029753Y037357D01*
X029770Y037307D01*
X029783Y037257D01*
X029793Y037205D01*
X029799Y037153D01*
X029801Y037101D01*
X029799Y037049D01*
X029793Y036997D01*
X029783Y036945D01*
X029770Y036895D01*
X029753Y036845D01*
X029732Y036797D01*
X029707Y036751D01*
X029679Y036707D01*
X029648Y036665D01*
X029614Y036625D01*
X029577Y036588D01*
X029537Y036554D01*
X029495Y036523D01*
X029451Y036495D01*
X029405Y036470D01*
X029357Y036449D01*
X029307Y036432D01*
X029257Y036419D01*
X029205Y036409D01*
X029153Y036403D01*
X029101Y036401D01*
X029049Y036403D01*
X028997Y036409D01*
X028945Y036419D01*
X028895Y036432D01*
X028845Y036449D01*
X028797Y036470D01*
X028751Y036495D01*
X028707Y036523D01*
X028665Y036554D01*
X028625Y036588D01*
X028588Y036625D01*
X028554Y036665D01*
X028523Y036707D01*
X028495Y036751D01*
X028470Y036797D01*
X028449Y036845D01*
X028432Y036895D01*
X028419Y036945D01*
X028409Y036997D01*
X028403Y037049D01*
X028401Y037101D01*
X032001Y037101D02*
X032003Y037146D01*
X032008Y037192D01*
X032016Y037236D01*
X032028Y037280D01*
X032044Y037323D01*
X032062Y037365D01*
X032084Y037405D01*
X032108Y037443D01*
X032135Y037479D01*
X032165Y037514D01*
X032198Y037545D01*
X032233Y037575D01*
X032001Y037101D02*
X032003Y037056D01*
X032008Y037010D01*
X032016Y036966D01*
X032028Y036922D01*
X032044Y036879D01*
X032062Y036837D01*
X032084Y036797D01*
X032108Y036759D01*
X032135Y036723D01*
X032165Y036688D01*
X032198Y036657D01*
X032233Y036627D01*
X033201Y037101D02*
X033199Y037147D01*
X033194Y037193D01*
X033185Y037239D01*
X033173Y037284D01*
X033157Y037327D01*
X033138Y037369D01*
X033115Y037410D01*
X033090Y037449D01*
X033062Y037485D01*
X033031Y037520D01*
X032997Y037552D01*
X032961Y037581D01*
X033201Y037101D02*
X033199Y037054D01*
X033193Y037006D01*
X033184Y036960D01*
X033171Y036914D01*
X033155Y036870D01*
X033135Y036826D01*
X033111Y036785D01*
X033085Y036746D01*
X033055Y036709D01*
X033022Y036674D01*
X032987Y036642D01*
X032950Y036613D01*
X035001Y037101D02*
X035003Y037146D01*
X035008Y037192D01*
X035016Y037236D01*
X035028Y037280D01*
X035044Y037323D01*
X035062Y037365D01*
X035084Y037405D01*
X035108Y037443D01*
X035135Y037479D01*
X035165Y037514D01*
X035198Y037545D01*
X035233Y037575D01*
X035001Y037101D02*
X035003Y037056D01*
X035008Y037010D01*
X035016Y036966D01*
X035028Y036922D01*
X035044Y036879D01*
X035062Y036837D01*
X035084Y036797D01*
X035108Y036759D01*
X035135Y036723D01*
X035165Y036688D01*
X035198Y036657D01*
X035233Y036627D01*
X036201Y037101D02*
X036199Y037147D01*
X036194Y037193D01*
X036185Y037239D01*
X036173Y037284D01*
X036157Y037327D01*
X036138Y037369D01*
X036115Y037410D01*
X036090Y037449D01*
X036062Y037485D01*
X036031Y037520D01*
X035997Y037552D01*
X035961Y037581D01*
X036201Y037101D02*
X036199Y037054D01*
X036193Y037006D01*
X036184Y036960D01*
X036171Y036914D01*
X036155Y036870D01*
X036135Y036826D01*
X036111Y036785D01*
X036085Y036746D01*
X036055Y036709D01*
X036022Y036674D01*
X035987Y036642D01*
X035950Y036613D01*
X034351Y025351D02*
X033851Y025351D01*
X033601Y025101D01*
X033601Y024601D01*
X033851Y024351D01*
X034351Y024351D01*
X034601Y024601D01*
X034601Y025101D01*
X034351Y025351D01*
X033351Y025101D02*
X033351Y024601D01*
X033101Y024351D01*
X032601Y024351D01*
X032351Y024601D01*
X032351Y025101D01*
X032601Y025351D01*
X033101Y025351D01*
X033351Y025101D01*
X034601Y023601D02*
X034601Y020601D01*
X034701Y020601D01*
X035501Y020601D02*
X035701Y020601D01*
X036501Y020601D02*
X036701Y020601D01*
X037501Y020601D02*
X037701Y020601D01*
X038501Y020601D02*
X038601Y020601D01*
X038601Y023601D01*
X038501Y023601D01*
X037701Y023601D02*
X037501Y023601D01*
X036701Y023601D02*
X036501Y023601D01*
X035701Y023601D02*
X035501Y023601D01*
X034701Y023601D02*
X034601Y023601D01*
D13*
X034351Y023351D02*
X033851Y023351D01*
X033351Y023351D01*
X032851Y023351D01*
X032351Y023351D01*
X032351Y021351D01*
X032851Y021351D01*
X033351Y021351D01*
X033351Y023351D01*
X033351Y021351D01*
X033851Y021351D01*
X034351Y021351D01*
X034351Y023351D01*
X033851Y023351D02*
X033851Y023551D01*
X034001Y022966D02*
X034076Y022891D01*
X034076Y022740D01*
X034001Y022665D01*
X033700Y022966D01*
X034001Y022966D01*
X033700Y022966D02*
X033625Y022891D01*
X033625Y022740D01*
X033700Y022665D01*
X034001Y022665D01*
X033851Y022505D02*
X033926Y022430D01*
X033926Y022205D01*
X034076Y022205D02*
X033625Y022205D01*
X033625Y022430D01*
X033700Y022505D01*
X033851Y022505D01*
X033851Y022045D02*
X033926Y021970D01*
X033926Y021745D01*
X033926Y021895D02*
X034076Y022045D01*
X033851Y022045D02*
X033700Y022045D01*
X033625Y021970D01*
X033625Y021745D01*
X034076Y021745D01*
X033851Y021351D02*
X033851Y021151D01*
X034826Y021102D02*
X034882Y021046D01*
X034996Y021046D01*
X035053Y021102D01*
X035053Y021329D01*
X034996Y021386D01*
X034882Y021386D01*
X034826Y021329D01*
X034826Y021102D01*
X035185Y021046D02*
X035185Y021386D01*
X035412Y021386D01*
X035544Y021386D02*
X035771Y021386D01*
X035657Y021216D02*
X035544Y021216D01*
X035544Y021046D02*
X035544Y021386D01*
X035298Y021216D02*
X035185Y021216D01*
X036198Y019793D02*
X036423Y019793D01*
X036498Y019718D01*
X036498Y019643D01*
X036423Y019567D01*
X036198Y019567D01*
X036198Y019342D02*
X036423Y019342D01*
X036498Y019417D01*
X036498Y019492D01*
X036423Y019567D01*
X036658Y019417D02*
X036733Y019342D01*
X036884Y019342D01*
X036959Y019417D01*
X036959Y019718D01*
X036884Y019793D01*
X036733Y019793D01*
X036658Y019718D01*
X036658Y019417D01*
X036198Y019342D02*
X036198Y019793D01*
X037119Y019793D02*
X037419Y019342D01*
X037579Y019267D02*
X037879Y019267D01*
X038039Y019342D02*
X038190Y019342D01*
X038114Y019342D02*
X038114Y019793D01*
X038039Y019793D02*
X038190Y019793D01*
X038346Y019793D02*
X038571Y019793D01*
X038647Y019718D01*
X038647Y019417D01*
X038571Y019342D01*
X038346Y019342D01*
X038346Y019793D01*
X037419Y019793D02*
X037119Y019342D01*
X037046Y022826D02*
X036932Y022826D01*
X036876Y022882D01*
X036989Y022996D02*
X037046Y022996D01*
X037103Y022939D01*
X037103Y022882D01*
X037046Y022826D01*
X037046Y022996D02*
X037103Y023053D01*
X037103Y023109D01*
X037046Y023166D01*
X036932Y023166D01*
X036876Y023109D01*
X036103Y023109D02*
X036103Y023053D01*
X035876Y022826D01*
X036103Y022826D01*
X036103Y023109D02*
X036046Y023166D01*
X035932Y023166D01*
X035876Y023109D01*
X035103Y022826D02*
X034876Y022826D01*
X034989Y022826D02*
X034989Y023166D01*
X034876Y023053D01*
X033076Y022966D02*
X033076Y022665D01*
X033076Y022815D02*
X032625Y022815D01*
X032776Y022665D01*
X032851Y022505D02*
X032700Y022505D01*
X032625Y022430D01*
X032625Y022205D01*
X033076Y022205D01*
X032926Y022205D02*
X032926Y022430D01*
X032851Y022505D01*
X032851Y022045D02*
X032700Y022045D01*
X032625Y021970D01*
X032625Y021745D01*
X033076Y021745D01*
X032926Y021745D02*
X032926Y021970D01*
X032851Y022045D01*
X032926Y021895D02*
X033076Y022045D01*
X032851Y021351D02*
X032851Y021151D01*
X031301Y021351D02*
X031101Y021351D01*
X031101Y021851D01*
X029101Y021851D01*
X029101Y021351D01*
X029101Y020851D01*
X031101Y020851D01*
X031101Y021351D01*
X030597Y021426D02*
X030522Y021351D01*
X030597Y021276D01*
X030597Y021201D01*
X030522Y021126D01*
X030372Y021126D01*
X030296Y021201D01*
X030447Y021351D02*
X030522Y021351D01*
X030597Y021426D02*
X030597Y021501D01*
X030522Y021576D01*
X030372Y021576D01*
X030296Y021501D01*
X030136Y021501D02*
X030136Y021351D01*
X030061Y021276D01*
X029836Y021276D01*
X029836Y021126D02*
X029836Y021576D01*
X030061Y021576D01*
X030136Y021501D01*
X030296Y022126D02*
X030597Y022426D01*
X030597Y022501D01*
X030522Y022576D01*
X030372Y022576D01*
X030296Y022501D01*
X030136Y022501D02*
X030136Y022351D01*
X030061Y022276D01*
X029836Y022276D01*
X029836Y022126D02*
X029836Y022576D01*
X030061Y022576D01*
X030136Y022501D01*
X030296Y022126D02*
X030597Y022126D01*
X031101Y022351D02*
X031101Y022851D01*
X029101Y022851D01*
X029101Y022351D01*
X029101Y021851D01*
X031101Y021851D01*
X031101Y022351D01*
X031301Y022351D01*
X032851Y023351D02*
X032851Y023551D01*
X032163Y025096D02*
X031863Y025096D01*
X032013Y025096D02*
X032013Y025546D01*
X031863Y025396D01*
X031706Y025546D02*
X031556Y025546D01*
X031631Y025546D02*
X031631Y025096D01*
X031556Y025096D02*
X031706Y025096D01*
X031396Y025171D02*
X031396Y025246D01*
X031321Y025321D01*
X031171Y025321D01*
X031096Y025396D01*
X031096Y025471D01*
X031171Y025546D01*
X031321Y025546D01*
X031396Y025471D01*
X031396Y025171D02*
X031321Y025096D01*
X031171Y025096D01*
X031096Y025171D01*
X029317Y024721D02*
X029317Y024646D01*
X029242Y024571D01*
X029092Y024571D01*
X029016Y024646D01*
X029016Y024721D01*
X029092Y024796D01*
X029242Y024796D01*
X029317Y024721D01*
X029242Y024571D02*
X029317Y024496D01*
X029317Y024421D01*
X029242Y024346D01*
X029092Y024346D01*
X029016Y024421D01*
X029016Y024496D01*
X029092Y024571D01*
X028856Y024571D02*
X028781Y024496D01*
X028556Y024496D01*
X028556Y024346D02*
X028556Y024796D01*
X028781Y024796D01*
X028856Y024721D01*
X028856Y024571D01*
X028396Y024796D02*
X028246Y024796D01*
X028321Y024796D02*
X028321Y024421D01*
X028246Y024346D01*
X028171Y024346D01*
X028096Y024421D01*
X028171Y026346D02*
X028096Y026421D01*
X028171Y026346D02*
X028246Y026346D01*
X028321Y026421D01*
X028321Y026796D01*
X028246Y026796D02*
X028396Y026796D01*
X028556Y026796D02*
X028556Y026346D01*
X028556Y026496D02*
X028781Y026496D01*
X028856Y026571D01*
X028856Y026721D01*
X028781Y026796D01*
X028556Y026796D01*
X029016Y026796D02*
X029317Y026796D01*
X029317Y026721D01*
X029016Y026421D01*
X029016Y026346D01*
X029501Y027415D02*
X029501Y027641D01*
X029576Y027716D01*
X029651Y027716D01*
X029726Y027641D01*
X029726Y027490D01*
X029651Y027415D01*
X029501Y027415D01*
X029350Y027566D01*
X029275Y027716D01*
X027462Y030045D02*
X027462Y030195D01*
X027462Y030120D02*
X027011Y030120D01*
X027011Y030045D02*
X027011Y030195D01*
X027086Y030352D02*
X027387Y030352D01*
X027462Y030427D01*
X027462Y030577D01*
X027387Y030652D01*
X027387Y030812D02*
X027462Y030887D01*
X027462Y031037D01*
X027387Y031113D01*
X027311Y031113D01*
X027236Y031037D01*
X027236Y030887D01*
X027161Y030812D01*
X027086Y030812D01*
X027011Y030887D01*
X027011Y031037D01*
X027086Y031113D01*
X027011Y031273D02*
X027011Y031498D01*
X027086Y031573D01*
X027236Y031573D01*
X027311Y031498D01*
X027311Y031273D01*
X027462Y031273D02*
X027011Y031273D01*
X027086Y030652D02*
X027011Y030577D01*
X027011Y030427D01*
X027086Y030352D01*
X027626Y032415D02*
X027475Y032566D01*
X027926Y032566D01*
X027926Y032716D02*
X027926Y032415D01*
X026466Y033401D02*
X026391Y033326D01*
X026240Y033326D01*
X026165Y033401D01*
X026005Y033401D02*
X025930Y033326D01*
X025780Y033326D01*
X025705Y033401D01*
X025705Y033701D01*
X025780Y033776D01*
X025930Y033776D01*
X026005Y033701D01*
X026165Y033701D02*
X026240Y033776D01*
X026391Y033776D01*
X026466Y033701D01*
X026466Y033626D01*
X026391Y033551D01*
X026466Y033476D01*
X026466Y033401D01*
X026391Y033551D02*
X026316Y033551D01*
X026251Y034601D02*
X025751Y034601D01*
X025401Y034601D02*
X024951Y034601D01*
X028401Y034601D02*
X028601Y034601D01*
X028601Y034101D01*
X030601Y034101D01*
X030601Y034601D01*
X030601Y035101D01*
X028601Y035101D01*
X028601Y034601D01*
X028959Y034529D02*
X029184Y034529D01*
X029259Y034604D01*
X029259Y034754D01*
X029184Y034829D01*
X028959Y034829D01*
X028959Y034379D01*
X029109Y034529D02*
X029259Y034379D01*
X029419Y034454D02*
X029494Y034379D01*
X029644Y034379D01*
X029719Y034454D01*
X029719Y034529D01*
X029644Y034604D01*
X029569Y034604D01*
X029644Y034604D02*
X029719Y034679D01*
X029719Y034754D01*
X029644Y034829D01*
X029494Y034829D01*
X029419Y034754D01*
X029880Y034754D02*
X029955Y034829D01*
X030105Y034829D01*
X030180Y034754D01*
X030180Y034679D01*
X029880Y034379D01*
X030180Y034379D01*
X030601Y034601D02*
X030801Y034601D01*
X033601Y035601D02*
X033601Y037601D01*
X034101Y037601D01*
X034601Y037601D01*
X034601Y035601D01*
X034101Y035601D01*
X033601Y035601D01*
X034101Y035601D02*
X034101Y035401D01*
X034705Y035626D02*
X034705Y036076D01*
X034930Y036076D01*
X035005Y036001D01*
X035005Y035851D01*
X034930Y035776D01*
X034705Y035776D01*
X034855Y035776D02*
X035005Y035626D01*
X035165Y035701D02*
X035240Y035626D01*
X035391Y035626D01*
X035466Y035701D01*
X035466Y035776D01*
X035391Y035851D01*
X035165Y035851D01*
X035165Y035701D01*
X035165Y035851D02*
X035316Y036001D01*
X035466Y036076D01*
X036601Y035601D02*
X037101Y035601D01*
X037601Y035601D01*
X037601Y037601D01*
X037101Y037601D01*
X036601Y037601D01*
X036601Y035601D01*
X037101Y035601D02*
X037101Y035401D01*
X037705Y035626D02*
X037705Y036076D01*
X037930Y036076D01*
X038005Y036001D01*
X038005Y035851D01*
X037930Y035776D01*
X037705Y035776D01*
X037855Y035776D02*
X038005Y035626D01*
X038165Y035701D02*
X038240Y035626D01*
X038391Y035626D01*
X038466Y035701D01*
X038466Y035851D01*
X038391Y035926D01*
X038316Y035926D01*
X038165Y035851D01*
X038165Y036076D01*
X038466Y036076D01*
X037101Y037601D02*
X037101Y037801D01*
X035886Y038851D02*
X035811Y038776D01*
X035586Y038776D01*
X035586Y038626D02*
X035586Y039076D01*
X035811Y039076D01*
X035886Y039001D01*
X035886Y038851D01*
X035426Y038626D02*
X035126Y038626D01*
X035126Y039076D01*
X034101Y037801D02*
X034101Y037601D01*
X032886Y038701D02*
X032811Y038626D01*
X032661Y038626D01*
X032586Y038701D01*
X032586Y039001D01*
X032661Y039076D01*
X032811Y039076D01*
X032886Y039001D01*
X032426Y038626D02*
X032126Y038626D01*
X032126Y039076D01*
X029847Y039076D02*
X029847Y038626D01*
X029546Y038626D02*
X029546Y039076D01*
X029697Y038926D01*
X029847Y039076D01*
X029386Y039001D02*
X029311Y039076D01*
X029161Y039076D01*
X029086Y039001D01*
X029086Y038701D01*
X029161Y038626D01*
X029311Y038626D01*
X029386Y038701D01*
X029386Y038851D01*
X029236Y038851D01*
X028926Y038851D02*
X028851Y038776D01*
X028626Y038776D01*
X028626Y038626D02*
X028626Y039076D01*
X028851Y039076D01*
X028926Y039001D01*
X028926Y038851D01*
X022347Y039076D02*
X022046Y039076D01*
X022197Y039076D02*
X022197Y038626D01*
X021886Y038701D02*
X021811Y038626D01*
X021661Y038626D01*
X021586Y038701D01*
X021661Y038851D02*
X021811Y038851D01*
X021886Y038776D01*
X021886Y038701D01*
X021661Y038851D02*
X021586Y038926D01*
X021586Y039001D01*
X021661Y039076D01*
X021811Y039076D01*
X021886Y039001D01*
X021426Y039001D02*
X021426Y038851D01*
X021351Y038776D01*
X021126Y038776D01*
X021276Y038776D02*
X021426Y038626D01*
X021126Y038626D02*
X021126Y039076D01*
X021351Y039076D01*
X021426Y039001D01*
X019216Y039001D02*
X019216Y038851D01*
X019140Y038776D01*
X018915Y038776D01*
X018915Y038626D02*
X018915Y039076D01*
X019140Y039076D01*
X019216Y039001D01*
X018755Y038551D02*
X018455Y038551D01*
X018295Y038701D02*
X018295Y039001D01*
X018220Y039076D01*
X017995Y039076D01*
X017995Y038626D01*
X018220Y038626D01*
X018295Y038701D01*
X017834Y038626D02*
X017534Y038626D01*
X017534Y039076D01*
X017834Y039076D01*
X017684Y038851D02*
X017534Y038851D01*
X017374Y038626D02*
X017074Y038626D01*
X017074Y039076D01*
X016242Y038296D02*
X016016Y038296D01*
X016016Y037846D01*
X016242Y037846D01*
X016317Y037921D01*
X016317Y038221D01*
X016242Y038296D01*
X015856Y038296D02*
X015856Y037846D01*
X015556Y038296D01*
X015556Y037846D01*
X015396Y037921D02*
X015396Y038071D01*
X015246Y038071D01*
X015396Y038221D02*
X015321Y038296D01*
X015171Y038296D01*
X015096Y038221D01*
X015096Y037921D01*
X015171Y037846D01*
X015321Y037846D01*
X015396Y037921D01*
X015281Y036796D02*
X015356Y036721D01*
X015356Y036646D01*
X015281Y036571D01*
X015356Y036496D01*
X015356Y036421D01*
X015281Y036346D01*
X015131Y036346D01*
X015056Y036421D01*
X015206Y036571D02*
X015281Y036571D01*
X015281Y036796D02*
X015131Y036796D01*
X015056Y036721D01*
X014896Y036571D02*
X014596Y036571D01*
X014746Y036721D02*
X014746Y036421D01*
X015516Y036421D02*
X015592Y036421D01*
X015592Y036346D01*
X015516Y036346D01*
X015516Y036421D01*
X015747Y036421D02*
X015822Y036346D01*
X015972Y036346D01*
X016047Y036421D01*
X016047Y036496D01*
X015972Y036571D01*
X015897Y036571D01*
X015972Y036571D02*
X016047Y036646D01*
X016047Y036721D01*
X015972Y036796D01*
X015822Y036796D01*
X015747Y036721D01*
X016207Y036796D02*
X016207Y036496D01*
X016357Y036346D01*
X016507Y036496D01*
X016507Y036796D01*
X015601Y034601D02*
X015601Y034101D01*
X015601Y033601D01*
X013601Y033601D01*
X013601Y034101D01*
X013601Y034601D01*
X015601Y034601D01*
X015601Y034101D02*
X015801Y034101D01*
X015161Y034286D02*
X014861Y033985D01*
X014861Y033910D01*
X014701Y033910D02*
X014400Y033910D01*
X014701Y034210D01*
X014701Y034286D01*
X014625Y034361D01*
X014475Y034361D01*
X014400Y034286D01*
X014240Y034286D02*
X014240Y034135D01*
X014165Y034060D01*
X013940Y034060D01*
X013940Y033910D02*
X013940Y034361D01*
X014165Y034361D01*
X014240Y034286D01*
X014090Y034060D02*
X014240Y033910D01*
X013601Y034101D02*
X013401Y034101D01*
X014861Y034361D02*
X015161Y034361D01*
X015161Y034286D01*
X014022Y031826D02*
X013796Y031826D01*
X013796Y031376D01*
X014022Y031376D01*
X014097Y031451D01*
X014097Y031526D01*
X014022Y031601D01*
X013796Y031601D01*
X013636Y031526D02*
X013636Y031451D01*
X013561Y031376D01*
X013411Y031376D01*
X013336Y031451D01*
X013411Y031601D02*
X013561Y031601D01*
X013636Y031526D01*
X013636Y031751D02*
X013561Y031826D01*
X013411Y031826D01*
X013336Y031751D01*
X013336Y031676D01*
X013411Y031601D01*
X013176Y031376D02*
X012876Y031376D01*
X012876Y031826D01*
X014022Y031826D02*
X014097Y031751D01*
X014097Y031676D01*
X014022Y031601D01*
X010861Y033031D02*
X010561Y033031D01*
X010711Y033031D02*
X010711Y033481D01*
X010561Y033331D01*
X010401Y033406D02*
X010326Y033481D01*
X010176Y033481D01*
X010101Y033406D01*
X010101Y033106D01*
X010176Y033031D01*
X010326Y033031D01*
X010401Y033106D01*
X010251Y034101D02*
X009801Y034101D01*
X009451Y034101D02*
X008951Y034101D01*
X011108Y036260D02*
X011033Y036335D01*
X011108Y036260D02*
X011183Y036260D01*
X011258Y036335D01*
X011258Y036710D01*
X011183Y036710D02*
X011333Y036710D01*
X011493Y036710D02*
X011493Y036260D01*
X011493Y036410D02*
X011718Y036410D01*
X011793Y036485D01*
X011793Y036635D01*
X011718Y036710D01*
X011493Y036710D01*
X011954Y036560D02*
X012104Y036710D01*
X012104Y036260D01*
X011954Y036260D02*
X012254Y036260D01*
X012601Y037401D02*
X012601Y037701D01*
X012701Y037851D02*
X011501Y037851D01*
X011501Y038051D01*
X012701Y038051D01*
X012701Y037851D01*
X012751Y037551D02*
X012451Y037551D01*
X011101Y038101D02*
X011103Y038164D01*
X011109Y038226D01*
X011119Y038288D01*
X011132Y038350D01*
X011150Y038410D01*
X011171Y038469D01*
X011196Y038527D01*
X011225Y038583D01*
X011257Y038637D01*
X011292Y038689D01*
X011330Y038738D01*
X011372Y038786D01*
X011416Y038830D01*
X011464Y038872D01*
X011513Y038910D01*
X011565Y038945D01*
X011619Y038977D01*
X011675Y039006D01*
X011733Y039031D01*
X011792Y039052D01*
X011852Y039070D01*
X011914Y039083D01*
X011976Y039093D01*
X012038Y039099D01*
X012101Y039101D01*
X012164Y039099D01*
X012226Y039093D01*
X012288Y039083D01*
X012350Y039070D01*
X012410Y039052D01*
X012469Y039031D01*
X012527Y039006D01*
X012583Y038977D01*
X012637Y038945D01*
X012689Y038910D01*
X012738Y038872D01*
X012786Y038830D01*
X012830Y038786D01*
X012872Y038738D01*
X012910Y038689D01*
X012945Y038637D01*
X012977Y038583D01*
X013006Y038527D01*
X013031Y038469D01*
X013052Y038410D01*
X013070Y038350D01*
X013083Y038288D01*
X013093Y038226D01*
X013099Y038164D01*
X013101Y038101D01*
X013099Y038038D01*
X013093Y037976D01*
X013083Y037914D01*
X013070Y037852D01*
X013052Y037792D01*
X013031Y037733D01*
X013006Y037675D01*
X012977Y037619D01*
X012945Y037565D01*
X012910Y037513D01*
X012872Y037464D01*
X012830Y037416D01*
X012786Y037372D01*
X012738Y037330D01*
X012689Y037292D01*
X012637Y037257D01*
X012583Y037225D01*
X012527Y037196D01*
X012469Y037171D01*
X012410Y037150D01*
X012350Y037132D01*
X012288Y037119D01*
X012226Y037109D01*
X012164Y037103D01*
X012101Y037101D01*
X012038Y037103D01*
X011976Y037109D01*
X011914Y037119D01*
X011852Y037132D01*
X011792Y037150D01*
X011733Y037171D01*
X011675Y037196D01*
X011619Y037225D01*
X011565Y037257D01*
X011513Y037292D01*
X011464Y037330D01*
X011416Y037372D01*
X011372Y037416D01*
X011330Y037464D01*
X011292Y037513D01*
X011257Y037565D01*
X011225Y037619D01*
X011196Y037675D01*
X011171Y037733D01*
X011150Y037792D01*
X011132Y037852D01*
X011119Y037914D01*
X011109Y037976D01*
X011103Y038038D01*
X011101Y038101D01*
X013287Y038076D02*
X013362Y038001D01*
X013287Y038076D02*
X013287Y038226D01*
X013362Y038302D01*
X013437Y038302D01*
X013738Y038001D01*
X013738Y038302D01*
X013663Y037841D02*
X013738Y037766D01*
X013738Y037616D01*
X013663Y037541D01*
X013362Y037541D01*
X013287Y037616D01*
X013287Y037766D01*
X013362Y037841D01*
X008696Y037898D02*
X008696Y038048D01*
X008696Y037973D02*
X008245Y037973D01*
X008245Y037898D02*
X008245Y038048D01*
X008320Y038205D02*
X008245Y038280D01*
X008245Y038430D01*
X008320Y038505D01*
X008471Y038665D02*
X008245Y038891D01*
X008696Y038891D01*
X008471Y038966D02*
X008471Y038665D01*
X008621Y038505D02*
X008696Y038430D01*
X008696Y038280D01*
X008621Y038205D01*
X008320Y038205D01*
X005246Y035166D02*
X005246Y034716D01*
X005096Y034716D02*
X005396Y034716D01*
X005096Y035016D02*
X005246Y035166D01*
X004936Y035091D02*
X004936Y035016D01*
X004861Y034941D01*
X004636Y034941D01*
X004861Y034941D02*
X004936Y034866D01*
X004936Y034791D01*
X004861Y034716D01*
X004636Y034716D01*
X004636Y035166D01*
X004861Y035166D01*
X004936Y035091D01*
X002051Y035412D02*
X002053Y035459D01*
X002059Y035505D01*
X002069Y035551D01*
X002082Y035595D01*
X002100Y035639D01*
X002121Y035680D01*
X002145Y035720D01*
X002173Y035758D01*
X002204Y035793D01*
X002238Y035825D01*
X002274Y035854D01*
X002313Y035880D01*
X002353Y035903D01*
X002396Y035922D01*
X002440Y035938D01*
X002485Y035950D01*
X002531Y035958D01*
X002578Y035962D01*
X002624Y035962D01*
X002671Y035958D01*
X002717Y035950D01*
X002762Y035938D01*
X002806Y035922D01*
X002849Y035903D01*
X002889Y035880D01*
X002928Y035854D01*
X002964Y035825D01*
X002998Y035793D01*
X003029Y035758D01*
X003057Y035720D01*
X003081Y035680D01*
X003102Y035639D01*
X003120Y035595D01*
X003133Y035551D01*
X003143Y035505D01*
X003149Y035459D01*
X003151Y035412D01*
X003149Y035365D01*
X003143Y035319D01*
X003133Y035273D01*
X003120Y035229D01*
X003102Y035185D01*
X003081Y035144D01*
X003057Y035104D01*
X003029Y035066D01*
X002998Y035031D01*
X002964Y034999D01*
X002928Y034970D01*
X002889Y034944D01*
X002849Y034921D01*
X002806Y034902D01*
X002762Y034886D01*
X002717Y034874D01*
X002671Y034866D01*
X002624Y034862D01*
X002578Y034862D01*
X002531Y034866D01*
X002485Y034874D01*
X002440Y034886D01*
X002396Y034902D01*
X002353Y034921D01*
X002313Y034944D01*
X002274Y034970D01*
X002238Y034999D01*
X002204Y035031D01*
X002173Y035066D01*
X002145Y035104D01*
X002121Y035144D01*
X002100Y035185D01*
X002082Y035229D01*
X002069Y035273D01*
X002059Y035319D01*
X002053Y035365D01*
X002051Y035412D01*
X002136Y034114D02*
X002136Y033663D01*
X001986Y033813D01*
X001836Y033663D01*
X001836Y034114D01*
X001676Y034039D02*
X001676Y033888D01*
X001601Y033813D01*
X001376Y033813D01*
X001376Y033663D02*
X001376Y034114D01*
X001601Y034114D01*
X001676Y034039D01*
X002296Y034114D02*
X002296Y033663D01*
X002296Y033813D02*
X002522Y033813D01*
X002597Y033888D01*
X002597Y034039D01*
X002522Y034114D01*
X002296Y034114D01*
X002447Y033813D02*
X002597Y033663D01*
X002676Y031826D02*
X002676Y031376D01*
X002836Y031451D02*
X002911Y031376D01*
X003061Y031376D01*
X003136Y031451D01*
X003136Y031526D01*
X003061Y031601D01*
X002911Y031601D01*
X002836Y031676D01*
X002836Y031751D01*
X002911Y031826D01*
X003061Y031826D01*
X003136Y031751D01*
X003296Y031826D02*
X003296Y031376D01*
X003522Y031376D01*
X003597Y031451D01*
X003597Y031526D01*
X003522Y031601D01*
X003296Y031601D01*
X003296Y031826D02*
X003522Y031826D01*
X003597Y031751D01*
X003597Y031676D01*
X003522Y031601D01*
X002676Y031826D02*
X002526Y031676D01*
X002376Y031826D01*
X002376Y031376D01*
X002051Y036790D02*
X002053Y036837D01*
X002059Y036883D01*
X002069Y036929D01*
X002082Y036973D01*
X002100Y037017D01*
X002121Y037058D01*
X002145Y037098D01*
X002173Y037136D01*
X002204Y037171D01*
X002238Y037203D01*
X002274Y037232D01*
X002313Y037258D01*
X002353Y037281D01*
X002396Y037300D01*
X002440Y037316D01*
X002485Y037328D01*
X002531Y037336D01*
X002578Y037340D01*
X002624Y037340D01*
X002671Y037336D01*
X002717Y037328D01*
X002762Y037316D01*
X002806Y037300D01*
X002849Y037281D01*
X002889Y037258D01*
X002928Y037232D01*
X002964Y037203D01*
X002998Y037171D01*
X003029Y037136D01*
X003057Y037098D01*
X003081Y037058D01*
X003102Y037017D01*
X003120Y036973D01*
X003133Y036929D01*
X003143Y036883D01*
X003149Y036837D01*
X003151Y036790D01*
X003149Y036743D01*
X003143Y036697D01*
X003133Y036651D01*
X003120Y036607D01*
X003102Y036563D01*
X003081Y036522D01*
X003057Y036482D01*
X003029Y036444D01*
X002998Y036409D01*
X002964Y036377D01*
X002928Y036348D01*
X002889Y036322D01*
X002849Y036299D01*
X002806Y036280D01*
X002762Y036264D01*
X002717Y036252D01*
X002671Y036244D01*
X002624Y036240D01*
X002578Y036240D01*
X002531Y036244D01*
X002485Y036252D01*
X002440Y036264D01*
X002396Y036280D01*
X002353Y036299D01*
X002313Y036322D01*
X002274Y036348D01*
X002238Y036377D01*
X002204Y036409D01*
X002173Y036444D01*
X002145Y036482D01*
X002121Y036522D01*
X002100Y036563D01*
X002082Y036607D01*
X002069Y036651D01*
X002059Y036697D01*
X002053Y036743D01*
X002051Y036790D01*
X018876Y034601D02*
X018951Y034526D01*
X019026Y034526D01*
X019101Y034601D01*
X019101Y034976D01*
X019026Y034976D02*
X019176Y034976D01*
X019336Y034976D02*
X019561Y034976D01*
X019636Y034901D01*
X019636Y034751D01*
X019561Y034676D01*
X019336Y034676D01*
X019336Y034526D02*
X019336Y034976D01*
X019796Y034901D02*
X019796Y034826D01*
X019872Y034751D01*
X020097Y034751D01*
X020097Y034601D02*
X020097Y034901D01*
X020022Y034976D01*
X019872Y034976D01*
X019796Y034901D01*
X019796Y034601D02*
X019872Y034526D01*
X020022Y034526D01*
X020097Y034601D01*
X025145Y028326D02*
X025295Y028326D01*
X025220Y028326D02*
X025220Y027951D01*
X025145Y027876D01*
X025070Y027876D01*
X024995Y027951D01*
X025455Y028026D02*
X025680Y028026D01*
X025755Y028101D01*
X025755Y028251D01*
X025680Y028326D01*
X025455Y028326D01*
X025455Y027876D01*
X025915Y027876D02*
X026216Y028176D01*
X026216Y028251D01*
X026141Y028326D01*
X025990Y028326D01*
X025915Y028251D01*
X025915Y027876D02*
X026216Y027876D01*
X028901Y022351D02*
X029101Y022351D01*
X029376Y022276D02*
X029601Y022276D01*
X029676Y022351D01*
X029676Y022501D01*
X029601Y022576D01*
X029376Y022576D01*
X029376Y022126D01*
X029526Y022276D02*
X029676Y022126D01*
X029601Y021576D02*
X029676Y021501D01*
X029676Y021351D01*
X029601Y021276D01*
X029376Y021276D01*
X029526Y021276D02*
X029676Y021126D01*
X029376Y021126D02*
X029376Y021576D01*
X029601Y021576D01*
X029101Y021351D02*
X028901Y021351D01*
X027416Y021101D02*
X027416Y021026D01*
X027341Y020951D01*
X027416Y020876D01*
X027416Y020801D01*
X027341Y020726D01*
X027190Y020726D01*
X027115Y020801D01*
X026955Y020801D02*
X026880Y020726D01*
X026730Y020726D01*
X026655Y020801D01*
X026655Y021101D01*
X026730Y021176D01*
X026880Y021176D01*
X026955Y021101D01*
X027115Y021101D02*
X027190Y021176D01*
X027341Y021176D01*
X027416Y021101D01*
X027341Y020951D02*
X027265Y020951D01*
X026498Y020726D02*
X026348Y020726D01*
X026423Y020726D02*
X026423Y021176D01*
X026348Y021176D02*
X026498Y021176D01*
X024356Y019396D02*
X024356Y019096D01*
X024356Y019321D02*
X024056Y019321D01*
X024056Y019396D02*
X024206Y019546D01*
X024356Y019396D01*
X024056Y019396D02*
X024056Y019096D01*
X023896Y019321D02*
X023821Y019246D01*
X023596Y019246D01*
X023596Y019096D02*
X023596Y019546D01*
X023821Y019546D01*
X023896Y019471D01*
X023896Y019321D01*
X023821Y016546D02*
X023596Y016546D01*
X023596Y016096D01*
X023596Y016246D02*
X023821Y016246D01*
X023896Y016321D01*
X023896Y016471D01*
X023821Y016546D01*
X024056Y016396D02*
X024206Y016546D01*
X024356Y016396D01*
X024356Y016096D01*
X024356Y016321D02*
X024056Y016321D01*
X024056Y016396D02*
X024056Y016096D01*
X023891Y015576D02*
X023665Y015351D01*
X023966Y015351D01*
X023891Y015126D02*
X023891Y015576D01*
X023505Y015576D02*
X023205Y015276D01*
X023280Y015351D02*
X023505Y015126D01*
X023205Y015126D02*
X023205Y015576D01*
X023045Y015501D02*
X022970Y015576D01*
X022820Y015576D01*
X022745Y015501D01*
X022745Y015201D01*
X022820Y015126D01*
X022970Y015126D01*
X023045Y015201D01*
X023045Y015501D01*
X024516Y016396D02*
X024592Y016471D01*
X024592Y016621D01*
X027245Y015501D02*
X027245Y015201D01*
X027320Y015126D01*
X027470Y015126D01*
X027545Y015201D01*
X027545Y015501D01*
X027470Y015576D01*
X027320Y015576D01*
X027245Y015501D01*
X027705Y015576D02*
X027705Y015126D01*
X027705Y015276D02*
X028005Y015576D01*
X028165Y015501D02*
X028240Y015576D01*
X028391Y015576D01*
X028466Y015501D01*
X028466Y015426D01*
X028391Y015351D01*
X028466Y015276D01*
X028466Y015201D01*
X028391Y015126D01*
X028240Y015126D01*
X028165Y015201D01*
X028005Y015126D02*
X027780Y015351D01*
X028315Y015351D02*
X028391Y015351D01*
X031745Y015201D02*
X031820Y015126D01*
X031970Y015126D01*
X032045Y015201D01*
X032045Y015501D01*
X031970Y015576D01*
X031820Y015576D01*
X031745Y015501D01*
X031745Y015201D01*
X032205Y015276D02*
X032505Y015576D01*
X032665Y015501D02*
X032740Y015576D01*
X032891Y015576D01*
X032966Y015501D01*
X032966Y015426D01*
X032665Y015126D01*
X032966Y015126D01*
X032505Y015126D02*
X032280Y015351D01*
X032205Y015576D02*
X032205Y015126D01*
X031101Y011601D02*
X029101Y011601D01*
X029101Y011101D01*
X029101Y010601D01*
X031101Y010601D01*
X031101Y011101D01*
X031101Y011601D01*
X031101Y011101D02*
X031301Y011101D01*
X030601Y011109D02*
X030301Y011109D01*
X030301Y011184D02*
X030451Y011334D01*
X030601Y011184D01*
X030601Y010884D01*
X030301Y010884D02*
X030301Y011184D01*
X030140Y011184D02*
X030140Y011259D01*
X030065Y011334D01*
X029915Y011334D01*
X029840Y011259D01*
X029680Y011259D02*
X029680Y011109D01*
X029605Y011034D01*
X029380Y011034D01*
X029530Y011034D02*
X029680Y010884D01*
X029840Y010884D02*
X030140Y011184D01*
X030140Y010884D02*
X029840Y010884D01*
X029680Y011259D02*
X029605Y011334D01*
X029380Y011334D01*
X029380Y010884D01*
X029101Y011101D02*
X028901Y011101D01*
X028601Y009801D02*
X028601Y009601D01*
X028101Y009601D01*
X027601Y009601D01*
X027101Y009601D01*
X027101Y007601D01*
X027601Y007601D01*
X028101Y007601D01*
X028101Y009601D01*
X028101Y007601D01*
X028601Y007601D01*
X029101Y007601D01*
X029101Y009601D01*
X028601Y009601D01*
X028476Y009204D02*
X028401Y009129D01*
X028401Y008979D01*
X028476Y008904D01*
X028776Y008904D01*
X028851Y008979D01*
X028851Y009129D01*
X028776Y009204D01*
X028776Y008743D02*
X028851Y008668D01*
X028851Y008518D01*
X028776Y008443D01*
X028851Y008283D02*
X028701Y008133D01*
X028701Y008208D02*
X028701Y007983D01*
X028851Y007983D02*
X028401Y007983D01*
X028401Y008208D01*
X028476Y008283D01*
X028626Y008283D01*
X028701Y008208D01*
X028476Y008443D02*
X028401Y008518D01*
X028401Y008668D01*
X028476Y008743D01*
X028551Y008743D01*
X028626Y008668D01*
X028701Y008743D01*
X028776Y008743D01*
X028626Y008668D02*
X028626Y008593D01*
X027822Y008573D02*
X027822Y008423D01*
X027747Y008348D01*
X027822Y008188D02*
X027672Y008038D01*
X027672Y008113D02*
X027672Y007888D01*
X027822Y007888D02*
X027371Y007888D01*
X027371Y008113D01*
X027446Y008188D01*
X027597Y008188D01*
X027672Y008113D01*
X027446Y008348D02*
X027371Y008423D01*
X027371Y008573D01*
X027446Y008648D01*
X027521Y008648D01*
X027597Y008573D01*
X027672Y008648D01*
X027747Y008648D01*
X027822Y008573D01*
X027597Y008573D02*
X027597Y008498D01*
X027597Y008808D02*
X027597Y009034D01*
X027672Y009109D01*
X027747Y009109D01*
X027822Y009034D01*
X027822Y008808D01*
X027371Y008808D01*
X027371Y009034D01*
X027446Y009109D01*
X027521Y009109D01*
X027597Y009034D01*
X027601Y009601D02*
X027601Y009801D01*
X026601Y010601D02*
X026601Y011101D01*
X026601Y011601D01*
X024601Y011601D01*
X024601Y011101D01*
X024601Y010601D01*
X026601Y010601D01*
X026601Y011101D02*
X026801Y011101D01*
X026114Y011101D02*
X025813Y011101D01*
X025813Y011176D02*
X025964Y011326D01*
X026114Y011176D01*
X026114Y010876D01*
X025813Y010876D02*
X025813Y011176D01*
X025653Y011176D02*
X025578Y011101D01*
X025653Y011026D01*
X025653Y010951D01*
X025578Y010876D01*
X025428Y010876D01*
X025353Y010951D01*
X025193Y010876D02*
X025043Y011026D01*
X025118Y011026D02*
X024893Y011026D01*
X024893Y010876D02*
X024893Y011326D01*
X025118Y011326D01*
X025193Y011251D01*
X025193Y011101D01*
X025118Y011026D01*
X025353Y011251D02*
X025428Y011326D01*
X025578Y011326D01*
X025653Y011251D01*
X025653Y011176D01*
X025578Y011101D02*
X025503Y011101D01*
X024601Y011101D02*
X024401Y011101D01*
X024101Y009801D02*
X024101Y009601D01*
X023601Y009601D01*
X023101Y009601D01*
X022601Y009601D01*
X022601Y007601D01*
X023101Y007601D01*
X023601Y007601D01*
X023601Y009601D01*
X023601Y007601D01*
X024101Y007601D01*
X024601Y007601D01*
X024601Y009601D01*
X024101Y009601D01*
X023952Y009193D02*
X023877Y009118D01*
X023877Y008968D01*
X023952Y008893D01*
X024253Y008893D01*
X024328Y008968D01*
X024328Y009118D01*
X024253Y009193D01*
X024102Y008733D02*
X024102Y008432D01*
X023877Y008658D01*
X024328Y008658D01*
X024328Y008272D02*
X024178Y008122D01*
X024178Y008197D02*
X024178Y007972D01*
X024328Y007972D02*
X023877Y007972D01*
X023877Y008197D01*
X023952Y008272D01*
X024102Y008272D01*
X024178Y008197D01*
X024101Y007601D02*
X024101Y007401D01*
X023347Y007898D02*
X022897Y007898D01*
X022897Y008124D01*
X022972Y008199D01*
X023122Y008199D01*
X023197Y008124D01*
X023197Y007898D01*
X023197Y008048D02*
X023347Y008199D01*
X023122Y008359D02*
X023122Y008659D01*
X023122Y008819D02*
X023122Y009044D01*
X023197Y009119D01*
X023272Y009119D01*
X023347Y009044D01*
X023347Y008819D01*
X022897Y008819D01*
X022897Y009044D01*
X022972Y009119D01*
X023047Y009119D01*
X023122Y009044D01*
X022897Y008584D02*
X023122Y008359D01*
X023347Y008584D02*
X022897Y008584D01*
X022136Y008351D02*
X021836Y008351D01*
X022061Y008576D01*
X022061Y008126D01*
X021676Y008126D02*
X021376Y008126D01*
X021376Y008576D01*
X019853Y008649D02*
X019853Y008499D01*
X019778Y008424D01*
X019628Y008424D02*
X019553Y008574D01*
X019553Y008649D01*
X019628Y008724D01*
X019778Y008724D01*
X019853Y008649D01*
X019778Y008884D02*
X019853Y008959D01*
X019853Y009109D01*
X019778Y009184D01*
X019778Y008884D02*
X019478Y008884D01*
X019403Y008959D01*
X019403Y009109D01*
X019478Y009184D01*
X019601Y009601D02*
X019101Y009601D01*
X018601Y009601D01*
X018101Y009601D01*
X018101Y007601D01*
X018601Y007601D01*
X019101Y007601D01*
X019101Y009601D01*
X019101Y007601D01*
X019601Y007601D01*
X020101Y007601D01*
X020101Y009601D01*
X019601Y009601D01*
X019601Y009801D01*
X020101Y010601D02*
X020101Y011101D01*
X020101Y011601D01*
X022101Y011601D01*
X022101Y011101D01*
X022101Y010601D01*
X020101Y010601D01*
X020382Y010897D02*
X020382Y011347D01*
X020607Y011347D01*
X020683Y011272D01*
X020683Y011122D01*
X020607Y011047D01*
X020382Y011047D01*
X020532Y011047D02*
X020683Y010897D01*
X020843Y011122D02*
X021143Y011122D01*
X021303Y011122D02*
X021603Y011122D01*
X021603Y011197D02*
X021603Y010897D01*
X021603Y011197D02*
X021453Y011347D01*
X021303Y011197D01*
X021303Y010897D01*
X021068Y010897D02*
X021068Y011347D01*
X020843Y011122D01*
X020101Y011101D02*
X019901Y011101D01*
X018601Y009801D02*
X018601Y009601D01*
X018530Y009117D02*
X018605Y009042D01*
X018605Y008817D01*
X018605Y008657D02*
X018530Y008582D01*
X018530Y008507D01*
X018605Y008357D01*
X018380Y008357D01*
X018380Y008657D01*
X018380Y008817D02*
X018380Y009042D01*
X018455Y009117D01*
X018530Y009117D01*
X018605Y009042D02*
X018680Y009117D01*
X018755Y009117D01*
X018830Y009042D01*
X018830Y008817D01*
X018380Y008817D01*
X018605Y008657D02*
X018755Y008657D01*
X018830Y008582D01*
X018830Y008432D01*
X018755Y008357D01*
X018830Y008196D02*
X018680Y008046D01*
X018680Y008121D02*
X018680Y007896D01*
X018830Y007896D02*
X018380Y007896D01*
X018380Y008121D01*
X018455Y008196D01*
X018605Y008196D01*
X018680Y008121D01*
X018601Y007601D02*
X018601Y007401D01*
X017636Y008201D02*
X017561Y008126D01*
X017411Y008126D01*
X017336Y008201D01*
X017336Y008351D02*
X017486Y008426D01*
X017561Y008426D01*
X017636Y008351D01*
X017636Y008201D01*
X017336Y008351D02*
X017336Y008576D01*
X017636Y008576D01*
X017176Y008126D02*
X016876Y008126D01*
X016876Y008576D01*
X015601Y007601D02*
X015101Y007601D01*
X014601Y007601D01*
X014101Y007601D01*
X013601Y007601D01*
X013601Y009601D01*
X014101Y009601D01*
X014601Y009601D01*
X014601Y007601D01*
X014601Y009601D01*
X015101Y009601D01*
X015601Y009601D01*
X015601Y007601D01*
X015317Y007957D02*
X014867Y007957D01*
X014867Y008182D01*
X014942Y008257D01*
X015092Y008257D01*
X015167Y008182D01*
X015167Y007957D01*
X015167Y008107D02*
X015317Y008257D01*
X015242Y008417D02*
X015317Y008493D01*
X015317Y008643D01*
X015242Y008718D01*
X015167Y008718D01*
X015092Y008643D01*
X015092Y008417D01*
X015242Y008417D01*
X015092Y008417D02*
X014942Y008568D01*
X014867Y008718D01*
X014942Y008878D02*
X015242Y008878D01*
X015317Y008953D01*
X015317Y009103D01*
X015242Y009178D01*
X014942Y009178D02*
X014867Y009103D01*
X014867Y008953D01*
X014942Y008878D01*
X014358Y008830D02*
X014358Y009055D01*
X014283Y009130D01*
X014208Y009130D01*
X014133Y009055D01*
X014133Y008830D01*
X014208Y008670D02*
X014133Y008595D01*
X014133Y008369D01*
X014283Y008369D01*
X014358Y008444D01*
X014358Y008595D01*
X014283Y008670D01*
X014208Y008670D01*
X014358Y008830D02*
X013908Y008830D01*
X013908Y009055D01*
X013983Y009130D01*
X014058Y009130D01*
X014133Y009055D01*
X013908Y008670D02*
X013983Y008519D01*
X014133Y008369D01*
X014133Y008209D02*
X014208Y008134D01*
X014208Y007909D01*
X014358Y007909D02*
X013908Y007909D01*
X013908Y008134D01*
X013983Y008209D01*
X014133Y008209D01*
X014208Y008059D02*
X014358Y008209D01*
X014101Y007601D02*
X014101Y007401D01*
X013136Y008201D02*
X013136Y008276D01*
X013061Y008351D01*
X012836Y008351D01*
X012836Y008201D01*
X012911Y008126D01*
X013061Y008126D01*
X013136Y008201D01*
X012986Y008501D02*
X012836Y008351D01*
X012986Y008501D02*
X013136Y008576D01*
X012676Y008126D02*
X012376Y008126D01*
X012376Y008576D01*
X011101Y007601D02*
X010601Y007601D01*
X010101Y007601D01*
X009601Y007601D01*
X009101Y007601D01*
X009101Y009601D01*
X009601Y009601D01*
X010101Y009601D01*
X010101Y007601D01*
X010101Y009601D01*
X010601Y009601D01*
X011101Y009601D01*
X011101Y007601D01*
X010817Y007959D02*
X010367Y007959D01*
X010367Y008184D01*
X010442Y008260D01*
X010592Y008260D01*
X010667Y008184D01*
X010667Y007959D01*
X010667Y008109D02*
X010817Y008260D01*
X010817Y008420D02*
X010742Y008420D01*
X010442Y008720D01*
X010367Y008720D01*
X010367Y008420D01*
X010442Y008880D02*
X010742Y008880D01*
X010817Y008955D01*
X010817Y009105D01*
X010742Y009180D01*
X010442Y009180D02*
X010367Y009105D01*
X010367Y008955D01*
X010442Y008880D01*
X010601Y009601D02*
X010601Y009801D01*
X011101Y010601D02*
X011101Y011101D01*
X011101Y011601D01*
X013101Y011601D01*
X013101Y011101D01*
X013101Y010601D01*
X011101Y010601D01*
X011377Y010871D02*
X011377Y011321D01*
X011603Y011321D01*
X011678Y011246D01*
X011678Y011096D01*
X011603Y011021D01*
X011377Y011021D01*
X011528Y011021D02*
X011678Y010871D01*
X011838Y010946D02*
X011913Y010871D01*
X012063Y010871D01*
X012138Y010946D01*
X012138Y011021D01*
X012063Y011096D01*
X011838Y011096D01*
X011838Y010946D01*
X011838Y011096D02*
X011988Y011246D01*
X012138Y011321D01*
X012298Y011171D02*
X012298Y010871D01*
X012298Y011096D02*
X012598Y011096D01*
X012598Y011171D02*
X012598Y010871D01*
X012598Y011171D02*
X012448Y011321D01*
X012298Y011171D01*
X013101Y011101D02*
X013301Y011101D01*
X014101Y009801D02*
X014101Y009601D01*
X015101Y009601D02*
X015101Y009801D01*
X015601Y010601D02*
X015601Y011101D01*
X015601Y011601D01*
X017601Y011601D01*
X017601Y011101D01*
X017601Y010601D01*
X015601Y010601D01*
X015869Y010863D02*
X015869Y011313D01*
X016094Y011313D01*
X016169Y011238D01*
X016169Y011088D01*
X016094Y011013D01*
X015869Y011013D01*
X016019Y011013D02*
X016169Y010863D01*
X016329Y010938D02*
X016404Y010863D01*
X016554Y010863D01*
X016630Y010938D01*
X016630Y011088D01*
X016554Y011163D01*
X016479Y011163D01*
X016329Y011088D01*
X016329Y011313D01*
X016630Y011313D01*
X016790Y011163D02*
X016940Y011313D01*
X017090Y011163D01*
X017090Y010863D01*
X017090Y011088D02*
X016790Y011088D01*
X016790Y011163D02*
X016790Y010863D01*
X017601Y011101D02*
X017801Y011101D01*
X015601Y011101D02*
X015401Y011101D01*
X015101Y007601D02*
X015101Y007401D01*
X015136Y004826D02*
X014986Y004751D01*
X014836Y004601D01*
X015061Y004601D01*
X015136Y004526D01*
X015136Y004451D01*
X015061Y004376D01*
X014911Y004376D01*
X014836Y004451D01*
X014836Y004601D01*
X014676Y004826D02*
X014376Y004826D01*
X014526Y004826D02*
X014526Y004376D01*
X014237Y003828D02*
X014237Y003488D01*
X014124Y003488D02*
X014351Y003488D01*
X014124Y003715D02*
X014237Y003828D01*
X012414Y003772D02*
X012357Y003828D01*
X012244Y003828D01*
X012187Y003772D01*
X012414Y003772D02*
X012414Y003715D01*
X012187Y003488D01*
X012414Y003488D01*
X010414Y003488D02*
X010187Y003488D01*
X010300Y003488D02*
X010300Y003828D01*
X010187Y003715D01*
X010336Y004376D02*
X010336Y004451D01*
X010636Y004751D01*
X010636Y004826D01*
X010336Y004826D01*
X010176Y004826D02*
X009876Y004826D01*
X010026Y004826D02*
X010026Y004376D01*
X008477Y003772D02*
X008420Y003828D01*
X008306Y003828D01*
X008250Y003772D01*
X008477Y003772D02*
X008477Y003715D01*
X008250Y003488D01*
X008477Y003488D01*
X006477Y003488D02*
X006250Y003488D01*
X006363Y003488D02*
X006363Y003828D01*
X006250Y003715D01*
X006061Y004376D02*
X005911Y004376D01*
X005836Y004451D01*
X005836Y004526D01*
X005911Y004601D01*
X006061Y004601D01*
X006136Y004526D01*
X006136Y004451D01*
X006061Y004376D01*
X006061Y004601D02*
X006136Y004676D01*
X006136Y004751D01*
X006061Y004826D01*
X005911Y004826D01*
X005836Y004751D01*
X005836Y004676D01*
X005911Y004601D01*
X005676Y004826D02*
X005376Y004826D01*
X005526Y004826D02*
X005526Y004376D01*
X004540Y003772D02*
X004483Y003828D01*
X004369Y003828D01*
X004313Y003772D01*
X004540Y003772D02*
X004540Y003715D01*
X004313Y003488D01*
X004540Y003488D01*
X002540Y003488D02*
X002313Y003488D01*
X002426Y003488D02*
X002426Y003828D01*
X002313Y003715D01*
X005101Y007401D02*
X005101Y007601D01*
X005601Y007601D01*
X005601Y009601D01*
X005101Y009601D01*
X004601Y009601D01*
X004601Y007601D01*
X005101Y007601D01*
X005197Y007892D02*
X005197Y008117D01*
X005122Y008192D01*
X004972Y008192D01*
X004897Y008117D01*
X004897Y007892D01*
X005347Y007892D01*
X005197Y008042D02*
X005347Y008192D01*
X005272Y008352D02*
X005197Y008352D01*
X005122Y008427D01*
X005122Y008577D01*
X005197Y008653D01*
X005272Y008653D01*
X005347Y008577D01*
X005347Y008427D01*
X005272Y008352D01*
X005122Y008427D02*
X005047Y008352D01*
X004972Y008352D01*
X004897Y008427D01*
X004897Y008577D01*
X004972Y008653D01*
X005047Y008653D01*
X005122Y008577D01*
X005122Y008813D02*
X005122Y009038D01*
X005197Y009113D01*
X005272Y009113D01*
X005347Y009038D01*
X005347Y008813D01*
X004897Y008813D01*
X004897Y009038D01*
X004972Y009113D01*
X005047Y009113D01*
X005122Y009038D01*
X005101Y009601D02*
X005101Y009801D01*
X005601Y009601D02*
X006101Y009601D01*
X006601Y009601D01*
X006601Y007601D01*
X006101Y007601D01*
X005601Y007601D01*
X005601Y009601D01*
X006101Y009601D02*
X006101Y009801D01*
X006242Y009199D02*
X006317Y009124D01*
X006317Y008974D01*
X006242Y008899D01*
X005942Y008899D01*
X005867Y008974D01*
X005867Y009124D01*
X005942Y009199D01*
X005942Y008739D02*
X005867Y008664D01*
X005867Y008514D01*
X005942Y008439D01*
X006017Y008439D01*
X006092Y008514D01*
X006092Y008664D01*
X006167Y008739D01*
X006242Y008739D01*
X006317Y008664D01*
X006317Y008514D01*
X006242Y008439D01*
X006167Y008439D01*
X006092Y008514D01*
X006092Y008664D02*
X006017Y008739D01*
X005942Y008739D01*
X005942Y008279D02*
X005867Y008204D01*
X005867Y007979D01*
X006317Y007979D01*
X006167Y007979D02*
X006167Y008204D01*
X006092Y008279D01*
X005942Y008279D01*
X006167Y008129D02*
X006317Y008279D01*
X006101Y007601D02*
X006101Y007401D01*
X007876Y008126D02*
X008176Y008126D01*
X008336Y008126D02*
X008336Y008201D01*
X008636Y008501D01*
X008636Y008576D01*
X008336Y008576D01*
X007876Y008576D02*
X007876Y008126D01*
X009412Y008134D02*
X009412Y007909D01*
X009862Y007909D01*
X009712Y007909D02*
X009712Y008134D01*
X009637Y008209D01*
X009487Y008209D01*
X009412Y008134D01*
X009412Y008369D02*
X009412Y008670D01*
X009487Y008670D01*
X009787Y008369D01*
X009862Y008369D01*
X009862Y008209D02*
X009712Y008059D01*
X009601Y007601D02*
X009601Y007401D01*
X010601Y007401D02*
X010601Y007601D01*
X009862Y008830D02*
X009412Y008830D01*
X009412Y009055D01*
X009487Y009130D01*
X009562Y009130D01*
X009637Y009055D01*
X009637Y008830D01*
X009637Y009055D02*
X009712Y009130D01*
X009787Y009130D01*
X009862Y009055D01*
X009862Y008830D01*
X009601Y009601D02*
X009601Y009801D01*
X008601Y010601D02*
X008601Y011101D01*
X008601Y011601D01*
X006601Y011601D01*
X006601Y011101D01*
X006601Y010601D01*
X008601Y010601D01*
X008601Y011101D02*
X008801Y011101D01*
X008114Y011122D02*
X007813Y011122D01*
X007813Y011197D02*
X007963Y011347D01*
X008114Y011197D01*
X008114Y010897D01*
X007813Y010897D02*
X007813Y011197D01*
X007653Y011272D02*
X007353Y010972D01*
X007353Y010897D01*
X007193Y010897D02*
X007043Y011047D01*
X007118Y011047D02*
X006893Y011047D01*
X006893Y010897D02*
X006893Y011347D01*
X007118Y011347D01*
X007193Y011272D01*
X007193Y011122D01*
X007118Y011047D01*
X007353Y011347D02*
X007653Y011347D01*
X007653Y011272D01*
X006601Y011101D02*
X006401Y011101D01*
X004301Y011101D02*
X004101Y011101D01*
X004101Y011601D01*
X002101Y011601D01*
X002101Y011101D01*
X002101Y010601D01*
X004101Y010601D01*
X004101Y011101D01*
X003633Y011123D02*
X003333Y011123D01*
X003333Y011198D02*
X003483Y011348D01*
X003633Y011198D01*
X003633Y010898D01*
X003333Y010898D02*
X003333Y011198D01*
X003173Y011198D02*
X003097Y011123D01*
X002947Y011123D01*
X002872Y011198D01*
X002872Y011273D01*
X002947Y011348D01*
X003097Y011348D01*
X003173Y011273D01*
X003173Y011198D01*
X003097Y011123D02*
X003173Y011048D01*
X003173Y010973D01*
X003097Y010898D01*
X002947Y010898D01*
X002872Y010973D01*
X002872Y011048D01*
X002947Y011123D01*
X002712Y011123D02*
X002637Y011048D01*
X002412Y011048D01*
X002562Y011048D02*
X002712Y010898D01*
X002712Y011123D02*
X002712Y011273D01*
X002637Y011348D01*
X002412Y011348D01*
X002412Y010898D01*
X002101Y011101D02*
X001901Y011101D01*
X003376Y008576D02*
X003376Y008126D01*
X003676Y008126D01*
X003836Y008201D02*
X003836Y008276D01*
X003911Y008351D01*
X004061Y008351D01*
X004136Y008276D01*
X004136Y008201D01*
X004061Y008126D01*
X003911Y008126D01*
X003836Y008201D01*
X003911Y008351D02*
X003836Y008426D01*
X003836Y008501D01*
X003911Y008576D01*
X004061Y008576D01*
X004136Y008501D01*
X004136Y008426D01*
X004061Y008351D01*
X004820Y015126D02*
X004745Y015201D01*
X004745Y015501D01*
X004820Y015576D01*
X004970Y015576D01*
X005045Y015501D01*
X005045Y015201D01*
X004970Y015126D01*
X004820Y015126D01*
X005205Y015126D02*
X005205Y015576D01*
X005280Y015351D02*
X005505Y015126D01*
X005665Y015201D02*
X005665Y015276D01*
X005740Y015351D01*
X005891Y015351D01*
X005966Y015276D01*
X005966Y015201D01*
X005891Y015126D01*
X005740Y015126D01*
X005665Y015201D01*
X005740Y015351D02*
X005665Y015426D01*
X005665Y015501D01*
X005740Y015576D01*
X005891Y015576D01*
X005966Y015501D01*
X005966Y015426D01*
X005891Y015351D01*
X005505Y015576D02*
X005205Y015276D01*
X009245Y015201D02*
X009320Y015126D01*
X009470Y015126D01*
X009545Y015201D01*
X009545Y015501D01*
X009470Y015576D01*
X009320Y015576D01*
X009245Y015501D01*
X009245Y015201D01*
X009705Y015276D02*
X010005Y015576D01*
X010165Y015576D02*
X010466Y015576D01*
X010466Y015501D01*
X010165Y015201D01*
X010165Y015126D01*
X010005Y015126D02*
X009780Y015351D01*
X009705Y015576D02*
X009705Y015126D01*
X013745Y015201D02*
X013820Y015126D01*
X013970Y015126D01*
X014045Y015201D01*
X014045Y015501D01*
X013970Y015576D01*
X013820Y015576D01*
X013745Y015501D01*
X013745Y015201D01*
X014205Y015276D02*
X014505Y015576D01*
X014665Y015351D02*
X014891Y015351D01*
X014966Y015276D01*
X014966Y015201D01*
X014891Y015126D01*
X014740Y015126D01*
X014665Y015201D01*
X014665Y015351D01*
X014815Y015501D01*
X014966Y015576D01*
X014505Y015126D02*
X014280Y015351D01*
X014205Y015576D02*
X014205Y015126D01*
X011101Y011101D02*
X010901Y011101D01*
X016181Y003828D02*
X016124Y003772D01*
X016181Y003828D02*
X016294Y003828D01*
X016351Y003772D01*
X016351Y003715D01*
X016124Y003488D01*
X016351Y003488D01*
X018061Y003488D02*
X018288Y003488D01*
X018174Y003488D02*
X018174Y003828D01*
X018061Y003715D01*
X019026Y004376D02*
X019026Y004826D01*
X018876Y004826D02*
X019176Y004826D01*
X019336Y004826D02*
X019336Y004601D01*
X019486Y004676D01*
X019561Y004676D01*
X019636Y004601D01*
X019636Y004451D01*
X019561Y004376D01*
X019411Y004376D01*
X019336Y004451D01*
X019336Y004826D02*
X019636Y004826D01*
X020118Y003828D02*
X020061Y003772D01*
X020118Y003828D02*
X020231Y003828D01*
X020288Y003772D01*
X020288Y003715D01*
X020061Y003488D01*
X020288Y003488D01*
X021998Y003488D02*
X022225Y003488D01*
X022111Y003488D02*
X022111Y003828D01*
X021998Y003715D01*
X023526Y004376D02*
X023526Y004826D01*
X023376Y004826D02*
X023676Y004826D01*
X023836Y004601D02*
X024136Y004601D01*
X024061Y004826D02*
X023836Y004601D01*
X024061Y004376D02*
X024061Y004826D01*
X024055Y003828D02*
X023998Y003772D01*
X024055Y003828D02*
X024168Y003828D01*
X024225Y003772D01*
X024225Y003715D01*
X023998Y003488D01*
X024225Y003488D01*
X025935Y003488D02*
X026162Y003488D01*
X026048Y003488D02*
X026048Y003828D01*
X025935Y003715D01*
X027935Y003772D02*
X027992Y003828D01*
X028105Y003828D01*
X028162Y003772D01*
X028162Y003715D01*
X027935Y003488D01*
X028162Y003488D01*
X028026Y004376D02*
X028026Y004826D01*
X027876Y004826D02*
X028176Y004826D01*
X028336Y004751D02*
X028411Y004826D01*
X028561Y004826D01*
X028636Y004751D01*
X028636Y004676D01*
X028561Y004601D01*
X028636Y004526D01*
X028636Y004451D01*
X028561Y004376D01*
X028411Y004376D01*
X028336Y004451D01*
X028486Y004601D02*
X028561Y004601D01*
X029872Y003715D02*
X029985Y003828D01*
X029985Y003488D01*
X029872Y003488D02*
X030099Y003488D01*
X031872Y003488D02*
X032099Y003715D01*
X032099Y003772D01*
X032042Y003828D01*
X031929Y003828D01*
X031872Y003772D01*
X031872Y003488D02*
X032099Y003488D01*
X032526Y004376D02*
X032526Y004826D01*
X032376Y004826D02*
X032676Y004826D01*
X032836Y004751D02*
X032911Y004826D01*
X033061Y004826D01*
X033136Y004751D01*
X033136Y004676D01*
X032836Y004376D01*
X033136Y004376D01*
X033809Y003715D02*
X033922Y003828D01*
X033922Y003488D01*
X033809Y003488D02*
X034036Y003488D01*
X035809Y003488D02*
X036036Y003715D01*
X036036Y003772D01*
X035979Y003828D01*
X035866Y003828D01*
X035809Y003772D01*
X035809Y003488D02*
X036036Y003488D01*
X036991Y004410D02*
X036991Y004861D01*
X036841Y004861D02*
X037141Y004861D01*
X037301Y004710D02*
X037451Y004861D01*
X037451Y004410D01*
X037301Y004410D02*
X037602Y004410D01*
X037601Y007401D02*
X037601Y007601D01*
X038101Y007601D01*
X038101Y009601D01*
X037601Y009601D01*
X037101Y009601D01*
X036601Y009601D01*
X036101Y009601D01*
X036101Y007601D01*
X036601Y007601D01*
X037101Y007601D01*
X037101Y009601D01*
X037101Y007601D01*
X037601Y007601D01*
X037689Y008006D02*
X037689Y008231D01*
X037613Y008306D01*
X037463Y008306D01*
X037388Y008231D01*
X037388Y008006D01*
X037839Y008006D01*
X037689Y008156D02*
X037839Y008306D01*
X037839Y008466D02*
X037839Y008766D01*
X037839Y008616D02*
X037388Y008616D01*
X037538Y008466D01*
X037463Y008927D02*
X037764Y008927D01*
X037839Y009002D01*
X037839Y009152D01*
X037764Y009227D01*
X037463Y009227D02*
X037388Y009152D01*
X037388Y009002D01*
X037463Y008927D01*
X036832Y009023D02*
X036832Y008798D01*
X036382Y008798D01*
X036382Y009023D01*
X036457Y009098D01*
X036532Y009098D01*
X036607Y009023D01*
X036607Y008798D01*
X036607Y009023D02*
X036682Y009098D01*
X036757Y009098D01*
X036832Y009023D01*
X036832Y008638D02*
X036832Y008338D01*
X036832Y008488D02*
X036382Y008488D01*
X036532Y008338D01*
X036607Y008178D02*
X036682Y008103D01*
X036682Y007877D01*
X036832Y007877D02*
X036382Y007877D01*
X036382Y008103D01*
X036457Y008178D01*
X036607Y008178D01*
X036682Y008028D02*
X036832Y008178D01*
X036601Y007601D02*
X036601Y007401D01*
X035636Y008126D02*
X035336Y008126D01*
X035486Y008126D02*
X035486Y008576D01*
X035336Y008426D01*
X035176Y008126D02*
X034876Y008126D01*
X034876Y008576D01*
X033326Y008701D02*
X033326Y008400D01*
X033025Y008701D01*
X032950Y008701D01*
X032875Y008626D01*
X032875Y008475D01*
X032950Y008400D01*
X032950Y008240D02*
X033100Y008240D01*
X033175Y008165D01*
X033175Y007940D01*
X033175Y008090D02*
X033326Y008240D01*
X033326Y007940D02*
X032875Y007940D01*
X032875Y008165D01*
X032950Y008240D01*
X033101Y007601D02*
X032601Y007601D01*
X032101Y007601D01*
X031601Y007601D01*
X031601Y009601D01*
X032101Y009601D01*
X032601Y009601D01*
X032601Y007601D01*
X032601Y009601D01*
X033101Y009601D01*
X033601Y009601D01*
X033601Y007601D01*
X033101Y007601D01*
X033101Y007401D01*
X032354Y007913D02*
X031904Y007913D01*
X031904Y008138D01*
X031979Y008214D01*
X032129Y008214D01*
X032204Y008138D01*
X032204Y007913D01*
X032204Y008063D02*
X032354Y008214D01*
X032354Y008374D02*
X032054Y008674D01*
X031979Y008674D01*
X031904Y008599D01*
X031904Y008449D01*
X031979Y008374D01*
X032354Y008374D02*
X032354Y008674D01*
X032354Y008834D02*
X031904Y008834D01*
X031904Y009059D01*
X031979Y009134D01*
X032054Y009134D01*
X032129Y009059D01*
X032129Y008834D01*
X032354Y008834D02*
X032354Y009059D01*
X032279Y009134D01*
X032204Y009134D01*
X032129Y009059D01*
X032101Y009601D02*
X032101Y009801D01*
X033101Y009801D02*
X033101Y009601D01*
X033251Y009161D02*
X033326Y009086D01*
X033326Y008936D01*
X033251Y008861D01*
X032950Y008861D01*
X032875Y008936D01*
X032875Y009086D01*
X032950Y009161D01*
X032101Y007601D02*
X032101Y007401D01*
X031136Y008126D02*
X030836Y008126D01*
X031136Y008426D01*
X031136Y008501D01*
X031061Y008576D01*
X030911Y008576D01*
X030836Y008501D01*
X030676Y008126D02*
X030376Y008126D01*
X030376Y008576D01*
X028601Y007601D02*
X028601Y007401D01*
X027601Y007401D02*
X027601Y007601D01*
X026636Y008201D02*
X026561Y008126D01*
X026411Y008126D01*
X026336Y008201D01*
X026176Y008126D02*
X025876Y008126D01*
X025876Y008576D01*
X026336Y008501D02*
X026411Y008576D01*
X026561Y008576D01*
X026636Y008501D01*
X026636Y008426D01*
X026561Y008351D01*
X026636Y008276D01*
X026636Y008201D01*
X026561Y008351D02*
X026486Y008351D01*
X023101Y007601D02*
X023101Y007401D01*
X023101Y009601D02*
X023101Y009801D01*
X022301Y011101D02*
X022101Y011101D01*
X019403Y008724D02*
X019403Y008424D01*
X019628Y008424D01*
X019628Y008264D02*
X019703Y008189D01*
X019703Y007964D01*
X019703Y008114D02*
X019853Y008264D01*
X019628Y008264D02*
X019478Y008264D01*
X019403Y008189D01*
X019403Y007964D01*
X019853Y007964D01*
X019601Y007601D02*
X019601Y007401D01*
X019391Y015126D02*
X019240Y015126D01*
X019165Y015201D01*
X019165Y015351D02*
X019315Y015426D01*
X019391Y015426D01*
X019466Y015351D01*
X019466Y015201D01*
X019391Y015126D01*
X019165Y015351D02*
X019165Y015576D01*
X019466Y015576D01*
X019005Y015576D02*
X018705Y015276D01*
X018780Y015351D02*
X019005Y015126D01*
X018705Y015126D02*
X018705Y015576D01*
X018545Y015501D02*
X018470Y015576D01*
X018320Y015576D01*
X018245Y015501D01*
X018245Y015201D01*
X018320Y015126D01*
X018470Y015126D01*
X018545Y015201D01*
X018545Y015501D01*
X033401Y011101D02*
X033601Y011101D01*
X033601Y010601D01*
X035601Y010601D01*
X035601Y011101D01*
X035601Y011601D01*
X033601Y011601D01*
X033601Y011101D01*
X033878Y011020D02*
X034103Y011020D01*
X034178Y011095D01*
X034178Y011245D01*
X034103Y011320D01*
X033878Y011320D01*
X033878Y010870D01*
X034028Y011020D02*
X034178Y010870D01*
X034338Y010870D02*
X034638Y010870D01*
X034488Y010870D02*
X034488Y011320D01*
X034338Y011170D01*
X034798Y011170D02*
X034798Y010870D01*
X034798Y011095D02*
X035099Y011095D01*
X035099Y011170D02*
X035099Y010870D01*
X035099Y011170D02*
X034949Y011320D01*
X034798Y011170D01*
X035601Y011101D02*
X035801Y011101D01*
X036601Y009801D02*
X036601Y009601D01*
X037601Y009601D02*
X037601Y009801D01*
X037466Y015126D02*
X037165Y015126D01*
X037315Y015126D02*
X037315Y015576D01*
X037165Y015426D01*
X037005Y015576D02*
X036705Y015276D01*
X036780Y015351D02*
X037005Y015126D01*
X036705Y015126D02*
X036705Y015576D01*
X036545Y015501D02*
X036470Y015576D01*
X036320Y015576D01*
X036245Y015501D01*
X036245Y015201D01*
X036320Y015126D01*
X036470Y015126D01*
X036545Y015201D01*
X036545Y015501D01*
X038046Y022826D02*
X038046Y023166D01*
X037876Y022996D01*
X038103Y022996D01*
X035663Y025171D02*
X035663Y025471D01*
X035363Y025171D01*
X035438Y025096D01*
X035588Y025096D01*
X035663Y025171D01*
X035363Y025171D02*
X035363Y025471D01*
X035438Y025546D01*
X035588Y025546D01*
X035663Y025471D01*
X035206Y025546D02*
X035056Y025546D01*
X035131Y025546D02*
X035131Y025096D01*
X035056Y025096D02*
X035206Y025096D01*
X034896Y025171D02*
X034821Y025096D01*
X034671Y025096D01*
X034596Y025171D01*
X034671Y025321D02*
X034821Y025321D01*
X034896Y025246D01*
X034896Y025171D01*
X034671Y025321D02*
X034596Y025396D01*
X034596Y025471D01*
X034671Y025546D01*
X034821Y025546D01*
X034896Y025471D01*
D14*
X033781Y005141D03*
X029281Y005141D03*
X024781Y005141D03*
X020281Y005141D03*
X015781Y005141D03*
X011281Y005141D03*
X006781Y005141D03*
X002281Y005141D03*
X009141Y038921D03*
D15*
X008601Y006476D03*
X004101Y006476D03*
X013101Y006476D03*
X017601Y006476D03*
X022101Y006476D03*
X026601Y006476D03*
X031101Y006476D03*
X035601Y006476D03*
D16*
X033876Y006226D03*
X032826Y006226D03*
X029376Y006226D03*
X028326Y006226D03*
X024876Y006226D03*
X023826Y006226D03*
X020376Y006226D03*
X019326Y006226D03*
X015876Y006226D03*
X014826Y006226D03*
X011376Y006226D03*
X010326Y006226D03*
X006876Y006226D03*
X005826Y006226D03*
X002376Y006226D03*
X037326Y006226D03*
D17*
X036101Y006226D03*
X035101Y006226D03*
X031601Y006226D03*
X030601Y006226D03*
X027101Y006226D03*
X026101Y006226D03*
X022601Y006226D03*
X021601Y006226D03*
X018101Y006226D03*
X017101Y006226D03*
X013601Y006226D03*
X012601Y006226D03*
X009101Y006226D03*
X008101Y006226D03*
X004601Y006226D03*
X003601Y006226D03*
D18*
X009401Y034101D03*
X009801Y034101D03*
X025401Y034601D03*
X025801Y034601D03*
D19*
X012101Y038301D03*
D20*
X002896Y036396D02*
X002306Y037183D01*
X002306Y035806D02*
X002896Y035018D01*
D21*
X003388Y034723D02*
X003388Y037479D01*
X003664Y037479D01*
X003664Y034723D01*
X003388Y034723D01*
X001774Y034723D01*
X001262Y034723D01*
X001262Y037479D01*
X001774Y037479D01*
X001774Y034723D01*
X001262Y034723D02*
X001105Y034723D01*
X001105Y037479D01*
X001262Y037479D01*
X001774Y037479D02*
X003388Y037479D01*
D22*
X001641Y036840D02*
X001641Y036653D01*
X001641Y036746D02*
X001361Y036746D01*
X001454Y036653D01*
X001454Y035462D02*
X001407Y035462D01*
X001361Y035415D01*
X001361Y035322D01*
X001407Y035275D01*
X001454Y035462D02*
X001641Y035275D01*
X001641Y035462D01*
X006524Y021381D02*
X006678Y021381D01*
X006601Y021381D02*
X006601Y020921D01*
X006524Y020921D02*
X006678Y020921D01*
X006831Y020997D02*
X006908Y020921D01*
X007061Y020921D01*
X007138Y020997D01*
X007291Y020921D02*
X007598Y021228D01*
X007598Y021304D01*
X007522Y021381D01*
X007368Y021381D01*
X007291Y021304D01*
X007138Y021304D02*
X007061Y021381D01*
X006908Y021381D01*
X006831Y021304D01*
X006831Y020997D01*
X007291Y020921D02*
X007598Y020921D01*
X017343Y020921D02*
X017497Y020921D01*
X017420Y020921D02*
X017420Y021381D01*
X017343Y021381D02*
X017497Y021381D01*
X017650Y021304D02*
X017650Y020997D01*
X017727Y020921D01*
X017880Y020921D01*
X017957Y020997D01*
X018110Y020921D02*
X018417Y020921D01*
X018264Y020921D02*
X018264Y021381D01*
X018110Y021228D01*
X017957Y021304D02*
X017880Y021381D01*
X017727Y021381D01*
X017650Y021304D01*
X035235Y028605D02*
X035235Y028758D01*
X035235Y028682D02*
X035618Y028682D01*
X035695Y028605D01*
X035695Y028528D01*
X035618Y028451D01*
X035695Y028912D02*
X035235Y028912D01*
X035695Y029219D01*
X035235Y029219D01*
X035235Y029372D02*
X035465Y029372D01*
X035388Y029526D01*
X035388Y029602D01*
X035465Y029679D01*
X035618Y029679D01*
X035695Y029602D01*
X035695Y029449D01*
X035618Y029372D01*
X035235Y029372D02*
X035235Y029679D01*
X035388Y029833D02*
X035235Y029986D01*
X035695Y029986D01*
X035695Y029833D02*
X035695Y030139D01*
X035465Y030293D02*
X035465Y030600D01*
X035542Y030753D02*
X035465Y030830D01*
X035465Y030983D01*
X035542Y031060D01*
X035618Y031060D01*
X035695Y030983D01*
X035695Y030830D01*
X035618Y030753D01*
X035542Y030753D01*
X035465Y030830D02*
X035388Y030753D01*
X035311Y030753D01*
X035235Y030830D01*
X035235Y030983D01*
X035311Y031060D01*
X035388Y031060D01*
X035465Y030983D01*
X035465Y031214D02*
X035465Y031521D01*
X035695Y031674D02*
X035235Y031674D01*
X035388Y031827D01*
X035235Y031981D01*
X035695Y031981D01*
X035695Y032134D02*
X035388Y032441D01*
X035388Y032595D02*
X035695Y032902D01*
X035695Y032595D02*
X035388Y032902D01*
X035695Y032441D02*
X035388Y032134D01*
X035235Y030523D02*
X035465Y030293D01*
X035695Y030523D02*
X035235Y030523D01*
D23*
X036401Y037101D02*
X036399Y037155D01*
X036394Y037209D01*
X036385Y037262D01*
X036372Y037315D01*
X036356Y037366D01*
X036336Y037416D01*
X036313Y037465D01*
X036287Y037513D01*
X036258Y037558D01*
X036225Y037601D01*
X036190Y037642D01*
X036152Y037681D01*
X036112Y037717D01*
X036069Y037750D01*
X036024Y037780D01*
X035977Y037807D01*
X035204Y037796D02*
X035156Y037766D01*
X035111Y037733D01*
X035068Y037697D01*
X035027Y037659D01*
X034990Y037617D01*
X034955Y037573D01*
X034924Y037527D01*
X034895Y037478D01*
X034871Y037428D01*
X034850Y037376D01*
X034832Y037322D01*
X034819Y037268D01*
X034809Y037213D01*
X034803Y037157D01*
X034801Y037101D01*
X034803Y037048D01*
X034808Y036994D01*
X034817Y036942D01*
X034829Y036890D01*
X034845Y036839D01*
X034864Y036789D01*
X034887Y036740D01*
X034913Y036693D01*
X034941Y036648D01*
X034973Y036605D01*
X035007Y036565D01*
X035045Y036526D01*
X035084Y036490D01*
X036113Y036486D02*
X036153Y036522D01*
X036191Y036561D01*
X036226Y036602D01*
X036258Y036645D01*
X036288Y036690D01*
X036314Y036737D01*
X036336Y036786D01*
X036356Y036837D01*
X036372Y036888D01*
X036385Y036940D01*
X036394Y036994D01*
X036399Y037047D01*
X036401Y037101D01*
X032204Y037796D02*
X032156Y037766D01*
X032111Y037733D01*
X032068Y037697D01*
X032027Y037659D01*
X031990Y037617D01*
X031955Y037573D01*
X031924Y037527D01*
X031895Y037478D01*
X031871Y037428D01*
X031850Y037376D01*
X031832Y037322D01*
X031819Y037268D01*
X031809Y037213D01*
X031803Y037157D01*
X031801Y037101D01*
X031803Y037048D01*
X031808Y036994D01*
X031817Y036942D01*
X031829Y036890D01*
X031845Y036839D01*
X031864Y036789D01*
X031887Y036740D01*
X031913Y036693D01*
X031941Y036648D01*
X031973Y036605D01*
X032007Y036565D01*
X032045Y036526D01*
X032084Y036490D01*
X033401Y037101D02*
X033399Y037155D01*
X033394Y037209D01*
X033385Y037262D01*
X033372Y037315D01*
X033356Y037366D01*
X033336Y037416D01*
X033313Y037465D01*
X033287Y037513D01*
X033258Y037558D01*
X033225Y037601D01*
X033190Y037642D01*
X033152Y037681D01*
X033112Y037717D01*
X033069Y037750D01*
X033024Y037780D01*
X032977Y037807D01*
X033401Y037101D02*
X033399Y037047D01*
X033394Y036994D01*
X033385Y036940D01*
X033372Y036888D01*
X033356Y036837D01*
X033336Y036786D01*
X033314Y036737D01*
X033288Y036690D01*
X033258Y036645D01*
X033226Y036602D01*
X033191Y036561D01*
X033153Y036522D01*
X033113Y036486D01*
X034851Y022601D02*
X034851Y021851D01*
X034851Y021731D01*
X034851Y021601D01*
X035351Y021601D01*
X035351Y021731D01*
X035351Y021851D01*
X035351Y022601D01*
X034851Y022601D01*
X034851Y021851D02*
X035351Y021851D01*
X035351Y021731D02*
X034851Y021731D01*
X035851Y021731D02*
X035851Y021851D01*
X036351Y021851D01*
X036351Y022601D01*
X035851Y022601D01*
X035851Y021851D01*
X035851Y021731D02*
X035851Y021601D01*
X036351Y021601D01*
X036351Y021731D01*
X036351Y021851D01*
X036351Y021731D02*
X035851Y021731D01*
X036851Y021731D02*
X036851Y021851D01*
X037351Y021851D01*
X037351Y022601D01*
X036851Y022601D01*
X036851Y021851D01*
X036851Y021731D02*
X036851Y021601D01*
X037351Y021601D01*
X037351Y021731D01*
X037351Y021851D01*
X037351Y021731D02*
X036851Y021731D01*
X037851Y021731D02*
X037851Y021851D01*
X038351Y021851D01*
X038351Y022601D01*
X037851Y022601D01*
X037851Y021851D01*
X037851Y021731D02*
X037851Y021601D01*
X038351Y021601D01*
X038351Y021731D01*
X038351Y021851D01*
X038351Y021731D02*
X037851Y021731D01*
X035101Y010401D02*
X035157Y010399D01*
X035213Y010393D01*
X035268Y010383D01*
X035322Y010370D01*
X035376Y010352D01*
X035428Y010331D01*
X035478Y010307D01*
X035527Y010278D01*
X035573Y010247D01*
X035617Y010212D01*
X035659Y010175D01*
X035697Y010134D01*
X035733Y010091D01*
X035766Y010046D01*
X035796Y009998D01*
X035101Y010401D02*
X035048Y010399D01*
X034994Y010394D01*
X034942Y010385D01*
X034890Y010373D01*
X034839Y010357D01*
X034789Y010338D01*
X034740Y010315D01*
X034693Y010289D01*
X034648Y010261D01*
X034605Y010229D01*
X034565Y010195D01*
X034526Y010157D01*
X034490Y010118D01*
X035101Y008801D02*
X035155Y008803D01*
X035209Y008808D01*
X035262Y008817D01*
X035315Y008830D01*
X035366Y008846D01*
X035416Y008866D01*
X035465Y008889D01*
X035513Y008915D01*
X035558Y008944D01*
X035601Y008977D01*
X035642Y009012D01*
X035681Y009050D01*
X035717Y009090D01*
X035750Y009133D01*
X035780Y009178D01*
X035807Y009225D01*
X035101Y008801D02*
X035047Y008803D01*
X034994Y008808D01*
X034940Y008817D01*
X034888Y008830D01*
X034837Y008846D01*
X034786Y008866D01*
X034737Y008888D01*
X034690Y008914D01*
X034645Y008944D01*
X034602Y008976D01*
X034561Y009011D01*
X034522Y009049D01*
X034486Y009089D01*
X031296Y009998D02*
X031266Y010046D01*
X031233Y010091D01*
X031197Y010134D01*
X031159Y010175D01*
X031117Y010212D01*
X031073Y010247D01*
X031027Y010278D01*
X030978Y010307D01*
X030928Y010331D01*
X030876Y010352D01*
X030822Y010370D01*
X030768Y010383D01*
X030713Y010393D01*
X030657Y010399D01*
X030601Y010401D01*
X030548Y010399D01*
X030494Y010394D01*
X030442Y010385D01*
X030390Y010373D01*
X030339Y010357D01*
X030289Y010338D01*
X030240Y010315D01*
X030193Y010289D01*
X030148Y010261D01*
X030105Y010229D01*
X030065Y010195D01*
X030026Y010157D01*
X029990Y010118D01*
X030601Y008801D02*
X030655Y008803D01*
X030709Y008808D01*
X030762Y008817D01*
X030815Y008830D01*
X030866Y008846D01*
X030916Y008866D01*
X030965Y008889D01*
X031013Y008915D01*
X031058Y008944D01*
X031101Y008977D01*
X031142Y009012D01*
X031181Y009050D01*
X031217Y009090D01*
X031250Y009133D01*
X031280Y009178D01*
X031307Y009225D01*
X030601Y008801D02*
X030547Y008803D01*
X030494Y008808D01*
X030440Y008817D01*
X030388Y008830D01*
X030337Y008846D01*
X030286Y008866D01*
X030237Y008888D01*
X030190Y008914D01*
X030145Y008944D01*
X030102Y008976D01*
X030061Y009011D01*
X030022Y009049D01*
X029986Y009089D01*
X026796Y009998D02*
X026766Y010046D01*
X026733Y010091D01*
X026697Y010134D01*
X026659Y010175D01*
X026617Y010212D01*
X026573Y010247D01*
X026527Y010278D01*
X026478Y010307D01*
X026428Y010331D01*
X026376Y010352D01*
X026322Y010370D01*
X026268Y010383D01*
X026213Y010393D01*
X026157Y010399D01*
X026101Y010401D01*
X026048Y010399D01*
X025994Y010394D01*
X025942Y010385D01*
X025890Y010373D01*
X025839Y010357D01*
X025789Y010338D01*
X025740Y010315D01*
X025693Y010289D01*
X025648Y010261D01*
X025605Y010229D01*
X025565Y010195D01*
X025526Y010157D01*
X025490Y010118D01*
X026101Y008801D02*
X026155Y008803D01*
X026209Y008808D01*
X026262Y008817D01*
X026315Y008830D01*
X026366Y008846D01*
X026416Y008866D01*
X026465Y008889D01*
X026513Y008915D01*
X026558Y008944D01*
X026601Y008977D01*
X026642Y009012D01*
X026681Y009050D01*
X026717Y009090D01*
X026750Y009133D01*
X026780Y009178D01*
X026807Y009225D01*
X026101Y008801D02*
X026047Y008803D01*
X025994Y008808D01*
X025940Y008817D01*
X025888Y008830D01*
X025837Y008846D01*
X025786Y008866D01*
X025737Y008888D01*
X025690Y008914D01*
X025645Y008944D01*
X025602Y008976D01*
X025561Y009011D01*
X025522Y009049D01*
X025486Y009089D01*
X022296Y009998D02*
X022266Y010046D01*
X022233Y010091D01*
X022197Y010134D01*
X022159Y010175D01*
X022117Y010212D01*
X022073Y010247D01*
X022027Y010278D01*
X021978Y010307D01*
X021928Y010331D01*
X021876Y010352D01*
X021822Y010370D01*
X021768Y010383D01*
X021713Y010393D01*
X021657Y010399D01*
X021601Y010401D01*
X021548Y010399D01*
X021494Y010394D01*
X021442Y010385D01*
X021390Y010373D01*
X021339Y010357D01*
X021289Y010338D01*
X021240Y010315D01*
X021193Y010289D01*
X021148Y010261D01*
X021105Y010229D01*
X021065Y010195D01*
X021026Y010157D01*
X020990Y010118D01*
X021601Y008801D02*
X021655Y008803D01*
X021709Y008808D01*
X021762Y008817D01*
X021815Y008830D01*
X021866Y008846D01*
X021916Y008866D01*
X021965Y008889D01*
X022013Y008915D01*
X022058Y008944D01*
X022101Y008977D01*
X022142Y009012D01*
X022181Y009050D01*
X022217Y009090D01*
X022250Y009133D01*
X022280Y009178D01*
X022307Y009225D01*
X021601Y008801D02*
X021547Y008803D01*
X021494Y008808D01*
X021440Y008817D01*
X021388Y008830D01*
X021337Y008846D01*
X021286Y008866D01*
X021237Y008888D01*
X021190Y008914D01*
X021145Y008944D01*
X021102Y008976D01*
X021061Y009011D01*
X021022Y009049D01*
X020986Y009089D01*
X017796Y009998D02*
X017766Y010046D01*
X017733Y010091D01*
X017697Y010134D01*
X017659Y010175D01*
X017617Y010212D01*
X017573Y010247D01*
X017527Y010278D01*
X017478Y010307D01*
X017428Y010331D01*
X017376Y010352D01*
X017322Y010370D01*
X017268Y010383D01*
X017213Y010393D01*
X017157Y010399D01*
X017101Y010401D01*
X017048Y010399D01*
X016994Y010394D01*
X016942Y010385D01*
X016890Y010373D01*
X016839Y010357D01*
X016789Y010338D01*
X016740Y010315D01*
X016693Y010289D01*
X016648Y010261D01*
X016605Y010229D01*
X016565Y010195D01*
X016526Y010157D01*
X016490Y010118D01*
X017101Y008801D02*
X017155Y008803D01*
X017209Y008808D01*
X017262Y008817D01*
X017315Y008830D01*
X017366Y008846D01*
X017416Y008866D01*
X017465Y008889D01*
X017513Y008915D01*
X017558Y008944D01*
X017601Y008977D01*
X017642Y009012D01*
X017681Y009050D01*
X017717Y009090D01*
X017750Y009133D01*
X017780Y009178D01*
X017807Y009225D01*
X017101Y008801D02*
X017047Y008803D01*
X016994Y008808D01*
X016940Y008817D01*
X016888Y008830D01*
X016837Y008846D01*
X016786Y008866D01*
X016737Y008888D01*
X016690Y008914D01*
X016645Y008944D01*
X016602Y008976D01*
X016561Y009011D01*
X016522Y009049D01*
X016486Y009089D01*
X013296Y009998D02*
X013266Y010046D01*
X013233Y010091D01*
X013197Y010134D01*
X013159Y010175D01*
X013117Y010212D01*
X013073Y010247D01*
X013027Y010278D01*
X012978Y010307D01*
X012928Y010331D01*
X012876Y010352D01*
X012822Y010370D01*
X012768Y010383D01*
X012713Y010393D01*
X012657Y010399D01*
X012601Y010401D01*
X012548Y010399D01*
X012494Y010394D01*
X012442Y010385D01*
X012390Y010373D01*
X012339Y010357D01*
X012289Y010338D01*
X012240Y010315D01*
X012193Y010289D01*
X012148Y010261D01*
X012105Y010229D01*
X012065Y010195D01*
X012026Y010157D01*
X011990Y010118D01*
X012601Y008801D02*
X012655Y008803D01*
X012709Y008808D01*
X012762Y008817D01*
X012815Y008830D01*
X012866Y008846D01*
X012916Y008866D01*
X012965Y008889D01*
X013013Y008915D01*
X013058Y008944D01*
X013101Y008977D01*
X013142Y009012D01*
X013181Y009050D01*
X013217Y009090D01*
X013250Y009133D01*
X013280Y009178D01*
X013307Y009225D01*
X012601Y008801D02*
X012547Y008803D01*
X012494Y008808D01*
X012440Y008817D01*
X012388Y008830D01*
X012337Y008846D01*
X012286Y008866D01*
X012237Y008888D01*
X012190Y008914D01*
X012145Y008944D01*
X012102Y008976D01*
X012061Y009011D01*
X012022Y009049D01*
X011986Y009089D01*
X008796Y009998D02*
X008766Y010046D01*
X008733Y010091D01*
X008697Y010134D01*
X008659Y010175D01*
X008617Y010212D01*
X008573Y010247D01*
X008527Y010278D01*
X008478Y010307D01*
X008428Y010331D01*
X008376Y010352D01*
X008322Y010370D01*
X008268Y010383D01*
X008213Y010393D01*
X008157Y010399D01*
X008101Y010401D01*
X008048Y010399D01*
X007994Y010394D01*
X007942Y010385D01*
X007890Y010373D01*
X007839Y010357D01*
X007789Y010338D01*
X007740Y010315D01*
X007693Y010289D01*
X007648Y010261D01*
X007605Y010229D01*
X007565Y010195D01*
X007526Y010157D01*
X007490Y010118D01*
X008101Y008801D02*
X008155Y008803D01*
X008209Y008808D01*
X008262Y008817D01*
X008315Y008830D01*
X008366Y008846D01*
X008416Y008866D01*
X008465Y008889D01*
X008513Y008915D01*
X008558Y008944D01*
X008601Y008977D01*
X008642Y009012D01*
X008681Y009050D01*
X008717Y009090D01*
X008750Y009133D01*
X008780Y009178D01*
X008807Y009225D01*
X008101Y008801D02*
X008047Y008803D01*
X007994Y008808D01*
X007940Y008817D01*
X007888Y008830D01*
X007837Y008846D01*
X007786Y008866D01*
X007737Y008888D01*
X007690Y008914D01*
X007645Y008944D01*
X007602Y008976D01*
X007561Y009011D01*
X007522Y009049D01*
X007486Y009089D01*
X004296Y009998D02*
X004266Y010046D01*
X004233Y010091D01*
X004197Y010134D01*
X004159Y010175D01*
X004117Y010212D01*
X004073Y010247D01*
X004027Y010278D01*
X003978Y010307D01*
X003928Y010331D01*
X003876Y010352D01*
X003822Y010370D01*
X003768Y010383D01*
X003713Y010393D01*
X003657Y010399D01*
X003601Y010401D01*
X003548Y010399D01*
X003494Y010394D01*
X003442Y010385D01*
X003390Y010373D01*
X003339Y010357D01*
X003289Y010338D01*
X003240Y010315D01*
X003193Y010289D01*
X003148Y010261D01*
X003105Y010229D01*
X003065Y010195D01*
X003026Y010157D01*
X002990Y010118D01*
X003601Y008801D02*
X003655Y008803D01*
X003709Y008808D01*
X003762Y008817D01*
X003815Y008830D01*
X003866Y008846D01*
X003916Y008866D01*
X003965Y008889D01*
X004013Y008915D01*
X004058Y008944D01*
X004101Y008977D01*
X004142Y009012D01*
X004181Y009050D01*
X004217Y009090D01*
X004250Y009133D01*
X004280Y009178D01*
X004307Y009225D01*
X003601Y008801D02*
X003547Y008803D01*
X003494Y008808D01*
X003440Y008817D01*
X003388Y008830D01*
X003337Y008846D01*
X003286Y008866D01*
X003237Y008888D01*
X003190Y008914D01*
X003145Y008944D01*
X003102Y008976D01*
X003061Y009011D01*
X003022Y009049D01*
X002986Y009089D01*
X018498Y036406D02*
X018546Y036436D01*
X018591Y036469D01*
X018634Y036505D01*
X018675Y036543D01*
X018712Y036585D01*
X018747Y036629D01*
X018778Y036675D01*
X018807Y036724D01*
X018831Y036774D01*
X018852Y036826D01*
X018870Y036880D01*
X018883Y036934D01*
X018893Y036989D01*
X018899Y037045D01*
X018901Y037101D01*
X018899Y037154D01*
X018894Y037208D01*
X018885Y037260D01*
X018873Y037312D01*
X018857Y037363D01*
X018838Y037413D01*
X018815Y037462D01*
X018789Y037509D01*
X018761Y037554D01*
X018729Y037597D01*
X018695Y037637D01*
X018657Y037676D01*
X018618Y037712D01*
X017301Y037101D02*
X017303Y037047D01*
X017308Y036993D01*
X017317Y036940D01*
X017330Y036887D01*
X017346Y036836D01*
X017366Y036786D01*
X017389Y036737D01*
X017415Y036689D01*
X017444Y036644D01*
X017477Y036601D01*
X017512Y036560D01*
X017550Y036521D01*
X017590Y036485D01*
X017633Y036452D01*
X017678Y036422D01*
X017725Y036395D01*
X017301Y037101D02*
X017303Y037155D01*
X017308Y037208D01*
X017317Y037262D01*
X017330Y037314D01*
X017346Y037365D01*
X017366Y037416D01*
X017388Y037465D01*
X017414Y037512D01*
X017444Y037557D01*
X017476Y037600D01*
X017511Y037641D01*
X017549Y037680D01*
X017589Y037716D01*
D24*
X021151Y038201D02*
X021151Y038301D01*
X021151Y038201D02*
X022101Y038201D01*
X022101Y038301D01*
X022101Y036001D02*
X021101Y036001D01*
X021101Y035901D01*
X022101Y035901D02*
X022101Y036001D01*
X028601Y036001D02*
X028601Y035901D01*
X028601Y036001D02*
X029601Y036001D01*
X029601Y035901D01*
X029601Y038201D02*
X028651Y038201D01*
X028651Y038301D01*
X029601Y038301D02*
X029601Y038201D01*
D25*
X018557Y027664D02*
X018361Y027664D01*
X015644Y027664D01*
X018361Y027664D02*
X018361Y021538D01*
X015644Y021538D01*
X018361Y021538D02*
X018557Y021538D01*
X007739Y021538D02*
X007542Y021538D01*
X007542Y027664D01*
X007739Y027664D01*
X007542Y027664D02*
X004825Y027664D01*
X004825Y021538D02*
X007542Y021538D01*
D26*
X010351Y035376D03*
X010351Y038826D03*
D27*
X010451Y038101D03*
X010451Y037101D03*
X010451Y036101D03*
D28*
X010351Y036601D03*
X010351Y037601D03*
D29*
X011912Y002463D03*
X015849Y002463D03*
X019786Y002463D03*
X023723Y002463D03*
X027660Y002463D03*
X031597Y002463D03*
X035534Y002463D03*
X007975Y002463D03*
X004038Y002463D03*
D30*
X004636Y001016D02*
X005056Y000386D01*
X005280Y000491D02*
X005385Y000386D01*
X005596Y000386D01*
X005701Y000491D01*
X005701Y000911D01*
X005596Y001016D01*
X005385Y001016D01*
X005280Y000911D01*
X005280Y000806D01*
X005385Y000701D01*
X005701Y000701D01*
X005056Y001016D02*
X004636Y000386D01*
X008636Y000386D02*
X009056Y001016D01*
X009280Y000911D02*
X009280Y000806D01*
X009385Y000701D01*
X009596Y000701D01*
X009701Y000596D01*
X009701Y000491D01*
X009596Y000386D01*
X009385Y000386D01*
X009280Y000491D01*
X009280Y000596D01*
X009385Y000701D01*
X009596Y000701D02*
X009701Y000806D01*
X009701Y000911D01*
X009596Y001016D01*
X009385Y001016D01*
X009280Y000911D01*
X009056Y000386D02*
X008636Y001016D01*
X012636Y001016D02*
X013056Y000386D01*
X013280Y000386D02*
X013280Y000491D01*
X013701Y000911D01*
X013701Y001016D01*
X013280Y001016D01*
X013056Y001016D02*
X012636Y000386D01*
X016636Y000386D02*
X017056Y001016D01*
X017280Y000701D02*
X017596Y000701D01*
X017701Y000596D01*
X017701Y000491D01*
X017596Y000386D01*
X017385Y000386D01*
X017280Y000491D01*
X017280Y000701D01*
X017490Y000911D01*
X017701Y001016D01*
X017056Y000386D02*
X016636Y001016D01*
X020386Y001016D02*
X020806Y000386D01*
X021030Y000491D02*
X021135Y000386D01*
X021346Y000386D01*
X021451Y000491D01*
X021451Y000701D01*
X021346Y000806D01*
X021240Y000806D01*
X021030Y000701D01*
X021030Y001016D01*
X021451Y001016D01*
X020806Y001016D02*
X020386Y000386D01*
X024386Y000386D02*
X024806Y001016D01*
X025030Y000701D02*
X025451Y000701D01*
X025346Y000386D02*
X025346Y001016D01*
X025030Y000701D01*
X024806Y000386D02*
X024386Y001016D01*
X028386Y001016D02*
X028806Y000386D01*
X029030Y000491D02*
X029135Y000386D01*
X029346Y000386D01*
X029451Y000491D01*
X029451Y000596D01*
X029346Y000701D01*
X029240Y000701D01*
X029346Y000701D02*
X029451Y000806D01*
X029451Y000911D01*
X029346Y001016D01*
X029135Y001016D01*
X029030Y000911D01*
X028806Y001016D02*
X028386Y000386D01*
X032386Y000386D02*
X032806Y001016D01*
X033030Y000911D02*
X033135Y001016D01*
X033346Y001016D01*
X033451Y000911D01*
X033451Y000806D01*
X033030Y000386D01*
X033451Y000386D01*
X032806Y000386D02*
X032386Y001016D01*
X036386Y001016D02*
X036806Y000386D01*
X037030Y000386D02*
X037451Y000386D01*
X037240Y000386D02*
X037240Y001016D01*
X037030Y000806D01*
X036806Y001016D02*
X036386Y000386D01*
M02*
