%
M48
M72
T01C0.0236
T02C0.0240
T03C0.0320
T04C0.0360
T05C0.0400
T06C0.0500
T07C0.0520
T08C0.1260
%
T01
X3101Y13851
X3101Y15351
X10851Y21851
X10601Y28601
X10101Y28601
X9601Y28601
X9101Y28601
X8601Y28601
X8101Y28601
X11101Y28601
X11601Y28601
X18601Y28601
X19101Y28601
X19601Y28601
X20101Y28601
X20601Y28601
X21101Y28601
X21601Y28601
X22101Y28601
X30101Y20101
X30601Y20101
X34351Y27601
X35101Y27601
X35601Y28101
X36101Y29101
X33851Y30351
X32601Y32101
X33101Y32601
X31851Y32601
X31351Y32601
T02
X12101Y37601
X12101Y38601
T03
X13101Y34101
X10601Y34101
X8601Y34101
X16101Y34101
X18101Y36601
X18101Y37601
X24601Y34601
X26601Y34601
X28101Y34601
X31101Y34601
X32601Y36601
X32601Y37601
X34101Y38101
X35601Y37601
X35601Y36601
X37101Y38101
X37101Y35101
X34101Y35101
X25851Y27351
X25851Y26351
X25851Y25351
X25851Y24351
X25851Y23351
X25851Y22351
X25851Y21351
X28601Y21351
X28601Y22351
X31601Y22351
X31601Y21351
X32851Y20851
X33851Y20851
X35101Y20601
X36101Y20601
X37101Y20601
X38101Y20601
X38101Y23601
X37101Y23601
X36101Y23601
X35101Y23601
X33851Y23851
X32851Y23851
X33601Y14601
X33601Y13601
X33601Y12601
X32101Y12601
X32101Y13601
X32101Y14601
X29101Y14601
X29101Y13601
X29101Y12601
X27601Y12601
X27601Y13601
X27601Y14601
X24601Y14601
X24601Y13601
X24601Y12601
X23101Y12601
X23101Y13601
X23101Y14601
X20101Y14601
X20101Y13601
X20101Y12601
X18601Y12601
X18601Y13601
X18601Y14601
X15601Y14601
X15601Y13601
X15601Y12601
X14101Y12601
X14101Y13601
X14101Y14601
X11101Y14601
X11101Y13601
X11101Y12601
X9601Y12601
X9601Y13601
X9601Y14601
X6601Y14601
X6601Y13601
X6601Y12601
X5101Y12601
X5101Y13601
X5101Y14601
X2101Y14601
X2101Y13601
X2101Y12601
X1601Y11101
X3101Y9601
X4101Y9601
X5101Y10101
X4601Y11101
X6101Y11101
X6101Y10101
X7601Y9601
X8601Y9601
X9601Y10101
X10601Y10101
X10601Y11101
X9101Y11101
X12101Y9601
X13101Y9601
X14101Y10101
X13601Y11101
X15101Y11101
X15101Y10101
X16601Y9601
X17601Y9601
X18601Y10101
X18101Y11101
X19601Y11101
X19601Y10101
X21101Y9601
X22101Y9601
X23101Y10101
X24101Y10101
X24101Y11101
X22601Y11101
X25601Y9601
X26601Y9601
X27601Y10101
X27101Y11101
X28601Y11101
X28601Y10101
X30101Y9601
X31101Y9601
X32101Y10101
X33101Y10101
X33101Y11101
X31601Y11101
X34601Y9601
X35601Y9601
X36601Y10101
X36101Y11101
X36601Y12601
X36601Y13601
X36601Y14601
X37601Y10101
X37601Y7101
X36601Y7101
X33101Y7101
X32101Y7101
X28601Y7101
X27601Y7101
X24101Y7101
X23101Y7101
X19601Y7101
X18601Y7101
X15101Y7101
X14101Y7101
X10601Y7101
X9601Y7101
X6101Y7101
X5101Y7101
X22851Y21351
X22851Y22351
X22851Y23351
X22851Y24351
X22851Y25351
X22851Y26351
X22851Y27351
T04
X18101Y34101
X18101Y35101
X13101Y35601
X12101Y35601
T05
X14601Y35601
X14601Y38601
X9601Y38101
X9601Y37101
X9601Y36101
X7101Y36101
X7101Y38101
X5101Y38101
X5101Y36101
X5101Y32101
X5101Y31101
X4101Y31101
X4101Y32101
X6101Y32101
X7101Y32101
X7101Y31101
X6101Y31101
X8101Y31101
X8101Y32101
X9101Y32101
X9101Y31101
X10101Y31101
X10101Y32101
X11101Y32101
X11101Y31101
X14601Y31101
X14601Y32101
X15601Y32101
X16601Y32101
X16601Y31101
X15601Y31101
X17601Y31101
X17601Y32101
X18601Y32101
X18601Y31101
X19601Y31101
X19601Y32101
X20601Y32101
X21601Y32101
X21601Y31101
X20601Y31101
X22851Y30101
X22851Y29101
X23851Y29101
X23851Y30101
X24851Y30101
X24851Y29101
X25851Y29101
X25851Y30101
X28601Y30601
X28601Y29601
X28601Y28601
X28601Y27601
X28601Y25601
X29601Y25601
X29601Y23601
X28601Y23601
X32851Y24851
X34101Y24851
X28601Y31601
X28601Y32601
X27821Y36211
X27821Y37991
X30381Y37991
X30381Y36211
X22881Y36211
X22881Y37991
X20321Y37991
X20321Y36211
X19851Y19601
X20851Y19601
X21851Y19601
X22851Y19601
X22851Y16601
X21851Y16601
X20851Y16601
X19851Y16601
X18851Y16601
X17851Y16601
X16851Y16601
X15851Y16601
X14851Y16601
X14851Y19601
X15851Y19601
X16851Y19601
X17851Y19601
X18851Y19601
X18601Y5601
X17601Y5601
X16601Y5601
X14101Y5601
X13101Y5601
X12101Y5601
X9601Y5601
X8601Y5601
X7601Y5601
X5101Y5601
X4101Y5601
X3101Y5601
X21101Y5601
X22101Y5601
X23101Y5601
X25601Y5601
X26601Y5601
X27601Y5601
X30101Y5601
X31101Y5601
X32101Y5601
X34601Y5601
X35601Y5601
X36601Y5601
T06
X2601Y35412
X2601Y36790
T07
X3048Y2463
X5028Y2463
X6985Y2463
X8965Y2463
X10922Y2463
X12902Y2463
X14859Y2463
X16839Y2463
X18796Y2463
X20776Y2463
X22733Y2463
X24713Y2463
X26670Y2463
X28650Y2463
X30607Y2463
X32587Y2463
X34544Y2463
X36524Y2463
T08
X888Y2463
X888Y15061
X1676Y19786
X2069Y22542
X1676Y31991
X888Y38683
X13093Y19786
X24904Y19786
X33959Y19392
X38683Y15061
X38683Y2463
X24904Y31991
X38683Y38683
M30
