G75*
G70*
%OFA0B0*%
%FSLAX24Y24*%
%IPPOS*%
%LPD*%
%AMOC8*
5,1,8,0,0,1.08239X$1,22.5*
%
%ADD10C,0.0000*%
%ADD11OC8,0.0520*%
%ADD12C,0.0600*%
%ADD13C,0.0560*%
%ADD14OC8,0.0630*%
%ADD15OC8,0.0500*%
%ADD16C,0.0750*%
%ADD17C,0.0520*%
%ADD18OC8,0.0600*%
%ADD19C,0.0600*%
%ADD20C,0.0780*%
%ADD21C,0.0240*%
%ADD22C,0.0160*%
%ADD23C,0.0500*%
%ADD24C,0.0120*%
%ADD25C,0.0356*%
%ADD26C,0.0100*%
%ADD27C,0.0320*%
D10*
X000101Y000101D02*
X000101Y039471D01*
X039471Y039471D01*
X039471Y000101D01*
X000101Y000101D01*
X000258Y002463D02*
X000260Y002513D01*
X000266Y002563D01*
X000276Y002612D01*
X000290Y002660D01*
X000307Y002707D01*
X000328Y002752D01*
X000353Y002796D01*
X000381Y002837D01*
X000413Y002876D01*
X000447Y002913D01*
X000484Y002947D01*
X000524Y002977D01*
X000566Y003004D01*
X000610Y003028D01*
X000656Y003049D01*
X000703Y003065D01*
X000751Y003078D01*
X000801Y003087D01*
X000850Y003092D01*
X000901Y003093D01*
X000951Y003090D01*
X001000Y003083D01*
X001049Y003072D01*
X001097Y003057D01*
X001143Y003039D01*
X001188Y003017D01*
X001231Y002991D01*
X001272Y002962D01*
X001311Y002930D01*
X001347Y002895D01*
X001379Y002857D01*
X001409Y002817D01*
X001436Y002774D01*
X001459Y002730D01*
X001478Y002684D01*
X001494Y002636D01*
X001506Y002587D01*
X001514Y002538D01*
X001518Y002488D01*
X001518Y002438D01*
X001514Y002388D01*
X001506Y002339D01*
X001494Y002290D01*
X001478Y002242D01*
X001459Y002196D01*
X001436Y002152D01*
X001409Y002109D01*
X001379Y002069D01*
X001347Y002031D01*
X001311Y001996D01*
X001272Y001964D01*
X001231Y001935D01*
X001188Y001909D01*
X001143Y001887D01*
X001097Y001869D01*
X001049Y001854D01*
X001000Y001843D01*
X000951Y001836D01*
X000901Y001833D01*
X000850Y001834D01*
X000801Y001839D01*
X000751Y001848D01*
X000703Y001861D01*
X000656Y001877D01*
X000610Y001898D01*
X000566Y001922D01*
X000524Y001949D01*
X000484Y001979D01*
X000447Y002013D01*
X000413Y002050D01*
X000381Y002089D01*
X000353Y002130D01*
X000328Y002174D01*
X000307Y002219D01*
X000290Y002266D01*
X000276Y002314D01*
X000266Y002363D01*
X000260Y002413D01*
X000258Y002463D01*
X000258Y015061D02*
X000260Y015111D01*
X000266Y015161D01*
X000276Y015210D01*
X000290Y015258D01*
X000307Y015305D01*
X000328Y015350D01*
X000353Y015394D01*
X000381Y015435D01*
X000413Y015474D01*
X000447Y015511D01*
X000484Y015545D01*
X000524Y015575D01*
X000566Y015602D01*
X000610Y015626D01*
X000656Y015647D01*
X000703Y015663D01*
X000751Y015676D01*
X000801Y015685D01*
X000850Y015690D01*
X000901Y015691D01*
X000951Y015688D01*
X001000Y015681D01*
X001049Y015670D01*
X001097Y015655D01*
X001143Y015637D01*
X001188Y015615D01*
X001231Y015589D01*
X001272Y015560D01*
X001311Y015528D01*
X001347Y015493D01*
X001379Y015455D01*
X001409Y015415D01*
X001436Y015372D01*
X001459Y015328D01*
X001478Y015282D01*
X001494Y015234D01*
X001506Y015185D01*
X001514Y015136D01*
X001518Y015086D01*
X001518Y015036D01*
X001514Y014986D01*
X001506Y014937D01*
X001494Y014888D01*
X001478Y014840D01*
X001459Y014794D01*
X001436Y014750D01*
X001409Y014707D01*
X001379Y014667D01*
X001347Y014629D01*
X001311Y014594D01*
X001272Y014562D01*
X001231Y014533D01*
X001188Y014507D01*
X001143Y014485D01*
X001097Y014467D01*
X001049Y014452D01*
X001000Y014441D01*
X000951Y014434D01*
X000901Y014431D01*
X000850Y014432D01*
X000801Y014437D01*
X000751Y014446D01*
X000703Y014459D01*
X000656Y014475D01*
X000610Y014496D01*
X000566Y014520D01*
X000524Y014547D01*
X000484Y014577D01*
X000447Y014611D01*
X000413Y014648D01*
X000381Y014687D01*
X000353Y014728D01*
X000328Y014772D01*
X000307Y014817D01*
X000290Y014864D01*
X000276Y014912D01*
X000266Y014961D01*
X000260Y015011D01*
X000258Y015061D01*
X001046Y019786D02*
X001048Y019836D01*
X001054Y019886D01*
X001064Y019935D01*
X001078Y019983D01*
X001095Y020030D01*
X001116Y020075D01*
X001141Y020119D01*
X001169Y020160D01*
X001201Y020199D01*
X001235Y020236D01*
X001272Y020270D01*
X001312Y020300D01*
X001354Y020327D01*
X001398Y020351D01*
X001444Y020372D01*
X001491Y020388D01*
X001539Y020401D01*
X001589Y020410D01*
X001638Y020415D01*
X001689Y020416D01*
X001739Y020413D01*
X001788Y020406D01*
X001837Y020395D01*
X001885Y020380D01*
X001931Y020362D01*
X001976Y020340D01*
X002019Y020314D01*
X002060Y020285D01*
X002099Y020253D01*
X002135Y020218D01*
X002167Y020180D01*
X002197Y020140D01*
X002224Y020097D01*
X002247Y020053D01*
X002266Y020007D01*
X002282Y019959D01*
X002294Y019910D01*
X002302Y019861D01*
X002306Y019811D01*
X002306Y019761D01*
X002302Y019711D01*
X002294Y019662D01*
X002282Y019613D01*
X002266Y019565D01*
X002247Y019519D01*
X002224Y019475D01*
X002197Y019432D01*
X002167Y019392D01*
X002135Y019354D01*
X002099Y019319D01*
X002060Y019287D01*
X002019Y019258D01*
X001976Y019232D01*
X001931Y019210D01*
X001885Y019192D01*
X001837Y019177D01*
X001788Y019166D01*
X001739Y019159D01*
X001689Y019156D01*
X001638Y019157D01*
X001589Y019162D01*
X001539Y019171D01*
X001491Y019184D01*
X001444Y019200D01*
X001398Y019221D01*
X001354Y019245D01*
X001312Y019272D01*
X001272Y019302D01*
X001235Y019336D01*
X001201Y019373D01*
X001169Y019412D01*
X001141Y019453D01*
X001116Y019497D01*
X001095Y019542D01*
X001078Y019589D01*
X001064Y019637D01*
X001054Y019686D01*
X001048Y019736D01*
X001046Y019786D01*
X001439Y022542D02*
X001441Y022592D01*
X001447Y022642D01*
X001457Y022691D01*
X001471Y022739D01*
X001488Y022786D01*
X001509Y022831D01*
X001534Y022875D01*
X001562Y022916D01*
X001594Y022955D01*
X001628Y022992D01*
X001665Y023026D01*
X001705Y023056D01*
X001747Y023083D01*
X001791Y023107D01*
X001837Y023128D01*
X001884Y023144D01*
X001932Y023157D01*
X001982Y023166D01*
X002031Y023171D01*
X002082Y023172D01*
X002132Y023169D01*
X002181Y023162D01*
X002230Y023151D01*
X002278Y023136D01*
X002324Y023118D01*
X002369Y023096D01*
X002412Y023070D01*
X002453Y023041D01*
X002492Y023009D01*
X002528Y022974D01*
X002560Y022936D01*
X002590Y022896D01*
X002617Y022853D01*
X002640Y022809D01*
X002659Y022763D01*
X002675Y022715D01*
X002687Y022666D01*
X002695Y022617D01*
X002699Y022567D01*
X002699Y022517D01*
X002695Y022467D01*
X002687Y022418D01*
X002675Y022369D01*
X002659Y022321D01*
X002640Y022275D01*
X002617Y022231D01*
X002590Y022188D01*
X002560Y022148D01*
X002528Y022110D01*
X002492Y022075D01*
X002453Y022043D01*
X002412Y022014D01*
X002369Y021988D01*
X002324Y021966D01*
X002278Y021948D01*
X002230Y021933D01*
X002181Y021922D01*
X002132Y021915D01*
X002082Y021912D01*
X002031Y021913D01*
X001982Y021918D01*
X001932Y021927D01*
X001884Y021940D01*
X001837Y021956D01*
X001791Y021977D01*
X001747Y022001D01*
X001705Y022028D01*
X001665Y022058D01*
X001628Y022092D01*
X001594Y022129D01*
X001562Y022168D01*
X001534Y022209D01*
X001509Y022253D01*
X001488Y022298D01*
X001471Y022345D01*
X001457Y022393D01*
X001447Y022442D01*
X001441Y022492D01*
X001439Y022542D01*
X001046Y031991D02*
X001048Y032041D01*
X001054Y032091D01*
X001064Y032140D01*
X001078Y032188D01*
X001095Y032235D01*
X001116Y032280D01*
X001141Y032324D01*
X001169Y032365D01*
X001201Y032404D01*
X001235Y032441D01*
X001272Y032475D01*
X001312Y032505D01*
X001354Y032532D01*
X001398Y032556D01*
X001444Y032577D01*
X001491Y032593D01*
X001539Y032606D01*
X001589Y032615D01*
X001638Y032620D01*
X001689Y032621D01*
X001739Y032618D01*
X001788Y032611D01*
X001837Y032600D01*
X001885Y032585D01*
X001931Y032567D01*
X001976Y032545D01*
X002019Y032519D01*
X002060Y032490D01*
X002099Y032458D01*
X002135Y032423D01*
X002167Y032385D01*
X002197Y032345D01*
X002224Y032302D01*
X002247Y032258D01*
X002266Y032212D01*
X002282Y032164D01*
X002294Y032115D01*
X002302Y032066D01*
X002306Y032016D01*
X002306Y031966D01*
X002302Y031916D01*
X002294Y031867D01*
X002282Y031818D01*
X002266Y031770D01*
X002247Y031724D01*
X002224Y031680D01*
X002197Y031637D01*
X002167Y031597D01*
X002135Y031559D01*
X002099Y031524D01*
X002060Y031492D01*
X002019Y031463D01*
X001976Y031437D01*
X001931Y031415D01*
X001885Y031397D01*
X001837Y031382D01*
X001788Y031371D01*
X001739Y031364D01*
X001689Y031361D01*
X001638Y031362D01*
X001589Y031367D01*
X001539Y031376D01*
X001491Y031389D01*
X001444Y031405D01*
X001398Y031426D01*
X001354Y031450D01*
X001312Y031477D01*
X001272Y031507D01*
X001235Y031541D01*
X001201Y031578D01*
X001169Y031617D01*
X001141Y031658D01*
X001116Y031702D01*
X001095Y031747D01*
X001078Y031794D01*
X001064Y031842D01*
X001054Y031891D01*
X001048Y031941D01*
X001046Y031991D01*
X000258Y038683D02*
X000260Y038733D01*
X000266Y038783D01*
X000276Y038832D01*
X000290Y038880D01*
X000307Y038927D01*
X000328Y038972D01*
X000353Y039016D01*
X000381Y039057D01*
X000413Y039096D01*
X000447Y039133D01*
X000484Y039167D01*
X000524Y039197D01*
X000566Y039224D01*
X000610Y039248D01*
X000656Y039269D01*
X000703Y039285D01*
X000751Y039298D01*
X000801Y039307D01*
X000850Y039312D01*
X000901Y039313D01*
X000951Y039310D01*
X001000Y039303D01*
X001049Y039292D01*
X001097Y039277D01*
X001143Y039259D01*
X001188Y039237D01*
X001231Y039211D01*
X001272Y039182D01*
X001311Y039150D01*
X001347Y039115D01*
X001379Y039077D01*
X001409Y039037D01*
X001436Y038994D01*
X001459Y038950D01*
X001478Y038904D01*
X001494Y038856D01*
X001506Y038807D01*
X001514Y038758D01*
X001518Y038708D01*
X001518Y038658D01*
X001514Y038608D01*
X001506Y038559D01*
X001494Y038510D01*
X001478Y038462D01*
X001459Y038416D01*
X001436Y038372D01*
X001409Y038329D01*
X001379Y038289D01*
X001347Y038251D01*
X001311Y038216D01*
X001272Y038184D01*
X001231Y038155D01*
X001188Y038129D01*
X001143Y038107D01*
X001097Y038089D01*
X001049Y038074D01*
X001000Y038063D01*
X000951Y038056D01*
X000901Y038053D01*
X000850Y038054D01*
X000801Y038059D01*
X000751Y038068D01*
X000703Y038081D01*
X000656Y038097D01*
X000610Y038118D01*
X000566Y038142D01*
X000524Y038169D01*
X000484Y038199D01*
X000447Y038233D01*
X000413Y038270D01*
X000381Y038309D01*
X000353Y038350D01*
X000328Y038394D01*
X000307Y038439D01*
X000290Y038486D01*
X000276Y038534D01*
X000266Y038583D01*
X000260Y038633D01*
X000258Y038683D01*
X012463Y019786D02*
X012465Y019836D01*
X012471Y019886D01*
X012481Y019935D01*
X012495Y019983D01*
X012512Y020030D01*
X012533Y020075D01*
X012558Y020119D01*
X012586Y020160D01*
X012618Y020199D01*
X012652Y020236D01*
X012689Y020270D01*
X012729Y020300D01*
X012771Y020327D01*
X012815Y020351D01*
X012861Y020372D01*
X012908Y020388D01*
X012956Y020401D01*
X013006Y020410D01*
X013055Y020415D01*
X013106Y020416D01*
X013156Y020413D01*
X013205Y020406D01*
X013254Y020395D01*
X013302Y020380D01*
X013348Y020362D01*
X013393Y020340D01*
X013436Y020314D01*
X013477Y020285D01*
X013516Y020253D01*
X013552Y020218D01*
X013584Y020180D01*
X013614Y020140D01*
X013641Y020097D01*
X013664Y020053D01*
X013683Y020007D01*
X013699Y019959D01*
X013711Y019910D01*
X013719Y019861D01*
X013723Y019811D01*
X013723Y019761D01*
X013719Y019711D01*
X013711Y019662D01*
X013699Y019613D01*
X013683Y019565D01*
X013664Y019519D01*
X013641Y019475D01*
X013614Y019432D01*
X013584Y019392D01*
X013552Y019354D01*
X013516Y019319D01*
X013477Y019287D01*
X013436Y019258D01*
X013393Y019232D01*
X013348Y019210D01*
X013302Y019192D01*
X013254Y019177D01*
X013205Y019166D01*
X013156Y019159D01*
X013106Y019156D01*
X013055Y019157D01*
X013006Y019162D01*
X012956Y019171D01*
X012908Y019184D01*
X012861Y019200D01*
X012815Y019221D01*
X012771Y019245D01*
X012729Y019272D01*
X012689Y019302D01*
X012652Y019336D01*
X012618Y019373D01*
X012586Y019412D01*
X012558Y019453D01*
X012533Y019497D01*
X012512Y019542D01*
X012495Y019589D01*
X012481Y019637D01*
X012471Y019686D01*
X012465Y019736D01*
X012463Y019786D01*
X024274Y019786D02*
X024276Y019836D01*
X024282Y019886D01*
X024292Y019935D01*
X024306Y019983D01*
X024323Y020030D01*
X024344Y020075D01*
X024369Y020119D01*
X024397Y020160D01*
X024429Y020199D01*
X024463Y020236D01*
X024500Y020270D01*
X024540Y020300D01*
X024582Y020327D01*
X024626Y020351D01*
X024672Y020372D01*
X024719Y020388D01*
X024767Y020401D01*
X024817Y020410D01*
X024866Y020415D01*
X024917Y020416D01*
X024967Y020413D01*
X025016Y020406D01*
X025065Y020395D01*
X025113Y020380D01*
X025159Y020362D01*
X025204Y020340D01*
X025247Y020314D01*
X025288Y020285D01*
X025327Y020253D01*
X025363Y020218D01*
X025395Y020180D01*
X025425Y020140D01*
X025452Y020097D01*
X025475Y020053D01*
X025494Y020007D01*
X025510Y019959D01*
X025522Y019910D01*
X025530Y019861D01*
X025534Y019811D01*
X025534Y019761D01*
X025530Y019711D01*
X025522Y019662D01*
X025510Y019613D01*
X025494Y019565D01*
X025475Y019519D01*
X025452Y019475D01*
X025425Y019432D01*
X025395Y019392D01*
X025363Y019354D01*
X025327Y019319D01*
X025288Y019287D01*
X025247Y019258D01*
X025204Y019232D01*
X025159Y019210D01*
X025113Y019192D01*
X025065Y019177D01*
X025016Y019166D01*
X024967Y019159D01*
X024917Y019156D01*
X024866Y019157D01*
X024817Y019162D01*
X024767Y019171D01*
X024719Y019184D01*
X024672Y019200D01*
X024626Y019221D01*
X024582Y019245D01*
X024540Y019272D01*
X024500Y019302D01*
X024463Y019336D01*
X024429Y019373D01*
X024397Y019412D01*
X024369Y019453D01*
X024344Y019497D01*
X024323Y019542D01*
X024306Y019589D01*
X024292Y019637D01*
X024282Y019686D01*
X024276Y019736D01*
X024274Y019786D01*
X033329Y019392D02*
X033331Y019442D01*
X033337Y019492D01*
X033347Y019541D01*
X033361Y019589D01*
X033378Y019636D01*
X033399Y019681D01*
X033424Y019725D01*
X033452Y019766D01*
X033484Y019805D01*
X033518Y019842D01*
X033555Y019876D01*
X033595Y019906D01*
X033637Y019933D01*
X033681Y019957D01*
X033727Y019978D01*
X033774Y019994D01*
X033822Y020007D01*
X033872Y020016D01*
X033921Y020021D01*
X033972Y020022D01*
X034022Y020019D01*
X034071Y020012D01*
X034120Y020001D01*
X034168Y019986D01*
X034214Y019968D01*
X034259Y019946D01*
X034302Y019920D01*
X034343Y019891D01*
X034382Y019859D01*
X034418Y019824D01*
X034450Y019786D01*
X034480Y019746D01*
X034507Y019703D01*
X034530Y019659D01*
X034549Y019613D01*
X034565Y019565D01*
X034577Y019516D01*
X034585Y019467D01*
X034589Y019417D01*
X034589Y019367D01*
X034585Y019317D01*
X034577Y019268D01*
X034565Y019219D01*
X034549Y019171D01*
X034530Y019125D01*
X034507Y019081D01*
X034480Y019038D01*
X034450Y018998D01*
X034418Y018960D01*
X034382Y018925D01*
X034343Y018893D01*
X034302Y018864D01*
X034259Y018838D01*
X034214Y018816D01*
X034168Y018798D01*
X034120Y018783D01*
X034071Y018772D01*
X034022Y018765D01*
X033972Y018762D01*
X033921Y018763D01*
X033872Y018768D01*
X033822Y018777D01*
X033774Y018790D01*
X033727Y018806D01*
X033681Y018827D01*
X033637Y018851D01*
X033595Y018878D01*
X033555Y018908D01*
X033518Y018942D01*
X033484Y018979D01*
X033452Y019018D01*
X033424Y019059D01*
X033399Y019103D01*
X033378Y019148D01*
X033361Y019195D01*
X033347Y019243D01*
X033337Y019292D01*
X033331Y019342D01*
X033329Y019392D01*
X038053Y015061D02*
X038055Y015111D01*
X038061Y015161D01*
X038071Y015210D01*
X038085Y015258D01*
X038102Y015305D01*
X038123Y015350D01*
X038148Y015394D01*
X038176Y015435D01*
X038208Y015474D01*
X038242Y015511D01*
X038279Y015545D01*
X038319Y015575D01*
X038361Y015602D01*
X038405Y015626D01*
X038451Y015647D01*
X038498Y015663D01*
X038546Y015676D01*
X038596Y015685D01*
X038645Y015690D01*
X038696Y015691D01*
X038746Y015688D01*
X038795Y015681D01*
X038844Y015670D01*
X038892Y015655D01*
X038938Y015637D01*
X038983Y015615D01*
X039026Y015589D01*
X039067Y015560D01*
X039106Y015528D01*
X039142Y015493D01*
X039174Y015455D01*
X039204Y015415D01*
X039231Y015372D01*
X039254Y015328D01*
X039273Y015282D01*
X039289Y015234D01*
X039301Y015185D01*
X039309Y015136D01*
X039313Y015086D01*
X039313Y015036D01*
X039309Y014986D01*
X039301Y014937D01*
X039289Y014888D01*
X039273Y014840D01*
X039254Y014794D01*
X039231Y014750D01*
X039204Y014707D01*
X039174Y014667D01*
X039142Y014629D01*
X039106Y014594D01*
X039067Y014562D01*
X039026Y014533D01*
X038983Y014507D01*
X038938Y014485D01*
X038892Y014467D01*
X038844Y014452D01*
X038795Y014441D01*
X038746Y014434D01*
X038696Y014431D01*
X038645Y014432D01*
X038596Y014437D01*
X038546Y014446D01*
X038498Y014459D01*
X038451Y014475D01*
X038405Y014496D01*
X038361Y014520D01*
X038319Y014547D01*
X038279Y014577D01*
X038242Y014611D01*
X038208Y014648D01*
X038176Y014687D01*
X038148Y014728D01*
X038123Y014772D01*
X038102Y014817D01*
X038085Y014864D01*
X038071Y014912D01*
X038061Y014961D01*
X038055Y015011D01*
X038053Y015061D01*
X038053Y002463D02*
X038055Y002513D01*
X038061Y002563D01*
X038071Y002612D01*
X038085Y002660D01*
X038102Y002707D01*
X038123Y002752D01*
X038148Y002796D01*
X038176Y002837D01*
X038208Y002876D01*
X038242Y002913D01*
X038279Y002947D01*
X038319Y002977D01*
X038361Y003004D01*
X038405Y003028D01*
X038451Y003049D01*
X038498Y003065D01*
X038546Y003078D01*
X038596Y003087D01*
X038645Y003092D01*
X038696Y003093D01*
X038746Y003090D01*
X038795Y003083D01*
X038844Y003072D01*
X038892Y003057D01*
X038938Y003039D01*
X038983Y003017D01*
X039026Y002991D01*
X039067Y002962D01*
X039106Y002930D01*
X039142Y002895D01*
X039174Y002857D01*
X039204Y002817D01*
X039231Y002774D01*
X039254Y002730D01*
X039273Y002684D01*
X039289Y002636D01*
X039301Y002587D01*
X039309Y002538D01*
X039313Y002488D01*
X039313Y002438D01*
X039309Y002388D01*
X039301Y002339D01*
X039289Y002290D01*
X039273Y002242D01*
X039254Y002196D01*
X039231Y002152D01*
X039204Y002109D01*
X039174Y002069D01*
X039142Y002031D01*
X039106Y001996D01*
X039067Y001964D01*
X039026Y001935D01*
X038983Y001909D01*
X038938Y001887D01*
X038892Y001869D01*
X038844Y001854D01*
X038795Y001843D01*
X038746Y001836D01*
X038696Y001833D01*
X038645Y001834D01*
X038596Y001839D01*
X038546Y001848D01*
X038498Y001861D01*
X038451Y001877D01*
X038405Y001898D01*
X038361Y001922D01*
X038319Y001949D01*
X038279Y001979D01*
X038242Y002013D01*
X038208Y002050D01*
X038176Y002089D01*
X038148Y002130D01*
X038123Y002174D01*
X038102Y002219D01*
X038085Y002266D01*
X038071Y002314D01*
X038061Y002363D01*
X038055Y002413D01*
X038053Y002463D01*
X024274Y031991D02*
X024276Y032041D01*
X024282Y032091D01*
X024292Y032140D01*
X024306Y032188D01*
X024323Y032235D01*
X024344Y032280D01*
X024369Y032324D01*
X024397Y032365D01*
X024429Y032404D01*
X024463Y032441D01*
X024500Y032475D01*
X024540Y032505D01*
X024582Y032532D01*
X024626Y032556D01*
X024672Y032577D01*
X024719Y032593D01*
X024767Y032606D01*
X024817Y032615D01*
X024866Y032620D01*
X024917Y032621D01*
X024967Y032618D01*
X025016Y032611D01*
X025065Y032600D01*
X025113Y032585D01*
X025159Y032567D01*
X025204Y032545D01*
X025247Y032519D01*
X025288Y032490D01*
X025327Y032458D01*
X025363Y032423D01*
X025395Y032385D01*
X025425Y032345D01*
X025452Y032302D01*
X025475Y032258D01*
X025494Y032212D01*
X025510Y032164D01*
X025522Y032115D01*
X025530Y032066D01*
X025534Y032016D01*
X025534Y031966D01*
X025530Y031916D01*
X025522Y031867D01*
X025510Y031818D01*
X025494Y031770D01*
X025475Y031724D01*
X025452Y031680D01*
X025425Y031637D01*
X025395Y031597D01*
X025363Y031559D01*
X025327Y031524D01*
X025288Y031492D01*
X025247Y031463D01*
X025204Y031437D01*
X025159Y031415D01*
X025113Y031397D01*
X025065Y031382D01*
X025016Y031371D01*
X024967Y031364D01*
X024917Y031361D01*
X024866Y031362D01*
X024817Y031367D01*
X024767Y031376D01*
X024719Y031389D01*
X024672Y031405D01*
X024626Y031426D01*
X024582Y031450D01*
X024540Y031477D01*
X024500Y031507D01*
X024463Y031541D01*
X024429Y031578D01*
X024397Y031617D01*
X024369Y031658D01*
X024344Y031702D01*
X024323Y031747D01*
X024306Y031794D01*
X024292Y031842D01*
X024282Y031891D01*
X024276Y031941D01*
X024274Y031991D01*
X038053Y038683D02*
X038055Y038733D01*
X038061Y038783D01*
X038071Y038832D01*
X038085Y038880D01*
X038102Y038927D01*
X038123Y038972D01*
X038148Y039016D01*
X038176Y039057D01*
X038208Y039096D01*
X038242Y039133D01*
X038279Y039167D01*
X038319Y039197D01*
X038361Y039224D01*
X038405Y039248D01*
X038451Y039269D01*
X038498Y039285D01*
X038546Y039298D01*
X038596Y039307D01*
X038645Y039312D01*
X038696Y039313D01*
X038746Y039310D01*
X038795Y039303D01*
X038844Y039292D01*
X038892Y039277D01*
X038938Y039259D01*
X038983Y039237D01*
X039026Y039211D01*
X039067Y039182D01*
X039106Y039150D01*
X039142Y039115D01*
X039174Y039077D01*
X039204Y039037D01*
X039231Y038994D01*
X039254Y038950D01*
X039273Y038904D01*
X039289Y038856D01*
X039301Y038807D01*
X039309Y038758D01*
X039313Y038708D01*
X039313Y038658D01*
X039309Y038608D01*
X039301Y038559D01*
X039289Y038510D01*
X039273Y038462D01*
X039254Y038416D01*
X039231Y038372D01*
X039204Y038329D01*
X039174Y038289D01*
X039142Y038251D01*
X039106Y038216D01*
X039067Y038184D01*
X039026Y038155D01*
X038983Y038129D01*
X038938Y038107D01*
X038892Y038089D01*
X038844Y038074D01*
X038795Y038063D01*
X038746Y038056D01*
X038696Y038053D01*
X038645Y038054D01*
X038596Y038059D01*
X038546Y038068D01*
X038498Y038081D01*
X038451Y038097D01*
X038405Y038118D01*
X038361Y038142D01*
X038319Y038169D01*
X038279Y038199D01*
X038242Y038233D01*
X038208Y038270D01*
X038176Y038309D01*
X038148Y038350D01*
X038123Y038394D01*
X038102Y038439D01*
X038085Y038486D01*
X038071Y038534D01*
X038061Y038583D01*
X038055Y038633D01*
X038053Y038683D01*
D11*
X035601Y037601D03*
X035601Y036601D03*
X032601Y036601D03*
X032601Y037601D03*
X018101Y037601D03*
X018101Y036601D03*
X018601Y014601D03*
X018601Y013601D03*
X018601Y012601D03*
X020101Y012601D03*
X020101Y013601D03*
X020101Y014601D03*
X023101Y014601D03*
X023101Y013601D03*
X023101Y012601D03*
X024601Y012601D03*
X024601Y013601D03*
X024601Y014601D03*
X027601Y014601D03*
X027601Y013601D03*
X027601Y012601D03*
X029101Y012601D03*
X029101Y013601D03*
X029101Y014601D03*
X032101Y014601D03*
X032101Y013601D03*
X032101Y012601D03*
X033601Y012601D03*
X033601Y013601D03*
X033601Y014601D03*
X036601Y014601D03*
X036601Y013601D03*
X036601Y012601D03*
X035601Y009601D03*
X034601Y009601D03*
X031101Y009601D03*
X030101Y009601D03*
X026601Y009601D03*
X025601Y009601D03*
X022101Y009601D03*
X021101Y009601D03*
X017601Y009601D03*
X016601Y009601D03*
X015601Y012601D03*
X015601Y013601D03*
X015601Y014601D03*
X014101Y014601D03*
X014101Y013601D03*
X014101Y012601D03*
X011101Y012601D03*
X011101Y013601D03*
X011101Y014601D03*
X009601Y014601D03*
X009601Y013601D03*
X009601Y012601D03*
X006601Y012601D03*
X006601Y013601D03*
X006601Y014601D03*
X005101Y014601D03*
X005101Y013601D03*
X005101Y012601D03*
X002101Y012601D03*
X002101Y013601D03*
X002101Y014601D03*
X003101Y009601D03*
X004101Y009601D03*
X007601Y009601D03*
X008601Y009601D03*
X012101Y009601D03*
X013101Y009601D03*
D12*
X013101Y005901D02*
X013101Y005301D01*
X014101Y005301D02*
X014101Y005901D01*
X012101Y005901D02*
X012101Y005301D01*
X009601Y005301D02*
X009601Y005901D01*
X008601Y005901D02*
X008601Y005301D01*
X007601Y005301D02*
X007601Y005901D01*
X005101Y005901D02*
X005101Y005301D01*
X004101Y005301D02*
X004101Y005901D01*
X003101Y005901D02*
X003101Y005301D01*
X014851Y016301D02*
X014851Y016901D01*
X015851Y016901D02*
X015851Y016301D01*
X016851Y016301D02*
X016851Y016901D01*
X017851Y016901D02*
X017851Y016301D01*
X018851Y016301D02*
X018851Y016901D01*
X019851Y016901D02*
X019851Y016301D01*
X020851Y016301D02*
X020851Y016901D01*
X021851Y016901D02*
X021851Y016301D01*
X022851Y016301D02*
X022851Y016901D01*
X022851Y019301D02*
X022851Y019901D01*
X021851Y019901D02*
X021851Y019301D01*
X020851Y019301D02*
X020851Y019901D01*
X019851Y019901D02*
X019851Y019301D01*
X018851Y019301D02*
X018851Y019901D01*
X017851Y019901D02*
X017851Y019301D01*
X016851Y019301D02*
X016851Y019901D01*
X015851Y019901D02*
X015851Y019301D01*
X014851Y019301D02*
X014851Y019901D01*
X016601Y005901D02*
X016601Y005301D01*
X017601Y005301D02*
X017601Y005901D01*
X018601Y005901D02*
X018601Y005301D01*
X021101Y005301D02*
X021101Y005901D01*
X022101Y005901D02*
X022101Y005301D01*
X023101Y005301D02*
X023101Y005901D01*
X025601Y005901D02*
X025601Y005301D01*
X026601Y005301D02*
X026601Y005901D01*
X027601Y005901D02*
X027601Y005301D01*
X030101Y005301D02*
X030101Y005901D01*
X031101Y005901D02*
X031101Y005301D01*
X032101Y005301D02*
X032101Y005901D01*
X034601Y005901D02*
X034601Y005301D01*
X035601Y005301D02*
X035601Y005901D01*
X036601Y005901D02*
X036601Y005301D01*
X029601Y023301D02*
X029601Y023901D01*
X028601Y023901D02*
X028601Y023301D01*
X028601Y025301D02*
X028601Y025901D01*
X029601Y025901D02*
X029601Y025301D01*
X028901Y027601D02*
X028301Y027601D01*
X028301Y028601D02*
X028901Y028601D01*
X028901Y029601D02*
X028301Y029601D01*
X028301Y030601D02*
X028901Y030601D01*
X028901Y031601D02*
X028301Y031601D01*
X028301Y032601D02*
X028901Y032601D01*
X028121Y036211D02*
X027521Y036211D01*
X027521Y037991D02*
X028121Y037991D01*
X030081Y037991D02*
X030681Y037991D01*
X030681Y036211D02*
X030081Y036211D01*
X023181Y036211D02*
X022581Y036211D01*
X022581Y037991D02*
X023181Y037991D01*
X020621Y037991D02*
X020021Y037991D01*
X020021Y036211D02*
X020621Y036211D01*
X009901Y036101D02*
X009301Y036101D01*
X009301Y037101D02*
X009901Y037101D01*
X009901Y038101D02*
X009301Y038101D01*
D13*
X012101Y035881D02*
X012101Y035321D01*
X013101Y035321D02*
X013101Y035881D01*
X017821Y035101D02*
X018381Y035101D01*
X018381Y034101D02*
X017821Y034101D01*
D14*
X016101Y034101D03*
X013101Y034101D03*
X010601Y034101D03*
X008601Y034101D03*
X024601Y034601D03*
X026601Y034601D03*
X028101Y034601D03*
X031101Y034601D03*
X034101Y035101D03*
X034101Y038101D03*
X037101Y038101D03*
X037101Y035101D03*
X033851Y023851D03*
X032851Y023851D03*
X031601Y022351D03*
X031601Y021351D03*
X032851Y020851D03*
X033851Y020851D03*
X028601Y021351D03*
X028601Y022351D03*
X028601Y011101D03*
X028601Y010101D03*
X027601Y010101D03*
X027101Y011101D03*
X024101Y011101D03*
X024101Y010101D03*
X023101Y010101D03*
X022601Y011101D03*
X019601Y011101D03*
X019601Y010101D03*
X018601Y010101D03*
X018101Y011101D03*
X015101Y011101D03*
X015101Y010101D03*
X014101Y010101D03*
X013601Y011101D03*
X010601Y011101D03*
X010601Y010101D03*
X009601Y010101D03*
X009101Y011101D03*
X006101Y011101D03*
X006101Y010101D03*
X005101Y010101D03*
X004601Y011101D03*
X001601Y011101D03*
X005101Y007101D03*
X006101Y007101D03*
X009601Y007101D03*
X010601Y007101D03*
X014101Y007101D03*
X015101Y007101D03*
X018601Y007101D03*
X019601Y007101D03*
X023101Y007101D03*
X024101Y007101D03*
X027601Y007101D03*
X028601Y007101D03*
X032101Y007101D03*
X033101Y007101D03*
X033101Y010101D03*
X033101Y011101D03*
X032101Y010101D03*
X031601Y011101D03*
X036101Y011101D03*
X036601Y010101D03*
X037601Y010101D03*
X037601Y007101D03*
X036601Y007101D03*
D15*
X012101Y037601D03*
X012101Y038601D03*
D16*
X002976Y036790D02*
X002226Y036790D01*
X002226Y035412D02*
X002976Y035412D01*
D17*
X022591Y027351D02*
X023111Y027351D01*
X023111Y026351D02*
X022591Y026351D01*
X022591Y025351D02*
X023111Y025351D01*
X023111Y024351D02*
X022591Y024351D01*
X022591Y023351D02*
X023111Y023351D01*
X023111Y022351D02*
X022591Y022351D01*
X022591Y021351D02*
X023111Y021351D01*
X025591Y021351D02*
X026111Y021351D01*
X026111Y022351D02*
X025591Y022351D01*
X025591Y023351D02*
X026111Y023351D01*
X026111Y024351D02*
X025591Y024351D01*
X025591Y025351D02*
X026111Y025351D01*
X026111Y026351D02*
X025591Y026351D01*
X025591Y027351D02*
X026111Y027351D01*
X035101Y023861D02*
X035101Y023341D01*
X036101Y023341D02*
X036101Y023861D01*
X037101Y023861D02*
X037101Y023341D01*
X038101Y023341D02*
X038101Y023861D01*
X038101Y020861D02*
X038101Y020341D01*
X037101Y020341D02*
X037101Y020861D01*
X036101Y020861D02*
X036101Y020341D01*
X035101Y020341D02*
X035101Y020861D01*
D18*
X034101Y024851D03*
X032851Y024851D03*
X025851Y029101D03*
X025851Y030101D03*
X024851Y030101D03*
X024851Y029101D03*
X023851Y029101D03*
X023851Y030101D03*
X022851Y030101D03*
X022851Y029101D03*
X021601Y031101D03*
X021601Y032101D03*
X020601Y032101D03*
X020601Y031101D03*
X019601Y031101D03*
X019601Y032101D03*
X018601Y032101D03*
X018601Y031101D03*
X017601Y031101D03*
X017601Y032101D03*
X016601Y032101D03*
X016601Y031101D03*
X015601Y031101D03*
X015601Y032101D03*
X014601Y032101D03*
X014601Y031101D03*
X011101Y031101D03*
X011101Y032101D03*
X010101Y032101D03*
X010101Y031101D03*
X009101Y031101D03*
X009101Y032101D03*
X008101Y032101D03*
X008101Y031101D03*
X007101Y031101D03*
X007101Y032101D03*
X006101Y032101D03*
X006101Y031101D03*
X005101Y031101D03*
X005101Y032101D03*
X004101Y032101D03*
X004101Y031101D03*
X005101Y036101D03*
X005101Y038101D03*
X007101Y038101D03*
X014601Y038601D03*
X014601Y035601D03*
D19*
X007101Y036101D03*
D20*
X006985Y002853D02*
X006985Y002073D01*
X005028Y002073D02*
X005028Y002853D01*
X003048Y002853D02*
X003048Y002073D01*
X008965Y002073D02*
X008965Y002853D01*
X010922Y002853D02*
X010922Y002073D01*
X012902Y002073D02*
X012902Y002853D01*
X014859Y002853D02*
X014859Y002073D01*
X016839Y002073D02*
X016839Y002853D01*
X018796Y002853D02*
X018796Y002073D01*
X020776Y002073D02*
X020776Y002853D01*
X022733Y002853D02*
X022733Y002073D01*
X024713Y002073D02*
X024713Y002853D01*
X026670Y002853D02*
X026670Y002073D01*
X028650Y002073D02*
X028650Y002853D01*
X030607Y002853D02*
X030607Y002073D01*
X032587Y002073D02*
X032587Y002853D01*
X034544Y002853D02*
X034544Y002073D01*
X036524Y002073D02*
X036524Y002853D01*
D21*
X035601Y009601D02*
X035601Y010601D01*
X036101Y011101D01*
X036851Y011351D02*
X036851Y010351D01*
X036601Y010101D01*
X036851Y011351D02*
X035601Y012351D01*
X035601Y014601D01*
X036601Y014601D01*
X034601Y014601D02*
X033601Y014601D01*
X032851Y015351D02*
X028351Y015351D01*
X023851Y015351D01*
X019351Y015351D01*
X014851Y015351D01*
X014851Y016601D01*
X014851Y015351D02*
X010351Y015351D01*
X005851Y015351D01*
X003101Y015351D01*
X003351Y014601D02*
X002101Y014601D01*
X003101Y013851D02*
X003101Y011601D01*
X002601Y011101D01*
X001601Y011101D01*
X003101Y010351D02*
X003601Y010851D01*
X003601Y014351D01*
X003351Y014601D01*
X004101Y014601D02*
X004101Y012351D01*
X005351Y011351D01*
X005351Y010351D01*
X005101Y010101D01*
X004101Y010601D02*
X004601Y011101D01*
X004101Y010601D02*
X004101Y009601D01*
X003101Y009601D02*
X003101Y010351D01*
X005851Y011601D02*
X005851Y015351D01*
X006601Y014601D02*
X007601Y014601D01*
X007601Y009601D01*
X008601Y009601D02*
X008601Y010601D01*
X009101Y011101D01*
X009851Y011351D02*
X009851Y010351D01*
X009601Y010101D01*
X010601Y011101D02*
X010351Y011601D01*
X010351Y015351D01*
X011101Y014601D02*
X012101Y014601D01*
X012101Y009601D01*
X013101Y009601D02*
X013101Y010601D01*
X013601Y011101D01*
X014351Y011351D02*
X014351Y010351D01*
X014101Y010101D01*
X014351Y011351D02*
X013101Y012351D01*
X013101Y014601D01*
X014101Y014601D01*
X014851Y015351D02*
X014851Y011601D01*
X015101Y011101D01*
X016601Y009601D02*
X016601Y014601D01*
X015601Y014601D01*
X017601Y014601D02*
X017601Y012351D01*
X018851Y011351D01*
X018851Y010351D01*
X018601Y010101D01*
X017601Y010601D02*
X018101Y011101D01*
X017601Y010601D02*
X017601Y009601D01*
X019601Y011101D02*
X019351Y011601D01*
X019351Y015351D01*
X020101Y014601D02*
X021101Y014601D01*
X021101Y009601D01*
X022101Y009601D02*
X022101Y010601D01*
X022601Y011101D01*
X023351Y011351D02*
X023351Y010351D01*
X023101Y010101D01*
X024101Y011101D02*
X023851Y011601D01*
X023851Y015351D01*
X024601Y014601D02*
X025601Y014601D01*
X025601Y009601D01*
X026601Y009601D02*
X026601Y010601D01*
X027101Y011101D01*
X027851Y011351D02*
X027851Y010351D01*
X027601Y010101D01*
X027851Y011351D02*
X026601Y012351D01*
X026601Y014601D01*
X027601Y014601D01*
X028351Y015351D02*
X028351Y011601D01*
X028601Y011101D01*
X030101Y009601D02*
X030101Y014601D01*
X029101Y014601D01*
X031101Y014601D02*
X031101Y012351D01*
X032351Y011351D01*
X032351Y010351D01*
X032101Y010101D01*
X031101Y010601D02*
X031601Y011101D01*
X031101Y010601D02*
X031101Y009601D01*
X033101Y011101D02*
X032851Y011851D01*
X032851Y015351D01*
X032101Y014601D02*
X031101Y014601D01*
X034601Y014601D02*
X034601Y009601D01*
X028601Y021351D02*
X027351Y021351D01*
X025851Y021351D01*
X025851Y022351D02*
X028601Y022351D01*
X025851Y023351D02*
X025851Y024351D01*
X025851Y025351D01*
X023101Y014601D02*
X022101Y014601D01*
X022101Y012351D01*
X023351Y011351D01*
X018601Y014601D02*
X017601Y014601D01*
X009601Y014601D02*
X008601Y014601D01*
X008601Y012351D01*
X009851Y011351D01*
X006101Y011101D02*
X005851Y011601D01*
X005101Y014601D02*
X004101Y014601D01*
X010601Y034101D02*
X010601Y034894D01*
X010454Y035247D02*
X009601Y036101D01*
X007101Y036101D01*
X009601Y037101D02*
X012101Y037101D01*
X012101Y037601D01*
X012101Y037101D02*
X012101Y035601D01*
X013101Y035601D02*
X014601Y035601D01*
X013101Y035101D02*
X013101Y034101D01*
X010601Y034894D02*
X010599Y034938D01*
X010593Y034981D01*
X010584Y035023D01*
X010571Y035065D01*
X010554Y035105D01*
X010534Y035144D01*
X010511Y035181D01*
X010484Y035215D01*
X010455Y035248D01*
D22*
X010666Y035459D02*
X010666Y035459D01*
X010668Y035458D01*
X010709Y035417D01*
X010709Y035417D01*
X010779Y035347D01*
X010779Y035347D01*
X010901Y035053D01*
X010901Y035053D01*
X010901Y034953D01*
X010901Y034501D01*
X011096Y034306D01*
X011096Y033896D01*
X010806Y033606D01*
X010396Y033606D01*
X010106Y033896D01*
X010106Y034306D01*
X010301Y034501D01*
X010301Y034894D01*
X010297Y034933D01*
X010267Y035005D01*
X010242Y035035D01*
X010200Y035077D01*
X010200Y035077D01*
X009656Y035621D01*
X009205Y035621D01*
X009029Y035694D01*
X008922Y035801D01*
X007480Y035801D01*
X007373Y035694D01*
X007196Y035621D01*
X007005Y035621D01*
X006829Y035694D01*
X006694Y035829D01*
X006621Y036005D01*
X006621Y036196D01*
X006694Y036373D01*
X006829Y036508D01*
X007005Y036581D01*
X007196Y036581D01*
X007373Y036508D01*
X007480Y036401D01*
X008922Y036401D01*
X009029Y036508D01*
X009205Y036581D01*
X009996Y036581D01*
X010173Y036508D01*
X010308Y036373D01*
X010381Y036196D01*
X010381Y036005D01*
X010308Y035829D01*
X010302Y035823D01*
X010665Y035461D01*
X010666Y035459D01*
X010670Y035456D02*
X011641Y035456D01*
X011641Y035614D02*
X010511Y035614D01*
X010353Y035773D02*
X011641Y035773D01*
X011641Y035932D02*
X010350Y035932D01*
X010381Y036090D02*
X011690Y036090D01*
X011711Y036141D02*
X011641Y035972D01*
X011641Y035229D01*
X011711Y035060D01*
X011840Y034931D01*
X012009Y034861D01*
X012192Y034861D01*
X012361Y034931D01*
X012491Y035060D01*
X012561Y035229D01*
X012561Y035972D01*
X012491Y036141D01*
X012401Y036231D01*
X012401Y037041D01*
X012401Y037160D01*
X012401Y037293D01*
X012531Y037423D01*
X012531Y037779D01*
X012279Y038031D01*
X011923Y038031D01*
X011671Y037779D01*
X011671Y037423D01*
X011693Y037401D01*
X010280Y037401D01*
X010173Y037508D01*
X009996Y037581D01*
X009205Y037581D01*
X009029Y037508D01*
X008894Y037373D01*
X008821Y037196D01*
X008821Y037005D01*
X008894Y036829D01*
X009029Y036694D01*
X009205Y036621D01*
X009996Y036621D01*
X010173Y036694D01*
X010280Y036801D01*
X011801Y036801D01*
X011801Y036231D01*
X011711Y036141D01*
X011801Y036249D02*
X010359Y036249D01*
X010273Y036407D02*
X011801Y036407D01*
X011801Y036566D02*
X010032Y036566D01*
X010203Y036724D02*
X011801Y036724D01*
X012401Y036724D02*
X014371Y036724D01*
X014380Y036748D02*
X014341Y036652D01*
X014341Y036020D01*
X014222Y035901D01*
X013561Y035901D01*
X013561Y035972D01*
X013491Y036141D01*
X013361Y036271D01*
X013192Y036341D01*
X013009Y036341D01*
X012840Y036271D01*
X012711Y036141D01*
X012641Y035972D01*
X012641Y035229D01*
X012711Y035060D01*
X012801Y034970D01*
X012801Y034501D01*
X012606Y034306D01*
X012606Y033896D01*
X012896Y033606D01*
X013306Y033606D01*
X013596Y033896D01*
X013596Y034306D01*
X013401Y034501D01*
X013401Y034970D01*
X013491Y035060D01*
X013561Y035229D01*
X013561Y035301D01*
X014222Y035301D01*
X014402Y035121D01*
X014800Y035121D01*
X015081Y035402D01*
X015081Y035800D01*
X014861Y036020D01*
X014861Y036493D01*
X015208Y036841D01*
X017719Y036841D01*
X017661Y036783D01*
X017661Y036419D01*
X017761Y036319D01*
X017761Y035561D01*
X017729Y035561D01*
X017560Y035491D01*
X017431Y035361D01*
X017361Y035192D01*
X017361Y035009D01*
X017431Y034840D01*
X017560Y034711D01*
X017729Y034641D01*
X018472Y034641D01*
X018641Y034711D01*
X018771Y034840D01*
X018841Y035009D01*
X018841Y035192D01*
X018771Y035361D01*
X018641Y035491D01*
X018472Y035561D01*
X018441Y035561D01*
X018441Y036319D01*
X018541Y036419D01*
X018541Y036783D01*
X018483Y036841D01*
X032219Y036841D01*
X032161Y036783D01*
X032161Y036419D01*
X032361Y036219D01*
X032361Y036200D01*
X032001Y035841D01*
X030990Y035841D01*
X031088Y035939D01*
X031161Y036115D01*
X031161Y036306D01*
X031088Y036483D01*
X030953Y036618D01*
X030776Y036691D01*
X029985Y036691D01*
X029809Y036618D01*
X029674Y036483D01*
X029601Y036306D01*
X029601Y036115D01*
X029674Y035939D01*
X029809Y035804D01*
X029919Y035758D01*
X029715Y035554D01*
X029715Y035554D01*
X029647Y035487D01*
X029611Y035399D01*
X029611Y033624D01*
X029606Y033600D01*
X029611Y033577D01*
X029611Y033553D01*
X029620Y033531D01*
X029625Y033507D01*
X029638Y033487D01*
X029647Y033465D01*
X029664Y033448D01*
X029678Y033428D01*
X029698Y033414D01*
X029715Y033397D01*
X029737Y033388D01*
X030993Y032551D01*
X030993Y032530D01*
X031047Y032398D01*
X031104Y032341D01*
X030700Y032341D01*
X028596Y034445D01*
X028596Y034806D01*
X028306Y035096D01*
X027896Y035096D01*
X027606Y034806D01*
X027606Y034396D01*
X027896Y034106D01*
X028256Y034106D01*
X030397Y031965D01*
X030465Y031897D01*
X030553Y031861D01*
X032334Y031861D01*
X032398Y031797D01*
X032530Y031743D01*
X032672Y031743D01*
X032804Y031797D01*
X032861Y031854D01*
X032861Y031700D01*
X032501Y031341D01*
X029313Y031341D01*
X029381Y031505D01*
X029381Y031696D01*
X029308Y031873D01*
X029173Y032008D01*
X028996Y032081D01*
X028205Y032081D01*
X028029Y032008D01*
X027894Y031873D01*
X027821Y031696D01*
X027821Y031505D01*
X027889Y031341D01*
X025399Y031341D01*
X025591Y031532D01*
X025714Y031829D01*
X025714Y032152D01*
X025591Y032449D01*
X025363Y032677D01*
X025065Y032800D01*
X024743Y032800D01*
X024445Y032677D01*
X024217Y032449D01*
X024094Y032152D01*
X024094Y031829D01*
X024217Y031532D01*
X024445Y031304D01*
X024743Y031181D01*
X024841Y031181D01*
X024647Y030987D01*
X024611Y030899D01*
X024611Y030803D01*
X024611Y030540D01*
X024371Y030300D01*
X024371Y030170D01*
X024331Y030210D01*
X024331Y030300D01*
X024050Y030581D01*
X023652Y030581D01*
X023371Y030300D01*
X023371Y029902D01*
X023432Y029841D01*
X023269Y029841D01*
X023331Y029902D01*
X023331Y030300D01*
X023050Y030581D01*
X022652Y030581D01*
X022371Y030300D01*
X022371Y029902D01*
X022652Y029621D01*
X022741Y029621D01*
X022781Y029581D01*
X022652Y029581D01*
X022371Y029300D01*
X022371Y028902D01*
X022652Y028621D01*
X023050Y028621D01*
X023331Y028902D01*
X023331Y029300D01*
X023269Y029361D01*
X023432Y029361D01*
X023371Y029300D01*
X023371Y028902D01*
X023611Y028662D01*
X023611Y028134D01*
X023607Y028121D01*
X023611Y028087D01*
X023611Y028053D01*
X023616Y028040D01*
X023618Y028026D01*
X023634Y027996D01*
X023647Y027965D01*
X023657Y027955D01*
X024884Y025746D01*
X024897Y025715D01*
X024907Y025705D01*
X024914Y025692D01*
X024941Y025671D01*
X024965Y025647D01*
X024978Y025642D01*
X024989Y025633D01*
X025022Y025624D01*
X025053Y025611D01*
X025067Y025611D01*
X025081Y025607D01*
X025115Y025611D01*
X025229Y025611D01*
X025218Y025600D01*
X025151Y025438D01*
X025151Y025263D01*
X025218Y025102D01*
X025342Y024978D01*
X025503Y024911D01*
X025551Y024911D01*
X025551Y024791D01*
X025503Y024791D01*
X025342Y024724D01*
X025218Y024600D01*
X025151Y024438D01*
X025151Y024263D01*
X025218Y024102D01*
X025342Y023978D01*
X025503Y023911D01*
X025551Y023911D01*
X025551Y023791D01*
X025503Y023791D01*
X025342Y023724D01*
X025218Y023600D01*
X025151Y023438D01*
X025151Y023263D01*
X025218Y023102D01*
X025342Y022978D01*
X025503Y022911D01*
X026198Y022911D01*
X026360Y022978D01*
X026484Y023102D01*
X026551Y023263D01*
X026551Y023438D01*
X026484Y023600D01*
X026360Y023724D01*
X026198Y023791D01*
X026151Y023791D01*
X026151Y023911D01*
X026198Y023911D01*
X026360Y023978D01*
X026484Y024102D01*
X026551Y024263D01*
X026551Y024438D01*
X026484Y024600D01*
X026360Y024724D01*
X026198Y024791D01*
X026151Y024791D01*
X026151Y024911D01*
X026198Y024911D01*
X026360Y024978D01*
X026484Y025102D01*
X026551Y025263D01*
X026551Y025438D01*
X026484Y025600D01*
X026473Y025611D01*
X026514Y025611D01*
X027939Y024423D01*
X027965Y024397D01*
X027975Y024393D01*
X027984Y024386D01*
X028019Y024375D01*
X028053Y024361D01*
X028064Y024361D01*
X028075Y024357D01*
X028112Y024361D01*
X028463Y024361D01*
X028416Y024346D01*
X028349Y024311D01*
X028288Y024267D01*
X028235Y024213D01*
X028190Y024152D01*
X028156Y024085D01*
X028133Y024013D01*
X028121Y023939D01*
X028121Y023621D01*
X028581Y023621D01*
X028581Y023581D01*
X028121Y023581D01*
X028121Y023263D01*
X028133Y023188D01*
X028156Y023116D01*
X028190Y023049D01*
X028235Y022988D01*
X028288Y022935D01*
X028349Y022890D01*
X028416Y022856D01*
X028448Y022846D01*
X028396Y022846D01*
X028201Y022651D01*
X026433Y022651D01*
X026360Y022724D01*
X026198Y022791D01*
X025503Y022791D01*
X025342Y022724D01*
X025218Y022600D01*
X025151Y022438D01*
X025151Y022263D01*
X025218Y022102D01*
X025342Y021978D01*
X025503Y021911D01*
X026198Y021911D01*
X026360Y021978D01*
X026433Y022051D01*
X028201Y022051D01*
X028396Y021856D01*
X028806Y021856D01*
X029096Y022146D01*
X029096Y022556D01*
X028806Y022846D01*
X028754Y022846D01*
X028785Y022856D01*
X028852Y022890D01*
X028913Y022935D01*
X028967Y022988D01*
X029011Y023049D01*
X029046Y023116D01*
X029069Y023188D01*
X029081Y023263D01*
X029081Y023581D01*
X028621Y023581D01*
X028621Y023621D01*
X029081Y023621D01*
X029081Y023939D01*
X029069Y024013D01*
X029046Y024085D01*
X029011Y024152D01*
X028967Y024213D01*
X028913Y024267D01*
X028852Y024311D01*
X028785Y024346D01*
X028738Y024361D01*
X029457Y024361D01*
X029329Y024308D01*
X029194Y024173D01*
X029121Y023996D01*
X029121Y023205D01*
X029194Y023029D01*
X029329Y022894D01*
X029505Y022821D01*
X029696Y022821D01*
X029873Y022894D01*
X030008Y023029D01*
X030081Y023205D01*
X030081Y023996D01*
X030008Y024173D01*
X029873Y024308D01*
X029744Y024361D01*
X030251Y024361D01*
X030397Y024215D01*
X030465Y024147D01*
X030553Y024111D01*
X032411Y024111D01*
X032391Y024091D01*
X030553Y024091D01*
X030465Y024054D01*
X030397Y023987D01*
X030147Y023737D01*
X030111Y023649D01*
X030111Y023553D01*
X030111Y020459D01*
X030030Y020459D01*
X029898Y020404D01*
X029797Y020304D01*
X029743Y020172D01*
X029743Y020030D01*
X029797Y019898D01*
X029898Y019797D01*
X030030Y019743D01*
X030172Y019743D01*
X030304Y019797D01*
X030351Y019844D01*
X030398Y019797D01*
X030530Y019743D01*
X030672Y019743D01*
X030804Y019797D01*
X030904Y019898D01*
X030959Y020030D01*
X030959Y020172D01*
X030904Y020304D01*
X030841Y020367D01*
X030841Y022751D01*
X030950Y022861D01*
X033553Y022861D01*
X033649Y022861D01*
X033737Y022897D01*
X033987Y023147D01*
X034054Y023215D01*
X034091Y023303D01*
X034091Y023391D01*
X034346Y023646D01*
X034346Y024056D01*
X034291Y024111D01*
X034729Y024111D01*
X034728Y024110D01*
X034661Y023948D01*
X034661Y023253D01*
X034728Y023092D01*
X034852Y022968D01*
X035013Y022901D01*
X035188Y022901D01*
X035350Y022968D01*
X035474Y023092D01*
X035541Y023253D01*
X035541Y023948D01*
X035474Y024110D01*
X035350Y024234D01*
X035188Y024301D01*
X035140Y024301D01*
X035237Y024397D01*
X035304Y024465D01*
X035341Y024553D01*
X035341Y027334D01*
X035404Y027398D01*
X035459Y027530D01*
X035459Y027672D01*
X035409Y027793D01*
X035530Y027743D01*
X035672Y027743D01*
X035804Y027797D01*
X035904Y027898D01*
X035959Y028030D01*
X035959Y028172D01*
X035904Y028304D01*
X035804Y028404D01*
X035672Y028459D01*
X035530Y028459D01*
X035398Y028404D01*
X035334Y028341D01*
X029313Y028341D01*
X029381Y028505D01*
X029381Y028696D01*
X029313Y028861D01*
X035834Y028861D01*
X035898Y028797D01*
X029339Y028797D01*
X029381Y028639D02*
X039077Y028639D01*
X039077Y028797D02*
X036303Y028797D01*
X036304Y028797D02*
X036404Y028898D01*
X036459Y029030D01*
X036459Y029172D01*
X036404Y029304D01*
X036304Y029404D01*
X036172Y029459D01*
X036030Y029459D01*
X035898Y029404D01*
X035834Y029341D01*
X029313Y029341D01*
X029381Y029505D01*
X029381Y029696D01*
X029313Y029861D01*
X033553Y029861D01*
X033649Y029861D01*
X033737Y029897D01*
X033832Y029993D01*
X033922Y029993D01*
X034054Y030047D01*
X034154Y030148D01*
X034209Y030280D01*
X034209Y030422D01*
X034154Y030554D01*
X034054Y030654D01*
X033922Y030709D01*
X033780Y030709D01*
X033648Y030654D01*
X033547Y030554D01*
X033493Y030422D01*
X033493Y030341D01*
X029313Y030341D01*
X029381Y030505D01*
X029381Y030696D01*
X029313Y030861D01*
X032553Y030861D01*
X032649Y030861D01*
X032737Y030897D01*
X033304Y031465D01*
X033341Y031553D01*
X033341Y031649D01*
X033341Y032334D01*
X033404Y032398D01*
X033459Y032530D01*
X033459Y032672D01*
X033404Y032804D01*
X033304Y032904D01*
X033172Y032959D01*
X033030Y032959D01*
X032898Y032904D01*
X032797Y032804D01*
X032743Y032672D01*
X032743Y032530D01*
X032793Y032409D01*
X032672Y032459D01*
X032530Y032459D01*
X032398Y032404D01*
X032334Y032341D01*
X032097Y032341D01*
X032154Y032398D01*
X032209Y032530D01*
X032209Y032672D01*
X032154Y032804D01*
X032093Y032865D01*
X032091Y032874D01*
X032091Y032899D01*
X032081Y032921D01*
X032077Y032945D01*
X032063Y032965D01*
X032054Y032987D01*
X032037Y033004D01*
X032024Y033024D01*
X032004Y033037D01*
X031987Y033054D01*
X031964Y033063D01*
X030591Y033979D01*
X030591Y034751D01*
X030606Y034766D01*
X030606Y034396D01*
X030896Y034106D01*
X031306Y034106D01*
X031541Y034341D01*
X034049Y034341D01*
X034152Y034341D01*
X036549Y034341D01*
X036652Y034341D01*
X036748Y034380D01*
X036973Y034606D01*
X037306Y034606D01*
X037596Y034896D01*
X037596Y035306D01*
X037361Y035541D01*
X037361Y036652D01*
X037321Y036748D01*
X037248Y036821D01*
X036748Y037321D01*
X036652Y037361D01*
X036549Y037361D01*
X035983Y037361D01*
X036041Y037419D01*
X036041Y037494D01*
X036766Y037736D01*
X036896Y037606D01*
X037306Y037606D01*
X037596Y037896D01*
X037596Y038306D01*
X037306Y038596D01*
X036896Y038596D01*
X036606Y038306D01*
X036606Y038189D01*
X035878Y037946D01*
X035783Y038041D01*
X035419Y038041D01*
X035161Y037783D01*
X035161Y037419D01*
X035219Y037361D01*
X032983Y037361D01*
X033041Y037419D01*
X033041Y037494D01*
X033766Y037736D01*
X033896Y037606D01*
X034306Y037606D01*
X034596Y037896D01*
X034596Y038306D01*
X034306Y038596D01*
X033896Y038596D01*
X033606Y038306D01*
X033606Y038189D01*
X032878Y037946D01*
X032783Y038041D01*
X032419Y038041D01*
X032161Y037783D01*
X032161Y037419D01*
X032219Y037361D01*
X018483Y037361D01*
X018541Y037419D01*
X018541Y037601D01*
X018541Y037783D01*
X018283Y038041D01*
X018101Y038041D01*
X018101Y037601D01*
X018101Y037601D01*
X018541Y037601D01*
X018101Y037601D01*
X018101Y037601D01*
X018101Y038041D01*
X017919Y038041D01*
X017661Y037783D01*
X017661Y037601D01*
X018100Y037601D01*
X018100Y037601D01*
X017661Y037601D01*
X017661Y037419D01*
X017719Y037361D01*
X015152Y037361D01*
X015049Y037361D01*
X014954Y037321D01*
X014454Y036821D01*
X014380Y036748D01*
X014341Y036566D02*
X012401Y036566D01*
X012401Y036407D02*
X014341Y036407D01*
X014341Y036249D02*
X013383Y036249D01*
X013512Y036090D02*
X014341Y036090D01*
X014253Y035932D02*
X013561Y035932D01*
X013101Y035601D02*
X013101Y035101D01*
X013411Y034980D02*
X017373Y034980D01*
X017361Y035139D02*
X014818Y035139D01*
X014976Y035297D02*
X017404Y035297D01*
X017525Y035456D02*
X015081Y035456D01*
X015081Y035614D02*
X017761Y035614D01*
X017761Y035773D02*
X015081Y035773D01*
X014949Y035932D02*
X017761Y035932D01*
X017761Y036090D02*
X014861Y036090D01*
X014861Y036249D02*
X017761Y036249D01*
X017672Y036407D02*
X014861Y036407D01*
X014933Y036566D02*
X017661Y036566D01*
X017661Y036724D02*
X015092Y036724D01*
X015101Y037101D02*
X014601Y036601D01*
X014601Y035601D01*
X014225Y035297D02*
X013561Y035297D01*
X013523Y035139D02*
X014384Y035139D01*
X013555Y034346D02*
X015646Y034346D01*
X015606Y034306D02*
X015606Y033896D01*
X015896Y033606D01*
X016306Y033606D01*
X016461Y033761D01*
X017510Y033761D01*
X017560Y033711D01*
X017729Y033641D01*
X018472Y033641D01*
X018641Y033711D01*
X018771Y033840D01*
X018841Y034009D01*
X018841Y034192D01*
X018771Y034361D01*
X018641Y034491D01*
X018472Y034561D01*
X017729Y034561D01*
X017560Y034491D01*
X017510Y034441D01*
X016461Y034441D01*
X016306Y034596D01*
X015896Y034596D01*
X015606Y034306D01*
X015606Y034188D02*
X013596Y034188D01*
X013596Y034029D02*
X015606Y034029D01*
X015631Y033871D02*
X013571Y033871D01*
X013412Y033712D02*
X015790Y033712D01*
X016412Y033712D02*
X017559Y033712D01*
X017594Y034505D02*
X016397Y034505D01*
X015805Y034505D02*
X013401Y034505D01*
X013401Y034663D02*
X017675Y034663D01*
X017449Y034822D02*
X013401Y034822D01*
X012801Y034822D02*
X010901Y034822D01*
X010901Y034980D02*
X011791Y034980D01*
X011678Y035139D02*
X010865Y035139D01*
X010799Y035297D02*
X011641Y035297D01*
X012411Y034980D02*
X012791Y034980D01*
X012678Y035139D02*
X012523Y035139D01*
X012561Y035297D02*
X012641Y035297D01*
X012641Y035456D02*
X012561Y035456D01*
X012561Y035614D02*
X012641Y035614D01*
X012641Y035773D02*
X012561Y035773D01*
X012561Y035932D02*
X012641Y035932D01*
X012690Y036090D02*
X012512Y036090D01*
X012401Y036249D02*
X012818Y036249D01*
X012401Y036883D02*
X014515Y036883D01*
X014674Y037041D02*
X012401Y037041D01*
X012401Y037200D02*
X014832Y037200D01*
X015044Y037358D02*
X012467Y037358D01*
X012531Y037517D02*
X017661Y037517D01*
X017661Y037676D02*
X012531Y037676D01*
X012476Y037834D02*
X017712Y037834D01*
X017870Y037993D02*
X012317Y037993D01*
X012279Y038171D02*
X012531Y038423D01*
X012531Y038601D01*
X012531Y038779D01*
X012279Y039031D01*
X012101Y039031D01*
X012101Y038601D01*
X012101Y038601D01*
X012531Y038601D01*
X012101Y038601D01*
X012101Y038601D01*
X012101Y039031D01*
X011923Y039031D01*
X011671Y038779D01*
X011671Y038601D01*
X012100Y038601D01*
X012100Y038601D01*
X011671Y038601D01*
X011671Y038423D01*
X011923Y038171D01*
X012101Y038171D01*
X012279Y038171D01*
X012101Y038171D02*
X012101Y038600D01*
X012101Y038600D01*
X012101Y038171D01*
X012101Y038310D02*
X012101Y038310D01*
X012101Y038468D02*
X012101Y038468D01*
X012101Y038627D02*
X012101Y038627D01*
X012101Y038785D02*
X012101Y038785D01*
X012101Y038944D02*
X012101Y038944D01*
X012366Y038944D02*
X014265Y038944D01*
X014398Y039077D02*
X014121Y038800D01*
X014121Y038621D01*
X014581Y038621D01*
X014581Y038581D01*
X014121Y038581D01*
X014121Y038402D01*
X014402Y038121D01*
X014581Y038121D01*
X014581Y038581D01*
X014621Y038581D01*
X014621Y038621D01*
X015081Y038621D01*
X015081Y038800D01*
X014803Y039077D01*
X037970Y039077D01*
X037874Y038845D01*
X037874Y038522D01*
X037997Y038225D01*
X038225Y037997D01*
X038522Y037874D01*
X038845Y037874D01*
X039077Y037970D01*
X039077Y018211D01*
X000494Y018211D01*
X000494Y037970D01*
X000727Y037874D01*
X001049Y037874D01*
X001347Y037997D01*
X001575Y038225D01*
X001698Y038522D01*
X001698Y038845D01*
X001602Y039077D01*
X014398Y039077D01*
X014121Y038785D02*
X012524Y038785D01*
X012531Y038627D02*
X014121Y038627D01*
X014121Y038468D02*
X012531Y038468D01*
X012418Y038310D02*
X014213Y038310D01*
X014372Y038151D02*
X010379Y038151D01*
X010381Y038139D02*
X010369Y038213D01*
X010346Y038285D01*
X010311Y038352D01*
X010267Y038413D01*
X010213Y038467D01*
X010152Y038511D01*
X010085Y038546D01*
X010013Y038569D01*
X009939Y038581D01*
X009621Y038581D01*
X009621Y038121D01*
X009581Y038121D01*
X009581Y038581D01*
X009263Y038581D01*
X009188Y038569D01*
X009116Y038546D01*
X009049Y038511D01*
X008988Y038467D01*
X008935Y038413D01*
X008890Y038352D01*
X008856Y038285D01*
X008833Y038213D01*
X008821Y038139D01*
X008821Y038121D01*
X009581Y038121D01*
X009581Y038081D01*
X009621Y038081D01*
X009621Y038121D01*
X010381Y038121D01*
X010381Y038139D01*
X010381Y038081D02*
X009621Y038081D01*
X009621Y037621D01*
X009939Y037621D01*
X010013Y037633D01*
X010085Y037656D01*
X010152Y037690D01*
X010213Y037735D01*
X010267Y037788D01*
X010311Y037849D01*
X010346Y037916D01*
X010369Y037988D01*
X010381Y038063D01*
X010381Y038081D01*
X010370Y037993D02*
X011885Y037993D01*
X011726Y037834D02*
X010300Y037834D01*
X010124Y037676D02*
X011671Y037676D01*
X011671Y037517D02*
X010150Y037517D01*
X009621Y037676D02*
X009581Y037676D01*
X009581Y037621D02*
X009581Y038081D01*
X008821Y038081D01*
X008821Y038063D01*
X008833Y037988D01*
X008856Y037916D01*
X008890Y037849D01*
X008935Y037788D01*
X008988Y037735D01*
X009049Y037690D01*
X009116Y037656D01*
X009188Y037633D01*
X009263Y037621D01*
X009581Y037621D01*
X009581Y037834D02*
X009621Y037834D01*
X009621Y037993D02*
X009581Y037993D01*
X009581Y038151D02*
X009621Y038151D01*
X009621Y038310D02*
X009581Y038310D01*
X009581Y038468D02*
X009621Y038468D01*
X010212Y038468D02*
X011671Y038468D01*
X011671Y038627D02*
X001698Y038627D01*
X001698Y038785D02*
X011677Y038785D01*
X011836Y038944D02*
X001657Y038944D01*
X001676Y038468D02*
X004789Y038468D01*
X004902Y038581D02*
X004621Y038300D01*
X004621Y038121D01*
X005081Y038121D01*
X005081Y038581D01*
X004902Y038581D01*
X005081Y038468D02*
X005121Y038468D01*
X005121Y038581D02*
X005300Y038581D01*
X005581Y038300D01*
X005581Y038121D01*
X005121Y038121D01*
X005121Y038081D01*
X005581Y038081D01*
X005581Y037902D01*
X005300Y037621D01*
X005121Y037621D01*
X005121Y038081D01*
X005081Y038081D01*
X005081Y037621D01*
X004902Y037621D01*
X004621Y037902D01*
X004621Y038081D01*
X005081Y038081D01*
X005081Y038121D01*
X005121Y038121D01*
X005121Y038581D01*
X005121Y038310D02*
X005081Y038310D01*
X005081Y038151D02*
X005121Y038151D01*
X005121Y037993D02*
X005081Y037993D01*
X005081Y037834D02*
X005121Y037834D01*
X005121Y037676D02*
X005081Y037676D01*
X004847Y037676D02*
X000494Y037676D01*
X000494Y037834D02*
X004689Y037834D01*
X004621Y037993D02*
X001337Y037993D01*
X001501Y038151D02*
X004621Y038151D01*
X004631Y038310D02*
X001610Y038310D01*
X002115Y037345D02*
X001911Y037260D01*
X001755Y037104D01*
X001671Y036900D01*
X001671Y036679D01*
X001755Y036475D01*
X001911Y036319D01*
X002115Y036235D01*
X003086Y036235D01*
X003290Y036319D01*
X003446Y036475D01*
X003531Y036679D01*
X003531Y036900D01*
X003446Y037104D01*
X003290Y037260D01*
X003086Y037345D01*
X002115Y037345D01*
X001851Y037200D02*
X000494Y037200D01*
X000494Y037358D02*
X008888Y037358D01*
X008822Y037200D02*
X003350Y037200D01*
X003472Y037041D02*
X008821Y037041D01*
X008871Y036883D02*
X003531Y036883D01*
X003531Y036724D02*
X008998Y036724D01*
X009169Y036566D02*
X007232Y036566D01*
X006969Y036566D02*
X005315Y036566D01*
X005300Y036581D02*
X004902Y036581D01*
X004621Y036300D01*
X004621Y035902D01*
X004902Y035621D01*
X005300Y035621D01*
X005581Y035902D01*
X005581Y036300D01*
X005300Y036581D01*
X005473Y036407D02*
X006728Y036407D01*
X006643Y036249D02*
X005581Y036249D01*
X005581Y036090D02*
X006621Y036090D01*
X006651Y035932D02*
X005581Y035932D01*
X005452Y035773D02*
X006750Y035773D01*
X007452Y035773D02*
X008950Y035773D01*
X008928Y036407D02*
X007473Y036407D01*
X007300Y037621D02*
X006902Y037621D01*
X006621Y037902D01*
X006621Y038300D01*
X006902Y038581D01*
X007300Y038581D01*
X007581Y038300D01*
X007581Y037902D01*
X007300Y037621D01*
X007354Y037676D02*
X009078Y037676D01*
X009051Y037517D02*
X000494Y037517D01*
X000494Y037041D02*
X001729Y037041D01*
X001671Y036883D02*
X000494Y036883D01*
X000494Y036724D02*
X001671Y036724D01*
X001718Y036566D02*
X000494Y036566D01*
X000494Y036407D02*
X001823Y036407D01*
X002082Y036249D02*
X000494Y036249D01*
X000494Y036090D02*
X004621Y036090D01*
X004621Y035932D02*
X003171Y035932D01*
X003086Y035967D02*
X003290Y035882D01*
X003446Y035726D01*
X003531Y035522D01*
X003531Y035301D01*
X003446Y035097D01*
X003290Y034941D01*
X003086Y034857D01*
X002115Y034857D01*
X001911Y034941D01*
X001755Y035097D01*
X001671Y035301D01*
X001671Y035522D01*
X001755Y035726D01*
X001911Y035882D01*
X002115Y035967D01*
X003086Y035967D01*
X003120Y036249D02*
X004621Y036249D01*
X004728Y036407D02*
X003378Y036407D01*
X003484Y036566D02*
X004887Y036566D01*
X004750Y035773D02*
X003399Y035773D01*
X003493Y035614D02*
X009663Y035614D01*
X009821Y035456D02*
X003531Y035456D01*
X003529Y035297D02*
X009980Y035297D01*
X010138Y035139D02*
X003463Y035139D01*
X003329Y034980D02*
X010277Y034980D01*
X010301Y034822D02*
X000494Y034822D01*
X000494Y034980D02*
X001872Y034980D01*
X001738Y035139D02*
X000494Y035139D01*
X000494Y035297D02*
X001672Y035297D01*
X001671Y035456D02*
X000494Y035456D01*
X000494Y035614D02*
X001709Y035614D01*
X001802Y035773D02*
X000494Y035773D01*
X000494Y035932D02*
X002030Y035932D01*
X000494Y034663D02*
X010301Y034663D01*
X010301Y034505D02*
X008897Y034505D01*
X008806Y034596D02*
X008601Y034596D01*
X008601Y034101D01*
X009096Y034101D01*
X009096Y034306D01*
X008806Y034596D01*
X008601Y034596D02*
X008601Y034101D01*
X008601Y034101D01*
X008601Y034101D01*
X009096Y034101D01*
X009096Y033896D01*
X008806Y033606D01*
X008601Y033606D01*
X008601Y034100D01*
X008601Y034100D01*
X008601Y033606D01*
X008396Y033606D01*
X008106Y033896D01*
X008106Y034101D01*
X008600Y034101D01*
X008600Y034101D01*
X008106Y034101D01*
X008106Y034306D01*
X008396Y034596D01*
X008601Y034596D01*
X008601Y034505D02*
X008601Y034505D01*
X008601Y034346D02*
X008601Y034346D01*
X008601Y034188D02*
X008601Y034188D01*
X008601Y034029D02*
X008601Y034029D01*
X008601Y033871D02*
X008601Y033871D01*
X008601Y033712D02*
X008601Y033712D01*
X008912Y033712D02*
X010290Y033712D01*
X010131Y033871D02*
X009071Y033871D01*
X009096Y034029D02*
X010106Y034029D01*
X010106Y034188D02*
X009096Y034188D01*
X009055Y034346D02*
X010146Y034346D01*
X010901Y034505D02*
X012801Y034505D01*
X012801Y034663D02*
X010901Y034663D01*
X011055Y034346D02*
X012646Y034346D01*
X012606Y034188D02*
X011096Y034188D01*
X011096Y034029D02*
X012606Y034029D01*
X012631Y033871D02*
X011071Y033871D01*
X010912Y033712D02*
X012790Y033712D01*
X011437Y032444D02*
X014265Y032444D01*
X014402Y032581D02*
X014121Y032300D01*
X014121Y031902D01*
X014402Y031621D01*
X014800Y031621D01*
X014861Y031682D01*
X014861Y031519D01*
X014800Y031581D01*
X014402Y031581D01*
X014121Y031300D01*
X014121Y030902D01*
X014402Y030621D01*
X014800Y030621D01*
X014861Y030682D01*
X014861Y030149D01*
X014861Y030053D01*
X014897Y029965D01*
X015397Y029465D01*
X015465Y029397D01*
X015553Y029361D01*
X018251Y029361D01*
X018361Y029251D01*
X018361Y028867D01*
X018297Y028804D01*
X018243Y028672D01*
X018243Y028530D01*
X018297Y028398D01*
X018361Y028334D01*
X018361Y023450D01*
X015647Y020737D01*
X015611Y020649D01*
X015611Y020553D01*
X015224Y020553D01*
X015382Y020394D02*
X015611Y020394D01*
X015611Y020321D02*
X015579Y020308D01*
X015524Y020253D01*
X015446Y020331D01*
X013696Y022081D01*
X013506Y022081D01*
X011127Y022081D01*
X011054Y022154D01*
X010922Y022209D01*
X010780Y022209D01*
X010648Y022154D01*
X010547Y022054D01*
X010493Y021922D01*
X010493Y021780D01*
X010547Y021648D01*
X010648Y021547D01*
X010780Y021493D01*
X010922Y021493D01*
X011054Y021547D01*
X011127Y021621D01*
X013506Y021621D01*
X014748Y020378D01*
X014579Y020308D01*
X014444Y020173D01*
X014371Y019996D01*
X014371Y019205D01*
X014444Y019029D01*
X014579Y018894D01*
X014755Y018821D01*
X014791Y018821D01*
X015147Y018465D01*
X015215Y018397D01*
X015303Y018361D01*
X032592Y018361D01*
X032631Y018358D01*
X032640Y018361D01*
X032649Y018361D01*
X032685Y018376D01*
X032722Y018388D01*
X032729Y018394D01*
X032737Y018397D01*
X032765Y018425D01*
X032794Y018451D01*
X032798Y018459D01*
X032804Y018465D01*
X032819Y018501D01*
X033048Y018959D01*
X033054Y018965D01*
X033069Y019001D01*
X033087Y019036D01*
X033087Y019045D01*
X033091Y019053D01*
X033091Y019092D01*
X033094Y019131D01*
X033091Y019140D01*
X033091Y020391D01*
X033346Y020646D01*
X033346Y021056D01*
X033056Y021346D01*
X032646Y021346D01*
X032356Y021056D01*
X032356Y020646D01*
X032611Y020391D01*
X032611Y019157D01*
X032452Y018841D01*
X027581Y018841D01*
X027581Y021051D01*
X028201Y021051D01*
X028396Y020856D01*
X028806Y020856D01*
X029096Y021146D01*
X029096Y021556D01*
X028806Y021846D01*
X028396Y021846D01*
X028201Y021651D01*
X027291Y021651D01*
X026433Y021651D01*
X026360Y021724D01*
X026198Y021791D01*
X025503Y021791D01*
X025342Y021724D01*
X025218Y021600D01*
X025151Y021438D01*
X025151Y021263D01*
X025218Y021102D01*
X025342Y020978D01*
X025503Y020911D01*
X026198Y020911D01*
X026360Y020978D01*
X026433Y021051D01*
X027121Y021051D01*
X027121Y019081D01*
X025318Y019081D01*
X025363Y019099D01*
X025591Y019327D01*
X025714Y019625D01*
X025714Y019947D01*
X025591Y020245D01*
X025363Y020472D01*
X025065Y020596D01*
X024743Y020596D01*
X024445Y020472D01*
X024217Y020245D01*
X024094Y019947D01*
X024094Y019625D01*
X024217Y019327D01*
X024445Y019099D01*
X024490Y019081D01*
X023279Y019081D01*
X023331Y019205D01*
X023331Y019996D01*
X023258Y020173D01*
X023123Y020308D01*
X022946Y020381D01*
X022910Y020381D01*
X022341Y020950D01*
X022341Y020979D01*
X022342Y020978D01*
X022503Y020911D01*
X023198Y020911D01*
X023360Y020978D01*
X023484Y021102D01*
X023551Y021263D01*
X023551Y021438D01*
X023484Y021600D01*
X023360Y021724D01*
X023198Y021791D01*
X022503Y021791D01*
X022342Y021724D01*
X022341Y021723D01*
X022341Y021979D01*
X022342Y021978D01*
X022503Y021911D01*
X023198Y021911D01*
X023360Y021978D01*
X023484Y022102D01*
X023551Y022263D01*
X023551Y022438D01*
X023484Y022600D01*
X023360Y022724D01*
X023198Y022791D01*
X022503Y022791D01*
X022342Y022724D01*
X022341Y022723D01*
X022341Y022979D01*
X022342Y022978D01*
X022503Y022911D01*
X023198Y022911D01*
X023360Y022978D01*
X023484Y023102D01*
X023551Y023263D01*
X023551Y023438D01*
X023484Y023600D01*
X023360Y023724D01*
X023198Y023791D01*
X022503Y023791D01*
X022342Y023724D01*
X022341Y023724D01*
X022342Y023724D02*
X022341Y023723D01*
X022341Y023979D01*
X022342Y023978D01*
X022503Y023911D01*
X023198Y023911D01*
X023360Y023978D01*
X023484Y024102D01*
X023551Y024263D01*
X023551Y024438D01*
X023484Y024600D01*
X023360Y024724D01*
X023198Y024791D01*
X022503Y024791D01*
X022342Y024724D01*
X022341Y024723D01*
X022341Y024979D01*
X022342Y024978D01*
X022503Y024911D01*
X023198Y024911D01*
X023360Y024978D01*
X023484Y025102D01*
X023551Y025263D01*
X023551Y025438D01*
X023484Y025600D01*
X023360Y025724D01*
X023198Y025791D01*
X022503Y025791D01*
X022342Y025724D01*
X022341Y025723D01*
X022341Y025979D01*
X022342Y025978D01*
X022503Y025911D01*
X023198Y025911D01*
X023360Y025978D01*
X023484Y026102D01*
X024687Y026102D01*
X024775Y025943D02*
X023277Y025943D01*
X023213Y025785D02*
X024863Y025785D01*
X025013Y025626D02*
X023458Y025626D01*
X023539Y025468D02*
X025163Y025468D01*
X025151Y025309D02*
X023551Y025309D01*
X023504Y025151D02*
X025197Y025151D01*
X025327Y024992D02*
X023374Y024992D01*
X023409Y024675D02*
X025293Y024675D01*
X025183Y024516D02*
X023518Y024516D01*
X023551Y024358D02*
X025151Y024358D01*
X025177Y024199D02*
X023524Y024199D01*
X023423Y024041D02*
X025278Y024041D01*
X025551Y023882D02*
X022341Y023882D01*
X022341Y022931D02*
X022454Y022931D01*
X022459Y022772D02*
X022341Y022772D01*
X023242Y022772D02*
X025459Y022772D01*
X025454Y022931D02*
X023247Y022931D01*
X023472Y023090D02*
X025230Y023090D01*
X025157Y023248D02*
X023544Y023248D01*
X023551Y023407D02*
X025151Y023407D01*
X025203Y023565D02*
X023498Y023565D01*
X023360Y023724D02*
X025341Y023724D01*
X026151Y023882D02*
X028121Y023882D01*
X028121Y023724D02*
X026360Y023724D01*
X026498Y023565D02*
X028121Y023565D01*
X028121Y023407D02*
X026551Y023407D01*
X026544Y023248D02*
X028123Y023248D01*
X028170Y023090D02*
X026472Y023090D01*
X026247Y022931D02*
X028293Y022931D01*
X028322Y022772D02*
X026242Y022772D01*
X026362Y021980D02*
X028272Y021980D01*
X028371Y021821D02*
X022341Y021821D01*
X022421Y020870D02*
X027121Y020870D01*
X027121Y021029D02*
X026411Y021029D01*
X026421Y021663D02*
X028213Y021663D01*
X028223Y021029D02*
X027581Y021029D01*
X027581Y020870D02*
X028382Y020870D01*
X028820Y020870D02*
X030111Y020870D01*
X030111Y021029D02*
X028979Y021029D01*
X029096Y021187D02*
X030111Y021187D01*
X030111Y021346D02*
X029096Y021346D01*
X029096Y021504D02*
X030111Y021504D01*
X030111Y021663D02*
X028989Y021663D01*
X028830Y021821D02*
X030111Y021821D01*
X030111Y021980D02*
X028930Y021980D01*
X029088Y022138D02*
X030111Y022138D01*
X030111Y022297D02*
X029096Y022297D01*
X029096Y022455D02*
X030111Y022455D01*
X030111Y022614D02*
X029038Y022614D01*
X028879Y022772D02*
X030111Y022772D01*
X030111Y022931D02*
X029910Y022931D01*
X030033Y023090D02*
X030111Y023090D01*
X030111Y023248D02*
X030081Y023248D01*
X030081Y023407D02*
X030111Y023407D01*
X030111Y023565D02*
X030081Y023565D01*
X030081Y023724D02*
X030142Y023724D01*
X030081Y023882D02*
X030293Y023882D01*
X030451Y024041D02*
X030062Y024041D01*
X029981Y024199D02*
X030413Y024199D01*
X030254Y024358D02*
X029751Y024358D01*
X029450Y024358D02*
X028747Y024358D01*
X028977Y024199D02*
X029221Y024199D01*
X029139Y024041D02*
X029060Y024041D01*
X029081Y023882D02*
X029121Y023882D01*
X029121Y023724D02*
X029081Y023724D01*
X029081Y023565D02*
X029121Y023565D01*
X029121Y023407D02*
X029081Y023407D01*
X029078Y023248D02*
X029121Y023248D01*
X029169Y023090D02*
X029032Y023090D01*
X028908Y022931D02*
X029292Y022931D01*
X030862Y022772D02*
X031322Y022772D01*
X031396Y022846D02*
X031106Y022556D01*
X031106Y022146D01*
X031396Y021856D01*
X031806Y021856D01*
X032096Y022146D01*
X032096Y022556D01*
X031806Y022846D01*
X031396Y022846D01*
X031164Y022614D02*
X030841Y022614D01*
X030841Y022455D02*
X031106Y022455D01*
X031106Y022297D02*
X030841Y022297D01*
X030841Y022138D02*
X031113Y022138D01*
X031272Y021980D02*
X030841Y021980D01*
X030841Y021821D02*
X031371Y021821D01*
X031396Y021846D02*
X031106Y021556D01*
X031106Y021146D01*
X031396Y020856D01*
X031806Y020856D01*
X032096Y021146D01*
X032096Y021556D01*
X031806Y021846D01*
X031396Y021846D01*
X031213Y021663D02*
X030841Y021663D01*
X030841Y021504D02*
X031106Y021504D01*
X031106Y021346D02*
X030841Y021346D01*
X030841Y021187D02*
X031106Y021187D01*
X031223Y021029D02*
X030841Y021029D01*
X030841Y020870D02*
X031382Y020870D01*
X031820Y020870D02*
X032356Y020870D01*
X032356Y021029D02*
X031979Y021029D01*
X032096Y021187D02*
X032487Y021187D01*
X032646Y021346D02*
X032096Y021346D01*
X032096Y021504D02*
X039077Y021504D01*
X039077Y021346D02*
X034056Y021346D01*
X033646Y021346D01*
X033356Y021056D01*
X033356Y020646D01*
X033646Y020356D01*
X034056Y020356D01*
X034346Y020646D01*
X034346Y021056D01*
X034056Y021346D01*
X034214Y021187D02*
X034805Y021187D01*
X034814Y021196D02*
X034765Y021147D01*
X034724Y021091D01*
X034693Y021030D01*
X034672Y020964D01*
X034661Y020895D01*
X034661Y020601D01*
X035100Y020601D01*
X035100Y020601D01*
X034661Y020601D01*
X034661Y020306D01*
X034672Y020238D01*
X034693Y020172D01*
X034724Y020110D01*
X034765Y020054D01*
X034814Y020005D01*
X034870Y019964D01*
X034932Y019933D01*
X034998Y019912D01*
X035066Y019901D01*
X035101Y019901D01*
X035135Y019901D01*
X035204Y019912D01*
X035270Y019933D01*
X035331Y019964D01*
X035387Y020005D01*
X035436Y020054D01*
X035477Y020110D01*
X035509Y020172D01*
X035530Y020238D01*
X035541Y020306D01*
X035541Y020601D01*
X035541Y020895D01*
X035530Y020964D01*
X035509Y021030D01*
X035477Y021091D01*
X035436Y021147D01*
X035387Y021196D01*
X035331Y021237D01*
X035270Y021269D01*
X035204Y021290D01*
X035135Y021301D01*
X035101Y021301D01*
X035101Y020601D01*
X035541Y020601D01*
X035101Y020601D01*
X035101Y020601D01*
X035101Y020601D01*
X035101Y021301D01*
X035066Y021301D01*
X034998Y021290D01*
X034932Y021269D01*
X034870Y021237D01*
X034814Y021196D01*
X034693Y021029D02*
X034346Y021029D01*
X034346Y020870D02*
X034661Y020870D01*
X034661Y020711D02*
X034346Y020711D01*
X034253Y020553D02*
X034661Y020553D01*
X034661Y020394D02*
X034094Y020394D01*
X034120Y020202D02*
X033798Y020202D01*
X033500Y020079D01*
X033272Y019851D01*
X033149Y019553D01*
X033149Y019231D01*
X033272Y018933D01*
X033500Y018706D01*
X033798Y018582D01*
X034120Y018582D01*
X034418Y018706D01*
X034646Y018933D01*
X034769Y019231D01*
X034769Y019553D01*
X034646Y019851D01*
X034418Y020079D01*
X034120Y020202D01*
X034419Y020077D02*
X034748Y020077D01*
X034672Y020236D02*
X033091Y020236D01*
X033094Y020394D02*
X033607Y020394D01*
X033449Y020553D02*
X033253Y020553D01*
X033346Y020711D02*
X033356Y020711D01*
X033346Y020870D02*
X033356Y020870D01*
X033346Y021029D02*
X033356Y021029D01*
X033487Y021187D02*
X033214Y021187D01*
X033056Y021346D02*
X033646Y021346D01*
X033499Y020077D02*
X033091Y020077D01*
X033091Y019919D02*
X033340Y019919D01*
X033235Y019760D02*
X033091Y019760D01*
X033091Y019602D02*
X033169Y019602D01*
X033149Y019443D02*
X033091Y019443D01*
X033091Y019285D02*
X033149Y019285D01*
X033193Y019126D02*
X033093Y019126D01*
X033055Y018967D02*
X033258Y018967D01*
X033397Y018809D02*
X032973Y018809D01*
X032894Y018650D02*
X033633Y018650D01*
X034285Y018650D02*
X039077Y018650D01*
X039077Y018492D02*
X032815Y018492D01*
X032516Y018967D02*
X027581Y018967D01*
X027581Y019126D02*
X032595Y019126D01*
X032611Y019285D02*
X027581Y019285D01*
X027581Y019443D02*
X032611Y019443D01*
X032611Y019602D02*
X027581Y019602D01*
X027581Y019760D02*
X029987Y019760D01*
X030214Y019760D02*
X030487Y019760D01*
X030714Y019760D02*
X032611Y019760D01*
X032611Y019919D02*
X030913Y019919D01*
X030959Y020077D02*
X032611Y020077D01*
X032611Y020236D02*
X030932Y020236D01*
X030841Y020394D02*
X032607Y020394D01*
X032449Y020553D02*
X030841Y020553D01*
X030841Y020711D02*
X032356Y020711D01*
X031989Y021663D02*
X039077Y021663D01*
X039077Y021821D02*
X031830Y021821D01*
X031930Y021980D02*
X039077Y021980D01*
X039077Y022138D02*
X032088Y022138D01*
X032096Y022297D02*
X039077Y022297D01*
X039077Y022455D02*
X032096Y022455D01*
X032038Y022614D02*
X039077Y022614D01*
X039077Y022772D02*
X031879Y022772D01*
X032432Y024591D02*
X030700Y024591D01*
X030487Y024804D01*
X030399Y024841D01*
X030303Y024841D01*
X029744Y024841D01*
X029873Y024894D01*
X030008Y025029D01*
X030081Y025205D01*
X030081Y025996D01*
X030008Y026173D01*
X029873Y026308D01*
X029696Y026381D01*
X029505Y026381D01*
X029329Y026308D01*
X029194Y026173D01*
X029121Y025996D01*
X029121Y025205D01*
X029194Y025029D01*
X029329Y024894D01*
X029457Y024841D01*
X028738Y024841D01*
X028785Y024856D01*
X028852Y024890D01*
X028913Y024935D01*
X028967Y024988D01*
X029011Y025049D01*
X029046Y025116D01*
X029069Y025188D01*
X029081Y025263D01*
X029081Y025581D01*
X028621Y025581D01*
X028621Y025621D01*
X028581Y025621D01*
X028581Y026381D01*
X028563Y026381D01*
X028488Y026369D01*
X028416Y026346D01*
X028349Y026311D01*
X028288Y026267D01*
X028235Y026213D01*
X028190Y026152D01*
X028156Y026085D01*
X028133Y026013D01*
X028121Y025939D01*
X028121Y025621D01*
X028581Y025621D01*
X028581Y025581D01*
X028121Y025581D01*
X028121Y025263D01*
X028133Y025188D01*
X028156Y025116D01*
X028190Y025049D01*
X028235Y024988D01*
X028288Y024935D01*
X028349Y024890D01*
X028416Y024856D01*
X028463Y024841D01*
X028188Y024841D01*
X026763Y026028D01*
X026737Y026054D01*
X026726Y026059D01*
X026718Y026066D01*
X026683Y026077D01*
X026649Y026091D01*
X026637Y026091D01*
X026627Y026094D01*
X026590Y026091D01*
X026473Y026091D01*
X026484Y026102D01*
X028165Y026102D01*
X028122Y025943D02*
X026865Y025943D01*
X027055Y025785D02*
X028121Y025785D01*
X028121Y025626D02*
X027245Y025626D01*
X027435Y025468D02*
X028121Y025468D01*
X028121Y025309D02*
X027626Y025309D01*
X027816Y025151D02*
X028145Y025151D01*
X028232Y024992D02*
X028006Y024992D01*
X027637Y024675D02*
X026409Y024675D01*
X026518Y024516D02*
X027827Y024516D01*
X028073Y024358D02*
X026551Y024358D01*
X026524Y024199D02*
X028224Y024199D01*
X028142Y024041D02*
X026423Y024041D01*
X026151Y024834D02*
X027447Y024834D01*
X027256Y024992D02*
X026374Y024992D01*
X026504Y025151D02*
X027066Y025151D01*
X026876Y025309D02*
X026551Y025309D01*
X026539Y025468D02*
X026686Y025468D01*
X026484Y026102D02*
X026551Y026263D01*
X026551Y026438D01*
X026484Y026600D01*
X026473Y026611D01*
X034053Y026611D01*
X034149Y026611D01*
X034237Y026647D01*
X034487Y026897D01*
X034554Y026965D01*
X034591Y027053D01*
X034591Y027334D01*
X034654Y027398D01*
X034709Y027530D01*
X034709Y027672D01*
X034654Y027804D01*
X034597Y027861D01*
X034854Y027861D01*
X034797Y027804D01*
X034743Y027672D01*
X034743Y027530D01*
X034797Y027398D01*
X034861Y027334D01*
X034861Y024700D01*
X034751Y024591D01*
X034519Y024591D01*
X034581Y024652D01*
X034581Y025050D01*
X034300Y025331D01*
X033902Y025331D01*
X033621Y025050D01*
X033621Y024652D01*
X033682Y024591D01*
X033269Y024591D01*
X033331Y024652D01*
X033331Y025050D01*
X033050Y025331D01*
X032652Y025331D01*
X032371Y025050D01*
X032371Y024652D01*
X032432Y024591D01*
X032371Y024675D02*
X030616Y024675D01*
X030416Y024834D02*
X032371Y024834D01*
X032371Y024992D02*
X029971Y024992D01*
X030058Y025151D02*
X032472Y025151D01*
X032630Y025309D02*
X030081Y025309D01*
X030081Y025468D02*
X034861Y025468D01*
X034861Y025626D02*
X030081Y025626D01*
X030081Y025785D02*
X034861Y025785D01*
X034861Y025943D02*
X030081Y025943D01*
X030037Y026102D02*
X034861Y026102D01*
X034861Y026260D02*
X029920Y026260D01*
X029282Y026260D02*
X028920Y026260D01*
X028913Y026267D02*
X028852Y026311D01*
X028785Y026346D01*
X028713Y026369D01*
X028639Y026381D01*
X028621Y026381D01*
X028621Y025621D01*
X029081Y025621D01*
X029081Y025939D01*
X029069Y026013D01*
X029046Y026085D01*
X029011Y026152D01*
X028967Y026213D01*
X028913Y026267D01*
X029037Y026102D02*
X029165Y026102D01*
X029121Y025943D02*
X029080Y025943D01*
X029081Y025785D02*
X029121Y025785D01*
X029121Y025626D02*
X029081Y025626D01*
X029081Y025468D02*
X029121Y025468D01*
X029121Y025309D02*
X029081Y025309D01*
X029057Y025151D02*
X029143Y025151D01*
X029231Y024992D02*
X028970Y024992D01*
X028621Y025626D02*
X028581Y025626D01*
X028581Y025785D02*
X028621Y025785D01*
X028621Y025943D02*
X028581Y025943D01*
X028581Y026102D02*
X028621Y026102D01*
X028621Y026260D02*
X028581Y026260D01*
X028282Y026260D02*
X026550Y026260D01*
X026551Y026419D02*
X034861Y026419D01*
X034861Y026578D02*
X026493Y026578D01*
X026466Y027091D02*
X026487Y027120D01*
X026519Y027182D01*
X026540Y027248D01*
X026551Y027316D01*
X026551Y027351D01*
X026551Y027385D01*
X026540Y027454D01*
X026519Y027520D01*
X026487Y027581D01*
X026446Y027637D01*
X026397Y027686D01*
X026341Y027727D01*
X026280Y027759D01*
X026214Y027780D01*
X026145Y027791D01*
X025851Y027791D01*
X025851Y027351D01*
X025851Y027351D01*
X026551Y027351D01*
X025851Y027351D01*
X025851Y027351D01*
X025851Y027791D01*
X025556Y027791D01*
X025488Y027780D01*
X025422Y027759D01*
X025360Y027727D01*
X025304Y027686D01*
X025255Y027637D01*
X025214Y027581D01*
X025183Y027520D01*
X025162Y027454D01*
X025151Y027389D01*
X024591Y027950D01*
X024591Y028682D01*
X024652Y028621D01*
X024741Y028621D01*
X025397Y027965D01*
X025465Y027897D01*
X025553Y027861D01*
X027896Y027861D01*
X027890Y027852D01*
X027856Y027785D01*
X027833Y027713D01*
X027821Y027639D01*
X027821Y027621D01*
X028581Y027621D01*
X028581Y027581D01*
X028621Y027581D01*
X028621Y027621D01*
X029381Y027621D01*
X029381Y027639D01*
X029369Y027713D01*
X029346Y027785D01*
X029311Y027852D01*
X029305Y027861D01*
X034104Y027861D01*
X034047Y027804D01*
X033993Y027672D01*
X033993Y027530D01*
X034047Y027398D01*
X034111Y027334D01*
X034111Y027200D01*
X034001Y027091D01*
X026466Y027091D01*
X026528Y027212D02*
X028020Y027212D01*
X028049Y027190D02*
X028116Y027156D01*
X028188Y027133D01*
X028263Y027121D01*
X028581Y027121D01*
X028581Y027581D01*
X027821Y027581D01*
X027821Y027563D01*
X027833Y027488D01*
X027856Y027416D01*
X027890Y027349D01*
X027935Y027288D01*
X027988Y027235D01*
X028049Y027190D01*
X027879Y027370D02*
X026551Y027370D01*
X026514Y027529D02*
X027826Y027529D01*
X027829Y027687D02*
X026396Y027687D01*
X025851Y027687D02*
X025851Y027687D01*
X025851Y027529D02*
X025851Y027529D01*
X025851Y027370D02*
X025851Y027370D01*
X025358Y028004D02*
X024591Y028004D01*
X024591Y028163D02*
X025199Y028163D01*
X025041Y028321D02*
X024591Y028321D01*
X024591Y028480D02*
X024882Y028480D01*
X024634Y028639D02*
X024591Y028639D01*
X024695Y027846D02*
X027887Y027846D01*
X028581Y027529D02*
X028621Y027529D01*
X028621Y027581D02*
X028621Y027121D01*
X028939Y027121D01*
X029013Y027133D01*
X029085Y027156D01*
X029152Y027190D01*
X029213Y027235D01*
X029267Y027288D01*
X029311Y027349D01*
X029346Y027416D01*
X029369Y027488D01*
X029381Y027563D01*
X029381Y027581D01*
X028621Y027581D01*
X028621Y027370D02*
X028581Y027370D01*
X028581Y027212D02*
X028621Y027212D01*
X029182Y027212D02*
X034111Y027212D01*
X034075Y027370D02*
X029322Y027370D01*
X029375Y027529D02*
X033993Y027529D01*
X033999Y027687D02*
X029373Y027687D01*
X029315Y027846D02*
X034089Y027846D01*
X034612Y027846D02*
X034839Y027846D01*
X034749Y027687D02*
X034703Y027687D01*
X034709Y027529D02*
X034743Y027529D01*
X034825Y027370D02*
X034627Y027370D01*
X034591Y027212D02*
X034861Y027212D01*
X034861Y027053D02*
X034591Y027053D01*
X034484Y026895D02*
X034861Y026895D01*
X034861Y026736D02*
X034325Y026736D01*
X035341Y026736D02*
X039077Y026736D01*
X039077Y026578D02*
X035341Y026578D01*
X035341Y026419D02*
X039077Y026419D01*
X039077Y026260D02*
X035341Y026260D01*
X035341Y026102D02*
X039077Y026102D01*
X039077Y025943D02*
X035341Y025943D01*
X035341Y025785D02*
X039077Y025785D01*
X039077Y025626D02*
X035341Y025626D01*
X035341Y025468D02*
X039077Y025468D01*
X039077Y025309D02*
X035341Y025309D01*
X035341Y025151D02*
X039077Y025151D01*
X039077Y024992D02*
X035341Y024992D01*
X035341Y024834D02*
X039077Y024834D01*
X039077Y024675D02*
X035341Y024675D01*
X035326Y024516D02*
X039077Y024516D01*
X039077Y024358D02*
X035197Y024358D01*
X035384Y024199D02*
X035817Y024199D01*
X035852Y024234D02*
X035728Y024110D01*
X035661Y023948D01*
X035661Y023253D01*
X035728Y023092D01*
X035852Y022968D01*
X036013Y022901D01*
X036188Y022901D01*
X036350Y022968D01*
X036474Y023092D01*
X036541Y023253D01*
X036541Y023948D01*
X036474Y024110D01*
X036350Y024234D01*
X036188Y024301D01*
X036013Y024301D01*
X035852Y024234D01*
X035699Y024041D02*
X035502Y024041D01*
X035541Y023882D02*
X035661Y023882D01*
X035661Y023724D02*
X035541Y023724D01*
X035541Y023565D02*
X035661Y023565D01*
X035661Y023407D02*
X035541Y023407D01*
X035539Y023248D02*
X035663Y023248D01*
X035730Y023090D02*
X035472Y023090D01*
X035261Y022931D02*
X035940Y022931D01*
X036261Y022931D02*
X036940Y022931D01*
X037013Y022901D02*
X037188Y022901D01*
X037350Y022968D01*
X037474Y023092D01*
X037541Y023253D01*
X037541Y023948D01*
X037474Y024110D01*
X037350Y024234D01*
X037188Y024301D01*
X037013Y024301D01*
X036852Y024234D01*
X036728Y024110D01*
X036661Y023948D01*
X036661Y023253D01*
X036728Y023092D01*
X036852Y022968D01*
X037013Y022901D01*
X037261Y022931D02*
X037940Y022931D01*
X038013Y022901D02*
X037852Y022968D01*
X037728Y023092D01*
X037661Y023253D01*
X037661Y023948D01*
X037728Y024110D01*
X037852Y024234D01*
X038013Y024301D01*
X038188Y024301D01*
X038350Y024234D01*
X038474Y024110D01*
X038541Y023948D01*
X038541Y023253D01*
X038474Y023092D01*
X038350Y022968D01*
X038188Y022901D01*
X038013Y022901D01*
X038261Y022931D02*
X039077Y022931D01*
X039077Y023090D02*
X038472Y023090D01*
X038539Y023248D02*
X039077Y023248D01*
X039077Y023407D02*
X038541Y023407D01*
X038541Y023565D02*
X039077Y023565D01*
X039077Y023724D02*
X038541Y023724D01*
X038541Y023882D02*
X039077Y023882D01*
X039077Y024041D02*
X038502Y024041D01*
X038384Y024199D02*
X039077Y024199D01*
X037817Y024199D02*
X037384Y024199D01*
X037502Y024041D02*
X037699Y024041D01*
X037661Y023882D02*
X037541Y023882D01*
X037541Y023724D02*
X037661Y023724D01*
X037661Y023565D02*
X037541Y023565D01*
X037541Y023407D02*
X037661Y023407D01*
X037663Y023248D02*
X037539Y023248D01*
X037472Y023090D02*
X037730Y023090D01*
X036730Y023090D02*
X036472Y023090D01*
X036539Y023248D02*
X036663Y023248D01*
X036661Y023407D02*
X036541Y023407D01*
X036541Y023565D02*
X036661Y023565D01*
X036661Y023724D02*
X036541Y023724D01*
X036541Y023882D02*
X036661Y023882D01*
X036699Y024041D02*
X036502Y024041D01*
X036384Y024199D02*
X036817Y024199D01*
X034836Y024675D02*
X034581Y024675D01*
X034581Y024834D02*
X034861Y024834D01*
X034861Y024992D02*
X034581Y024992D01*
X034480Y025151D02*
X034861Y025151D01*
X034861Y025309D02*
X034321Y025309D01*
X033880Y025309D02*
X033071Y025309D01*
X033230Y025151D02*
X033722Y025151D01*
X033621Y024992D02*
X033331Y024992D01*
X033331Y024834D02*
X033621Y024834D01*
X033621Y024675D02*
X033331Y024675D01*
X034346Y024041D02*
X034699Y024041D01*
X034661Y023882D02*
X034346Y023882D01*
X034346Y023724D02*
X034661Y023724D01*
X034661Y023565D02*
X034265Y023565D01*
X034107Y023407D02*
X034661Y023407D01*
X034663Y023248D02*
X034068Y023248D01*
X033929Y023090D02*
X034730Y023090D01*
X034940Y022931D02*
X033770Y022931D01*
X035101Y021187D02*
X035101Y021187D01*
X035101Y021029D02*
X035101Y021029D01*
X035101Y020870D02*
X035101Y020870D01*
X035101Y020711D02*
X035101Y020711D01*
X035101Y020600D02*
X035101Y019901D01*
X035101Y020600D01*
X035101Y020600D01*
X035101Y020553D02*
X035101Y020553D01*
X035101Y020394D02*
X035101Y020394D01*
X035101Y020236D02*
X035101Y020236D01*
X035101Y020077D02*
X035101Y020077D01*
X035101Y019919D02*
X035101Y019919D01*
X035226Y019919D02*
X035976Y019919D01*
X035998Y019912D02*
X036066Y019901D01*
X036101Y019901D01*
X036135Y019901D01*
X036204Y019912D01*
X036270Y019933D01*
X036331Y019964D01*
X036387Y020005D01*
X036436Y020054D01*
X036477Y020110D01*
X036509Y020172D01*
X036530Y020238D01*
X036541Y020306D01*
X036541Y020601D01*
X036541Y020895D01*
X036530Y020964D01*
X036509Y021030D01*
X036477Y021091D01*
X036436Y021147D01*
X036387Y021196D01*
X036331Y021237D01*
X036270Y021269D01*
X036204Y021290D01*
X036135Y021301D01*
X036101Y021301D01*
X036101Y020601D01*
X036541Y020601D01*
X036101Y020601D01*
X036101Y020601D01*
X036101Y020601D01*
X036101Y021301D01*
X036066Y021301D01*
X035998Y021290D01*
X035932Y021269D01*
X035870Y021237D01*
X035814Y021196D01*
X035765Y021147D01*
X035724Y021091D01*
X035693Y021030D01*
X035672Y020964D01*
X035661Y020895D01*
X035661Y020601D01*
X036100Y020601D01*
X036100Y020601D01*
X035661Y020601D01*
X035661Y020306D01*
X035672Y020238D01*
X035693Y020172D01*
X035724Y020110D01*
X035765Y020054D01*
X035814Y020005D01*
X035870Y019964D01*
X035932Y019933D01*
X035998Y019912D01*
X036101Y019919D02*
X036101Y019919D01*
X036101Y019901D02*
X036101Y020600D01*
X036101Y020600D01*
X036101Y019901D01*
X036226Y019919D02*
X036976Y019919D01*
X036998Y019912D02*
X037066Y019901D01*
X037101Y019901D01*
X037135Y019901D01*
X037204Y019912D01*
X037270Y019933D01*
X037331Y019964D01*
X037387Y020005D01*
X037436Y020054D01*
X037477Y020110D01*
X037509Y020172D01*
X037530Y020238D01*
X037541Y020306D01*
X037541Y020601D01*
X037541Y020895D01*
X037530Y020964D01*
X037509Y021030D01*
X037477Y021091D01*
X037436Y021147D01*
X037387Y021196D01*
X037331Y021237D01*
X037270Y021269D01*
X037204Y021290D01*
X037135Y021301D01*
X037101Y021301D01*
X037101Y020601D01*
X037541Y020601D01*
X037101Y020601D01*
X037101Y020601D01*
X037101Y020601D01*
X037101Y021301D01*
X037066Y021301D01*
X036998Y021290D01*
X036932Y021269D01*
X036870Y021237D01*
X036814Y021196D01*
X036765Y021147D01*
X036724Y021091D01*
X036693Y021030D01*
X036672Y020964D01*
X036661Y020895D01*
X036661Y020601D01*
X037100Y020601D01*
X037100Y020601D01*
X036661Y020601D01*
X036661Y020306D01*
X036672Y020238D01*
X036693Y020172D01*
X036724Y020110D01*
X036765Y020054D01*
X036814Y020005D01*
X036870Y019964D01*
X036932Y019933D01*
X036998Y019912D01*
X037101Y019919D02*
X037101Y019919D01*
X037101Y019901D02*
X037101Y020600D01*
X037101Y020600D01*
X037101Y019901D01*
X037226Y019919D02*
X037976Y019919D01*
X037998Y019912D02*
X037932Y019933D01*
X037870Y019964D01*
X037814Y020005D01*
X037765Y020054D01*
X037724Y020110D01*
X037693Y020172D01*
X037672Y020238D01*
X037661Y020306D01*
X037661Y020601D01*
X038100Y020601D01*
X038100Y020601D01*
X037661Y020601D01*
X037661Y020895D01*
X037672Y020964D01*
X037693Y021030D01*
X037724Y021091D01*
X037765Y021147D01*
X037814Y021196D01*
X037870Y021237D01*
X037932Y021269D01*
X037998Y021290D01*
X038066Y021301D01*
X038101Y021301D01*
X038101Y020601D01*
X038541Y020601D01*
X038541Y020895D01*
X038530Y020964D01*
X038509Y021030D01*
X038477Y021091D01*
X038436Y021147D01*
X038387Y021196D01*
X038331Y021237D01*
X038270Y021269D01*
X038204Y021290D01*
X038135Y021301D01*
X038101Y021301D01*
X038101Y020601D01*
X038101Y020601D01*
X038101Y020601D01*
X038541Y020601D01*
X038541Y020306D01*
X038530Y020238D01*
X038509Y020172D01*
X038477Y020110D01*
X038436Y020054D01*
X038387Y020005D01*
X038331Y019964D01*
X038270Y019933D01*
X038204Y019912D01*
X038135Y019901D01*
X038101Y019901D01*
X038101Y020600D01*
X038101Y020600D01*
X038101Y019901D01*
X038066Y019901D01*
X037998Y019912D01*
X038101Y019919D02*
X038101Y019919D01*
X038226Y019919D02*
X039077Y019919D01*
X039077Y020077D02*
X038453Y020077D01*
X038529Y020236D02*
X039077Y020236D01*
X039077Y020394D02*
X038541Y020394D01*
X038541Y020553D02*
X039077Y020553D01*
X039077Y020711D02*
X038541Y020711D01*
X038541Y020870D02*
X039077Y020870D01*
X039077Y021029D02*
X038509Y021029D01*
X038397Y021187D02*
X039077Y021187D01*
X038101Y021187D02*
X038101Y021187D01*
X038101Y021029D02*
X038101Y021029D01*
X038101Y020870D02*
X038101Y020870D01*
X038101Y020711D02*
X038101Y020711D01*
X038101Y020553D02*
X038101Y020553D01*
X038101Y020394D02*
X038101Y020394D01*
X038101Y020236D02*
X038101Y020236D01*
X038101Y020077D02*
X038101Y020077D01*
X037748Y020077D02*
X037453Y020077D01*
X037529Y020236D02*
X037672Y020236D01*
X037661Y020394D02*
X037541Y020394D01*
X037541Y020553D02*
X037661Y020553D01*
X037661Y020711D02*
X037541Y020711D01*
X037541Y020870D02*
X037661Y020870D01*
X037693Y021029D02*
X037509Y021029D01*
X037397Y021187D02*
X037805Y021187D01*
X037101Y021187D02*
X037101Y021187D01*
X037101Y021029D02*
X037101Y021029D01*
X037101Y020870D02*
X037101Y020870D01*
X037101Y020711D02*
X037101Y020711D01*
X037101Y020553D02*
X037101Y020553D01*
X037101Y020394D02*
X037101Y020394D01*
X037101Y020236D02*
X037101Y020236D01*
X037101Y020077D02*
X037101Y020077D01*
X036748Y020077D02*
X036453Y020077D01*
X036529Y020236D02*
X036672Y020236D01*
X036661Y020394D02*
X036541Y020394D01*
X036541Y020553D02*
X036661Y020553D01*
X036661Y020711D02*
X036541Y020711D01*
X036541Y020870D02*
X036661Y020870D01*
X036693Y021029D02*
X036509Y021029D01*
X036397Y021187D02*
X036805Y021187D01*
X036101Y021187D02*
X036101Y021187D01*
X036101Y021029D02*
X036101Y021029D01*
X036101Y020870D02*
X036101Y020870D01*
X036101Y020711D02*
X036101Y020711D01*
X036101Y020553D02*
X036101Y020553D01*
X036101Y020394D02*
X036101Y020394D01*
X036101Y020236D02*
X036101Y020236D01*
X036101Y020077D02*
X036101Y020077D01*
X035748Y020077D02*
X035453Y020077D01*
X035529Y020236D02*
X035672Y020236D01*
X035661Y020394D02*
X035541Y020394D01*
X035541Y020553D02*
X035661Y020553D01*
X035661Y020711D02*
X035541Y020711D01*
X035541Y020870D02*
X035661Y020870D01*
X035693Y021029D02*
X035509Y021029D01*
X035397Y021187D02*
X035805Y021187D01*
X034976Y019919D02*
X034578Y019919D01*
X034683Y019760D02*
X039077Y019760D01*
X039077Y019602D02*
X034749Y019602D01*
X034769Y019443D02*
X039077Y019443D01*
X039077Y019285D02*
X034769Y019285D01*
X034725Y019126D02*
X039077Y019126D01*
X039077Y018967D02*
X034660Y018967D01*
X034521Y018809D02*
X039077Y018809D01*
X039077Y018333D02*
X000494Y018333D01*
X000494Y018492D02*
X015120Y018492D01*
X014962Y018650D02*
X000494Y018650D01*
X000494Y018809D02*
X014803Y018809D01*
X014505Y018967D02*
X000494Y018967D01*
X000494Y019126D02*
X001190Y019126D01*
X001217Y019099D02*
X001514Y018976D01*
X001837Y018976D01*
X002134Y019099D01*
X002362Y019327D01*
X002485Y019625D01*
X002485Y019947D01*
X002362Y020245D01*
X002134Y020472D01*
X001837Y020596D01*
X001514Y020596D01*
X001217Y020472D01*
X000989Y020245D01*
X000866Y019947D01*
X000866Y019625D01*
X000989Y019327D01*
X001217Y019099D01*
X001031Y019285D02*
X000494Y019285D01*
X000494Y019443D02*
X000941Y019443D01*
X000875Y019602D02*
X000494Y019602D01*
X000494Y019760D02*
X000866Y019760D01*
X000866Y019919D02*
X000494Y019919D01*
X000494Y020077D02*
X000920Y020077D01*
X000985Y020236D02*
X000494Y020236D01*
X000494Y020394D02*
X001139Y020394D01*
X001411Y020553D02*
X000494Y020553D01*
X000494Y020711D02*
X014415Y020711D01*
X014573Y020553D02*
X013357Y020553D01*
X013254Y020596D02*
X012932Y020596D01*
X012634Y020472D01*
X012406Y020245D01*
X012283Y019947D01*
X012283Y019625D01*
X012406Y019327D01*
X012634Y019099D01*
X012932Y018976D01*
X013254Y018976D01*
X013552Y019099D01*
X013779Y019327D01*
X013903Y019625D01*
X013903Y019947D01*
X013779Y020245D01*
X013552Y020472D01*
X013254Y020596D01*
X013630Y020394D02*
X014732Y020394D01*
X014507Y020236D02*
X013783Y020236D01*
X013849Y020077D02*
X014404Y020077D01*
X014371Y019919D02*
X013903Y019919D01*
X013903Y019760D02*
X014371Y019760D01*
X014371Y019602D02*
X013893Y019602D01*
X013828Y019443D02*
X014371Y019443D01*
X014371Y019285D02*
X013737Y019285D01*
X013578Y019126D02*
X014404Y019126D01*
X015611Y020321D02*
X015611Y020553D01*
X015637Y020711D02*
X015065Y020711D01*
X014907Y020870D02*
X015781Y020870D01*
X015939Y021029D02*
X014748Y021029D01*
X014590Y021187D02*
X016098Y021187D01*
X016256Y021346D02*
X014431Y021346D01*
X014273Y021504D02*
X016415Y021504D01*
X016573Y021663D02*
X014114Y021663D01*
X013956Y021821D02*
X016732Y021821D01*
X016890Y021980D02*
X013797Y021980D01*
X013622Y021504D02*
X010950Y021504D01*
X010752Y021504D02*
X000494Y021504D01*
X000494Y021346D02*
X013781Y021346D01*
X013939Y021187D02*
X000494Y021187D01*
X000494Y021029D02*
X014098Y021029D01*
X014256Y020870D02*
X000494Y020870D01*
X000494Y021663D02*
X010541Y021663D01*
X010493Y021821D02*
X002446Y021821D01*
X002528Y021855D02*
X002756Y022083D01*
X002879Y022381D01*
X002879Y022703D01*
X002756Y023001D01*
X002528Y023228D01*
X002230Y023352D01*
X001908Y023352D01*
X001610Y023228D01*
X001383Y023001D01*
X001259Y022703D01*
X001259Y022381D01*
X001383Y022083D01*
X001610Y021855D01*
X001908Y021732D01*
X002230Y021732D01*
X002528Y021855D01*
X002653Y021980D02*
X010517Y021980D01*
X010632Y022138D02*
X002779Y022138D01*
X002844Y022297D02*
X017207Y022297D01*
X017049Y022138D02*
X011070Y022138D01*
X012556Y020394D02*
X002212Y020394D01*
X002366Y020236D02*
X012403Y020236D01*
X012337Y020077D02*
X002431Y020077D01*
X002485Y019919D02*
X012283Y019919D01*
X012283Y019760D02*
X002485Y019760D01*
X002476Y019602D02*
X012293Y019602D01*
X012358Y019443D02*
X002410Y019443D01*
X002320Y019285D02*
X012449Y019285D01*
X012607Y019126D02*
X002161Y019126D01*
X001940Y020553D02*
X012828Y020553D01*
X017366Y022455D02*
X002879Y022455D01*
X002879Y022614D02*
X017525Y022614D01*
X017683Y022772D02*
X002850Y022772D01*
X002785Y022931D02*
X017842Y022931D01*
X018000Y023090D02*
X002667Y023090D01*
X002480Y023248D02*
X018159Y023248D01*
X018317Y023407D02*
X000494Y023407D01*
X000494Y023565D02*
X018361Y023565D01*
X018361Y023724D02*
X000494Y023724D01*
X000494Y023882D02*
X018361Y023882D01*
X018361Y024041D02*
X000494Y024041D01*
X000494Y024199D02*
X018361Y024199D01*
X018361Y024358D02*
X000494Y024358D01*
X000494Y024516D02*
X018361Y024516D01*
X018361Y024675D02*
X000494Y024675D01*
X000494Y024834D02*
X018361Y024834D01*
X018361Y024992D02*
X000494Y024992D01*
X000494Y025151D02*
X018361Y025151D01*
X018361Y025309D02*
X000494Y025309D01*
X000494Y025468D02*
X018361Y025468D01*
X018361Y025626D02*
X000494Y025626D01*
X000494Y025785D02*
X018361Y025785D01*
X018361Y025943D02*
X000494Y025943D01*
X000494Y026102D02*
X018361Y026102D01*
X018361Y026260D02*
X000494Y026260D01*
X000494Y026419D02*
X018361Y026419D01*
X018361Y026578D02*
X000494Y026578D01*
X000494Y026736D02*
X018361Y026736D01*
X018361Y026895D02*
X000494Y026895D01*
X000494Y027053D02*
X018361Y027053D01*
X018361Y027212D02*
X000494Y027212D01*
X000494Y027370D02*
X018361Y027370D01*
X018361Y027529D02*
X000494Y027529D01*
X000494Y027687D02*
X018361Y027687D01*
X018361Y027846D02*
X000494Y027846D01*
X000494Y028004D02*
X018361Y028004D01*
X018361Y028163D02*
X000494Y028163D01*
X000494Y028321D02*
X007874Y028321D01*
X007898Y028297D02*
X008030Y028243D01*
X008172Y028243D01*
X008304Y028297D01*
X008351Y028344D01*
X008398Y028297D01*
X008530Y028243D01*
X008672Y028243D01*
X008804Y028297D01*
X008851Y028344D01*
X008898Y028297D01*
X009030Y028243D01*
X009172Y028243D01*
X009304Y028297D01*
X009351Y028344D01*
X009398Y028297D01*
X009530Y028243D01*
X009672Y028243D01*
X009804Y028297D01*
X009851Y028344D01*
X009898Y028297D01*
X010030Y028243D01*
X010172Y028243D01*
X010304Y028297D01*
X010351Y028344D01*
X010398Y028297D01*
X010530Y028243D01*
X010672Y028243D01*
X010804Y028297D01*
X010851Y028344D01*
X010898Y028297D01*
X011030Y028243D01*
X011172Y028243D01*
X011304Y028297D01*
X011351Y028344D01*
X011398Y028297D01*
X011530Y028243D01*
X011672Y028243D01*
X011804Y028297D01*
X011904Y028398D01*
X011959Y028530D01*
X011959Y028672D01*
X011904Y028804D01*
X011841Y028867D01*
X011841Y031899D01*
X011804Y031987D01*
X011737Y032054D01*
X011581Y032210D01*
X011581Y032300D01*
X011300Y032581D01*
X010902Y032581D01*
X010621Y032300D01*
X010621Y032170D01*
X010581Y032210D01*
X010581Y032300D01*
X010300Y032581D01*
X009902Y032581D01*
X009621Y032300D01*
X009621Y032170D01*
X009581Y032210D01*
X009581Y032300D01*
X009300Y032581D01*
X008902Y032581D01*
X008621Y032300D01*
X008621Y032170D01*
X008581Y032210D01*
X008581Y032300D01*
X008300Y032581D01*
X007902Y032581D01*
X007621Y032300D01*
X007621Y032156D01*
X007581Y032196D01*
X007581Y032300D01*
X007300Y032581D01*
X006902Y032581D01*
X006621Y032300D01*
X006621Y032170D01*
X006581Y032210D01*
X006581Y032300D01*
X006300Y032581D01*
X005902Y032581D01*
X005621Y032300D01*
X005621Y032170D01*
X005581Y032210D01*
X005581Y032300D01*
X005300Y032581D01*
X004902Y032581D01*
X004621Y032300D01*
X004621Y032170D01*
X004581Y032210D01*
X004581Y032300D01*
X004300Y032581D01*
X003902Y032581D01*
X003621Y032300D01*
X003621Y031902D01*
X003902Y031621D01*
X004300Y031621D01*
X004361Y031682D01*
X004361Y031519D01*
X004300Y031581D01*
X003902Y031581D01*
X003621Y031300D01*
X003621Y030902D01*
X003902Y030621D01*
X004300Y030621D01*
X004361Y030682D01*
X004361Y028899D01*
X004361Y028803D01*
X004397Y028715D01*
X004647Y028465D01*
X004715Y028397D01*
X004803Y028361D01*
X007834Y028361D01*
X007898Y028297D01*
X008328Y028321D02*
X008374Y028321D01*
X008828Y028321D02*
X008874Y028321D01*
X009328Y028321D02*
X009374Y028321D01*
X009828Y028321D02*
X009874Y028321D01*
X010328Y028321D02*
X010374Y028321D01*
X010828Y028321D02*
X010874Y028321D01*
X011328Y028321D02*
X011374Y028321D01*
X011828Y028321D02*
X018361Y028321D01*
X018263Y028480D02*
X011938Y028480D01*
X011959Y028639D02*
X018243Y028639D01*
X018295Y028797D02*
X011907Y028797D01*
X011841Y028956D02*
X018361Y028956D01*
X018361Y029114D02*
X011841Y029114D01*
X011841Y029273D02*
X018339Y029273D01*
X018121Y032170D02*
X018081Y032210D01*
X018081Y032300D01*
X017800Y032581D01*
X017402Y032581D01*
X017121Y032300D01*
X017121Y032170D01*
X017081Y032210D01*
X017081Y032300D01*
X016800Y032581D01*
X016402Y032581D01*
X016121Y032300D01*
X016121Y032170D01*
X016081Y032210D01*
X016081Y032300D01*
X015800Y032581D01*
X015402Y032581D01*
X015121Y032300D01*
X015121Y032170D01*
X015081Y032210D01*
X015081Y032300D01*
X014800Y032581D01*
X014402Y032581D01*
X014121Y032285D02*
X011581Y032285D01*
X011664Y032127D02*
X014121Y032127D01*
X014121Y031968D02*
X011812Y031968D01*
X011841Y031809D02*
X014213Y031809D01*
X014372Y031651D02*
X011841Y031651D01*
X011841Y031492D02*
X014314Y031492D01*
X014155Y031334D02*
X011841Y031334D01*
X011841Y031175D02*
X014121Y031175D01*
X014121Y031017D02*
X011841Y031017D01*
X011841Y030858D02*
X014165Y030858D01*
X014323Y030700D02*
X011841Y030700D01*
X011841Y030541D02*
X014861Y030541D01*
X014861Y030383D02*
X011841Y030383D01*
X011841Y030224D02*
X014861Y030224D01*
X014861Y030065D02*
X011841Y030065D01*
X011841Y029907D02*
X014955Y029907D01*
X015114Y029748D02*
X011841Y029748D01*
X011841Y029590D02*
X015272Y029590D01*
X015431Y029431D02*
X011841Y029431D01*
X010621Y032285D02*
X010581Y032285D01*
X010437Y032444D02*
X010765Y032444D01*
X009765Y032444D02*
X009437Y032444D01*
X009581Y032285D02*
X009621Y032285D01*
X008765Y032444D02*
X008437Y032444D01*
X008581Y032285D02*
X008621Y032285D01*
X007765Y032444D02*
X007437Y032444D01*
X007581Y032285D02*
X007621Y032285D01*
X006765Y032444D02*
X006437Y032444D01*
X006581Y032285D02*
X006621Y032285D01*
X005765Y032444D02*
X005437Y032444D01*
X005581Y032285D02*
X005621Y032285D01*
X004765Y032444D02*
X004437Y032444D01*
X004581Y032285D02*
X004621Y032285D01*
X004361Y031651D02*
X004330Y031651D01*
X003872Y031651D02*
X002411Y031651D01*
X002362Y031532D02*
X002485Y031829D01*
X002485Y032152D01*
X002362Y032449D01*
X002134Y032677D01*
X001837Y032800D01*
X001514Y032800D01*
X001217Y032677D01*
X000989Y032449D01*
X000866Y032152D01*
X000866Y031829D01*
X000989Y031532D01*
X001217Y031304D01*
X001514Y031181D01*
X001837Y031181D01*
X002134Y031304D01*
X002362Y031532D01*
X002323Y031492D02*
X003814Y031492D01*
X003655Y031334D02*
X002164Y031334D01*
X002477Y031809D02*
X003713Y031809D01*
X003621Y031968D02*
X002485Y031968D01*
X002485Y032127D02*
X003621Y032127D01*
X003621Y032285D02*
X002430Y032285D01*
X002365Y032444D02*
X003765Y032444D01*
X003621Y031175D02*
X000494Y031175D01*
X000494Y031017D02*
X003621Y031017D01*
X003665Y030858D02*
X000494Y030858D01*
X000494Y030700D02*
X003823Y030700D01*
X004361Y030541D02*
X000494Y030541D01*
X000494Y030383D02*
X004361Y030383D01*
X004361Y030224D02*
X000494Y030224D01*
X000494Y030065D02*
X004361Y030065D01*
X004361Y029907D02*
X000494Y029907D01*
X000494Y029748D02*
X004361Y029748D01*
X004361Y029590D02*
X000494Y029590D01*
X000494Y029431D02*
X004361Y029431D01*
X004361Y029273D02*
X000494Y029273D01*
X000494Y029114D02*
X004361Y029114D01*
X004361Y028956D02*
X000494Y028956D01*
X000494Y028797D02*
X004363Y028797D01*
X004474Y028639D02*
X000494Y028639D01*
X000494Y028480D02*
X004632Y028480D01*
X001187Y031334D02*
X000494Y031334D01*
X000494Y031492D02*
X001028Y031492D01*
X000940Y031651D02*
X000494Y031651D01*
X000494Y031809D02*
X000874Y031809D01*
X000866Y031968D02*
X000494Y031968D01*
X000494Y032127D02*
X000866Y032127D01*
X000921Y032285D02*
X000494Y032285D01*
X000494Y032444D02*
X000987Y032444D01*
X001142Y032602D02*
X000494Y032602D01*
X000494Y032761D02*
X001419Y032761D01*
X001933Y032761D02*
X024647Y032761D01*
X024370Y032602D02*
X002209Y032602D01*
X000494Y032919D02*
X027940Y032919D01*
X027894Y032873D02*
X027821Y032696D01*
X027821Y032505D01*
X027894Y032329D01*
X028029Y032194D01*
X028205Y032121D01*
X028996Y032121D01*
X029173Y032194D01*
X029308Y032329D01*
X029381Y032505D01*
X029381Y032696D01*
X029308Y032873D01*
X029173Y033008D01*
X028996Y033081D01*
X028205Y033081D01*
X028029Y033008D01*
X027894Y032873D01*
X027848Y032761D02*
X025161Y032761D01*
X025438Y032602D02*
X027821Y032602D01*
X027846Y032444D02*
X025593Y032444D01*
X025659Y032285D02*
X027938Y032285D01*
X028191Y032127D02*
X025714Y032127D01*
X025714Y031968D02*
X027989Y031968D01*
X027868Y031809D02*
X025706Y031809D01*
X025640Y031651D02*
X027821Y031651D01*
X027826Y031492D02*
X025551Y031492D01*
X024836Y031175D02*
X022341Y031175D01*
X022341Y031017D02*
X024677Y031017D01*
X024611Y030858D02*
X022341Y030858D01*
X022341Y030700D02*
X024611Y030700D01*
X024611Y030541D02*
X024089Y030541D01*
X024248Y030383D02*
X024454Y030383D01*
X024371Y030224D02*
X024331Y030224D01*
X023612Y030541D02*
X023089Y030541D01*
X023248Y030383D02*
X023454Y030383D01*
X023371Y030224D02*
X023331Y030224D01*
X023331Y030065D02*
X023371Y030065D01*
X023371Y029907D02*
X023331Y029907D01*
X022772Y029590D02*
X022341Y029590D01*
X022341Y029748D02*
X022524Y029748D01*
X022371Y029907D02*
X022341Y029907D01*
X022341Y030065D02*
X022371Y030065D01*
X022371Y030224D02*
X022341Y030224D01*
X022341Y030383D02*
X022454Y030383D01*
X022341Y030541D02*
X022612Y030541D01*
X022341Y031334D02*
X024415Y031334D01*
X024257Y031492D02*
X022341Y031492D01*
X022341Y031651D02*
X024168Y031651D01*
X024102Y031809D02*
X022341Y031809D01*
X022341Y031899D02*
X022304Y031987D01*
X022237Y032054D01*
X022081Y032210D01*
X022081Y032300D01*
X021800Y032581D01*
X021402Y032581D01*
X021121Y032300D01*
X021121Y032170D01*
X021081Y032210D01*
X021081Y032300D01*
X020800Y032581D01*
X020402Y032581D01*
X020121Y032300D01*
X020121Y032170D01*
X020081Y032210D01*
X020081Y032300D01*
X019800Y032581D01*
X019402Y032581D01*
X019121Y032300D01*
X019121Y032170D01*
X019081Y032210D01*
X019081Y032300D01*
X018800Y032581D01*
X018402Y032581D01*
X018121Y032300D01*
X018121Y032170D01*
X018121Y032285D02*
X018081Y032285D01*
X017937Y032444D02*
X018265Y032444D01*
X018937Y032444D02*
X019265Y032444D01*
X019121Y032285D02*
X019081Y032285D01*
X019937Y032444D02*
X020265Y032444D01*
X020121Y032285D02*
X020081Y032285D01*
X020937Y032444D02*
X021265Y032444D01*
X021121Y032285D02*
X021081Y032285D01*
X021937Y032444D02*
X024215Y032444D01*
X024149Y032285D02*
X022081Y032285D01*
X022164Y032127D02*
X024094Y032127D01*
X024094Y031968D02*
X022312Y031968D01*
X022341Y031899D02*
X022341Y028867D01*
X022404Y028804D01*
X022459Y028672D01*
X022459Y028530D01*
X022404Y028398D01*
X022341Y028334D01*
X022341Y027723D01*
X022342Y027724D01*
X022503Y027791D01*
X023198Y027791D01*
X023360Y027724D01*
X023484Y027600D01*
X023551Y027438D01*
X023551Y027263D01*
X023484Y027102D01*
X023360Y026978D01*
X023198Y026911D01*
X022503Y026911D01*
X022342Y026978D01*
X022341Y026979D01*
X022341Y026723D01*
X022342Y026724D01*
X022503Y026791D01*
X023198Y026791D01*
X023360Y026724D01*
X023484Y026600D01*
X023551Y026438D01*
X023551Y026263D01*
X023484Y026102D01*
X023550Y026260D02*
X024599Y026260D01*
X024511Y026419D02*
X023551Y026419D01*
X023493Y026578D02*
X024422Y026578D01*
X024334Y026736D02*
X023330Y026736D01*
X023435Y027053D02*
X024158Y027053D01*
X024246Y026895D02*
X022341Y026895D01*
X022341Y026736D02*
X022371Y026736D01*
X022341Y025943D02*
X022425Y025943D01*
X022489Y025785D02*
X022341Y025785D01*
X022341Y024834D02*
X025551Y024834D01*
X024070Y027212D02*
X023529Y027212D01*
X023551Y027370D02*
X023982Y027370D01*
X023894Y027529D02*
X023513Y027529D01*
X023396Y027687D02*
X023806Y027687D01*
X023718Y027846D02*
X022341Y027846D01*
X022341Y028004D02*
X023630Y028004D01*
X023611Y028163D02*
X022341Y028163D01*
X022341Y028321D02*
X023611Y028321D01*
X023611Y028480D02*
X022438Y028480D01*
X022459Y028639D02*
X022634Y028639D01*
X022476Y028797D02*
X022407Y028797D01*
X022371Y028956D02*
X022341Y028956D01*
X022341Y029114D02*
X022371Y029114D01*
X022371Y029273D02*
X022341Y029273D01*
X022341Y029431D02*
X022503Y029431D01*
X023331Y029273D02*
X023371Y029273D01*
X023371Y029114D02*
X023331Y029114D01*
X023331Y028956D02*
X023371Y028956D01*
X023476Y028797D02*
X023226Y028797D01*
X023067Y028639D02*
X023611Y028639D01*
X024854Y027687D02*
X025305Y027687D01*
X025188Y027529D02*
X025012Y027529D01*
X028080Y024358D02*
X028454Y024358D01*
X025340Y021980D02*
X023362Y021980D01*
X023499Y022138D02*
X025203Y022138D01*
X025151Y022297D02*
X023551Y022297D01*
X023544Y022455D02*
X025158Y022455D01*
X025232Y022614D02*
X023470Y022614D01*
X023421Y021663D02*
X025280Y021663D01*
X025178Y021504D02*
X023524Y021504D01*
X023551Y021346D02*
X025151Y021346D01*
X025182Y021187D02*
X023519Y021187D01*
X023411Y021029D02*
X025291Y021029D01*
X025168Y020553D02*
X027121Y020553D01*
X027121Y020711D02*
X022580Y020711D01*
X022738Y020553D02*
X024639Y020553D01*
X024367Y020394D02*
X022897Y020394D01*
X023195Y020236D02*
X024214Y020236D01*
X024148Y020077D02*
X023297Y020077D01*
X023331Y019919D02*
X024094Y019919D01*
X024094Y019760D02*
X023331Y019760D01*
X023331Y019602D02*
X024104Y019602D01*
X024169Y019443D02*
X023331Y019443D01*
X023331Y019285D02*
X024260Y019285D01*
X024418Y019126D02*
X023298Y019126D01*
X025389Y019126D02*
X027121Y019126D01*
X027121Y019285D02*
X025548Y019285D01*
X025639Y019443D02*
X027121Y019443D01*
X027121Y019602D02*
X025704Y019602D01*
X025714Y019760D02*
X027121Y019760D01*
X027121Y019919D02*
X025714Y019919D01*
X025660Y020077D02*
X027121Y020077D01*
X027121Y020236D02*
X025594Y020236D01*
X025441Y020394D02*
X027121Y020394D01*
X027581Y020394D02*
X029888Y020394D01*
X029769Y020236D02*
X027581Y020236D01*
X027581Y020077D02*
X029743Y020077D01*
X029789Y019919D02*
X027581Y019919D01*
X027581Y020553D02*
X030111Y020553D01*
X030111Y020711D02*
X027581Y020711D01*
X029370Y028480D02*
X039077Y028480D01*
X039077Y028321D02*
X035886Y028321D01*
X035959Y028163D02*
X039077Y028163D01*
X039077Y028004D02*
X035948Y028004D01*
X035852Y027846D02*
X039077Y027846D01*
X039077Y027687D02*
X035453Y027687D01*
X035459Y027529D02*
X039077Y027529D01*
X039077Y027370D02*
X035377Y027370D01*
X035341Y027212D02*
X039077Y027212D01*
X039077Y027053D02*
X035341Y027053D01*
X035341Y026895D02*
X039077Y026895D01*
X039077Y028956D02*
X036428Y028956D01*
X036459Y029114D02*
X039077Y029114D01*
X039077Y029273D02*
X036417Y029273D01*
X036239Y029431D02*
X039077Y029431D01*
X039077Y029590D02*
X029381Y029590D01*
X029359Y029748D02*
X039077Y029748D01*
X039077Y029907D02*
X033746Y029907D01*
X034072Y030065D02*
X039077Y030065D01*
X039077Y030224D02*
X034186Y030224D01*
X034209Y030383D02*
X039077Y030383D01*
X039077Y030541D02*
X034160Y030541D01*
X033944Y030700D02*
X039077Y030700D01*
X039077Y030858D02*
X029314Y030858D01*
X029379Y030700D02*
X033757Y030700D01*
X033542Y030541D02*
X029381Y030541D01*
X029330Y030383D02*
X033493Y030383D01*
X032856Y031017D02*
X039077Y031017D01*
X039077Y031175D02*
X033015Y031175D01*
X033173Y031334D02*
X039077Y031334D01*
X039077Y031492D02*
X033316Y031492D01*
X033341Y031651D02*
X039077Y031651D01*
X039077Y031809D02*
X033341Y031809D01*
X033341Y031968D02*
X039077Y031968D01*
X039077Y032127D02*
X033341Y032127D01*
X033341Y032285D02*
X039077Y032285D01*
X039077Y032444D02*
X033423Y032444D01*
X033459Y032602D02*
X039077Y032602D01*
X039077Y032761D02*
X033422Y032761D01*
X033268Y032919D02*
X039077Y032919D01*
X039077Y033078D02*
X031943Y033078D01*
X032082Y032919D02*
X032934Y032919D01*
X032779Y032761D02*
X032172Y032761D01*
X032209Y032602D02*
X032743Y032602D01*
X032709Y032444D02*
X032778Y032444D01*
X032493Y032444D02*
X032173Y032444D01*
X032386Y031809D02*
X029334Y031809D01*
X029381Y031651D02*
X032811Y031651D01*
X032816Y031809D02*
X032861Y031809D01*
X032653Y031492D02*
X029375Y031492D01*
X029212Y031968D02*
X030394Y031968D01*
X030236Y032127D02*
X029010Y032127D01*
X029264Y032285D02*
X030077Y032285D01*
X029919Y032444D02*
X029355Y032444D01*
X029381Y032602D02*
X029760Y032602D01*
X029601Y032761D02*
X029354Y032761D01*
X029443Y032919D02*
X029261Y032919D01*
X029284Y033078D02*
X029003Y033078D01*
X029126Y033236D02*
X000494Y033236D01*
X000494Y033078D02*
X028198Y033078D01*
X028809Y033553D02*
X000494Y033553D01*
X000494Y033395D02*
X028967Y033395D01*
X028650Y033712D02*
X018642Y033712D01*
X018783Y033871D02*
X028492Y033871D01*
X028333Y034029D02*
X018841Y034029D01*
X018841Y034188D02*
X024314Y034188D01*
X024396Y034106D02*
X024601Y034106D01*
X024806Y034106D01*
X025096Y034396D01*
X025096Y034601D01*
X025096Y034806D01*
X024806Y035096D01*
X024601Y035096D01*
X024601Y034601D01*
X025096Y034601D01*
X024601Y034601D01*
X024601Y034601D01*
X024601Y034601D01*
X024601Y035096D01*
X024396Y035096D01*
X024106Y034806D01*
X024106Y034601D01*
X024600Y034601D01*
X024600Y034601D01*
X024106Y034601D01*
X024106Y034396D01*
X024396Y034106D01*
X024601Y034106D02*
X024601Y034600D01*
X024601Y034106D01*
X024601Y034188D02*
X024601Y034188D01*
X024601Y034346D02*
X024601Y034346D01*
X024601Y034505D02*
X024601Y034505D01*
X024601Y034600D02*
X024601Y034600D01*
X024601Y034663D02*
X024601Y034663D01*
X024601Y034822D02*
X024601Y034822D01*
X024601Y034980D02*
X024601Y034980D01*
X024921Y034980D02*
X026280Y034980D01*
X026361Y035061D02*
X026106Y034806D01*
X026106Y034396D01*
X026396Y034106D01*
X026806Y034106D01*
X027096Y034396D01*
X027096Y034806D01*
X026841Y035061D01*
X026841Y035899D01*
X026804Y035987D01*
X026737Y036054D01*
X026554Y036237D01*
X026487Y036304D01*
X026399Y036341D01*
X023646Y036341D01*
X023588Y036483D01*
X023453Y036618D01*
X023276Y036691D01*
X022485Y036691D01*
X022309Y036618D01*
X022174Y036483D01*
X022101Y036306D01*
X022101Y036115D01*
X022174Y035939D01*
X022309Y035804D01*
X022485Y035731D01*
X023276Y035731D01*
X023453Y035804D01*
X023510Y035861D01*
X026251Y035861D01*
X026361Y035751D01*
X026361Y035061D01*
X026361Y035139D02*
X018841Y035139D01*
X018829Y034980D02*
X024280Y034980D01*
X024122Y034822D02*
X018752Y034822D01*
X018526Y034663D02*
X024106Y034663D01*
X024106Y034505D02*
X018608Y034505D01*
X018777Y034346D02*
X024155Y034346D01*
X024888Y034188D02*
X026314Y034188D01*
X026155Y034346D02*
X025046Y034346D01*
X025096Y034505D02*
X026106Y034505D01*
X026106Y034663D02*
X025096Y034663D01*
X025080Y034822D02*
X026122Y034822D01*
X026841Y035139D02*
X029611Y035139D01*
X029611Y035297D02*
X026841Y035297D01*
X026841Y035456D02*
X029635Y035456D01*
X029775Y035614D02*
X026841Y035614D01*
X026841Y035773D02*
X027323Y035773D01*
X027249Y035804D02*
X027425Y035731D01*
X028216Y035731D01*
X028393Y035804D01*
X028528Y035939D01*
X028601Y036115D01*
X028601Y036306D01*
X028528Y036483D01*
X028393Y036618D01*
X028216Y036691D01*
X027425Y036691D01*
X027249Y036618D01*
X027114Y036483D01*
X027041Y036306D01*
X027041Y036115D01*
X027114Y035939D01*
X027249Y035804D01*
X027121Y035932D02*
X026827Y035932D01*
X026701Y036090D02*
X027051Y036090D01*
X027041Y036249D02*
X026542Y036249D01*
X026339Y035773D02*
X023378Y035773D01*
X023619Y036407D02*
X027083Y036407D01*
X027197Y036566D02*
X023505Y036566D01*
X023293Y037523D02*
X023365Y037546D01*
X023432Y037580D01*
X023493Y037625D01*
X023547Y037678D01*
X023591Y037739D01*
X023626Y037806D01*
X023649Y037878D01*
X023661Y037953D01*
X023661Y037971D01*
X022901Y037971D01*
X022901Y038011D01*
X022861Y038011D01*
X022861Y038471D01*
X022543Y038471D01*
X022468Y038459D01*
X022396Y038436D01*
X022329Y038401D01*
X022268Y038357D01*
X022215Y038303D01*
X022170Y038242D01*
X022136Y038175D01*
X022113Y038103D01*
X022101Y038029D01*
X022101Y038011D01*
X022861Y038011D01*
X022861Y037971D01*
X022901Y037971D01*
X022901Y037511D01*
X023219Y037511D01*
X023293Y037523D01*
X023258Y037517D02*
X027444Y037517D01*
X027408Y037523D02*
X027483Y037511D01*
X027801Y037511D01*
X027801Y037971D01*
X027841Y037971D01*
X027841Y038011D01*
X027801Y038011D01*
X027801Y038471D01*
X027483Y038471D01*
X027408Y038459D01*
X027336Y038436D01*
X027269Y038401D01*
X027208Y038357D01*
X027155Y038303D01*
X027110Y038242D01*
X027076Y038175D01*
X027053Y038103D01*
X027041Y038029D01*
X027041Y038011D01*
X027801Y038011D01*
X027801Y037971D01*
X027041Y037971D01*
X027041Y037953D01*
X027053Y037878D01*
X027076Y037806D01*
X027110Y037739D01*
X027155Y037678D01*
X027208Y037625D01*
X027269Y037580D01*
X027336Y037546D01*
X027408Y037523D01*
X027157Y037676D02*
X023544Y037676D01*
X023635Y037834D02*
X027067Y037834D01*
X027068Y038151D02*
X023633Y038151D01*
X023626Y038175D02*
X023591Y038242D01*
X023547Y038303D01*
X023493Y038357D01*
X023432Y038401D01*
X023365Y038436D01*
X023293Y038459D01*
X023219Y038471D01*
X022901Y038471D01*
X022901Y038011D01*
X023661Y038011D01*
X023661Y038029D01*
X023649Y038103D01*
X023626Y038175D01*
X023541Y038310D02*
X027161Y038310D01*
X027467Y038468D02*
X023234Y038468D01*
X022901Y038468D02*
X022861Y038468D01*
X022861Y038310D02*
X022901Y038310D01*
X022901Y038151D02*
X022861Y038151D01*
X022861Y037993D02*
X020341Y037993D01*
X020341Y038011D02*
X021101Y038011D01*
X021101Y038029D01*
X021089Y038103D01*
X021066Y038175D01*
X021031Y038242D01*
X020987Y038303D01*
X020933Y038357D01*
X020872Y038401D01*
X020805Y038436D01*
X020733Y038459D01*
X020659Y038471D01*
X020341Y038471D01*
X020341Y038011D01*
X020301Y038011D01*
X020301Y038471D01*
X019983Y038471D01*
X019908Y038459D01*
X019836Y038436D01*
X019769Y038401D01*
X019708Y038357D01*
X019655Y038303D01*
X019610Y038242D01*
X019576Y038175D01*
X019553Y038103D01*
X019541Y038029D01*
X019541Y038011D01*
X020301Y038011D01*
X020301Y037971D01*
X020341Y037971D01*
X020341Y038011D01*
X020341Y037971D02*
X021101Y037971D01*
X021101Y037953D01*
X021089Y037878D01*
X021066Y037806D01*
X021031Y037739D01*
X020987Y037678D01*
X020933Y037625D01*
X020872Y037580D01*
X020805Y037546D01*
X020733Y037523D01*
X020659Y037511D01*
X020341Y037511D01*
X020341Y037971D01*
X020301Y037971D02*
X020301Y037511D01*
X019983Y037511D01*
X019908Y037523D01*
X019836Y037546D01*
X019769Y037580D01*
X019708Y037625D01*
X019655Y037678D01*
X019610Y037739D01*
X019576Y037806D01*
X019553Y037878D01*
X019541Y037953D01*
X019541Y037971D01*
X020301Y037971D01*
X020301Y037993D02*
X018331Y037993D01*
X018490Y037834D02*
X019567Y037834D01*
X019657Y037676D02*
X018541Y037676D01*
X018541Y037517D02*
X019944Y037517D01*
X020301Y037517D02*
X020341Y037517D01*
X020341Y037676D02*
X020301Y037676D01*
X020301Y037834D02*
X020341Y037834D01*
X020341Y038151D02*
X020301Y038151D01*
X020301Y038310D02*
X020341Y038310D01*
X020341Y038468D02*
X020301Y038468D01*
X019967Y038468D02*
X015081Y038468D01*
X015081Y038402D02*
X015081Y038581D01*
X014621Y038581D01*
X014621Y038121D01*
X014800Y038121D01*
X015081Y038402D01*
X014989Y038310D02*
X019661Y038310D01*
X019568Y038151D02*
X014830Y038151D01*
X014621Y038151D02*
X014581Y038151D01*
X014581Y038310D02*
X014621Y038310D01*
X014621Y038468D02*
X014581Y038468D01*
X014936Y038944D02*
X037915Y038944D01*
X037874Y038785D02*
X015081Y038785D01*
X015081Y038627D02*
X037874Y038627D01*
X037896Y038468D02*
X037433Y038468D01*
X037592Y038310D02*
X037962Y038310D01*
X038070Y038151D02*
X037596Y038151D01*
X037596Y037993D02*
X038235Y037993D01*
X037534Y037834D02*
X039077Y037834D01*
X039077Y037676D02*
X037376Y037676D01*
X036826Y037676D02*
X036584Y037676D01*
X036658Y037358D02*
X039077Y037358D01*
X039077Y037200D02*
X036869Y037200D01*
X037028Y037041D02*
X039077Y037041D01*
X039077Y036883D02*
X037186Y036883D01*
X037331Y036724D02*
X039077Y036724D01*
X039077Y036566D02*
X037361Y036566D01*
X037361Y036407D02*
X039077Y036407D01*
X039077Y036249D02*
X037361Y036249D01*
X037361Y036090D02*
X039077Y036090D01*
X039077Y035932D02*
X037361Y035932D01*
X037361Y035773D02*
X039077Y035773D01*
X039077Y035614D02*
X037361Y035614D01*
X037446Y035456D02*
X039077Y035456D01*
X039077Y035297D02*
X037596Y035297D01*
X037596Y035139D02*
X039077Y035139D01*
X039077Y034980D02*
X037596Y034980D01*
X037522Y034822D02*
X039077Y034822D01*
X039077Y034663D02*
X037363Y034663D01*
X037101Y035101D02*
X037101Y036601D01*
X036601Y037101D01*
X015101Y037101D01*
X018101Y037676D02*
X018101Y037676D01*
X018101Y037834D02*
X018101Y037834D01*
X018101Y037993D02*
X018101Y037993D01*
X018541Y036724D02*
X032161Y036724D01*
X032161Y036566D02*
X031005Y036566D01*
X031119Y036407D02*
X032172Y036407D01*
X032331Y036249D02*
X031161Y036249D01*
X031150Y036090D02*
X032251Y036090D01*
X032092Y035932D02*
X031080Y035932D01*
X029883Y035773D02*
X028318Y035773D01*
X028520Y035932D02*
X029681Y035932D01*
X029611Y036090D02*
X028590Y036090D01*
X028601Y036249D02*
X029601Y036249D01*
X029643Y036407D02*
X028559Y036407D01*
X028445Y036566D02*
X029757Y036566D01*
X029968Y037523D02*
X030043Y037511D01*
X030361Y037511D01*
X030361Y037971D01*
X030401Y037971D01*
X030401Y038011D01*
X030361Y038011D01*
X030361Y038471D01*
X030043Y038471D01*
X029968Y038459D01*
X029896Y038436D01*
X029829Y038401D01*
X029768Y038357D01*
X029715Y038303D01*
X029670Y038242D01*
X029636Y038175D01*
X029613Y038103D01*
X029601Y038029D01*
X029601Y038011D01*
X030361Y038011D01*
X030361Y037971D01*
X029601Y037971D01*
X029601Y037953D01*
X029613Y037878D01*
X029636Y037806D01*
X029670Y037739D01*
X029715Y037678D01*
X029768Y037625D01*
X029829Y037580D01*
X029896Y037546D01*
X029968Y037523D01*
X030004Y037517D02*
X028198Y037517D01*
X028233Y037523D02*
X028305Y037546D01*
X028372Y037580D01*
X028433Y037625D01*
X028487Y037678D01*
X028531Y037739D01*
X028566Y037806D01*
X028589Y037878D01*
X028601Y037953D01*
X028601Y037971D01*
X027841Y037971D01*
X027841Y037511D01*
X028159Y037511D01*
X028233Y037523D01*
X028484Y037676D02*
X029717Y037676D01*
X029627Y037834D02*
X028575Y037834D01*
X028601Y038011D02*
X028601Y038029D01*
X028589Y038103D01*
X028566Y038175D01*
X028531Y038242D01*
X028487Y038303D01*
X028433Y038357D01*
X028372Y038401D01*
X028305Y038436D01*
X028233Y038459D01*
X028159Y038471D01*
X027841Y038471D01*
X027841Y038011D01*
X028601Y038011D01*
X028573Y038151D02*
X029628Y038151D01*
X029721Y038310D02*
X028481Y038310D01*
X028174Y038468D02*
X030027Y038468D01*
X030361Y038468D02*
X030401Y038468D01*
X030401Y038471D02*
X030401Y038011D01*
X031161Y038011D01*
X031161Y038029D01*
X031149Y038103D01*
X031126Y038175D01*
X031091Y038242D01*
X031047Y038303D01*
X030993Y038357D01*
X030932Y038401D01*
X030865Y038436D01*
X030793Y038459D01*
X030719Y038471D01*
X030401Y038471D01*
X030401Y038310D02*
X030361Y038310D01*
X030361Y038151D02*
X030401Y038151D01*
X030401Y037993D02*
X032370Y037993D01*
X032212Y037834D02*
X031135Y037834D01*
X031126Y037806D02*
X031149Y037878D01*
X031161Y037953D01*
X031161Y037971D01*
X030401Y037971D01*
X030401Y037511D01*
X030719Y037511D01*
X030793Y037523D01*
X030865Y037546D01*
X030932Y037580D01*
X030993Y037625D01*
X031047Y037678D01*
X031091Y037739D01*
X031126Y037806D01*
X031044Y037676D02*
X032161Y037676D01*
X032161Y037517D02*
X030758Y037517D01*
X030401Y037517D02*
X030361Y037517D01*
X030361Y037676D02*
X030401Y037676D01*
X030401Y037834D02*
X030361Y037834D01*
X030361Y037993D02*
X027841Y037993D01*
X027801Y037993D02*
X022901Y037993D01*
X022861Y037971D02*
X022861Y037511D01*
X022543Y037511D01*
X022468Y037523D01*
X022396Y037546D01*
X022329Y037580D01*
X022268Y037625D01*
X022215Y037678D01*
X022170Y037739D01*
X022136Y037806D01*
X022113Y037878D01*
X022101Y037953D01*
X022101Y037971D01*
X022861Y037971D01*
X022861Y037834D02*
X022901Y037834D01*
X022901Y037676D02*
X022861Y037676D01*
X022861Y037517D02*
X022901Y037517D01*
X022504Y037517D02*
X020698Y037517D01*
X020984Y037676D02*
X022217Y037676D01*
X022127Y037834D02*
X021075Y037834D01*
X021073Y038151D02*
X022128Y038151D01*
X022221Y038310D02*
X020981Y038310D01*
X020674Y038468D02*
X022527Y038468D01*
X022257Y036566D02*
X020945Y036566D01*
X020893Y036618D02*
X020716Y036691D01*
X019925Y036691D01*
X019749Y036618D01*
X019614Y036483D01*
X019541Y036306D01*
X019541Y036115D01*
X019614Y035939D01*
X019749Y035804D01*
X019925Y035731D01*
X020716Y035731D01*
X020893Y035804D01*
X021028Y035939D01*
X021101Y036115D01*
X021101Y036306D01*
X021028Y036483D01*
X020893Y036618D01*
X021059Y036407D02*
X022143Y036407D01*
X022101Y036249D02*
X021101Y036249D01*
X021090Y036090D02*
X022111Y036090D01*
X022181Y035932D02*
X021020Y035932D01*
X020818Y035773D02*
X022383Y035773D01*
X019823Y035773D02*
X018441Y035773D01*
X018441Y035614D02*
X026361Y035614D01*
X026361Y035456D02*
X018676Y035456D01*
X018797Y035297D02*
X026361Y035297D01*
X026921Y034980D02*
X027780Y034980D01*
X027622Y034822D02*
X027080Y034822D01*
X027096Y034663D02*
X027606Y034663D01*
X027606Y034505D02*
X027096Y034505D01*
X027046Y034346D02*
X027655Y034346D01*
X027814Y034188D02*
X026888Y034188D01*
X028421Y034980D02*
X029611Y034980D01*
X029611Y034822D02*
X028580Y034822D01*
X028596Y034663D02*
X029611Y034663D01*
X029611Y034505D02*
X028596Y034505D01*
X028695Y034346D02*
X029611Y034346D01*
X029611Y034188D02*
X028853Y034188D01*
X029012Y034029D02*
X029611Y034029D01*
X029611Y033871D02*
X029170Y033871D01*
X029329Y033712D02*
X029611Y033712D01*
X029611Y033553D02*
X029488Y033553D01*
X029646Y033395D02*
X029721Y033395D01*
X029805Y033236D02*
X029965Y033236D01*
X029963Y033078D02*
X030203Y033078D01*
X030122Y032919D02*
X030440Y032919D01*
X030280Y032761D02*
X030678Y032761D01*
X030916Y032602D02*
X030439Y032602D01*
X030597Y032444D02*
X031028Y032444D01*
X031705Y033236D02*
X039077Y033236D01*
X039077Y033395D02*
X031467Y033395D01*
X031229Y033553D02*
X039077Y033553D01*
X039077Y033712D02*
X030992Y033712D01*
X030754Y033871D02*
X039077Y033871D01*
X039077Y034029D02*
X030591Y034029D01*
X030591Y034188D02*
X030814Y034188D01*
X030655Y034346D02*
X030591Y034346D01*
X030591Y034505D02*
X030606Y034505D01*
X030591Y034663D02*
X030606Y034663D01*
X031101Y034601D02*
X034101Y034601D01*
X034101Y035101D01*
X034101Y034601D02*
X036601Y034601D01*
X037101Y035101D01*
X036872Y034505D02*
X039077Y034505D01*
X039077Y034346D02*
X036665Y034346D01*
X039077Y034188D02*
X031388Y034188D01*
X033108Y037517D02*
X035161Y037517D01*
X035161Y037676D02*
X034376Y037676D01*
X034534Y037834D02*
X035212Y037834D01*
X035370Y037993D02*
X034596Y037993D01*
X034596Y038151D02*
X036493Y038151D01*
X036610Y038310D02*
X034592Y038310D01*
X034433Y038468D02*
X036768Y038468D01*
X036018Y037993D02*
X035831Y037993D01*
X036108Y037517D02*
X039077Y037517D01*
X033826Y037676D02*
X033584Y037676D01*
X033493Y038151D02*
X031133Y038151D01*
X031041Y038310D02*
X033610Y038310D01*
X033768Y038468D02*
X030734Y038468D01*
X032831Y037993D02*
X033018Y037993D01*
X027841Y038151D02*
X027801Y038151D01*
X027801Y038310D02*
X027841Y038310D01*
X027841Y038468D02*
X027801Y038468D01*
X027801Y037834D02*
X027841Y037834D01*
X027841Y037676D02*
X027801Y037676D01*
X027801Y037517D02*
X027841Y037517D01*
X029350Y029431D02*
X035963Y029431D01*
X035898Y028797D02*
X036030Y028743D01*
X036172Y028743D01*
X036304Y028797D01*
X019621Y035932D02*
X018441Y035932D01*
X018441Y036090D02*
X019551Y036090D01*
X019541Y036249D02*
X018441Y036249D01*
X018529Y036407D02*
X019583Y036407D01*
X019697Y036566D02*
X018541Y036566D01*
X017265Y032444D02*
X016937Y032444D01*
X017081Y032285D02*
X017121Y032285D01*
X016265Y032444D02*
X015937Y032444D01*
X016081Y032285D02*
X016121Y032285D01*
X015265Y032444D02*
X014937Y032444D01*
X015081Y032285D02*
X015121Y032285D01*
X014861Y031651D02*
X014830Y031651D01*
X008901Y037834D02*
X007513Y037834D01*
X007581Y037993D02*
X008832Y037993D01*
X008823Y038151D02*
X007581Y038151D01*
X007571Y038310D02*
X008869Y038310D01*
X008990Y038468D02*
X007412Y038468D01*
X006789Y038468D02*
X005412Y038468D01*
X005571Y038310D02*
X006631Y038310D01*
X006621Y038151D02*
X005581Y038151D01*
X005581Y037993D02*
X006621Y037993D01*
X006689Y037834D02*
X005513Y037834D01*
X005354Y037676D02*
X006847Y037676D01*
X008305Y034505D02*
X000494Y034505D01*
X000494Y034346D02*
X008146Y034346D01*
X008106Y034188D02*
X000494Y034188D01*
X000494Y034029D02*
X008106Y034029D01*
X008131Y033871D02*
X000494Y033871D01*
X000494Y033712D02*
X008290Y033712D01*
X010333Y038310D02*
X011784Y038310D01*
X001658Y023248D02*
X000494Y023248D01*
X000494Y023090D02*
X001472Y023090D01*
X001354Y022931D02*
X000494Y022931D01*
X000494Y022772D02*
X001288Y022772D01*
X001259Y022614D02*
X000494Y022614D01*
X000494Y022455D02*
X001259Y022455D01*
X001294Y022297D02*
X000494Y022297D01*
X000494Y022138D02*
X001360Y022138D01*
X001486Y021980D02*
X000494Y021980D01*
X000494Y021821D02*
X001692Y021821D01*
D23*
X004101Y007101D02*
X005101Y007101D01*
X004101Y007101D02*
X004101Y005601D01*
X004101Y004808D01*
X004247Y004454D02*
X004601Y004101D01*
X007120Y004101D01*
X007473Y003954D02*
X008965Y002463D01*
X009101Y004101D02*
X011057Y004101D01*
X011410Y003954D02*
X012902Y002463D01*
X013601Y004101D02*
X015394Y004101D01*
X015747Y003954D02*
X016101Y003601D01*
X016601Y002908D01*
X016747Y002555D02*
X016839Y002463D01*
X016747Y002554D02*
X016718Y002587D01*
X016691Y002621D01*
X016668Y002658D01*
X016648Y002697D01*
X016631Y002737D01*
X016618Y002779D01*
X016609Y002821D01*
X016603Y002864D01*
X016601Y002908D01*
X015748Y003955D02*
X015715Y003984D01*
X015681Y004011D01*
X015644Y004034D01*
X015605Y004054D01*
X015565Y004071D01*
X015523Y004084D01*
X015481Y004093D01*
X015438Y004099D01*
X015394Y004101D01*
X015101Y005601D02*
X014101Y005601D01*
X013101Y004808D02*
X013103Y004764D01*
X013109Y004721D01*
X013118Y004679D01*
X013131Y004637D01*
X013148Y004597D01*
X013168Y004558D01*
X013191Y004521D01*
X013218Y004487D01*
X013247Y004454D01*
X013601Y004101D01*
X013101Y004808D02*
X013101Y005601D01*
X013101Y007101D01*
X014101Y007101D01*
X015101Y007101D02*
X015101Y005601D01*
X017601Y005601D02*
X017601Y004808D01*
X017747Y004454D02*
X018101Y004101D01*
X019394Y004101D01*
X019747Y003954D02*
X020601Y003101D01*
X020601Y002845D01*
X020747Y002492D02*
X020776Y002463D01*
X020747Y002491D02*
X020718Y002524D01*
X020691Y002558D01*
X020668Y002595D01*
X020648Y002634D01*
X020631Y002674D01*
X020618Y002716D01*
X020609Y002758D01*
X020603Y002801D01*
X020601Y002845D01*
X019748Y003955D02*
X019715Y003984D01*
X019681Y004011D01*
X019644Y004034D01*
X019605Y004054D01*
X019565Y004071D01*
X019523Y004084D01*
X019481Y004093D01*
X019438Y004099D01*
X019394Y004101D01*
X017747Y004454D02*
X017718Y004487D01*
X017691Y004521D01*
X017668Y004558D01*
X017648Y004597D01*
X017631Y004637D01*
X017618Y004679D01*
X017609Y004721D01*
X017603Y004764D01*
X017601Y004808D01*
X017601Y005601D02*
X017601Y007101D01*
X018601Y007101D01*
X019601Y007101D02*
X019601Y005601D01*
X018601Y005601D01*
X022101Y005601D02*
X022101Y005282D01*
X022101Y005601D02*
X022101Y007101D01*
X023101Y007101D01*
X024101Y007101D02*
X024101Y005601D01*
X023101Y005601D01*
X022101Y005282D02*
X022103Y005238D01*
X022109Y005195D01*
X022118Y005153D01*
X022131Y005111D01*
X022148Y005071D01*
X022168Y005032D01*
X022191Y004995D01*
X022218Y004961D01*
X022247Y004928D01*
X022247Y004929D02*
X024713Y002463D01*
X026747Y004954D02*
X028601Y003101D01*
X028601Y002581D01*
X028602Y002559D01*
X028607Y002538D01*
X028614Y002517D01*
X028623Y002498D01*
X028636Y002479D01*
X028650Y002463D01*
X031247Y004454D02*
X032601Y003101D01*
X032601Y002497D01*
X032599Y002485D01*
X032595Y002473D01*
X032587Y002463D01*
X031247Y004454D02*
X031218Y004487D01*
X031191Y004521D01*
X031168Y004558D01*
X031148Y004597D01*
X031131Y004637D01*
X031118Y004679D01*
X031109Y004721D01*
X031103Y004764D01*
X031101Y004808D01*
X031101Y005601D01*
X031101Y007101D01*
X032101Y007101D01*
X033101Y007101D02*
X033101Y005601D01*
X032101Y005601D01*
X035601Y005601D02*
X035601Y004808D01*
X035747Y004454D02*
X036601Y003601D01*
X036601Y002649D01*
X036601Y002540D02*
X036524Y002463D01*
X036544Y002485D01*
X036561Y002509D01*
X036575Y002535D01*
X036586Y002562D01*
X036594Y002590D01*
X036599Y002620D01*
X036601Y002649D01*
X035747Y004454D02*
X035718Y004487D01*
X035691Y004521D01*
X035668Y004558D01*
X035648Y004597D01*
X035631Y004637D01*
X035618Y004679D01*
X035609Y004721D01*
X035603Y004764D01*
X035601Y004808D01*
X035601Y005601D02*
X035601Y007101D01*
X036601Y007101D01*
X037601Y007101D02*
X037601Y005601D01*
X036601Y005601D01*
X028601Y005601D02*
X028601Y007101D01*
X027601Y007101D02*
X026601Y007101D01*
X026601Y005601D01*
X026601Y005308D01*
X026603Y005264D01*
X026609Y005221D01*
X026618Y005179D01*
X026631Y005137D01*
X026648Y005097D01*
X026668Y005058D01*
X026691Y005021D01*
X026718Y004987D01*
X026747Y004954D01*
X027601Y005601D02*
X028601Y005601D01*
X011411Y003955D02*
X011378Y003984D01*
X011344Y004011D01*
X011307Y004034D01*
X011268Y004054D01*
X011228Y004071D01*
X011186Y004084D01*
X011144Y004093D01*
X011101Y004099D01*
X011057Y004101D01*
X010601Y005601D02*
X009601Y005601D01*
X008601Y004808D02*
X008603Y004764D01*
X008609Y004721D01*
X008618Y004679D01*
X008631Y004637D01*
X008648Y004597D01*
X008668Y004558D01*
X008691Y004521D01*
X008718Y004487D01*
X008747Y004454D01*
X009101Y004101D01*
X008601Y004808D02*
X008601Y005601D01*
X008601Y007101D01*
X009601Y007101D01*
X010601Y007101D02*
X010601Y005601D01*
X007474Y003955D02*
X007441Y003984D01*
X007407Y004011D01*
X007370Y004034D01*
X007331Y004054D01*
X007291Y004071D01*
X007249Y004084D01*
X007207Y004093D01*
X007164Y004099D01*
X007120Y004101D01*
X006101Y005601D02*
X006101Y007101D01*
X006101Y005601D02*
X005101Y005601D01*
X004101Y004808D02*
X004103Y004764D01*
X004109Y004721D01*
X004118Y004679D01*
X004131Y004637D01*
X004148Y004597D01*
X004168Y004558D01*
X004191Y004521D01*
X004218Y004487D01*
X004247Y004454D01*
D24*
X015351Y018601D02*
X032601Y018601D01*
X032851Y019101D01*
X032851Y020851D01*
X033601Y023101D02*
X030851Y023101D01*
X030601Y022851D01*
X030601Y020101D01*
X030351Y020351D02*
X030351Y023601D01*
X030601Y023851D01*
X032851Y023851D01*
X033601Y023101D02*
X033851Y023351D01*
X033851Y023851D01*
X034851Y024351D02*
X035101Y024601D01*
X035101Y027601D01*
X035601Y028101D02*
X025601Y028101D01*
X024851Y028851D01*
X024851Y029101D01*
X024601Y029601D02*
X027101Y029601D01*
X027601Y030101D01*
X033601Y030101D01*
X033851Y030351D01*
X033101Y031601D02*
X033101Y032601D01*
X032601Y032101D02*
X030601Y032101D01*
X028101Y034601D01*
X026601Y034601D02*
X026601Y035851D01*
X026351Y036101D01*
X023351Y036101D01*
X022881Y036211D01*
X021851Y032101D02*
X021601Y032101D01*
X021851Y032101D02*
X022101Y031851D01*
X022101Y028601D01*
X022101Y020851D01*
X022851Y020101D01*
X022851Y019601D01*
X021851Y019601D02*
X021851Y020601D01*
X021601Y020851D01*
X021601Y028601D01*
X021601Y030101D01*
X021101Y030601D01*
X021101Y031851D01*
X020851Y032101D01*
X020601Y032101D01*
X020101Y031851D02*
X020101Y030851D01*
X021101Y029851D01*
X021101Y028601D01*
X021101Y020851D01*
X020851Y020601D01*
X020851Y019601D01*
X019851Y019601D02*
X019851Y020601D01*
X020601Y021351D01*
X020601Y028601D01*
X020601Y029851D01*
X019851Y030601D01*
X019351Y030601D01*
X019101Y030851D01*
X019101Y031851D01*
X018851Y032101D01*
X018601Y032101D01*
X018101Y031851D02*
X018101Y030851D01*
X018601Y030351D01*
X019601Y030351D01*
X020101Y029851D01*
X020101Y028601D01*
X020101Y021851D01*
X018851Y020601D01*
X018851Y019601D01*
X017851Y019601D02*
X017851Y020601D01*
X019601Y022351D01*
X019601Y028601D01*
X019601Y029851D01*
X019351Y030101D01*
X017351Y030101D01*
X017101Y030351D01*
X017101Y031851D01*
X016851Y032101D01*
X016601Y032101D01*
X016101Y031851D02*
X016101Y030101D01*
X016351Y029851D01*
X018851Y029851D01*
X019101Y029601D01*
X019101Y028601D01*
X019101Y022851D01*
X016851Y020601D01*
X016851Y019601D01*
X015851Y019601D02*
X015851Y020601D01*
X018601Y023351D01*
X018601Y028601D01*
X018601Y029351D01*
X018351Y029601D01*
X015601Y029601D01*
X015101Y030101D01*
X015101Y031851D01*
X014851Y032101D01*
X014601Y032101D01*
X015601Y032101D02*
X015851Y032101D01*
X016101Y031851D01*
X017601Y032101D02*
X017851Y032101D01*
X018101Y031851D01*
X019601Y032101D02*
X019851Y032101D01*
X020101Y031851D01*
X022851Y030101D02*
X022851Y029851D01*
X023101Y029601D01*
X024101Y029601D01*
X024351Y029351D01*
X024351Y027851D01*
X025351Y026851D01*
X034101Y026851D01*
X034351Y027101D01*
X034351Y027601D01*
X036101Y029101D02*
X025851Y029101D01*
X024601Y029601D02*
X024101Y030101D01*
X023851Y030101D01*
X024851Y030101D02*
X024851Y030851D01*
X025101Y031101D01*
X032601Y031101D01*
X033101Y031601D01*
X031851Y032601D02*
X031851Y032851D01*
X030351Y033851D01*
X030351Y034851D01*
X030601Y035101D01*
X032601Y035101D01*
X033101Y035601D01*
X035101Y035601D01*
X035601Y036101D01*
X035601Y036601D01*
X035601Y037601D02*
X037101Y038101D01*
X034101Y038101D02*
X032601Y037601D01*
X032601Y036601D02*
X032601Y036101D01*
X032101Y035601D01*
X030101Y035601D01*
X029851Y035351D01*
X029851Y033601D01*
X031351Y032601D01*
X026601Y025851D02*
X025101Y025851D01*
X023851Y028101D01*
X023851Y029101D01*
X026601Y025851D02*
X028101Y024601D01*
X030351Y024601D01*
X030601Y024351D01*
X034851Y024351D01*
X030351Y020351D02*
X030101Y020101D01*
X015351Y018601D02*
X014851Y019101D01*
X014851Y019601D01*
X011601Y028601D02*
X011601Y031851D01*
X011351Y032101D01*
X011101Y032101D01*
X010601Y031851D02*
X010601Y030601D01*
X011101Y028601D01*
X010601Y028601D02*
X010101Y029601D01*
X009601Y030851D01*
X009601Y031851D01*
X009351Y032101D01*
X009101Y032101D01*
X008601Y031851D02*
X008601Y030601D01*
X010101Y028601D01*
X009601Y028601D02*
X007601Y030601D01*
X007601Y031851D01*
X007351Y032101D02*
X007101Y032101D01*
X006601Y031851D02*
X006601Y030601D01*
X008601Y029101D01*
X009101Y028601D01*
X008601Y028601D02*
X008101Y029101D01*
X005601Y030601D01*
X005601Y031851D01*
X005351Y032101D01*
X005101Y032101D01*
X004601Y031851D02*
X004601Y028851D01*
X004851Y028601D01*
X008101Y028601D01*
X008601Y031851D02*
X008351Y032101D01*
X008101Y032101D01*
X006601Y031851D02*
X006351Y032101D01*
X006101Y032101D01*
X004601Y031851D02*
X004351Y032101D01*
X004101Y032101D01*
X010101Y032101D02*
X010351Y032101D01*
X010601Y031851D01*
D25*
X010601Y028601D03*
X010101Y028601D03*
X009601Y028601D03*
X009101Y028601D03*
X008601Y028601D03*
X008101Y028601D03*
X011101Y028601D03*
X011601Y028601D03*
X010851Y021851D03*
X018601Y028601D03*
X019101Y028601D03*
X019601Y028601D03*
X020101Y028601D03*
X020601Y028601D03*
X021101Y028601D03*
X021601Y028601D03*
X022101Y028601D03*
X030101Y020101D03*
X030601Y020101D03*
X034351Y027601D03*
X035101Y027601D03*
X035601Y028101D03*
X036101Y029101D03*
X033851Y030351D03*
X032601Y032101D03*
X033101Y032601D03*
X031851Y032601D03*
X031351Y032601D03*
X003101Y015351D03*
X003101Y013851D03*
D26*
X010851Y021851D02*
X013601Y021851D01*
X015351Y020101D01*
X015351Y019101D01*
X015601Y018851D01*
X027351Y018851D01*
X027351Y021351D01*
X026975Y003596D02*
X025300Y003596D01*
X025510Y003385D01*
X025653Y003040D01*
X025653Y001886D01*
X025510Y001541D01*
X025245Y001276D01*
X024900Y001133D01*
X024526Y001133D01*
X024180Y001276D01*
X023916Y001541D01*
X023773Y001886D01*
X023773Y002272D01*
X023273Y002772D01*
X023273Y002513D01*
X022783Y002513D01*
X022783Y002413D01*
X023273Y002413D01*
X023273Y002030D01*
X023259Y001946D01*
X023233Y001866D01*
X023195Y001790D01*
X023145Y001721D01*
X023085Y001661D01*
X023016Y001611D01*
X022940Y001573D01*
X022859Y001546D01*
X022783Y001534D01*
X022783Y002413D01*
X022683Y002413D01*
X022683Y001534D01*
X022606Y001546D01*
X022526Y001573D01*
X022450Y001611D01*
X022381Y001661D01*
X022321Y001721D01*
X022271Y001790D01*
X022232Y001866D01*
X022206Y001946D01*
X022193Y002030D01*
X022193Y002413D01*
X022683Y002413D01*
X022683Y002513D01*
X022193Y002513D01*
X022193Y002895D01*
X022206Y002979D01*
X022232Y003060D01*
X022271Y003136D01*
X022321Y003205D01*
X022381Y003265D01*
X022450Y003315D01*
X022526Y003353D01*
X022606Y003380D01*
X022657Y003388D01*
X022449Y003595D01*
X021363Y003595D01*
X021573Y003385D01*
X021716Y003040D01*
X021716Y001886D01*
X021573Y001541D01*
X021308Y001276D01*
X020963Y001133D01*
X020589Y001133D01*
X020243Y001276D01*
X019979Y001541D01*
X019836Y001886D01*
X019836Y002543D01*
X019801Y002674D01*
X019801Y002674D01*
X019801Y002686D01*
X019801Y002686D01*
X019801Y002769D01*
X019269Y003301D01*
X019234Y003301D01*
X019098Y003301D01*
X019148Y003265D01*
X019208Y003205D01*
X019258Y003136D01*
X019296Y003060D01*
X019322Y002979D01*
X019336Y002895D01*
X019336Y002513D01*
X018846Y002513D01*
X018846Y002413D01*
X019336Y002413D01*
X019336Y002030D01*
X019322Y001946D01*
X019296Y001866D01*
X019258Y001790D01*
X019208Y001721D01*
X019148Y001661D01*
X019079Y001611D01*
X019003Y001573D01*
X018922Y001546D01*
X018846Y001534D01*
X018846Y002413D01*
X018746Y002413D01*
X018746Y001534D01*
X018669Y001546D01*
X018589Y001573D01*
X018513Y001611D01*
X018444Y001661D01*
X018384Y001721D01*
X018334Y001790D01*
X018295Y001866D01*
X018269Y001946D01*
X018256Y002030D01*
X018256Y002413D01*
X018746Y002413D01*
X018746Y002513D01*
X018256Y002513D01*
X018256Y002895D01*
X018269Y002979D01*
X018295Y003060D01*
X018334Y003136D01*
X018384Y003205D01*
X018444Y003265D01*
X018494Y003301D01*
X017942Y003301D01*
X017648Y003423D01*
X017475Y003595D01*
X017426Y003595D01*
X017636Y003385D01*
X017779Y003040D01*
X017779Y001886D01*
X017636Y001541D01*
X017371Y001276D01*
X017026Y001133D01*
X016652Y001133D01*
X016306Y001276D01*
X016042Y001541D01*
X015899Y001886D01*
X015899Y002390D01*
X015889Y002406D01*
X015889Y002406D01*
X015838Y002598D01*
X015490Y003080D01*
X015269Y003301D01*
X015234Y003301D01*
X015161Y003301D01*
X015211Y003265D01*
X015271Y003205D01*
X015321Y003136D01*
X015359Y003060D01*
X015385Y002979D01*
X015399Y002895D01*
X015399Y002513D01*
X014909Y002513D01*
X014909Y002413D01*
X015399Y002413D01*
X015399Y002030D01*
X015385Y001946D01*
X015359Y001866D01*
X015321Y001790D01*
X015271Y001721D01*
X015211Y001661D01*
X015142Y001611D01*
X015066Y001573D01*
X014985Y001546D01*
X014909Y001534D01*
X014909Y002413D01*
X014809Y002413D01*
X014809Y001534D01*
X014732Y001546D01*
X014651Y001573D01*
X014576Y001611D01*
X014507Y001661D01*
X014447Y001721D01*
X014397Y001790D01*
X014358Y001866D01*
X014332Y001946D01*
X014319Y002030D01*
X014319Y002413D01*
X014809Y002413D01*
X014809Y002513D01*
X014319Y002513D01*
X014319Y002895D01*
X014332Y002979D01*
X014358Y003060D01*
X014397Y003136D01*
X014447Y003205D01*
X014507Y003265D01*
X014557Y003301D01*
X013734Y003301D01*
X013842Y003040D01*
X013842Y001886D01*
X013699Y001541D01*
X013434Y001276D01*
X013089Y001133D01*
X012715Y001133D01*
X012369Y001276D01*
X012105Y001541D01*
X011962Y001886D01*
X011962Y002272D01*
X011462Y002772D01*
X011462Y002513D01*
X010972Y002513D01*
X010972Y002413D01*
X011462Y002413D01*
X011462Y002030D01*
X011448Y001946D01*
X011422Y001866D01*
X011384Y001790D01*
X011334Y001721D01*
X011274Y001661D01*
X011205Y001611D01*
X011129Y001573D01*
X011048Y001546D01*
X010972Y001534D01*
X010972Y002413D01*
X010872Y002413D01*
X010872Y001534D01*
X010795Y001546D01*
X010714Y001573D01*
X010639Y001611D01*
X010570Y001661D01*
X010510Y001721D01*
X010460Y001790D01*
X010421Y001866D01*
X010395Y001946D01*
X010382Y002030D01*
X010382Y002413D01*
X010872Y002413D01*
X010872Y002513D01*
X010382Y002513D01*
X010382Y002895D01*
X010395Y002979D01*
X010421Y003060D01*
X010460Y003136D01*
X010510Y003205D01*
X010570Y003265D01*
X010620Y003301D01*
X009797Y003301D01*
X009905Y003040D01*
X009905Y001886D01*
X009762Y001541D01*
X009497Y001276D01*
X009152Y001133D01*
X008778Y001133D01*
X008432Y001276D01*
X008168Y001541D01*
X008025Y001886D01*
X008025Y002272D01*
X007525Y002772D01*
X007525Y002513D01*
X007035Y002513D01*
X007035Y002413D01*
X007525Y002413D01*
X007525Y002030D01*
X007511Y001946D01*
X007485Y001866D01*
X007447Y001790D01*
X007397Y001721D01*
X007337Y001661D01*
X007268Y001611D01*
X007192Y001573D01*
X007111Y001546D01*
X007035Y001534D01*
X007035Y002413D01*
X006935Y002413D01*
X006935Y001534D01*
X006858Y001546D01*
X006777Y001573D01*
X006702Y001611D01*
X006633Y001661D01*
X006573Y001721D01*
X006523Y001790D01*
X006484Y001866D01*
X006458Y001946D01*
X006445Y002030D01*
X006445Y002413D01*
X006935Y002413D01*
X006935Y002513D01*
X006445Y002513D01*
X006445Y002895D01*
X006458Y002979D01*
X006484Y003060D01*
X006523Y003136D01*
X006573Y003205D01*
X006633Y003265D01*
X006683Y003301D01*
X005330Y003301D01*
X005380Y003265D01*
X005440Y003205D01*
X005490Y003136D01*
X005528Y003060D01*
X005554Y002979D01*
X005568Y002895D01*
X005568Y002513D01*
X005078Y002513D01*
X005078Y002413D01*
X005568Y002413D01*
X005568Y002030D01*
X005554Y001946D01*
X005528Y001866D01*
X005490Y001790D01*
X005440Y001721D01*
X005380Y001661D01*
X005311Y001611D01*
X005235Y001573D01*
X005154Y001546D01*
X005078Y001534D01*
X005078Y002413D01*
X004978Y002413D01*
X004978Y001534D01*
X004901Y001546D01*
X004820Y001573D01*
X004745Y001611D01*
X004676Y001661D01*
X004616Y001721D01*
X004566Y001790D01*
X004527Y001866D01*
X004501Y001946D01*
X004488Y002030D01*
X004488Y002413D01*
X004978Y002413D01*
X004978Y002513D01*
X004488Y002513D01*
X004488Y002895D01*
X004501Y002979D01*
X004527Y003060D01*
X004566Y003136D01*
X004616Y003205D01*
X004676Y003265D01*
X004726Y003301D01*
X004442Y003301D01*
X004148Y003423D01*
X004087Y003483D01*
X004094Y000941D01*
X037452Y000939D01*
X037488Y003596D01*
X037401Y003596D01*
X037401Y003192D01*
X037464Y003040D01*
X037464Y001886D01*
X037321Y001541D01*
X037056Y001276D01*
X036711Y001133D01*
X036337Y001133D01*
X035991Y001276D01*
X035727Y001541D01*
X035584Y001886D01*
X035584Y003040D01*
X035715Y003356D01*
X035474Y003596D01*
X033237Y003596D01*
X033279Y003554D01*
X033324Y003445D01*
X033384Y003385D01*
X033527Y003040D01*
X033527Y001886D01*
X033384Y001541D01*
X033119Y001276D01*
X032774Y001133D01*
X032400Y001133D01*
X032054Y001276D01*
X031790Y001541D01*
X031647Y001886D01*
X031647Y002923D01*
X030974Y003596D01*
X029237Y003596D01*
X029279Y003554D01*
X029280Y003553D01*
X029447Y003385D01*
X029590Y003040D01*
X029590Y001886D01*
X029447Y001541D01*
X029182Y001276D01*
X028837Y001133D01*
X028463Y001133D01*
X028117Y001276D01*
X027853Y001541D01*
X027710Y001886D01*
X027710Y002860D01*
X027210Y002860D01*
X027210Y002895D02*
X027196Y002979D01*
X027170Y003060D01*
X027132Y003136D01*
X027082Y003205D01*
X027022Y003265D01*
X026953Y003315D01*
X026877Y003353D01*
X026796Y003380D01*
X026720Y003392D01*
X026720Y002513D01*
X027210Y002513D01*
X027210Y002895D01*
X027200Y002959D02*
X027612Y002959D01*
X027710Y002860D02*
X026975Y003596D01*
X027020Y003550D02*
X025345Y003550D01*
X025444Y003451D02*
X027119Y003451D01*
X027217Y003353D02*
X026878Y003353D01*
X026720Y003353D02*
X026620Y003353D01*
X026620Y003392D02*
X026543Y003380D01*
X026463Y003353D01*
X026387Y003315D01*
X026318Y003265D01*
X026258Y003205D01*
X026208Y003136D01*
X026169Y003060D01*
X026143Y002979D01*
X026130Y002895D01*
X026130Y002513D01*
X026620Y002513D01*
X026620Y003392D01*
X026620Y003254D02*
X026720Y003254D01*
X026720Y003156D02*
X026620Y003156D01*
X026620Y003057D02*
X026720Y003057D01*
X026720Y002959D02*
X026620Y002959D01*
X026620Y002860D02*
X026720Y002860D01*
X026720Y002761D02*
X026620Y002761D01*
X026620Y002663D02*
X026720Y002663D01*
X026720Y002564D02*
X026620Y002564D01*
X026620Y002513D02*
X026720Y002513D01*
X026720Y002413D01*
X027210Y002413D01*
X027210Y002030D01*
X027196Y001946D01*
X027170Y001866D01*
X027132Y001790D01*
X027082Y001721D01*
X027022Y001661D01*
X026953Y001611D01*
X026877Y001573D01*
X026796Y001546D01*
X026720Y001534D01*
X026720Y002413D01*
X026620Y002413D01*
X026620Y001534D01*
X026543Y001546D01*
X026463Y001573D01*
X026387Y001611D01*
X026318Y001661D01*
X026258Y001721D01*
X026208Y001790D01*
X026169Y001866D01*
X026143Y001946D01*
X026130Y002030D01*
X026130Y002413D01*
X026620Y002413D01*
X026620Y002513D01*
X026620Y002466D02*
X025653Y002466D01*
X025653Y002564D02*
X026130Y002564D01*
X026130Y002663D02*
X025653Y002663D01*
X025653Y002761D02*
X026130Y002761D01*
X026130Y002860D02*
X025653Y002860D01*
X025653Y002959D02*
X026140Y002959D01*
X026168Y003057D02*
X025646Y003057D01*
X025605Y003156D02*
X026222Y003156D01*
X026307Y003254D02*
X025564Y003254D01*
X025523Y003353D02*
X026461Y003353D01*
X027032Y003254D02*
X027316Y003254D01*
X027415Y003156D02*
X027117Y003156D01*
X027171Y003057D02*
X027513Y003057D01*
X027710Y002761D02*
X027210Y002761D01*
X027210Y002663D02*
X027710Y002663D01*
X027710Y002564D02*
X027210Y002564D01*
X027210Y002367D02*
X027710Y002367D01*
X027710Y002269D02*
X027210Y002269D01*
X027210Y002170D02*
X027710Y002170D01*
X027710Y002072D02*
X027210Y002072D01*
X027201Y001973D02*
X027710Y001973D01*
X027715Y001875D02*
X027173Y001875D01*
X027121Y001776D02*
X027755Y001776D01*
X027796Y001677D02*
X027038Y001677D01*
X026890Y001579D02*
X027837Y001579D01*
X027913Y001480D02*
X025450Y001480D01*
X025526Y001579D02*
X026450Y001579D01*
X026620Y001579D02*
X026720Y001579D01*
X026720Y001677D02*
X026620Y001677D01*
X026620Y001776D02*
X026720Y001776D01*
X026720Y001875D02*
X026620Y001875D01*
X026620Y001973D02*
X026720Y001973D01*
X026720Y002072D02*
X026620Y002072D01*
X026620Y002170D02*
X026720Y002170D01*
X026720Y002269D02*
X026620Y002269D01*
X026620Y002367D02*
X026720Y002367D01*
X026720Y002466D02*
X027710Y002466D01*
X028012Y001382D02*
X025351Y001382D01*
X025252Y001283D02*
X028110Y001283D01*
X028338Y001185D02*
X025025Y001185D01*
X025566Y001677D02*
X026302Y001677D01*
X026218Y001776D02*
X025607Y001776D01*
X025648Y001875D02*
X026166Y001875D01*
X026139Y001973D02*
X025653Y001973D01*
X025653Y002072D02*
X026130Y002072D01*
X026130Y002170D02*
X025653Y002170D01*
X025653Y002269D02*
X026130Y002269D01*
X026130Y002367D02*
X025653Y002367D01*
X024401Y001185D02*
X021088Y001185D01*
X021315Y001283D02*
X024173Y001283D01*
X024075Y001382D02*
X021414Y001382D01*
X021513Y001480D02*
X023976Y001480D01*
X023900Y001579D02*
X022953Y001579D01*
X022783Y001579D02*
X022683Y001579D01*
X022683Y001677D02*
X022783Y001677D01*
X022783Y001776D02*
X022683Y001776D01*
X022683Y001875D02*
X022783Y001875D01*
X022783Y001973D02*
X022683Y001973D01*
X022683Y002072D02*
X022783Y002072D01*
X022783Y002170D02*
X022683Y002170D01*
X022683Y002269D02*
X022783Y002269D01*
X022783Y002367D02*
X022683Y002367D01*
X022683Y002466D02*
X021716Y002466D01*
X021716Y002564D02*
X022193Y002564D01*
X022193Y002663D02*
X021716Y002663D01*
X021716Y002761D02*
X022193Y002761D01*
X022193Y002860D02*
X021716Y002860D01*
X021716Y002959D02*
X022203Y002959D01*
X022231Y003057D02*
X021709Y003057D01*
X021668Y003156D02*
X022285Y003156D01*
X022370Y003254D02*
X021627Y003254D01*
X021586Y003353D02*
X022524Y003353D01*
X022593Y003451D02*
X021507Y003451D01*
X021408Y003550D02*
X022495Y003550D01*
X023273Y002761D02*
X023283Y002761D01*
X023273Y002663D02*
X023382Y002663D01*
X023480Y002564D02*
X023273Y002564D01*
X023273Y002367D02*
X023677Y002367D01*
X023773Y002269D02*
X023273Y002269D01*
X023273Y002170D02*
X023773Y002170D01*
X023773Y002072D02*
X023273Y002072D01*
X023264Y001973D02*
X023773Y001973D01*
X023778Y001875D02*
X023236Y001875D01*
X023184Y001776D02*
X023818Y001776D01*
X023859Y001677D02*
X023101Y001677D01*
X022513Y001579D02*
X021589Y001579D01*
X021629Y001677D02*
X022365Y001677D01*
X022281Y001776D02*
X021670Y001776D01*
X021711Y001875D02*
X022229Y001875D01*
X022202Y001973D02*
X021716Y001973D01*
X021716Y002072D02*
X022193Y002072D01*
X022193Y002170D02*
X021716Y002170D01*
X021716Y002269D02*
X022193Y002269D01*
X022193Y002367D02*
X021716Y002367D01*
X022783Y002466D02*
X023579Y002466D01*
X020464Y001185D02*
X017151Y001185D01*
X017378Y001283D02*
X020236Y001283D01*
X020138Y001382D02*
X017477Y001382D01*
X017576Y001480D02*
X020039Y001480D01*
X019963Y001579D02*
X019016Y001579D01*
X018846Y001579D02*
X018746Y001579D01*
X018746Y001677D02*
X018846Y001677D01*
X018846Y001776D02*
X018746Y001776D01*
X018746Y001875D02*
X018846Y001875D01*
X018846Y001973D02*
X018746Y001973D01*
X018746Y002072D02*
X018846Y002072D01*
X018846Y002170D02*
X018746Y002170D01*
X018746Y002269D02*
X018846Y002269D01*
X018846Y002367D02*
X018746Y002367D01*
X018746Y002466D02*
X017779Y002466D01*
X017779Y002564D02*
X018256Y002564D01*
X018256Y002663D02*
X017779Y002663D01*
X017779Y002761D02*
X018256Y002761D01*
X018256Y002860D02*
X017779Y002860D01*
X017779Y002959D02*
X018266Y002959D01*
X018294Y003057D02*
X017772Y003057D01*
X017731Y003156D02*
X018348Y003156D01*
X018433Y003254D02*
X017690Y003254D01*
X017649Y003353D02*
X017816Y003353D01*
X017619Y003451D02*
X017570Y003451D01*
X017520Y003550D02*
X017471Y003550D01*
X017779Y002367D02*
X018256Y002367D01*
X018256Y002269D02*
X017779Y002269D01*
X017779Y002170D02*
X018256Y002170D01*
X018256Y002072D02*
X017779Y002072D01*
X017779Y001973D02*
X018265Y001973D01*
X018292Y001875D02*
X017774Y001875D01*
X017733Y001776D02*
X018344Y001776D01*
X018428Y001677D02*
X017692Y001677D01*
X017652Y001579D02*
X018576Y001579D01*
X019164Y001677D02*
X019922Y001677D01*
X019881Y001776D02*
X019247Y001776D01*
X019299Y001875D02*
X019841Y001875D01*
X019836Y001973D02*
X019327Y001973D01*
X019336Y002072D02*
X019836Y002072D01*
X019836Y002170D02*
X019336Y002170D01*
X019336Y002269D02*
X019836Y002269D01*
X019836Y002367D02*
X019336Y002367D01*
X019336Y002564D02*
X019830Y002564D01*
X019836Y002466D02*
X018846Y002466D01*
X019336Y002663D02*
X019804Y002663D01*
X019801Y002761D02*
X019336Y002761D01*
X019336Y002860D02*
X019710Y002860D01*
X019612Y002959D02*
X019326Y002959D01*
X019297Y003057D02*
X019513Y003057D01*
X019415Y003156D02*
X019243Y003156D01*
X019316Y003254D02*
X019158Y003254D01*
X016527Y001185D02*
X013214Y001185D01*
X013441Y001283D02*
X016299Y001283D01*
X016201Y001382D02*
X013540Y001382D01*
X013639Y001480D02*
X016102Y001480D01*
X016026Y001579D02*
X015079Y001579D01*
X014909Y001579D02*
X014809Y001579D01*
X014809Y001677D02*
X014909Y001677D01*
X014909Y001776D02*
X014809Y001776D01*
X014809Y001875D02*
X014909Y001875D01*
X014909Y001973D02*
X014809Y001973D01*
X014809Y002072D02*
X014909Y002072D01*
X014909Y002170D02*
X014809Y002170D01*
X014809Y002269D02*
X014909Y002269D01*
X014909Y002367D02*
X014809Y002367D01*
X014809Y002466D02*
X013842Y002466D01*
X013842Y002564D02*
X014319Y002564D01*
X014319Y002663D02*
X013842Y002663D01*
X013842Y002761D02*
X014319Y002761D01*
X014319Y002860D02*
X013842Y002860D01*
X013842Y002959D02*
X014329Y002959D01*
X014357Y003057D02*
X013835Y003057D01*
X013794Y003156D02*
X014411Y003156D01*
X014496Y003254D02*
X013753Y003254D01*
X013842Y002367D02*
X014319Y002367D01*
X014319Y002269D02*
X013842Y002269D01*
X013842Y002170D02*
X014319Y002170D01*
X014319Y002072D02*
X013842Y002072D01*
X013842Y001973D02*
X014328Y001973D01*
X014355Y001875D02*
X013837Y001875D01*
X013796Y001776D02*
X014407Y001776D01*
X014491Y001677D02*
X013755Y001677D01*
X013715Y001579D02*
X014639Y001579D01*
X015227Y001677D02*
X015985Y001677D01*
X015944Y001776D02*
X015310Y001776D01*
X015362Y001875D02*
X015904Y001875D01*
X015899Y001973D02*
X015390Y001973D01*
X015399Y002072D02*
X015899Y002072D01*
X015899Y002170D02*
X015399Y002170D01*
X015399Y002269D02*
X015899Y002269D01*
X015899Y002367D02*
X015399Y002367D01*
X015399Y002564D02*
X015847Y002564D01*
X015873Y002466D02*
X014909Y002466D01*
X015399Y002663D02*
X015791Y002663D01*
X015720Y002761D02*
X015399Y002761D01*
X015399Y002860D02*
X015649Y002860D01*
X015578Y002959D02*
X015389Y002959D01*
X015360Y003057D02*
X015507Y003057D01*
X015415Y003156D02*
X015306Y003156D01*
X015316Y003254D02*
X015221Y003254D01*
X012590Y001185D02*
X009277Y001185D01*
X009504Y001283D02*
X012362Y001283D01*
X012264Y001382D02*
X009603Y001382D01*
X009702Y001480D02*
X012165Y001480D01*
X012089Y001579D02*
X011142Y001579D01*
X010972Y001579D02*
X010872Y001579D01*
X010872Y001677D02*
X010972Y001677D01*
X010972Y001776D02*
X010872Y001776D01*
X010872Y001875D02*
X010972Y001875D01*
X010972Y001973D02*
X010872Y001973D01*
X010872Y002072D02*
X010972Y002072D01*
X010972Y002170D02*
X010872Y002170D01*
X010872Y002269D02*
X010972Y002269D01*
X010972Y002367D02*
X010872Y002367D01*
X010872Y002466D02*
X009905Y002466D01*
X009905Y002564D02*
X010382Y002564D01*
X010382Y002663D02*
X009905Y002663D01*
X009905Y002761D02*
X010382Y002761D01*
X010382Y002860D02*
X009905Y002860D01*
X009905Y002959D02*
X010392Y002959D01*
X010420Y003057D02*
X009898Y003057D01*
X009857Y003156D02*
X010474Y003156D01*
X010559Y003254D02*
X009816Y003254D01*
X009905Y002367D02*
X010382Y002367D01*
X010382Y002269D02*
X009905Y002269D01*
X009905Y002170D02*
X010382Y002170D01*
X010382Y002072D02*
X009905Y002072D01*
X009905Y001973D02*
X010391Y001973D01*
X010418Y001875D02*
X009900Y001875D01*
X009859Y001776D02*
X010470Y001776D01*
X010554Y001677D02*
X009818Y001677D01*
X009778Y001579D02*
X010702Y001579D01*
X011290Y001677D02*
X012048Y001677D01*
X012007Y001776D02*
X011373Y001776D01*
X011425Y001875D02*
X011967Y001875D01*
X011962Y001973D02*
X011453Y001973D01*
X011462Y002072D02*
X011962Y002072D01*
X011962Y002170D02*
X011462Y002170D01*
X011462Y002269D02*
X011962Y002269D01*
X011866Y002367D02*
X011462Y002367D01*
X011462Y002564D02*
X011669Y002564D01*
X011768Y002466D02*
X010972Y002466D01*
X011462Y002663D02*
X011571Y002663D01*
X011472Y002761D02*
X011462Y002761D01*
X008653Y001185D02*
X004094Y001185D01*
X004093Y001283D02*
X008425Y001283D01*
X008327Y001382D02*
X004093Y001382D01*
X004093Y001480D02*
X008228Y001480D01*
X008152Y001579D02*
X007205Y001579D01*
X007035Y001579D02*
X006935Y001579D01*
X006935Y001677D02*
X007035Y001677D01*
X007035Y001776D02*
X006935Y001776D01*
X006935Y001875D02*
X007035Y001875D01*
X007035Y001973D02*
X006935Y001973D01*
X006935Y002072D02*
X007035Y002072D01*
X007035Y002170D02*
X006935Y002170D01*
X006935Y002269D02*
X007035Y002269D01*
X007035Y002367D02*
X006935Y002367D01*
X006935Y002466D02*
X005078Y002466D01*
X005078Y002367D02*
X004978Y002367D01*
X004978Y002269D02*
X005078Y002269D01*
X005078Y002170D02*
X004978Y002170D01*
X004978Y002072D02*
X005078Y002072D01*
X005078Y001973D02*
X004978Y001973D01*
X004978Y001875D02*
X005078Y001875D01*
X005078Y001776D02*
X004978Y001776D01*
X004978Y001677D02*
X005078Y001677D01*
X005078Y001579D02*
X004978Y001579D01*
X004808Y001579D02*
X004093Y001579D01*
X004092Y001677D02*
X004660Y001677D01*
X004576Y001776D02*
X004092Y001776D01*
X004092Y001875D02*
X004524Y001875D01*
X004497Y001973D02*
X004091Y001973D01*
X004091Y002072D02*
X004488Y002072D01*
X004488Y002170D02*
X004091Y002170D01*
X004091Y002269D02*
X004488Y002269D01*
X004488Y002367D02*
X004090Y002367D01*
X004090Y002466D02*
X004978Y002466D01*
X004488Y002564D02*
X004090Y002564D01*
X004089Y002663D02*
X004488Y002663D01*
X004488Y002761D02*
X004089Y002761D01*
X004089Y002860D02*
X004488Y002860D01*
X004498Y002959D02*
X004089Y002959D01*
X004088Y003057D02*
X004526Y003057D01*
X004580Y003156D02*
X004088Y003156D01*
X004088Y003254D02*
X004665Y003254D01*
X004316Y003353D02*
X004088Y003353D01*
X004087Y003451D02*
X004119Y003451D01*
X005390Y003254D02*
X006622Y003254D01*
X006537Y003156D02*
X005475Y003156D01*
X005529Y003057D02*
X006483Y003057D01*
X006455Y002959D02*
X005558Y002959D01*
X005568Y002860D02*
X006445Y002860D01*
X006445Y002761D02*
X005568Y002761D01*
X005568Y002663D02*
X006445Y002663D01*
X006445Y002564D02*
X005568Y002564D01*
X005568Y002367D02*
X006445Y002367D01*
X006445Y002269D02*
X005568Y002269D01*
X005568Y002170D02*
X006445Y002170D01*
X006445Y002072D02*
X005568Y002072D01*
X005559Y001973D02*
X006454Y001973D01*
X006481Y001875D02*
X005531Y001875D01*
X005479Y001776D02*
X006533Y001776D01*
X006617Y001677D02*
X005396Y001677D01*
X005248Y001579D02*
X006765Y001579D01*
X007353Y001677D02*
X008111Y001677D01*
X008070Y001776D02*
X007436Y001776D01*
X007488Y001875D02*
X008030Y001875D01*
X008025Y001973D02*
X007516Y001973D01*
X007525Y002072D02*
X008025Y002072D01*
X008025Y002170D02*
X007525Y002170D01*
X007525Y002269D02*
X008025Y002269D01*
X007929Y002367D02*
X007525Y002367D01*
X007525Y002564D02*
X007732Y002564D01*
X007831Y002466D02*
X007035Y002466D01*
X007525Y002663D02*
X007633Y002663D01*
X007535Y002761D02*
X007525Y002761D01*
X004094Y001086D02*
X037454Y001086D01*
X037453Y000988D02*
X004094Y000988D01*
X028962Y001185D02*
X032275Y001185D01*
X032047Y001283D02*
X029189Y001283D01*
X029288Y001382D02*
X031949Y001382D01*
X031850Y001480D02*
X029387Y001480D01*
X029463Y001579D02*
X030387Y001579D01*
X030400Y001573D02*
X030480Y001546D01*
X030557Y001534D01*
X030557Y002413D01*
X030657Y002413D01*
X030657Y002513D01*
X031147Y002513D01*
X031147Y002895D01*
X031134Y002979D01*
X031107Y003060D01*
X031069Y003136D01*
X031019Y003205D01*
X030959Y003265D01*
X030890Y003315D01*
X030814Y003353D01*
X030733Y003380D01*
X030657Y003392D01*
X030657Y002513D01*
X030557Y002513D01*
X030557Y003392D01*
X030480Y003380D01*
X030400Y003353D01*
X030324Y003315D01*
X030255Y003265D01*
X030195Y003205D01*
X030145Y003136D01*
X030106Y003060D01*
X030080Y002979D01*
X030067Y002895D01*
X030067Y002513D01*
X030557Y002513D01*
X030557Y002413D01*
X030067Y002413D01*
X030067Y002030D01*
X030080Y001946D01*
X030106Y001866D01*
X030145Y001790D01*
X030195Y001721D01*
X030255Y001661D01*
X030324Y001611D01*
X030400Y001573D01*
X030557Y001579D02*
X030657Y001579D01*
X030657Y001534D02*
X030733Y001546D01*
X030814Y001573D01*
X030890Y001611D01*
X030959Y001661D01*
X031019Y001721D01*
X031069Y001790D01*
X031107Y001866D01*
X031134Y001946D01*
X031147Y002030D01*
X031147Y002413D01*
X030657Y002413D01*
X030657Y001534D01*
X030657Y001677D02*
X030557Y001677D01*
X030557Y001776D02*
X030657Y001776D01*
X030657Y001875D02*
X030557Y001875D01*
X030557Y001973D02*
X030657Y001973D01*
X030657Y002072D02*
X030557Y002072D01*
X030557Y002170D02*
X030657Y002170D01*
X030657Y002269D02*
X030557Y002269D01*
X030557Y002367D02*
X030657Y002367D01*
X030657Y002466D02*
X031647Y002466D01*
X031647Y002564D02*
X031147Y002564D01*
X031147Y002663D02*
X031647Y002663D01*
X031647Y002761D02*
X031147Y002761D01*
X031147Y002860D02*
X031647Y002860D01*
X031612Y002959D02*
X031137Y002959D01*
X031108Y003057D02*
X031513Y003057D01*
X031415Y003156D02*
X031054Y003156D01*
X030969Y003254D02*
X031316Y003254D01*
X031217Y003353D02*
X030815Y003353D01*
X030657Y003353D02*
X030557Y003353D01*
X030557Y003254D02*
X030657Y003254D01*
X030657Y003156D02*
X030557Y003156D01*
X030557Y003057D02*
X030657Y003057D01*
X030657Y002959D02*
X030557Y002959D01*
X030557Y002860D02*
X030657Y002860D01*
X030657Y002761D02*
X030557Y002761D01*
X030557Y002663D02*
X030657Y002663D01*
X030657Y002564D02*
X030557Y002564D01*
X030557Y002466D02*
X029590Y002466D01*
X029590Y002564D02*
X030067Y002564D01*
X030067Y002663D02*
X029590Y002663D01*
X029590Y002761D02*
X030067Y002761D01*
X030067Y002860D02*
X029590Y002860D01*
X029590Y002959D02*
X030077Y002959D01*
X030105Y003057D02*
X029583Y003057D01*
X029542Y003156D02*
X030159Y003156D01*
X030244Y003254D02*
X029501Y003254D01*
X029460Y003353D02*
X030398Y003353D01*
X031020Y003550D02*
X029282Y003550D01*
X029381Y003451D02*
X031119Y003451D01*
X031147Y002367D02*
X031647Y002367D01*
X031647Y002269D02*
X031147Y002269D01*
X031147Y002170D02*
X031647Y002170D01*
X031647Y002072D02*
X031147Y002072D01*
X031138Y001973D02*
X031647Y001973D01*
X031652Y001875D02*
X031110Y001875D01*
X031059Y001776D02*
X031692Y001776D01*
X031733Y001677D02*
X030975Y001677D01*
X030827Y001579D02*
X031774Y001579D01*
X032899Y001185D02*
X036212Y001185D01*
X035984Y001283D02*
X033126Y001283D01*
X033225Y001382D02*
X035886Y001382D01*
X035787Y001480D02*
X033324Y001480D01*
X033400Y001579D02*
X034324Y001579D01*
X034337Y001573D02*
X034417Y001546D01*
X034494Y001534D01*
X034494Y002413D01*
X034594Y002413D01*
X034594Y002513D01*
X035084Y002513D01*
X035084Y002895D01*
X035071Y002979D01*
X035044Y003060D01*
X035006Y003136D01*
X034956Y003205D01*
X034896Y003265D01*
X034827Y003315D01*
X034751Y003353D01*
X034670Y003380D01*
X034594Y003392D01*
X034594Y002513D01*
X034494Y002513D01*
X034494Y003392D01*
X034417Y003380D01*
X034337Y003353D01*
X034261Y003315D01*
X034192Y003265D01*
X034132Y003205D01*
X034082Y003136D01*
X034043Y003060D01*
X034017Y002979D01*
X034004Y002895D01*
X034004Y002513D01*
X034494Y002513D01*
X034494Y002413D01*
X034004Y002413D01*
X034004Y002030D01*
X034017Y001946D01*
X034043Y001866D01*
X034082Y001790D01*
X034132Y001721D01*
X034192Y001661D01*
X034261Y001611D01*
X034337Y001573D01*
X034494Y001579D02*
X034594Y001579D01*
X034594Y001534D02*
X034670Y001546D01*
X034751Y001573D01*
X034827Y001611D01*
X034896Y001661D01*
X034956Y001721D01*
X035006Y001790D01*
X035044Y001866D01*
X035071Y001946D01*
X035084Y002030D01*
X035084Y002413D01*
X034594Y002413D01*
X034594Y001534D01*
X034594Y001677D02*
X034494Y001677D01*
X034494Y001776D02*
X034594Y001776D01*
X034594Y001875D02*
X034494Y001875D01*
X034494Y001973D02*
X034594Y001973D01*
X034594Y002072D02*
X034494Y002072D01*
X034494Y002170D02*
X034594Y002170D01*
X034594Y002269D02*
X034494Y002269D01*
X034494Y002367D02*
X034594Y002367D01*
X034594Y002466D02*
X035584Y002466D01*
X035584Y002564D02*
X035084Y002564D01*
X035084Y002663D02*
X035584Y002663D01*
X035584Y002761D02*
X035084Y002761D01*
X035084Y002860D02*
X035584Y002860D01*
X035584Y002959D02*
X035074Y002959D01*
X035045Y003057D02*
X035591Y003057D01*
X035632Y003156D02*
X034991Y003156D01*
X034906Y003254D02*
X035673Y003254D01*
X035713Y003353D02*
X034752Y003353D01*
X034594Y003353D02*
X034494Y003353D01*
X034494Y003254D02*
X034594Y003254D01*
X034594Y003156D02*
X034494Y003156D01*
X034494Y003057D02*
X034594Y003057D01*
X034594Y002959D02*
X034494Y002959D01*
X034494Y002860D02*
X034594Y002860D01*
X034594Y002761D02*
X034494Y002761D01*
X034494Y002663D02*
X034594Y002663D01*
X034594Y002564D02*
X034494Y002564D01*
X034494Y002466D02*
X033527Y002466D01*
X033527Y002564D02*
X034004Y002564D01*
X034004Y002663D02*
X033527Y002663D01*
X033527Y002761D02*
X034004Y002761D01*
X034004Y002860D02*
X033527Y002860D01*
X033527Y002959D02*
X034014Y002959D01*
X034042Y003057D02*
X033520Y003057D01*
X033479Y003156D02*
X034096Y003156D01*
X034181Y003254D02*
X033438Y003254D01*
X033397Y003353D02*
X034335Y003353D01*
X033321Y003451D02*
X035619Y003451D01*
X035520Y003550D02*
X033281Y003550D01*
X033527Y002367D02*
X034004Y002367D01*
X034004Y002269D02*
X033527Y002269D01*
X033527Y002170D02*
X034004Y002170D01*
X034004Y002072D02*
X033527Y002072D01*
X033527Y001973D02*
X034013Y001973D01*
X034041Y001875D02*
X033522Y001875D01*
X033481Y001776D02*
X034092Y001776D01*
X034176Y001677D02*
X033440Y001677D01*
X034764Y001579D02*
X035711Y001579D01*
X035670Y001677D02*
X034912Y001677D01*
X034996Y001776D02*
X035629Y001776D01*
X035589Y001875D02*
X035047Y001875D01*
X035075Y001973D02*
X035584Y001973D01*
X035584Y002072D02*
X035084Y002072D01*
X035084Y002170D02*
X035584Y002170D01*
X035584Y002269D02*
X035084Y002269D01*
X035084Y002367D02*
X035584Y002367D01*
X036836Y001185D02*
X037455Y001185D01*
X037457Y001283D02*
X037064Y001283D01*
X037162Y001382D02*
X037458Y001382D01*
X037459Y001480D02*
X037261Y001480D01*
X037337Y001579D02*
X037461Y001579D01*
X037462Y001677D02*
X037377Y001677D01*
X037418Y001776D02*
X037463Y001776D01*
X037459Y001875D02*
X037465Y001875D01*
X037464Y001973D02*
X037466Y001973D01*
X037464Y002072D02*
X037467Y002072D01*
X037464Y002170D02*
X037469Y002170D01*
X037464Y002269D02*
X037470Y002269D01*
X037464Y002367D02*
X037471Y002367D01*
X037464Y002466D02*
X037473Y002466D01*
X037464Y002564D02*
X037474Y002564D01*
X037464Y002663D02*
X037475Y002663D01*
X037464Y002761D02*
X037477Y002761D01*
X037464Y002860D02*
X037478Y002860D01*
X037464Y002959D02*
X037479Y002959D01*
X037481Y003057D02*
X037457Y003057D01*
X037482Y003156D02*
X037416Y003156D01*
X037401Y003254D02*
X037483Y003254D01*
X037485Y003353D02*
X037401Y003353D01*
X037401Y003451D02*
X037486Y003451D01*
X037487Y003550D02*
X037401Y003550D01*
X030239Y001677D02*
X029503Y001677D01*
X029544Y001776D02*
X030155Y001776D01*
X030104Y001875D02*
X029585Y001875D01*
X029590Y001973D02*
X030076Y001973D01*
X030067Y002072D02*
X029590Y002072D01*
X029590Y002170D02*
X030067Y002170D01*
X030067Y002269D02*
X029590Y002269D01*
X029590Y002367D02*
X030067Y002367D01*
X007601Y031851D02*
X007351Y032101D01*
D27*
X016101Y034101D02*
X018101Y034101D01*
X018101Y035101D02*
X018101Y036601D01*
M02*
